<?xml version="1.0" encoding="utf-8"?>
<!-- Generator: Adobe Illustrator 25.1.0, SVG Export Plug-In . SVG Version: 6.00 Build 0)  -->
<svg version="1.1" id="Calque_1" xmlns="http://www.w3.org/2000/svg" xmlns:xlink="http://www.w3.org/1999/xlink" x="0px" y="0px"
	 viewBox="0 0 123.5 212.7" style="enable-background:new 0 0 123.5 212.7;" xml:space="preserve">
<style type="text/css">
	.st0{fill:#E83C4C;}
</style>
<g>
	<polygon class="st0" points="93.9,47.8 93.9,47.8 93.9,47.8 	"/>
	<path class="st0" d="M66.3,89.2l-0.2,0l0.1,3.5C67.3,89.6,67.4,89.5,66.3,89.2z"/>
	<path class="st0" d="M53,166.5c-0.1-0.1-0.2-0.3-0.3-0.5C52.7,166.4,52.7,166.8,53,166.5z"/>
	<polygon class="st0" points="52.7,166 52.7,165.9 52.6,165.9 	"/>
	<polygon class="st0" points="53,166.5 53,166.5 53,166.5 	"/>
	<path class="st0" d="M54.4,173.4c0,0.4,0.3,0.9,0.4,0.9c0,0,0.1-0.7,0.1-1.2l-0.2-2.1c-0.1-1.6-0.2-2.3-0.4-2
		c-0.2-1.7-0.2-0.6-0.2,0.1C54.1,170.4,54.2,171.9,54.4,173.4z"/>
	<path class="st0" d="M55.3,175c0.1,0.4,0.3-0.6,0.5,1.6c0,0.6-0.1,1.5,0.3,2.4c0.1,0.3-0.2-4-0.2-4.7l0-0.5
		c-0.1-1.5-0.1,0.2-0.4-0.6c-0.1-0.3-0.3-0.5-0.3-0.3C55.2,173.4,55.2,174.3,55.3,175z"/>
	<path class="st0" d="M56.9,165.5c-0.2-0.5-0.7-1.8-1-2.4c-0.2-0.4-0.4-0.8-0.6-1.2c-0.1-0.1,0.1,0.4,0.1,0.4s-0.1,0,0,0.2
		c0.2,0.4,0.4,1.1,0.6,1.5l0.9,1.8C57,165.9,57,165.7,56.9,165.5z"/>
	<path class="st0" d="M55.1,168c-0.1-0.8-0.1-1.9-0.2-2.2c-0.1-0.1-0.1,0.5-0.2,0.8c0.1,0.7,0.2,1.3,0.3,1.9
		C55.1,168.5,55.1,168.2,55.1,168z"/>
	<path class="st0" d="M57.8,182c0.1,0.3,0.4,0.5,0.4,0.5l-0.7-4.5c-0.1,0.1-0.2,0-0.2,0.2l0.1,1.5l0.2,0.6c0,0.3-0.1,0.4,0,0.8
		C57.7,181.3,57.8,181.8,57.8,182z"/>
	<path class="st0" d="M3.9,105.3c0.2,0.8,0.1,1.7,0.8,2.5c1.1,1.2,0.4-0.7,0.4-1.4l0.1-0.9c0-0.4,0.9,0.3,0.2-1
		c-0.6-1.1-1.4-1.8-2.2-2.7l-0.1,0c0,0.3,0.1,0.6,0.1,0.8C3.4,103.6,3.7,104.4,3.9,105.3z"/>
	<path class="st0" d="M20.6,113.5c0.5,0.7,1.2,1.5,1.9,2.5c0.2,0.2,0.4,0.1,0.4-0.2c0-0.3-0.4-1.2-0.5-1.3c-0.6-0.6-1.1-1.3-1.6-2.4
		c-0.4-0.8-0.9-2.3-1.4-1.8C19.1,110.9,20.1,112.1,20.6,113.5z"/>
	<path class="st0" d="M40.5,139.7c0.4,0.6,1.1,1.7,1.9,2.9c0,0.1,0.1-0.1,0.2-0.1l-2.4-4.5c-0.2-0.4-0.6-0.6-0.8-0.9l0.5,1.3
		C40,138.7,40,138.8,40.5,139.7z"/>
	<path class="st0" d="M30,118.4c-0.1-0.3-0.1-0.6-0.2-0.8c-0.7-1.7-1.6-2.7-2.5-2.8c0,0,0.2,0.7,0.3,0.9
		C28.3,116.5,29.2,117.5,30,118.4z"/>
	<path class="st0" d="M15.7,111.3c0.6,0.4,1,0.7,1.5,0.9c0.8,0.6,0-1.3,0.5-1.1c-0.1-0.2-0.3-0.6-0.3-0.6c-0.6-0.2-1.2-0.4-1.8-0.4
		C15.5,110,15.6,110.7,15.7,111.3z"/>
	<path class="st0" d="M25.8,115.7c-0.1-0.1-0.2,0.1-0.2,0.1c-0.2,0.1-0.4,0.1-0.5,0.3c0,0.2,0.1,0.7,0.2,1.1
		c0.2,0.3,0.6,0.8,0.7,0.8c0.3,0,0.5-0.1,0.6-0.3c0.1-0.2,0-0.8-0.1-1.2L25.8,115.7z"/>
	<path class="st0" d="M61.2,110.5c0.1-1.1,0.2-2.3,0.4-3.3c0.3-1.2,0.2-3.2,0.9-3.5c0.2-0.1,0.2,1.7,0.3,2.6l0.2,0.7
		c0.1-0.5,0.3-0.9,0.4-1.4c0.5-1.5-0.4-2.3,0.4-3.9c0.7-1.4,0-2.6,0.5-4.3c0.3-1.1,0.7-2.9,0.4-4.1c0-0.1,0.1-0.5,0.2-0.7l0.5-1.9
		c-0.3,0.2-0.7,0.3-1,0.7c-0.3,0.3-1,4.3-1,4.9c0,1.1,0.1,2.2,0.1,3.2c0,1.2-0.6,2.7-1.1,2.9c0,0-0.2-0.6-0.1-0.8
		c0.2-0.8,0.4-1.6,0.6-2.4c0.1-0.3,0-0.7,0.1-1c-0.2,0.2-0.4,0.3-0.5,0.7c-0.6,1.5-0.8,4-1.7,4.9c-0.1,0.1-0.2,0.7-0.2,1
		c0,0.3,0,0.7,0,0.9c0.4,1.4,0.2,2.5-0.6,3.4c-0.2,0.2-0.5-0.4-0.4,1c0,0.8,0,1.7,0.1,2.3c0.1,0.3,0.3,0.2,0.5,0.2
		C60.6,112.4,61.1,112.6,61.2,110.5z"/>
	<path class="st0" d="M78.5,144.9c0.3,0,0.7,0.7,0.9,1.5c0.2,0.6,0.2,1.8,0.2,2.9c-0.7,1-0.2,4.3-1.3,4.7c-0.3,0.1-0.3,2.2-0.8,0.9
		c-0.3-0.7-0.8-0.5-0.7-2.2c0-0.7-0.1-1.5-0.2-2.2c0.7-0.5,0.1-3.2,0.9-3.7C77.9,146.6,78.2,144.9,78.5,144.9z M78.5,148
		c-0.2-0.3-1.2,1.9-1.1,2.5c0.1,0.7,0.3,1.4,0.6,1.7c0.4,0.3,0.7-1.1,1-3.1C78.8,148.8,78.7,148.2,78.5,148z"/>
	<path class="st0" d="M71,62.8c0.3-1.1,0.5-1.8,0.1-1.8c-0.2,0-0.5-0.1-0.7-0.2c-0.1-0.1-0.1-0.4-0.1-0.6c0.2-0.1,0.4-0.5,0.4-0.4
		c0.5,1.2,1.3-1.5,1.9-2.2c0.1-0.7,0.3-1.9,0.2-2c-0.5-0.3-2,2-2.6,3.8c-0.2,0.5-0.5,1.3-0.5,1.6c0,1.6-0.2,2-0.8,1.8
		c-0.1-0.1-0.4,0.3-0.6,0.4c0.1,0.2,0.3,0.3,0.3,0.7c0,0.7-0.2,1.9,0,2.3C68.9,66.9,70.5,64.7,71,62.8z"/>
	<path class="st0" d="M116.9,3c0.1-0.4-0.3-0.6,0.4-1.7c0,0-0.1-0.4-0.2-0.4l-2.5,2.6c-0.1,0.1-0.1,0.5-0.2,0.8
		c-0.8,1.4,1.6-0.9,0.1,1.5c-0.4,0.6-0.2,1.4-0.3,2.2c-0.3,1.1-0.5,2.1-0.8,3.1c0,0.2,0.2,0.1,0.3,0.2c0.2-0.2,0.4-0.3,0.6-0.6
		c0.2-0.2,0.5-0.7,0.5-0.9l0.6-3.4C117.3,4.8,116.6,4,116.9,3z"/>
	<path class="st0" d="M56.6,163.1c0.5,0.4,0.8,0.4,1.6,1.3c0.2,0.2,0.4,0.1,0.7,0c-0.3-0.6-0.5-0.9-0.7-1.2
		c-0.1-0.1-0.4-0.3-0.5-0.3c-0.7-0.1-1.4-0.4-2-1c-0.3-0.3-0.2-0.2,0,0.2l0.6,0.9L56.6,163.1z"/>
	<path class="st0" d="M111.3,16.3c0.1,0.1,0.2,0.1,0.3,0.2c0.3,0.2,0.4,0.7,1.4-0.8c0.1-0.2,0.6-0.1,1-0.2c0.1-0.1,0.6-0.6,0.6-0.6
		c0.2-1,1.1-2.8,0.2-2.7c-0.6,0-1.3,0.1-2,0.4C112.4,12.8,111,15.9,111.3,16.3z"/>
	<path class="st0" d="M84.9,79.1l0,0.4c0.9,0.8,0.3,4,0.4,6.1c0,1,0.2,1,0.6,0.4c0.8-1.3,1-2.3,0.7-3.7c-0.1-0.6-0.3-1.1-0.3-1.8
		c0-1.3-0.3-1.9-0.8-1.7c-0.1,0-0.2-0.1-0.4-0.1C85.1,78.7,85,79,84.9,79.1z"/>
	<path class="st0" d="M58.1,129c-0.3-1.5-0.1-2.5,0.4-4.2c0.4-1.4-0.2-1.3-0.5-1.4c0.3-2.6,0.8-3.5,1.6-3.3c0.8,0.2,0.9-0.8,0.6-2.5
		c-0.1-0.4,0.1-1,0.1-1.5c0-0.5-0.1-1.1-0.1-1.6l-0.6,1.2c-0.6,1.5-0.8,3.8-1.8,4.4c-0.4,0.3-0.7,2.9-0.3,4.3l-0.5,2.4
		c-0.4,1.9-0.3,3.6,0.1,4.2c0.2,0.3,0.6,0.2,0.8-0.2C58,130.8,58.1,129.4,58.1,129z"/>
	<path class="st0" d="M108.6,6.1c0.1-0.5,0.5-1.3,0.4-1.5c-0.2-0.3-0.2-1-1.1,0c-0.5,0.5-1.1,1.8-0.8,0.4c0.1-0.3,0-0.6-0.2-0.6
		c-0.4,0-0.2-1.1-1.2,0.2c-0.7,1-1,2.4-0.5,2.6l2.2-0.5C107.8,6.5,108.2,6.3,108.6,6.1z"/>
	<path class="st0" d="M98,9.6c-0.3,1.1-0.9,2-1.6,3.2c-0.3,0.5-0.5,1.1-0.7,1.6l1-0.7c1-0.9,1.9-1.8,2.8-2.6
		c0.2-0.2,0.7-0.9,0.8-1.2c0.1-0.3,0-0.6-0.2-0.6c-0.3,0.1-0.8,0.6-1.2,0.9c0.1-0.7,0.2-1.2,0.2-1.5C99.2,8.1,98.2,8.9,98,9.6z"/>
	<path class="st0" d="M68.2,70.1c0.1-0.5,0.2-1.4,0.2-1.4c-0.4-0.2-0.8-0.1-0.8-1.4c-0.4,0.7-0.8,1.5-1.3,2.3c0.4,1-0.8,2.5-0.5,3.4
		c0,0.2,0,0.8,0.1,0.8C66.4,73.9,67.8,71.8,68.2,70.1z"/>
	<path class="st0" d="M102.8,33.1c-0.3,1.1-0.7,1.2-1,1.6c-0.5,1.1-0.1,1.8,0.5,1.4l1.3-1c0.1-0.2,0.2-0.4,0.2-0.4
		c-0.5-0.7,0.2-2.1,1.1-3.6l-0.3-0.2C103.7,30.4,103.6,30.5,102.8,33.1z"/>
	<path class="st0" d="M66.5,80.5c-0.2-0.2-0.4-0.7-0.5-0.5c-0.7,1.4-1,0.3-1.5,0.6c-0.4,0.2-0.8,0.7-1.2,1.3c-0.1,0.2-0.3,1-0.3,1.5
		c0,0.2,0.1,0.3,0.3,0.6c0.8-0.5,1.7-1,2.6-1.7C66,82.2,66.2,81.1,66.5,80.5z"/>
	<path class="st0" d="M94.7,51.3c-0.2,0.5-0.6,1.1-0.9,1.5c-0.6,0.8-1.2,1.6-0.5,1.9c0,0,0,0.2,0,0.4l-0.6,2.5
		c0.3-0.8,0.6-1.6,0.9-2.2c0.4-0.7,0.9-1.4,1.4-2.2c0.2-0.3,0.5-0.7,0.9-1.3c-0.1-0.5-0.3-0.7-0.3-1.2c0-0.6,0-1.3-0.5-0.7
		C95,50,94.9,50.9,94.7,51.3z"/>
	<path class="st0" d="M98.4,45c0.5,0.5,0,1.4-0.4,2.5c-0.1,0.3,0,0.6,0,1c0.3-0.3,0.7-0.6,0.8-1c1-2.4,1.2-4.6,0.3-5.3
		c-0.1-0.1-0.3,0.2-0.6,0.4C98.4,43.4,98.1,44.8,98.4,45z"/>
	<path class="st0" d="M103.2,36c-1.2,2-1.9,4-1.8,5.5c0,0.2,0.1,0.3,0.1,0.4c0.2-0.2,0.4-0.3,0.6-0.6c0.2-0.3,0.5-0.8,0.5-0.9
		c-0.1-1.3,0.6-2.7,1.5-4.3c0.1-0.2,0.1-0.7,0-0.8C103.9,34.9,103.7,35.3,103.2,36z"/>
	<path class="st0" d="M80.1,101.2c-0.2,0.3-0.3,0.9-0.5,1.4l0.8,1.4c0.3-0.1,1.1-2.4,1.1-3.1l-0.1-2.6c0-0.2-0.1-0.4-0.1-0.6
		c-0.1,0.3-0.2,0.6-0.3,0.8C80.8,99.5,80.6,100.5,80.1,101.2z"/>
	<path class="st0" d="M96.4,51.3c-0.3,0.8-0.4,1.1-0.6,1.4c-0.5,1.2-0.7,2.4-0.3,2.3c0.4,0,1.1-1.2,1.5-2.5c0.1-0.4,0.2-0.9,0.2-1.2
		c0-0.4-0.1-0.9-0.3-0.9C96.9,50.4,96.5,51.2,96.4,51.3z"/>
	<path class="st0" d="M81.6,111.5c0,0.5,0.2,0.8,0.2,1.2l0.3-0.5c0.6-1.3,0.9-2.5,0.6-3.9c-0.1-0.4-0.3-0.6-0.5-0.8
		c-0.1,0.5-0.3,1-0.4,1.5C81.7,109.8,81.6,110.7,81.6,111.5z"/>
	<path class="st0" d="M78.1,156.9c0,2,0,2.9-0.5,5.4c0,0.2,0,1.1,0.1,1.7c0.1-0.2,0.2-0.5,0.3-0.6c0.3-0.3,0.5-1,0.7-2
		c0.1-0.7,0.2-1.3,0.1-2.2c0-0.8,0.1-1.5,0-2.2c0-0.3-0.3-0.5-0.4-0.6C78.3,156.4,78.1,156.7,78.1,156.9z"/>
	<path class="st0" d="M104.3,11.7c-0.4,0.8-0.5,1.5-0.7,2.2l1.8-1.5c0.6-1,1.7-2.5,0.5-1.9C105.5,10.8,105.1,10,104.3,11.7z"/>
	<path class="st0" d="M55.8,160.7c-0.3,0-0.5,0-0.8,0l0.7,0.3c0.3,0.1,0.6,0.2,0.7,0.1C56.6,161.1,56,160.7,55.8,160.7z"/>
	<path class="st0" d="M77.4,112.2c0.1-0.2,0.3-0.3,0.3-0.5l0.2-1.5c0.1-0.9,1-1.7,0.5-2.7c-0.1-0.1-0.2-0.4-0.2-0.4
		c-0.5,0.7-0.9,1.5-1,2.9c0,0.7-0.1,1.3-0.1,1.9C77.1,112.1,77.3,112.1,77.4,112.2z"/>
	<path class="st0" d="M78.9,117.6c0,0.9,0,1.8,0,2.8c0,0.3,0.1,0.5,0.2,0.8c0.1-0.3,0.2-0.5,0.3-0.8l0.3-2.6l0.1-0.5l0.1-2.4
		C79.4,115.5,79,116.1,78.9,117.6z"/>
	<path class="st0" d="M112.1,18.4l0.1,2.3c0,0,0.4-0.4,0.8-0.8c0.2-0.7,0.5-1.6,0.5-2c0-0.4-0.5-0.2-0.9-0.2L112.1,18.4z"/>
	<path class="st0" d="M80.3,118.8c0,0.5,0.2,0.8,0.2,1.2l0.3,1c0.1-0.6,0.3-1.2,0.3-1.3c0.1-1,0.3-1.7,0.2-2
		c-0.1-0.4-0.3-0.7-0.4-0.9c-0.1-0.1-0.5,0.1-0.5,0.3C80.3,117.6,80.3,118.3,80.3,118.8z"/>
	<path class="st0" d="M109.6,6.7c-0.1,0.1,0,0.5,0,0.9c0.3-0.1,0.6,0,0.9-0.3c0.5-0.4,1-1.1,1.5-1.6c0,0,0.2-0.6,0.1-0.6
		c-0.4,0.1-0.9,0.1-1.4,0.4C110.4,5.7,109.9,6.2,109.6,6.7z"/>
	<path class="st0" d="M123,0.4c-0.9,1-1.7,2-2.6,3c-0.2,0.2-0.3,0.6-0.5,0.9c0,0.1,0,0.2,0,0.2c0.6-0.2,2.5-2.4,3.2-3.6l0.4-0.9
		C123.3,0.1,123.2,0.2,123,0.4z"/>
	<path class="st0" d="M119.2,2.9l-0.3,0.3c-0.5,1.4-1,2.6-1.5,3.9c-0.1,0.2,0.1,0.2,0.3,0.2c0.1,0,0.4-0.4,0.5-0.5l1.3-2.6
		C120.2,2.6,119.4,3.3,119.2,2.9z"/>
	<path class="st0" d="M83.5,32.5c0.3-0.9,0.5-1.5,0.8-2.3c0.1-0.3,0-0.4,0-0.7l-2,3.3c0.2,0.2,0.4,0.5,0.7,0.8c0,0,0.4-0.3,0.7-0.5
		C83.7,32.9,83.4,32.8,83.5,32.5z"/>
	<path class="st0" d="M82.1,102.6c-0.1,1-0.2,1.5-0.2,2c0,0.1,0.1,0.4,0.1,0.4l0.3-0.5c0.7-1,0.8-2.7,1-4.2c-0.1,0-0.3-0.1-0.4,0.1
		C82.5,101.3,82.3,102.1,82.1,102.6z"/>
	<path class="st0" d="M64.3,212.4c0.6,0.2,0.8,0.3,1.1,0.3c1.5-0.1,3.2-0.6,3.7-1.4c0.1-0.2-0.1-0.2-0.2-0.3
		C67.7,211.7,66,212.2,64.3,212.4z"/>
	<path class="st0" d="M116.1,12l1.2-1c0.1-0.3,0.2-0.9,0.2-0.9l-1.6,1.1C116,11.3,116.1,11.6,116.1,12z"/>
	<path class="st0" d="M55.2,164.1c0-0.2-0.1-0.5-0.1-0.8c0-0.1-0.1-0.3-0.1-0.4c-0.1-0.4,0,0.4,0.1,1.3c0,0.1,0,0.4,0,0.4l0.1,0.5
		L55.2,164.1z"/>
	<path class="st0" d="M62.2,88.4c-0.2,0.1-0.6,0.6-0.7,1c-0.2,0.7-0.2,1.4-0.2,2.2c0.3-0.6,0.6-1.1,1.3-2.4
		C62.5,88.8,62.4,88.3,62.2,88.4z"/>
	<path class="st0" d="M76.8,191.1c0.4-0.8,0.6-1.1,0.7-1.4c0.2-0.8,0.7-1.8,0.4-2.5c-0.1-0.2-0.4,0-0.6,0.1
		C77.1,188.3,77,189.4,76.8,191.1z"/>
	<path class="st0" d="M57.9,167.8c0-0.2,0-0.3,0-0.6c-0.1-0.2-0.3-0.7-0.4-1c-0.1-0.2-0.3-0.4-0.3-0.4c0,0.3,0,0.8-0.4,0.1
		c0,0,0.1,0.3,0.1,0.4l0.3,0.6C57.8,168.3,58,168.6,57.9,167.8z"/>
	<path class="st0" d="M57.3,152.4c-0.1-0.4-0.3-0.7-0.5-0.8c-0.1-0.1-0.5,0.1-0.5,0.3c0,0.6,0,1.3,0.1,1.9c0.1,0.5,0.2,0.8,0.3,1.2
		L57,156c0.1-0.6,0.2-1.3,0.2-1.4C57.2,153.5,57.3,152.8,57.3,152.4z"/>
	<path class="st0" d="M74.9,56.1c0,0,0.6-1.6,0.8-2.1c0.4-0.7,0.8-0.5,1.1-1.1c0.6-1.2,0.2-1.2,0.2-1.7c0-0.2,0-1.8,0-2
		c-0.1-0.6-0.9-0.4-1.3,1.2c-0.5,1.7,0.4,0.8,0.1,2c-0.4,1.8-2.9,3.5-1.2,3.7L74.9,56.1z"/>
	<path class="st0" d="M76.7,46l-0.1,0.2c0.4-0.2,0.8-1.1,1.1-2c-0.2,0-0.5,0.4-0.7,0.4c-0.3-0.1-0.3-0.7-0.6-0.7
		C75.1,43.9,73.9,51,76.7,46z"/>
	<path class="st0" d="M81.8,42.9c0.1-0.7-0.5-0.3-0.7-0.6c-0.1-0.2,0.2-1.2,0-1.3c-0.4-0.1-1.1,1.8-1.5,2.7l0.7-1.5l-0.3,1.2
		C78.6,47.3,81.6,45,81.8,42.9z"/>
	<path class="st0" d="M80.9,34.9c-0.3-0.5-1.2,1.2-1.2,0.1l-1,2l-0.1,0.7C78.1,41.2,80.1,36.6,80.9,34.9z"/>
	<path class="st0" d="M78,38.3l0.7-1.4l0-0.1C78.5,37.4,78.2,37.8,78,38.3z"/>
	<path class="st0" d="M95.1,25.3c0.3-0.1,0.6-0.3,0.9-0.6l0.5-0.8c0.2-0.4,0.7-1.2,0.9-1.8C96.9,22.4,95.4,24,95.1,25.3z"/>
	<path class="st0" d="M84,28c0.5-0.6,1-2,1.5-2.5c0.7-0.9,0.9-0.4,1.3-0.2c0.2-0.3,0.3-0.5,0.4-0.7c0,0.2,0,0.4,0.1,0.4
		c0.6-0.1,1.1-1.7,1.8-2.7c0.6-0.9,1.7-1.2,2.2-2.4c0.4-1.1-0.8-0.9-1.3-0.5c-0.7,0.5-2.1,2.4-2.7,3.4l0.3,0.2l-0.2,0.5
		c-0.2-0.4-1.2,0.2-1.3-0.1c-0.2-0.6,0.9-2.6,0.1-2.3c-0.9,0.3-3.2,4.7-3.5,5.9c0.2-0.2,0.6-0.6,0.3-0.1C82.8,28,83.1,29,84,28z"/>
	<path class="st0" d="M91.4,15c0.6-1,1.3-2.3,1.8-3.2c-1.6,1.9-1.8,0.4-3.3,3.3l-0.2,0.4c-0.5,0.9-0.3,1.9,0.2,1.5
		C90.6,16.6,90.9,15.9,91.4,15z"/>
	<path class="st0" d="M62.2,95.7c0.3-0.8,1.3-1.9,1.1-3.3c-0.2-1.2-1.4,1.1-1.8,1.4c-0.3,0.3-0.4-0.3-0.7,0.4
		c-0.3,0.6-0.5,2.7-0.5,3.4c0.1-0.1,0.2-0.3,0.2-0.6l0.4,1.1C61,100.6,61.9,96.5,62.2,95.7z"/>
	<path class="st0" d="M93.7,13l-0.4,0.5c-0.6,1.4-1.2,3.5-0.6,3.6c0.8-1.1,2-3.2,2.2-4.3l0-0.1c0.7-1.4,1.6-3.3,2.1-4.2
		c0.3-0.6,0.6-1.1,0.9-1.6c0.7-0.7,0.8,0.1,1.8-1.8c-0.1-0.1-0.5,0.2-0.6,0.2c-0.5-0.2-0.7,0-0.9-0.5c-0.2-0.4-0.3-1.2-1.6,1.1
		l-0.4,1.4C95.3,8,95.2,9,95.3,9.7c-0.4,0.8-0.9,1.9-1.3,3.2C93.9,12.9,93.8,12.9,93.7,13z"/>
	<path class="st0" d="M109.7,20.4c0.4,0.1,0.5,0.6,1,0.5c1-0.2-1,2.3-0.4,2.4c0.1,0,0,0.6-0.1,0.9c-0.2,0.3-0.6,0.8-0.8,0.9
		c-0.2,0.2-0.4,0.1-0.6,0.2l0,0.7c0,0.8-0.6,1.9-1.1,2.9c-0.6-0.8-2.2,2.8-2.7,2.2c0.3-0.8,0.5-1.8,1-2.5c1.8-2.6,1.6-2.7,1.1-3.9
		c-0.3-0.7-0.4-0.5-0.9,0.6c-0.4,0.8-0.6,1.7-0.8,2.5c-0.3,0.9-0.5,1-0.7,0.8c-0.5-0.3-0.6-1.1-0.2-2.5l0.3-1l-0.8,1.2
		c-0.2,0.3-0.5,0.7-0.5,0.9c-0.4,1.8-0.9,3.1-2.2,3.5c0,0-0.5,0.8-0.7,1.2c-0.2,0.6-0.2,1.6-0.7,1.2c-0.7-0.6-0.9,0.5-1.3,1.7
		c-1,2.7-0.9,2.7,0.1,2.7c0.3,0,0.3,0.7,0.3,1.1L98.9,39c0.5,0,1.7-2.3,2.3-2.5c0.9-0.4,0.2,1.6-0.5,2.8c-0.8,1.3-1.2,1.1-1.6,0.9
		c-0.5-0.3-0.5-0.4-1.3,0.1c-0.4,0.5-0.8,1-1.1,1.8L96.4,43c0.1-0.1,0.2-0.1,0.4-0.2l1-1.4l0.5-0.7c-0.1,0.4-0.1,0.8-0.3,1.1l-1.6,3
		c-0.4,0.6-0.6,1-0.9,1.4c0.4-0.2,0.7,0.2,0.6,0.8c-0.1,1.2-1.3,3.5-2,4c-1.2,0.9-0.9-1.2-0.2-3.2l1.1-1c0.1-0.2,0.2-0.4,0.3-0.5
		l-1.4,1.3l-0.1,0.1l0-0.1c-0.3,0.3-0.5,0.6-0.8,1c-0.2,0.4-0.6-0.1-0.7,1.2c0,0.4-0.1,0.9-0.1,1.2c0,0.8,0,1.8,0.5,1.4
		c-0.5,0.8-0.8,1.9-0.8,2.7c0,1.1,0.2,1.7-0.5,3c-0.2,0.3-0.4,0.6-0.6,0.8l0.5-0.7c0.1-0.1,0.3,0,0.3,0.1c0.1,0.5-1.3,3.9-1.3,3.8
		c-0.1-2.3-1.5,1.8-1.7,0.7c-0.2,0.4-0.5,0.8-0.6,1.1c-0.1,0.6-0.2,1.3-0.1,1.6c0.2,0.7,0.4-0.6,0.6-0.9c0.7-1,1.5-2.5,1.5-0.5
		c0,0.2,0.6-0.1,0.9-0.5c0.4-0.7,0.8-1.7,1.2-2.6c0.1-0.2,0.3-0.3,0.4-0.3c0.1,0,0.2,0.2,0.2,0.4c-0.4,2.2-1.3,2.9-2.1,4.4
		c-1,1.9-0.4-0.2-0.7-0.1l-1,0.3c-0.1,0.6-0.2,1.3-0.3,1.8c0,0.2-0.3,0.6-0.4,0.7c-0.2,0.1-0.6-0.1-0.5,0.9c0.1,1.1,0,2-0.4,3.6
		c-0.7,2.7-1.7,4-2.7,5.5c-0.2,0-0.3-0.1-0.5-0.1c-0.2,0-0.4,0.1-0.6,0.2c0,0.4-0.1,0.9,0,1.1l0.6,2.1c0,0.1-0.1,0.5-0.2,0.7
		c0,0.1-0.2,0.1-0.2,0.1c-0.1-0.3-0.2-0.9-0.4-1c-0.3-0.3-0.7-0.6-0.6,1.2l-0.3,0.6c-0.4,0-0.9,0-0.8-1.4c0-0.2,0.3-0.9,0.3-0.9
		c0.3-0.1,0.7,0.2,0.5-1.2c-0.2-1.3-0.4-2.5,0.6-4.4c0,0-0.1-0.8-0.2-0.8c-0.4,0.3-0.9,0.4-1.1,2.1c0,0.5-0.3,1.5-0.5,1.7
		c-1.1,1.3-1,2.5-0.8,3.8c0.1,0.4,0.2,1.2,0.1,1.7c-0.5,1.9-0.4,2.6,0.3,2.5c0.1,0,0.1,0.3,0.2,0.5c-0.2,0.2-0.4,0.4-0.5,0.5
		c-0.5,0.2-0.5,1.2-1.2,1.3c0-0.2,0-0.3,0-0.7c0.1-0.3-0.2-0.7-0.4-0.8c0,0-0.3,0.8,0.2,1.6c-1.2,1.6-0.7,2.3-0.6,3.5
		c0,0,0.5-0.4,0.7-0.9c0.2-0.5,0.3-1.3,0.4-1.9c-0.2,0-0.3-0.2-0.3-0.7c0.8,0.5,1.2,0.5,1.5,0.1c0.6-1.2,1.1-2.2,1.7-3.3
		c0.3-0.5,0.8-0.8,0.8-0.5c0.2,1.5,0.7,2.4,1.1,3.4c0.2,0.5,0.1,1.8,0.4,2.6c0.4,1.1-0.1,3.1-0.8,4.9c-0.1,0.4-0.5,1.7-0.5-0.1
		c0-2.6,0.1-5.1-0.4-7c-0.1-0.5-0.4-1-0.6-0.8c-0.7,0.6-1.4,1.5-2.4,4.3c-0.3,0.3-0.6,0.5-0.9,1c-0.1,0.2-0.3,1,0.5,0
		c-0.9,1.8-0.9,2.1-0.9,2.4c0.2-0.1,0.3-0.2,0.5-0.5c0.2-0.4,0.3-0.8,0.5-1.2c0.2-0.5,0.4-0.9,0.5-1.2c0.5-0.3,0.6,0,0.7,0.2
		c0.1,0.1,0.8-1.9,0.5,0.1l0,0.1l0.1,0c0.2-0.1,0.5-0.4,0.7-0.4c0.3,0,0.5,0.8,0.5,1.5C83,95,82.8,96.6,82.5,97
		c-0.3,0.5-0.6-0.2-0.6-1l-0.1,0.4l0-1.2c0,0-0.2,0-0.4,0.1c-0.1,0.8-0.4,1.4-0.9,1.4c-0.3,0-0.8,1.5-1.1,1.7
		c-0.5,0.3-0.6,0.5-0.4,1.4c0.1,0.5,0.3,1.2,0.2,1.6c-0.6,3,0.2,2.5,0.7,2.6c-1,2.4-1,2.4-1.6,0.8c0.1-2.1,0.1-2.1-0.8-3.4
		c-0.2-0.3,0.1-2,0.3-2c0.7-0.1,0.8-0.8,0.7-2.2l-0.2-2.1l-0.1-1c-0.1,0.3-0.2,0.6-0.3,0.9l-0.4,2.7c-0.3,1.9-0.6,3.4-1.4,3.7
		c0,0-0.2,0.6-0.3,0.9c0.6-0.5,0.4,2.2,1.1,1.1c1.2-1.8,0.8,0,0.6,1.7c0,0.3,0.1,0.6,0.2,0.9c-0.8,2.2-1.3,5.5-2.4,6.2
		c-0.5,0.3-0.6,1.1-0.5,1.8c0.1,0.8,0.3,2.3,0.7,1.3c0.8-1.9,1.4-1.9,2.2-1.7c0.1,0,0.4-0.3,0.5-0.6c0.5-1,1-1.9,1.3-3.9
		c0.1-0.9,0.1-2.9,0.8-2.7c0.6,0.1,0,1.7-0.1,2.5c0,0.6-0.1,1.6,0,1.6c0.4,0.1,0.5,0.8,0.2,1.7c-0.1,0.5-0.4,1.7-0.9,1.1
		c-0.5-0.6-1.7,2.1-1.6,3.3c0,0.3,0,0.3,0,0.6c0.2,0.9,0.3,2,0.2,2.9c-0.3,1.8-0.3,2.9,0.1,3.6c0.4,0.7,0.4,2,0.4,3.2
		c0,0.4,0,0.8,0,1.1l-0.2,0.1c-0.1,0.4-0.2,0.6-0.4,0.7c0,0.2,0,0.3,0,0.5c0,0.5,0.3,0.8,0.5,1.3c0.2-0.4,0.3-0.9,0.5,0
		c0,0.2-0.1,0.6-0.2,1.1c0.1,0.4,0.1,0.8,0.1,1.2l-0.2,2.7l0.2-0.2c0,0.5,0.1,1.3,0,1.4c-0.4,0.9-0.5,1.6-0.1,2.4
		c0.5,1,0.1,1.9-0.3,2.2c-0.3,0.4-0.7,0.1-1.1,0.4c-0.2,0.1-0.4,0.9-0.4,1.4c0,0.9,0.2,2,0,2.6c-0.2,0.7-0.7,0.9-0.9,1.6
		c-0.2,0.4-0.2,1.3-0.3,2c-0.1,0.3-0.1,0.6-0.2,0.9c-0.1-0.2-0.2-0.5-0.2-0.7l0.4-6c0-0.3-0.1-0.6-0.1-0.9c-0.1,0.3-0.2,0.5-0.2,0.8
		l-0.1,1.6c-0.1,0.6-0.2,1.2-0.3,1.8c-0.1-0.5-0.3-1.1-0.4-1.6c-0.1-0.5-0.1-1-0.2-1.5l-0.9,2.3c0.1,0.3,0.2,0.8,0.2,0.7
		c0.5-0.1,0.8,0.2,0.6,2c-0.1,1.3,0.1,2.7,0.2,3.9c0.1,1.1,0.3,0.6,0.4-0.3c0.2-2,0.8-1.4,1-0.8c0.4,1-0.1,1.8-0.3,2.5l-0.7,1.9
		c-0.4,0.9-0.5,1.9-0.5,3.4c0,1.5-0.1,2.1-0.5,0.7c-0.1-0.4-0.5-0.2-0.7-0.2c0,0-0.2,0.5-0.2,0.6c0.1,1.5,0.2,3.1,0.3,4.8
		c0,0.5,0.3,0.8,0.5,0.6c0.2-0.2,0.3-1,0.4-1.7c0.4-2,0.6-1.9,0.5,1.1c0,0.3,0.3,1.1,0.4,1c0.5-0.5,0.1-1.4,0.1-2.3
		c-0.1-3-0.1-3.8,0.1-4.5c0.1-0.8,0.4-1.3,0.9-1.7c0.1-0.1,0.5,0.6,0.5,0.8c-0.1,1.4-0.2,2.9-0.3,4.3l-0.3,8.4
		c0,0.4,0.2,1.2,0.2,1.2c0.2,0,0.3-0.2,0.5-0.8c0-0.6,0-1.2,0.1-1.9c0.1-0.9,0.2-2,0.4-3c0.2,0.7,0.5,1.2,0.5,2.1
		c0.1,2.8,0.2,5.4,0.3,8c0.1,2.2,0.1,4.8,0.1,6.8c-0.3,1.3-0.8,1.8-1,1.9c-0.9-0.2-1.1,1.7-2.6,3.6l0.1,0c-0.2,0.5-0.5,0.7-0.7,0.5
		c-0.4,0.4-0.4,0.6-0.4,0.8c0.2,0.7,0.3,1.8,0.5,2.1c0.5,0.4,0.5-1.6,0.8-2.4c0.1-0.3,0.3-0.5,0.4-0.7c0.9,0.8,0.7,3.1,1.1,4.1
		c0.2,0.7,0,2.4-0.8,3.2c-0.7,0.7-1.1,1.6-1.4,4.1c-0.3,2-1,4.2-1.5,6.3c-0.1,0.3-0.3,0.6-0.3,0.6c0-1.2-1,0.4-0.2-3
		c0-0.1-0.1-0.4-0.1-0.5c-0.7,2.4-1.2,2.5-1.7,3.7c-0.1,0.1-0.2,0.1-0.4,0.2c-0.2,0.3-0.5,0.6-0.8,0.9c-0.1,0.1,0,0.4,0.2,0.3
		c1-0.5,1.4-0.2,1.6-1.2c0.1-0.2,0.2,0.2,0.2,0.6c0,0.5-0.2,1.3-0.4,1.2c-0.8,0.1-1.6,0.3-4,1c-1.4,0.3-1.5-0.1-0.7-0.5
		c1.3-0.8,1.3-1-1.2-0.6l-0.7,0L64,210c-1.3,0.1-1.5,0.6-1.5,1.2c0,0.1-0.3,0.3-0.4,0.3c-0.2,0-0.5-0.3-0.6-0.5
		c-0.2-0.3-0.4-0.7-0.5-1l-0.4-0.6l-0.2,0.4c-0.1,0.2-0.1,0.8-0.2,0.7c-0.8-0.3-1.7-0.9-2.7-1.7c-0.2-0.2-0.4-0.8-0.5-1.3
		c-0.2,0.2-0.2,0.7-0.5,0.7c-0.9-0.1-1.8-0.1-2.8-0.5c-1-0.2-1.1-0.6-1.2-1.5c0-0.8,0.1-1.4,1.4,0.1c1.2,1.2,1.5,0.9,1-0.3
		c-0.5-1.1-1-2.2-1.4-3.3c-0.1-0.2-0.5-0.6-0.8-0.8c0.4,2.3-1.6,0.9-2.9-0.7l-0.2-0.3c-0.7-0.7-1.6-2.1-2.5-3.3c0-0.7,0.2-1.2,0-2.3
		c-0.1-0.8-0.6-2.3-1-3.6c-0.4-1.3-0.7-3.1-1.5-2.7c-0.3,0.2-1.6-1.8-2.5-2.9c-1-3.1-2.7-4.6-3.8-7.5c-0.4-0.9-0.9-2.1-1.1-2.5
		l0-0.2c-0.6-1.2-1.1-2.1-1.7-3.1l-0.5-0.9c-1.2-2.6-1.2-3.4-1.8-4.3c-1-1.2-1.6-2.5-2.3-4c-0.9-1.8-1.9-3.5-1.9-5.1
		c0-0.5-0.8-1.8-1.2-2.8c0.4,0.2,0.8,0.4,1.6,1.6c-0.7-1.5-1-2-1.2-2.4c-0.7-1-1.5-2-2.2-3l1.8,3.8c-0.2,0.1-0.5,0-0.5,0.3
		c0.3,1.4-0.2,1.1-0.8,0.2c-1.1-1.8-2.4-3.4-3.4-5.5c-0.1-0.3-0.2-0.6-0.3-0.9l0.7,0.8l0.5,0.7c0.3,0.3,0.8,0.8,0.8,0.8
		c0-0.4,0-1-0.2-1.5c-0.5-1.1-1.1-2.3-1.7-3.3c-0.5-0.8-1.2-1.4-1.6-2.2c-0.5-0.9-0.8-2-1.3-3c-0.3-0.7-0.7-1.6-1-1.9
		c-1.7-1.9-2.2-3.9-2.8-6c-0.2-0.5-0.5-1.1-0.7-1.7c0,0.3,0,0.9-0.1,0.9c-0.2,0-0.6-0.4-0.9-0.7c-0.2-2.9-3.5-5.4-3.8-8.3
		c-1.6-1.7-2.2-3.9-3.1-6.1c-0.4-1.1-1.1-2.4-1.7-3.2c-0.4-0.5-0.6-0.7-0.7-0.8c0.1,0.1,0.2,0.1-0.3-1c-0.2-0.6-0.2-0.9-0.7-1.4
		c-0.6-0.7-1.5-2-1.8-2.7c-0.6-1.8-1.5-3.4-2.3-5.1c-0.1-0.3-0.2-0.6-0.2-0.9c0.1,0.1,0.2,0.2,0.3,0.3c1.3,2.1,3.2,3.2,3.9,6.5
		c0.1,0.3,0.2,0.8,0.3,0.9c1.8,2.2,0.2,0.2,1.7,2.8c0.1,0.2,0.4,0.5,0.5,0.7c-0.1-0.4-0.2-0.9-0.4-1.2c-1.3-2.2-0.5-2-0.1-2.2
		c0.2-0.1,0.5,0.2,0.8,0.3c-1.1-1.7,0.1-1.5-0.6-2.9c-0.6-1.2-0.4-1.5,0.1-1.2c0.1,0.1,0.6,1.1,0.8,1.6c0.4,1.3,1,2.8,1.4,4
		c0.5,1.3,0.9,1.5,1.1,0.7c0-0.3,0-0.6,0.9,0.7c0.2,0.3,0.2,0.4,0,0c1.3,2.6,1.8,3.6,2.3,4.5c0.1,0.2,0.3,0.3,0.5,0.5
		c0-0.1,0-0.3-0.1-0.4c-0.7-2.1-1.5-4.3-2.8-6.3c-0.1-0.2-0.3-0.2-0.4-0.2c-0.1,0.1-0.1,0.4-0.1,0.6c-0.6-1.3-0.8-1.8-1.1-2.3
		c0.3,0,0.5-0.1,0.8,0.2c0.3,0.3,0.8,0.8,1.1,1.4l1.3,2.4c0.4,0.8,2.4,3,2.4,2.7c0-0.8,0.1-1.7-0.1-2.7c-0.1-0.4-0.6-1.3-0.8-1.9
		c-0.5-1.5-2.1-2.2-2-3.6c0-0.7,1.2,0.3,1.7,0.1c0.5-0.3,0.9,0.6,1.4,1.6c0.7,1.6,0.4,1.6-0.3,1c-0.6-0.5-0.6-0.2-0.1,0.6
		c0.3,0.5,0.9,1,1,1.4c0.2,0.8,0.2,1.4,0.4,2.1c0.1,0.3,0.4,0.9,0.7,1.3c0-0.2,0.1-0.5,0.1-0.6c0-0.1,0.2-0.1,0.3,0.1
		c0.7,0.9,0-1.7,1,0c-0.3-0.7-0.7-1.5-0.9-2.2c-0.2-0.7-0.3-1.3-0.4-2c0.4,0.4,0.9,0.7,1.1,1.2c0.7,1.4,1,1.4,1.4,1.2
		c0.6-0.3-0.2-1.4-0.6-2.3c-0.7-1.7,0-1.4,0.3-1.3c0.8,0.3,0.4,1.1,0.7,1.7c0.3,0.9,0.7,1.9,1.1,2.7c0.6,1.2,1.3,2.4,2,3.6
		c0.1,0.2,0.6,0.4,0.6,0.2c0.1-0.2-0.1-0.8-0.2-1.2c-0.1-0.5-0.2-1.2-0.2-1.6c0-0.2,0.3-0.2,0.5,0c0.2,0.2,0.7,1.1,0.7,1.2
		c-0.1,1.9,0.9,2.6,2,3.9c1.9,2.1,2.2,2.7,4.2,6.6c0.3,0.5,0.5,1.1,0.7,1.4c0.5,0.6,0.9,1.1,1.4,1.5c0.1,0.1,0.3,0,0.3-0.2
		c-0.1-0.4-0.5-1.3-0.5-1.3c-1.7-1-2.5-3.6-3.1-5.5c-0.5-1.7-1.3-3.2-2-4.7c-0.2-0.4-0.3-0.9-0.5-1.3l0.9,0.9
		c0.6,0.6,1.3,2.2,1.7,1.7c0,0,0.7,1.1,0.7,1.2c0,1.1,0.5,1.5,1.1,2.2c0.4,0.4,0.9,1.2,1.3,1.9c0.7,1.1,1.4,2.2,2.1,3.3
		c0.2,0.3,0.7,0.5,0.7,0.5c-0.1-0.4-0.4-1.4-0.4-1.4c-0.8-0.7-1.3-1.7-1.9-2.9l-0.6-1.4c0.3,0.4,0.6,1,0.9,1.2c0.7,0.6,1,0.5,0.3-1
		c-0.2-0.4,0-0.7,0-1.1c0.3,0.4,0.6,0.8,0.8,1.1c0.2,0.4,0.5,1,0.7,1.4c1.3,3.7,1.3,3.7,3.2,6.5c0.3,0.4,0.6,0.9,0.8,1.3
		c0.2,0.4,0.5,1.1,0.5,1.3c0,0.2-0.3,0.3-0.5,0.1l-2.3-2.2l-0.7-0.6c0.3,0.6,0.5,1.3,0.8,1.9c0.4,0.7,0.9,1.4,1.3,1.9
		c1.3,1.5,2.4,3.6,2.9,5.3c0.4,1.5,0.9,1.9,1.2,2c0.8,0.2,1.6,1.3,2.6,2.5c0.8,1,1.3,1.8,1.6,3c-0.5-0.7-1.1-1.2-1.6-2
		c-0.9-1.5-1.6-2.3-1.3-0.5c0,0-0.4-0.3-0.6-0.5c-0.4-0.6-0.9-1.6-1-1.7c-0.4,0.3,0.4,1.2,0.7,1.8l2,3.7c-0.3-1.3,0.6-0.3,0.9-0.4
		c0.5-0.1,0.9,0.9,1.2,1.6c0.6,1.4,1.2,2.8,1.7,4.2c0.1,0.3,0.3,0.6,0.5,0.8c0-0.1,0.1-0.3,0.1-0.3c-1.1-1.9-0.3-2.9-1.6-5
		c-0.5-2.4-2.1-4.8-3.2-7.2c-0.1-0.3-0.2-0.6-0.2-0.9c0.2,0.2,0.4,0.4,0.5,0.7c0.7,1.4,1.4,2.8,2.4,3.9c1,1.1,2,2.6,1.5,3.8
		c-0.2,0.5,0.4,1.7,0.9,2.7c0.4,0.7,1,1.7,0.6,2c-0.4,0.3,0,1.1,0.5,1.8c0.4,0.5,1,1,1.3,1c0.5-0.1-0.3-1.2-0.6-1.9l-0.2-0.5
		l-0.6-1.6c0.4,0.4,0.8,0.7,1.1,1.2c0.4,0.7,1,1.9,1,2.3c0,0.8,0.3,1.6,0.6,2.5c0.2,0.4,0.1,0.3,0.2,0.5c0.1,0.1-0.1,0.3-0.3,0.6
		c-0.4,0.4-0.5,0.6,0,0.4c0.5-0.2,0.6-0.4,0.1,0.7l0,0.1l-0.1,0.1c0.2-0.1,0.3-0.3,0.4-0.5c0.2-0.3,0.6-1.2,0.5-0.5
		c-0.1,0.9-0.3,1-0.6,1.4l-0.2,0.2l-0.4,0.7c0.1,0.2,0.1,0.4,0.2,0.5c0.3,0.2,0.6,0.2,0.8,0.3l0,0c0,0,0,0.5,0,0.8
		c0,0.2-0.1,0.5-0.1,0.5l-0.1-0.1c-0.1-0.1-0.2-0.2-0.2-0.2c-0.2-0.1-0.3,0.1-1-0.4l0-0.4c0-0.3-0.4-0.5-0.1,0.4
		c-0.4,0.9-0.8,0.5-1.2,0.2c-0.1-0.1-0.3,1.1-0.5,1.7c0.2,0.1,0.5,0.3,0.7,0.3c0.1,0,0.3-0.2,0.4-0.3l-0.2,0.8l-0.2,0.7l0,0.6
		c0.1,0,0.2,0.1,0.2,0.1l0.1,0l-0.3-0.6l1,0c0.1-0.1,0-0.4-0.1-0.9c-0.1-0.2-0.1-0.6-0.1-0.6c0.2-0.3,0.3-0.4,0.5-0.8
		c0-0.1,0-0.4,0.1-0.7c0.2,0.3,0.2,0.4,0.2,0.5c0.3,0.4,0.3,1.2,0.3,2.1l0,1.1c0,0.1,0,0.2,0,0.2c0.2,1.5,0.2,3.4,0.6,5.3
		c0.2,0.7,0.4,1.4,0.6,2l0-0.5c0-0.1,0.2,0.3,0.2,0.3c0.2,1.6,0.8,1.2,1,3.2c0.1,1.1,0.9,3.5,0.3,3.3c0.1,0.4,0.2,0.9,0.3,1.2
		c0.1,0.2,0.3,0.5,0.3,0.3l-0.2-3.3l0-1c0.1,0.6,0-1.9,0.1-1.4c0.2,0.8,0.4,1.7,0.5,2.6l-0.2-2.4c-0.2-1.5-0.4-3-0.6-4.4
		c-0.3-2.3-0.2-2.2-0.1-2.7c-0.1-0.2-0.1-0.3-0.2-0.6c0.1,0.3-0.1-0.2-0.1-0.6l0-0.1c-0.1-0.1-0.2-0.3-0.2-0.3s-0.1-0.8-0.2-1.2
		l0.1,0l-0.5-4l-0.1-0.9l0.2,1.2c0.2,1.4,0.3,2.6,0.5,4.3l0,0c0.1,0.2,0.2-0.1,0.5-0.4l0.1,0l0-0.1c-0.4-1.1-0.7-1.9-0.9-3
		c0-0.2-0.1-0.9-0.2-1.1c0-0.3,0-0.6,0-0.4c0.1,0.3,0.3,0.9,0.4,1.2c0.1,0.1,0.1-0.1,0.1-0.3c0,0-0.1-0.6-0.2-0.8l-0.4-1.3
		c-0.1-0.3-0.1-0.6-0.2-0.9l0-0.4c0-0.3,0.3,0.7,0.8,2.2l0.4,1.2c-0.1-0.5-0.3-1.2-0.4-1.6c-0.1-0.3-0.1-0.5-0.1-0.8
		c0.2,0.5,0.4,1.2,0.5,1.4c0.4,1.2,0.7,2.4,1.1,3.7c0.3,0.8,0.6,1,0.6,2c0,0.6,0.1,1.8,0.2,2.7l-0.2-0.3l-1.2-2.7l0,0.2
		c0,0.7,0,1.4-0.1,1.8l0,0c0.1,0.7,0.3,1.8,0.3,2c-0.3,1.3,0.1,3.7,0.5,7c0.3,1.7,0.3,1.6,0.4,1.2c0-0.3,0.3-0.4,0.5-0.7
		c1.1,1.5,1.7,0.9,1.4-1l-0.3-2.5c0.4,0.5,0.7,0.8,1,1.2L61,181l-0.1-0.3c-0.1-0.6-0.1-1.1-0.2-1.6c-0.3-1.3-0.7-2.8-1.1-4.1
		l-0.4-1.2l0.1,0.4c0.1,0.4,0.2,1,0.1,0.9c-0.2-0.1-0.4-0.7-0.9-1.5c0-0.7-0.2-1.7-0.3-2.5c0-0.3-0.1-0.6-0.1-0.9l0.1,0.4
		c0,0,0.1,0,0.2,0.3l-0.3-1l-0.4-0.7c-0.2-0.4-0.4-1-0.6-1.4c0-0.2-0.2-0.8-0.1-0.6c0.4,0.9,0.6,1.1,1.3,2.8
		c0.5,1.2,0.6,0.7,0.3-0.2c-0.8-2-0.6-1.8-0.5-2.1c0-0.1,0.2-0.1-0.2-1.1c-0.1-0.2-0.3-0.5-0.5-0.8l-0.4-0.7c0,0,0-0.2,0.1-0.1
		l0.2,0.3c-0.4-0.7-0.3-0.7-0.3-0.9c0,0,0-0.1,0-0.2c0,0,0.1,0,0.2,0c0.2,0.5,0.5,1,0.7,1.4c0.3,0.7,0.2,0.7-0.1,0.5l0.9,1.6
		c0,0.2,0,0.4,0.1,0.7l0.1,0c0,0,0.2,0.1,0.2,0.2l0.2,0.3l0.1,0.3c0.1,0.1,0.2,0.2,0.4,0.4c0.3,0.5,0.6,1.8,0.9,1.7l0.2,0.8
		c0.2-0.1,0.1-0.7-0.3-1.9l-1.3-3.6c-0.1-0.2-0.1-0.5-0.1-0.7c0.2,0.2,0.5,0.4,0.6,0.6c0.3,0.5,0.5,1.2,0.7,1
		c0.3-0.3,0.6-0.9,0.8-1.7c0.1-0.4-0.2-1.2-0.3-1.7c0.2,0.1,0.5,0.4,0.7,0.4c0.3,0,0.5-0.4,0.7-0.6c-0.2-0.3-0.4-0.8-0.7-1
		c-0.4-0.4-0.9-0.6-1.3-0.8c-0.3-0.2-0.4-0.8-0.2-1.1c0.5-0.9,1.1-2.9,1.7-4.3c0.1-0.2,0.2-0.3,0.3-0.4c0,0.3,0.1,0.7,0.1,0.9
		c0,1,0,2.2,0.1,3.1c0.1,0.7,0.5,1.1,0.7,1c0.6-0.4-0.1-0.9-0.1-1.6c0.1-0.7,0-1.7,0.1-2.1c0.5-1.5,0.1-1.1-0.2-1.7
		c-0.3-0.7-0.4-2.4-0.4-3.7c0-1.2-0.1-2.8,0.2-3.6c0.4-1.2,0.5,0.5,0.8,0.8c0.3,0.3,0.7-0.6,0.6-1.6c-0.1-0.9-0.5-1.7,0.3-1.8
		c0,0,0.3-1.3,0.3-1.6c-0.1-0.7-0.4-1.1-0.6-1.6c0-0.6,0-1.4,0-1.8l-3.3,1.1c-0.1,0-0.2-0.1-0.3-0.1l-0.1,0.2l-0.3,0.1l-0.1,0.8
		l-0.1,1.1c0,0.2,0.2,0.4,0.2,0.3c1-2.2,2.2,1.1,3.1-2.8c0-0.1,0.5,0.7,0.8,1.1c-0.1,0.7-0.1,1.7-0.3,2c-0.5,1.1-1.5,1.4-2.5,1.2
		c-0.8-0.1-0.8,0-0.7,2.3c0.1,2.1,0.2,2.1-0.8,3.2c-0.2,0.3-0.5,2.2-0.4,2.7c0.2,1.1,0.4-0.1,0.5-0.4l0.8-1.2
		c0.2,1.2,0.3,2.5,0.5,3.7c0,0.1-0.3,0.8-0.4,0.7c-0.3-0.2-0.6-0.8-0.9-1c-0.1-0.1-0.5,0.4-0.5,0.4c0.1,2.2-0.6,4.1-1,4.4
		c-0.3,0.2-0.2,0.2,0.1,0.4c0.5,0.3,1.1,0.7,1.3,1.2c0.3,1,1.2,0.3,1.3,1.6c-0.6-0.4-0.9-0.2-1.1,0.3c-0.1,0.2,0,0.7-0.1,0.8
		c-0.1,0.1-0.3,0.6-0.6-0.2c-0.2-0.4-0.4-0.9-0.3-1.1c0.1-0.2,0.5-0.3,0.7-0.5c0,0,0-0.3-0.1-0.4l-0.2-0.1c-0.3,0.2-0.5,0-0.8-0.3
		c-0.5-0.5-0.6-0.9-0.7-1.3c-0.1-0.4,0-0.4,0-2.2c0-1,0-1,0.4-0.3c0.1,0.1,0.3-0.3,0.3-0.4c0-0.8,0-2.4-0.1-2.4
		c-0.7-0.3-0.6-1-0.3-2.5c0.3-1.1,0.5-2.5,0.6-3.8c0-0.5-0.5-1-0.7-1.7c-0.2-0.9-0.3-2-0.5-3c-0.3-2-0.3-2.7,0.5-2.5
		c0.5,0.1,0.9-0.6,1.2-1.4l-0.1,0.2c0-0.7,0.1-1.6,0-2.1c-0.2-0.9-0.2-1.6-0.1-2.3c-0.3-1-0.6-2-1.1-2.3l0,0.1
		c-0.2,0.4-0.4,0.8-0.5,1.1c-0.5,0.5-0.2,1-0.1,1.4l0.3,1.2l0,0.1c0.1,0.5,0,1.3,0,1.9c0,0.4-0.1,0.7-0.3,1.6
		c-0.1-1.3-0.2-2.2-0.2-3c-0.3-0.3-0.7-1-0.6-1.5c0.2-1.8,0.6-3.5,0.9-5.2c0,0,0.1-0.1,0.2,0l0.3,1.3l1.9-0.7c0-0.6,0.2-1.5,0.2-1.5
		c0.6,0,0.7-0.8,0.3-1.6c-0.7-1.5,0-2.7,0.9-2.7c-1-1.4-1.7-0.7-1.5-3.3c0-0.4-0.2-0.8-0.2-1.2c0-0.4,0-0.8,0-1.2
		c0.2,0,0.3-0.1,0.5,0.1c0.3,0.3,0.6,1,0.9,0.9c0.2,0,0.5-1.1,0.7-1.7c-0.6-1.6,0.7-3.2,0.5-4.1c-0.4-1.6,0.3-3.6,0.1-5.1
		c0-0.3,0-1,0-1.1c0.4-0.8,0.8-2.4,1.4-2.3c0.7,0.2,0.8-0.7,0.7-2.3c-0.1-0.9,0-2.1,0.1-3.1c1,0.1,0.5-1.7,0.7-2.5
		c0.1-0.3,0.3-0.8,0.3-0.8c0.2,0.1,0.3,0.4,0.4,0.7c0-0.6,0.2-1.6,0.1-1.9c-0.5-1.6,0.1-3.7,0.4-5.6c0.3,0.1,0.7,0.2,1,0.1
		c0.1,0,0.3-0.4,0.8-1.1l0,0.2l0.1-0.2c0.2-0.2,0.3-0.4,0.5-0.7c0.8-0.6,0.7-0.3,0.7-0.1c0.2-0.2,0.5-0.3,0.7-0.6
		c0.2-0.3,0.3-0.9,0.5-1.3c0,0.5-0.1,1-0.1,1.4c-0.1,0.5-0.3,1.2-0.2,1.5c0,0.3,0.2,0.4,0.4,0.4c0,0,0.3-0.7,0.3-0.8
		c0-2.3,0.6-4.1,1.5-5.8c-0.5-1.3,1.4-4.6,0.3-5.4c-0.1-0.1,0-1.2,0.1-1.3c0.9-1.7,0.7-3.3,1.1-5c0.1-0.6,0.1-1,0.4-1.6
		c0.2-0.3,0.5-1.5,0.4-1.7c-0.1-0.4-0.4-0.5-0.6-0.3c-0.2,0.2-0.6,1.1-0.7,1.6c-0.4,1.7-0.3,3.3-1,5c-0.1,0.4-0.4,0.7-0.5,0.7
		c-0.1,0-0.2-0.5-0.2-0.9c0.1-0.8,0.4-2.1,0.4-2.3c-0.7,0.1-2.2,4-2.3,5.9c-0.1,0.9-0.4,1.8,0.3,0.8c0.5-0.6,1-0.2,1.5-0.1
		c0.6,0.1,1,0.4,0,2.4c-0.1,0.2-0.2,0.6-0.2,0.7c0.1,0.7,0.1,1.6-0.4,2.2c-0.6,0.7-0.6-0.6-0.6-1.4c0-0.5,0.2-1.4,0.3-2.1
		c0-0.2,0-0.6,0-0.9c-0.1,0.3-0.3,0.5-0.4,0.8c-0.3,1.6-0.8,3.1-1.3,3.3c-0.8,0.4-0.8,1-0.8,2.4c0,0.7-0.1,1.5-0.2,2.3
		c-0.6,0-0.7-0.7-0.5-1.9c0.2-1.2,0.3-2.3,0.4-3.4c0.1-1-0.4-1.2-0.7-0.3c-0.4,1.3-0.8,2.6-1.2,3.8v0c-0.7-0.5,0.1-3.7-0.6-4.2
		c0,0,0.1-0.9,0.2-1c0.2-0.3,0.5-0.7,0.5-0.5c0.2,1.3,0.7,0.8,1.2-0.6c0.5-1.4,0.9-2.5,1.5-2.4c0.1-0.4,0.2-1.1,0.2-1.1L67.9,78
		c-0.8,2-0.5-1.2-1.1-0.2c-0.6,0.9-1.2,1.3-1.8,1.6c-0.3,0.2-0.5-0.3-0.8-0.4c0.2-0.7,0.5-1.6,0.7-2.2c0.4-0.8,0.8-1.6,1.3-2.2
		c0.7-0.9,1.6-0.8,1.4,0.3c-0.5,2.7,0.4,1.6,0.7,1.8c0.5,0.2,0.8-0.8,0.8-1.9c0-1.3,0.5-1.3,0.7-1.9l0.3,0.9c0,0.1,0.1,0.3,0,0.4
		c-0.6,2.4-0.1,1.6,0.5,0.6c0.3-0.5,0.6-0.9,0.9-1.5c0.1-0.3,0.2-1,0.3-1.4c-1.3,2.5-0.9-1-1.6-0.6c-0.5,0.3-0.5-0.2-0.3-1.6
		c0-0.3-0.1-0.6-0.1-0.6c-0.8,1.3-0.7,0.7-0.3-0.9l1-3.8c0.7-0.4,0.9,1.8,2-1.4c0.2-0.7,0.7-0.5,0.4,0.8c-0.1,0.6-0.2,1.8,0.1,0.8
		c0.5-1.7,1-2.8,1.8-3.1c0,0,0.3-0.7,0.3-1c0-0.2-0.1-0.4-0.1-0.3c-0.6,0.9-0.8,0.8-0.3-0.6c0.1-0.4,0.7-1.1,0.7-1.1
		c0-1.6,1-2.8,1.3-3.9c0.7-2.6,1.3-1.8,1.9-2.9c0.5-0.9,1.1-1.6,0.7-2.3c-0.1-0.1-0.2-0.3-0.2-0.4l0.9-2.5c0.1,0.3,0.1,0.9,0.2,0.8
		c1.2-0.4,2.4-0.8,4-3.1c0.2-0.2,0.3-0.7,0.5-1.1c-0.1-0.1-0.2-0.3-0.3-0.1c-1.1,1.3-1.6,1.2-1.3-0.7c0.1-0.5,0.4-1.3,0.6-2
		c0.1-0.4,0.1-0.7,0.2-1l-1,1.7c0.1-0.4,0.1-0.7,0.2-1.1c0.2-0.6,0.7-1.8,0.7-1.9c-0.1-0.1-0.1-0.2-0.1-0.3
		c-0.4-0.2-0.9-0.1-1.5,0.5c-0.8,0.8-1.9,3.3-2.4,2.8c-0.5-0.4,0.2-2.4,1.1-3.2c0.3-0.3,0.7-0.3,1.1-0.7c0.4-0.4,0.9-1.2,1.4-1.5
		c0.5-0.3,1-0.4,1.1,0l0.6-0.7c0.8-0.9,1.9-1.8,2.3-3.5c0.3-1.6,0.7-2.4,1.7-3.3c0.1-0.1,0.5-1.1,0.5-1.3c0-0.2-0.3-0.3-0.5,0
		c-0.4,0.5-0.8,0.3-1.2,1.6c-0.3,1.3-1,1.5-1.4,1.7c-0.2,0.1-0.1-0.6-0.1-1.1c0.1-1.2,0.8-1.4,1.1-1.7c0.9-0.9,1.3-1.6,1.5-2.9
		c0.1-0.8,0.7-1.4,0.7-0.5c0,1.1,1.8-1.6,1,0.6l1.7-1.6c0.5-0.5,0.9-0.9,0.7,0.2c-0.2,1.2-0.8,2.2-1.5,3.1c-0.1,0.1-0.1-0.5-0.2-0.8
		c-0.4,0.5-0.8,1.1-1.1,1.6l-0.5,1c0.4-0.1,0.8,0.1,1.3-0.4c0.6-0.5,1.7-1.3,1.9-2.3c0.3-1.6,1.7-3.5,1.8-5c0.1-1-0.1-0.8-0.7-0.4
		C94,20,94,19.2,94.2,18.8c0.8-1.6,1.4-2.1,2.4-1.9c0.8,0.2,1.3-0.4,2.4-2.5c0.3-0.6,0.8-1.6,1.1-1.8c1.2-1.1,2.1-2.7,3.1-4.2
		c0.8-1.1,1-1,1.1-0.5c0.1,0.4-0.1,1.2,0.2,1.1c1.3,0-0.5,2.1-1,3.3c-0.6,1.5-1.1,1.4-1.7,1.7c-0.4,0.2-1,0.6-1.4,1
		c0.1,0.3,0.3,0.6,0.3,1c0,0.2-0.2,0.7-1.4,2.1c-0.2-0.3-0.3-0.2-0.1,0.1c-1.5,1.8-2,2.8-2.3,3.1c-1.2,1-1.3,1-1.5,1.9
		c-0.3,0.9-0.5,1.5-1.1,2c-0.6,0.6-1.8,1.2-1,2.1c0,0-0.2,0.5-0.4,0.6c-0.3,0.3-0.7,0.9-0.9,0.8c-0.4-0.1-0.9,0.1-1.3,1.5
		c-0.3,0.8-0.8,2.4,0.4,1.5c0.3-0.3,0.6-0.3,0.9-0.5c0,0,0.3-0.7,0.3-0.9c0-0.3-0.1-0.5-0.1-0.7l0.3-0.3c0.3-0.2,0.9-0.7,0.9-0.6
		c-0.1,1.3,1-0.3,1.4-0.2c0.8-3.5,2.2-3.2,3.5-4.7c0.2-0.3,0.5-0.6,0.8-0.9c-0.1-0.2-0.2-0.3-0.3-0.6c0-0.3-0.1-0.8,0-1
		c0.3-0.6,0.8-1.2,1.3-1.7c-0.2-0.3-0.5-0.4-0.5-0.8c0-0.4-0.1-0.6-0.2-0.7c1.7-1,2.7-1.9,4.3-4.2l1.8-1.5c1.1-0.8,1.3,0.3,2.1-0.2
		c1.3-0.8,1,0.3,1.3,0.9c0.4,0.9,0.6-0.9,1-1.2c0.6-0.7,1.2-1.1,1.8-1.6c0.2-1.3,1.1-1.6,1.4-1.7c0.3-0.1,0.4,0.5,0.2,1
		c-0.4,1.5-0.5,0.7-0.9,0.9c-1,0.7-1.6,1.9-1.7,2.8c0,0.3-0.4,1-0.5,1.4c-0.2,1-0.7,2-1.5,3c0.1,0.1,0.1,0.3,0.3,0.2
		c1.2-0.9,1.5-0.9,0.9,0.4C109.1,19.9,109.2,20.3,109.7,20.4z M58.8,144.8c-0.1,0-0.2,0.4-0.3,0.6c0,0.1,0.1,0.4,0.1,0.4
		c0.9-0.3,0.2,3.8,1.1,3.6c0.1,0,0.2-0.2,0.3-0.4C60.2,147,59.5,144.5,58.8,144.8z M16.4,121.4c1.3,2.5,1.3,2.5,2,2.1
		c0.3-0.2,0.8-0.3-0.1-1.7c-0.7-1.1-1.5-2.1-2.2-3.1c0,0.5-0.2,0.8-0.1,1.4C16,120.5,16.4,121.3,16.4,121.4z M14.8,127.3
		c-0.1-0.5-0.1-0.8,0-1l0.6,0.7c-0.1-0.2-0.4-0.6-0.5-0.8l-0.1,0.2l-0.4-0.4c-0.9-1.9-2.6-3.6-1.2-0.7
		C13.7,125.9,14.4,126.8,14.8,127.3z M23.7,126.5c-1.2-1.8-1.4-3.8-2.7-5.7c-1.5-2.1-1.4-0.1-0.3,1.9l1.4,2.6l-0.5-1
		C22.3,125.2,23.4,127.1,23.7,126.5z M27.2,128.6c0.1-0.6-0.3-1.2-0.9-1.9c-0.1-0.2-0.3-0.6-0.5-1c0.4-0.1,0.4-0.7-0.2-1.6
		c-0.6-0.9-1.2-1.6-1.9-2.3c-0.1-0.1-0.2,0.4-0.1,0.7c0.2,0.6,0.6,1.3,1,2c0.4,0.8,0.8,1.7,1.2,2.4
		C26.3,127.7,27.2,128.7,27.2,128.6z M35.5,136.8c0.2,0.9-0.6,0.9,0.3,2.7c1.3,2.7,2.9,2.4,3.2,2c0.3-0.3-0.6-0.9-1.8-3.1l0.3,1.8
		c-0.2-0.2-0.4-0.5-0.5-0.7c-0.8-1.3-0.9-2-0.5-2.4c-0.7-1.2-1.2-2.1-1.6-2.4C34.3,134.2,35.3,135.8,35.5,136.8z M32.4,138.5
		c-0.4-0.7-0.9-1.1-1.4-1.6c0.2,0.8,0.4,1.7,0.6,2.4c0.1,0.2,0.5,0.7,0.8,1c0.1,0.5,0.2,1,0.5,1.6c0.1,0.3,0.7,0.9,0.7,0.9
		C33.8,142.2,33,139.4,32.4,138.5z M25,141.7c-0.7-1-0.5,1.2-0.9,1.3c-0.5,0.2-0.5,0.2-0.9-0.4c-0.1-0.5-0.3-1.1-0.6-1.9
		c-0.5-1.3-1.8-3.3-2.4-3.4c-1.1-0.3,0.4,2.7,0.5,2.8c0.1-1.4,1.2,0.8,2.1,2c0.2,0.2,0.3,0.4,0.4,0.6c0.2,0.5,0.4,0.9,1,1.6
		C26,146.5,25,143.4,25,141.7z M27.9,142.9l0-1.4c-0.8-1.5,0,1.2-0.8,0.6c-2.5-2.3-2.4-2.5,0,1C29.5,147.3,30.4,147.9,27.9,142.9z
		 M38.2,147.8c0.2,0.4,0.3,0.7,0.5,1c0.1-0.2,0.3-0.2,0.3-0.5c0.1-1.2-0.9-2.7-1.8-4.6c-0.6-1.8-1.7-2.5-2.7-3.5
		c-0.2-0.2-0.4,0-0.5,0c0.2,0.3,0.5,0.9,0.6,1c1.1,0.5,1.9,3.3,3,4.1C37.5,145.4,38,146.9,38.2,147.8z M36.3,152.3l-0.9-2
		c-1.7-2.2-1.8,0.1-0.4,1.7c0.6,0.7,0.8-0.1,0.8-0.6L36.3,152.3z M43.2,151.1c0.4-0.3,0.5,0.2,0.3-1c-0.2-0.8-1-2.6-1.2-3l-0.3-0.5
		c-2.1-1.1,0.6,3.1-0.6,3.4C42.2,152.2,42.9,151.4,43.2,151.1z M48.9,164c0,0.7,0.1,2.1,0.8,1.9c0.7-0.4,0.5-2.2,1.6-2
		c0.3,0,0.4,0.4,0.7,0.2c0.3-0.2,0.5-0.8,0.4-1.1c-0.1,0.1-0.1,0.2-0.7,0.1C50.8,163.8,48.8,161.9,48.9,164z M49.7,159.6
		c0.1,0.5,0.1,1.2,0.2,1.6l0.6,1.1l0.1,0.3c0.2,0.1,0.5-0.1,0.7-0.2c0.1,0,0.1-0.5,0.2-0.8L49.7,159.6z M45.1,151.8
		c0.5,1.4,0.9,2.7,1.5,4.1c0.4,0.9,1.2,2,1.8,2.5c0.3,0.3,0.5-0.2,0.7-0.4c-0.3-0.5-0.6-1.2-0.9-1.6c-0.4-0.5-0.8-0.7-1.1-1.2
		c-0.3-0.4-0.6-1.2-0.7-1.7c-0.1-0.4,0-0.6,0.1-0.9c-0.4-0.4-0.9-0.8-1.2-1.1C45.1,151.7,45.1,151.7,45.1,151.8z M35.4,162.8
		c-0.2-0.5-0.6-0.7-0.9-1.4c-0.2-0.5,0.5,0,0.2-0.7c-0.6-1.2-0.8-0.4-0.8,0.2l0.2,1.2c-0.2-0.2-0.3-0.4-0.4-0.5
		C34.6,163.7,36.4,165.3,35.4,162.8z M47.1,164.1c-0.1-0.4-0.3-0.9-0.3-1.3c-0.1-0.8-0.4-1.7-1-2.7l-0.2-0.3
		c0.2-1.1-0.4-2.5-1.6-3.9l-0.6-0.6c0,0.2,0,0.4,0.1,0.6l1.2,3.5l0.5,1l0,0c0,0.4,0,0.8,0,1.2c0,0.3,0.3,1.2,0.4,1.3
		C46.1,163.4,46.6,163.7,47.1,164.1z M44.8,167.9c0.9,1.4,0.5-0.6,1.3,0.2c0.4,0.4,0.2-0.7-0.3-1.5c-0.7-1.3-0.7-1.3-1.4-0.9
		C43.8,165.8,44,166.6,44.8,167.9z M41.9,179.1c-0.1-0.7-0.2-1.4-0.9-2.6c-1.2-2-0.9,0.1-1.6-0.7c-0.9-1-1.6-3.4-2.3-3.7
		c-0.7-0.4,0.2,2.2,1.3,4.1l0.5,1.4C39.1,178.3,42,180.1,41.9,179.1z M47.7,180.4c-0.1-1.5-0.6-3.4,0.6-2.2l-0.7-2.8
		c-0.2-0.1-0.6-0.4-0.7-0.3c-0.3,0.1-0.4,0.5-0.7,0.6c-0.5,0.2,0,2.8,1,4.7C47.4,180.5,47.7,180.7,47.7,180.4z M53.7,178.5l-0.7-1.6
		l0.1,1.4c-0.2,0.3-0.3,0.9-0.4,0.7l-0.2-0.3c-0.3-0.5-0.4-1.1-0.3-1.7c0-0.2-0.2-0.8-0.3-1.2c-0.7-2-0.6-2.5-0.1-2.8
		c0.4-0.4,0.5,1.3,0.8,1.4l0.1-0.3c0.1-0.7-0.1-1.8-0.3-2.6l0,0c-0.3,0.2-0.7,0-1.1-0.8c-0.2-0.3-0.4-0.4-0.4-0.9
		c-0.2,0-0.4,0.1-0.6,0c-0.1-0.1-0.4-0.5-0.4-0.8l-0.2-1.3c-0.2-0.4-0.6-1.3-0.8-1.2c-0.2,0.1,0,1.3,0,1.9c0.2,0.6,0.4,1.3,0.6,1.9
		c0.1,0.5,0.1,1.3,0,1.6c-0.2,0.4-1.1-0.9-1.3-1.7l-0.2-0.6l-0.6,0.6c0.2,0.7,0.3,1.4,0.3,1.9c0,1.5,0.5,0.9,0.8,1.4
		c0.2,0.5,0.5,0.9,0.6,1.6c-0.1,0.5-0.1,0.7-0.1,1l0.4,0.5c0.6,0.7,0.7,0.2,0.8-0.4c0-0.2,0-0.5-0.1-0.8c-0.1,0-0.2-0.1-0.3-0.1
		c-0.3,0-0.6,0.1-0.8-0.1c0.4-0.9,0.6-1.5,0.9-2.2l0.8-1.4l0.6,2.8c-0.1,0.4-0.2,0.7-0.3,1.1c0,0.2,0.1,0.6,0.2,1
		c0.4,0.1,0.8,0.8,0.4,1.2c-0.5,0.4-0.7,0.5,0.3,2.2c0.1,0.2,0.2,1.1,0.3,1.7c0.1,0.3,0.3,0.7,0.4,1
		C52.6,180.3,53.5,180.2,53.7,178.5z M54.4,177.5l0.1,1.3l0,0.2c0,0.2,0,0.4,0,0.5l0.2,1c0.1-0.1,0.2-0.1,0.2-0.3l0-2.2L54.4,177.5z
		 M56.7,198.7c-0.6-1.1-1.4-2.6-1.7-3.8c-0.3-1-0.2-1.8-0.3-2.6c-0.7-0.5-0.2,1.4-0.4,1.7c-0.2,0.3-0.5,0.4-0.6,0.4
		c0,1.6,0.9,4.3,1.9,5.6c0.2,0.2,0.5,0.2,0.6,0.3c0,0,0-0.2,0-0.3C55.2,197.7,56.4,198.8,56.7,198.7z M56.5,186.3l-0.3-1.1
		c-0.2,2.3-1.3-2.6-1.8-2.8c-0.1-0.1-0.3-0.1-0.3,0.2c0,0.4,0,1.1,0.1,1.7c0.1,0.1,0.1,0.3,0.3,0.7c0.1,0.1,0.4,0.5,0.4,0.3
		c0.1-0.6,0-2,0.5,0.7c0.2,1.3,1.5,4.1,1.6,3.7C57.1,189.2,57,188,56.5,186.3z M59,187.3c-0.2-0.5-0.5-1-0.7-1.5
		c0.5,2.6-0.4,0.2-0.5,1.1c0,0.3,0.2,3.2,0.3,3.5c0.1,0.4,0.3,1,0.4,1.1c0.4,0.5,0.4-0.8,0.6-1.6l-0.2-1c0.2,0.2,0.3,0.4,0.5,0.6
		l0-0.1C59.5,189.4,59.2,188,59,187.3z M62,190c0.1,0.7,0.3,1.5,0.6,1.9c0.2,0.3,1.1-0.1,1.1-0.6l0-0.1
		C63.2,191.8,62.5,191.1,62,190z M69.2,206.4c0-0.2-0.4-0.2-0.5,0c-0.6,0.7-1.6,1.1-2.6,1.3l-0.9,1c1.3-0.2,2.6-0.6,3.5-1.3
		C68.9,207.1,69.2,206.6,69.2,206.4z M64.3,189l-0.1,0.1l0-0.4l-0.5-1.1c-0.1,0.1-0.2,0.3-0.4,0.4c0.2,0.5,0.4,1.3,0.5,1.9l0-0.2
		c0.7,0.8,0.9,1.1,1.2,1.2C64.8,189.7,64.6,189.5,64.3,189z M61.4,176.8c0,0,0-0.1,0-0.2c0-0.1,0.4,0.6,0.6,0.9
		c0.3,0.5,0.6,1.2,0.8,1.6c0.1,0.2,0.3-0.2,0.2-0.4c-0.4-1.4-0.5-2.7-0.3-3c0.3-0.7,0.2-1.1-0.5-2.6c-0.4-0.4-0.7-0.6-0.5,0.3
		c0.5,2.1-0.1,1.2-0.3,1.3c-0.4,0.1-1-1.6-1.5-2.7c-0.1-0.1-0.1-0.9-0.1-0.9l0.8,0.8l0-0.1c-0.2-0.5-0.5-1-0.7-1.4
		c-0.1-0.3-0.2-0.6-0.2-1c-0.1,0.2-0.1,0.5-0.3,0.3c-0.1-0.1-0.1-0.2-0.2-0.4c-0.3-0.3,0.1,1.2,0,1.5c0,0.4,0.2,1,0.5,1.8
		c0.2,0.6,0.4,1,0.5,1.3l0.1,0.2C60.6,175.2,61,176.1,61.4,176.8z M65.3,184.6c-0.1-1.7-0.4-2.2-0.7-2.2c-0.1,0-0.2,0-0.3,0.1
		l0.1,0.6c0,0.6,0.1,1.1,0.2,1.5l0,0.2c0.1,0.2,0.1,0.4,0.2,0.5c0.8,1.9,1.5,4.2,1.9,3.2c0.1-0.2,0-0.9,0-1.3
		c-0.1-0.2-0.3-0.5-0.4-0.6c-0.1,0-0.2,0.2-0.4,0.2C65.6,186.5,65.4,185.9,65.3,184.6z M61.7,178.9l0.2,0.5l0-0.7l-0.1-0.3l0,0
		L61.7,178.9z M73.1,195.8c0,0-0.1,0.1-0.2,0.3c-0.6,2-0.2,3.2-0.4,4.8c0,0.2,0.1,0.4,0.2,0.7c0.1-0.3,0.3-0.6,0.4-1
		C73.5,198.7,73.4,195.9,73.1,195.8z M72.3,194.6c-0.1,0.2-0.2,0.4-0.3,0.7c-0.4,2.2-0.9,4.4-0.8,6.7l0,1.2c0.1-0.4,0.3-0.9,0.5-1.8
		c0.2-1.9,0.3-4.1,0.5-6.3C72.4,195,72.4,194.8,72.3,194.6z M71.9,188.4c-0.1-0.1-0.5,0.7-0.5,0.9c0,1.2,0,2.5,0,3.9
		c0.1,0.5,0.1,1.2,0.2,1.7c0.2-0.5,0.3-1.1,0.4-1.3C72.6,190.4,72.5,188.9,71.9,188.4z M64.5,176.6c0.1-0.3,0.3-0.6,0.4-1
		c0-0.2,0.1-0.7,0-0.9c-0.2-0.6-0.9-1-0.9-0.5c0.2,1.6-0.6,2.2,0.6,4.7l0.1,0.7c-0.3-0.1-0.6-0.2-0.9-0.7l0.1,0.9
		c0.7,1.3,1.3,2.2,1.9,2c0.1,0,0.3,0.3,0.5,0.4l-0.6-1.7l-0.2-0.3C65.1,179.1,65.2,177.4,64.5,176.6z M70,179.2
		c-0.3,0.2-0.7,0.6,0,1.8c0.4,0.8,0,1.7-0.2,2.5c-0.3,1.1-0.2,1.9,0.4,2.5c0.2-0.5,0.6-1,0.8-2c0.2-1.2,0.1-2.9,0-4.2
		C70.9,179.3,70.3,179,70,179.2z M64.5,172.3c0,0,0.3,0.2,0.5,0.4c0-0.2-0.1-0.7-0.1-0.7c-0.7-0.7-0.3-1.5-0.3-1.9
		c-0.6-2.5,0-2.4,0.6-2.8l0.3-0.2c-0.1-0.2-0.2-0.7-0.2-0.7c-0.4-0.1-0.7-0.9-1.1-1.4c-0.2-0.2-0.7,0.3-0.8,0.8
		c-0.2,0.5,0,1.1,0.4,1.5c0.4,0.4,0.3,1.7,0.1,1.5c-0.6-0.4-0.7,0.3-0.6,1.3c0.1,1.3,0.6,1.2,0.9,1.7
		C64.2,171.9,64.3,172,64.5,172.3z M74.9,177.7c-0.3,1.8-0.6,3.1-1.2,3.8c0,0,0.1,0.9,0.1,1.1c0.6,0.8,1.3,0.5,1.6-0.9
		C75.5,180.7,75.1,179,74.9,177.7z M75.2,169.6c-0.7,0.6-1.3,1-1.9,1.5c0,0-0.1,0.3-0.1,0.5c0.8,3.5-0.4,3.1-0.3,5.1
		c0,0.4,0.4,1.2,0.5,1c0.3-0.6,0.6-2.2,1-2.5c0.2-0.2,0.4-3.3,0.8,0l0.6-3.1C75.6,171.3,75.4,170.4,75.2,169.6z M66,160.6
		c-0.4,1.5-1,1.9-1.4,2.9c0,0,0.1,0.5,0.2,0.7c0.7,0.4,1.4-1,1.6-3c0-0.1-0.1-0.4-0.1-0.4C66.2,160.8,66,160.5,66,160.6z M72,150.9
		l-0.1,0.4c0,0.2,0.1,0.7,0.1,0.7c0.5-0.1,0.7,1.3,1,2c0,0.1,0.2-0.2,0.2-0.3c0.1-1.3,0.1-2.4-0.3-3.4
		C72.5,149.3,72.3,150.1,72,150.9z M62.7,127.5c1.4-2.9,2.6-6.4,3.6-10.5c0.1-0.4,0-1.2,0-1.7c0-0.1-0.5,0.2-0.5,0.4
		c-0.2,1.8-0.7,2.3-1.2,2.7c-0.6,0.4,0.2,2-0.3,2.1c-0.5,0.1-1,1-1,1.6c-0.4,4.2-0.9,2.5-1.5,1.7c-0.1-0.1-0.2-0.1-0.4,0
		c-0.3,0.1-0.6-0.5-0.8,1c-0.3,1.8,0.3,0.9,0.4,1.2c0.1,0.2,0.1,0.8,0,1.3C62,128.2,62.4,128.1,62.7,127.5z M66.6,118.5
		c-0.3,1.8,0.3,1.2,0.7,1.5c0.2-0.2,0.4-0.5,0.7-0.7l-0.6-2.7C67.1,117.2,66.7,117.7,66.6,118.5z M64.8,130.8l2.3-1
		c0.1-0.2,0.2-0.8,0.4-1.7c-0.4-0.2-0.7-0.3-1-0.4c-0.3,2.5-1,1.7-1.5,2.6L64.8,130.8z M68.5,134.1c0.1,0.7,0.8,0,0.9-0.9l0.1-0.3
		l0,0l0,0c-0.1-0.2-0.3-0.3-0.4-0.6l-0.6-1.8c-0.1-0.1-0.2,0.1-0.6,0.2C68.3,132.1,68.4,133,68.5,134.1z M62.1,140
		c0.6-2.3,0.7-2.9,0.1-4.9c-0.1-0.5-0.2-1.2-0.4-1.6c-0.2-0.4-0.1-2.2-0.7-1.3c-0.1,0.2-0.2,0.4-0.2,0.7c-0.1,1-0.2,2,0,3.1
		c-0.2,0.6-0.3,1.3-0.4,1.9c0.1,0.4,0.2,0.6,0.6,0.5c0.4-0.2,0.3,0.9,0.4,1.7C61.5,141,61.9,140.9,62.1,140z M68.7,140
		c-0.2-0.2-0.3-0.3-0.5-0.1l0,0.1l0.1,0.2l-0.2,0c0,0.2-0.1,0.4-0.1,0.7l-0.1,2.2c0,0.5-0.1,1.2-0.1,1.6c0,0.3,0.3,0.5,0.4,0.6
		c0,0,0.2-0.4,0.3-0.6C67.7,143.2,69.8,141.4,68.7,140z M77.3,130.1c-0.2,0.4-0.3,0.8-0.4,1.4l-0.1,0.1c0.1,0.5,0.2,1.1,0.3,1.7
		c-0.4,0.1-0.6,0.3-0.9,0.5l-0.1,1c0.2,2.8-0.9,1.7-1.2,3.1c0,0.1-0.2,0-0.3,0c0.2-1,0.4-2,0.6-3c-0.1-0.6-0.2-1.3-0.1-1.6
		c0.2-0.4,0.4-0.9,0.6-1.2l-0.1-0.1c-0.1,0-0.2,0-0.3,0c-0.3,0.8-0.5,1.6-0.7,2.4c-0.4,1.6-1.9,1.9-1.1,5.3c0,0-0.6,1.5-0.8,2.3
		c-0.1,0.2,0,0.7,0,1c0,0.1,0.2,0.2,0.2,0.1c0.5-1.6,1.1-1.8,1.7-1.8c0.4,0,0.8-0.7,1.1-1.5c0.2-0.5,0.1-1.7,0.2-2.6l0.4,0
		c0.1,1.1,0,2.9,0.9,1.3c0.2-0.4,0.5-0.8,0.7-1.2c0-0.9,0-1.6-0.2-2.2l-0.3,1c-0.2,0.6-0.5,0.9-0.8,1.3c-0.1-0.4-0.2-0.6-0.2-0.8
		c0-0.3,0.1-1,0.1-1c0.4-0.3,0.6-0.9,0.8-1.7l-0.1-0.4c0.2-1.1,0.3-2,0.4-2.9C77.5,130.3,77.4,130.2,77.3,130.1z M76.5,115.6
		c-0.1,1.3-1.2,1.2-0.8,3.6c0.1,0.5-0.9,1.7-1.2,0.7l-0.4-2c-0.3-1-0.8-0.9-1,0.4c-0.3,1.2-0.3,2.7-0.5,4c1-0.2,0.2,2.4,0.4,3.4
		c0.1,0.3,0,0.9-0.1,1.4l0.9-0.4l0,0.8l0.2-0.2c0-0.7,0-1.3,0-1.3c-1-0.1,0.6-2.8-0.1-3c0.3-0.5,0.6-1,0.9-1.4c0,0,0.2,0.8,0.2,1.4
		c0,1.3,0.1,2.5,0.1,2.8c-0.2,1.4-0.2,1.9-0.2,2.1l0,0.1c0,0.3-0.1,0.5-0.1,0.7c-0.2,0.5-0.4,1.1-0.7,1.6c0.1,0.1,0.2,0.1,0.2,0.4
		l0.1,0.9l0.2-0.1c0,0-0.1-0.6-0.1-0.9l1.5-3.4c0.4-1.3,1-2.6,0.6-4.2c0.2-0.4,0.3-0.6,0.4-0.8l0.2-3.7c-0.7,0-0.4-0.9,0-1.6l0-0.1
		l0-0.3c0.1-0.4,0.3-0.9,0.4-0.9c0-0.4-0.1-0.7-0.2-1.1C77,114,76.7,114.1,76.5,115.6z M70.9,102c-0.3,0.5-0.7,0.5-1.1,0.7
		c0.3,0.4,0.8,0.6,0.8,1.4c0.1,1.4,1.1-0.5,0.9,1.8c0,0.4,0,0.7,0.1,1l0.3-0.9c0.1-0.4,0.3-0.9,0.5-1.7c0,0-0.1-0.5-0.1-0.5
		c-0.5,0.1-0.7-0.5-0.8-1.6C71.4,101.4,71.3,101.6,70.9,102z M68.9,93.2c-0.4,0.4-0.8,1.7-1.2,2.8c0-0.1,0,0.1,0,0.3l0.7,2.2
		c0.2,0.6,0.2,1.3-0.2,2.3c-0.3,0.6-0.5,1.6-0.6,2.4c-0.1,1-0.2,2.1-0.4,3.1c0.4-0.2,0.5-2.7,1.1-2c0.4-1.5,1.3-3.4,1.2-4.5
		c0-2,0.3-3.8,0.6-5.7c0-0.2,0-0.5,0-0.5C69.7,93.5,69.3,92.8,68.9,93.2z M78.5,81.6c-0.1,0.2-0.2,0.3-0.3,0.5
		c-0.2,0.5-0.6,1.2-0.7,1.7c-0.3,1.9-0.6,3.9-0.9,5.9c0,0.2,0.2,0.4,0.5,0.7c0.2-0.5,0.6-1,0.7-1.6c0.2-0.6,0.1-1.3,0.2-1.9l0.4-4.3
		L78.5,81.6z M77.4,72.4c0,0.5-0.1,1.2-0.1,1.9c0.3-0.8,0.5-1.6,0.8-2.5c0.3-0.7,0.6-1.5,0.9-2.2c0.1-0.4,0.3-1.3,0.2-1.4
		c-0.3-0.4-0.9,0-0.5-2.1c0.2-1-0.2-2.1-0.4-2.5c-0.7-1,0-2.2,0.9-3.8c0.3-0.6,0.7-1.6,0.9-2.4c0.1-0.3-0.2-0.6-0.4-0.7
		c-0.4-0.2-0.1-1,0.2-1.9c0.8-2.3,0.1-1.2-0.4-0.6c-0.2,0.2-0.3-0.1-0.5-0.1c-0.3-0.1-0.6,0.3-0.5,1.1c0.1,1-1.4,3.5-0.4,3.5
		c-0.1,0.3-0.1,0.6-0.2,0.7c-1.5,2.5-2.8,5.1-4.1,7.7c-0.2,0.3-0.4,0.4-0.6,0.5L72.6,68c0,0.2,0,0.6,0.1,0.6
		c0.9-0.2,1.9-0.4,2.8-0.7c0,0,0.3-0.9,0.4-1.4c0.1-0.7,0.2-1.5,0.3-2.3l0.8-0.3c0.5,0,0.6,0.7,0.3,2.2c-0.2,0.9-0.2,1.9-0.1,2.6
		c0.1,0.5,0.4,0.5,0.6,0.8c-0.5,0.9-1,1.6-1.5,1.4c-0.7-0.2-1.1,2.3-1.7,3.2l0,0.8c0.3,0,0.6,0.2,0.9-0.2c0.4-0.5,0.8-1.6,1.2-2.3
		C77,72.1,77.4,72.1,77.4,72.4z M82,67.7c-0.6,1.2-0.9,1.7-1,2.1c-0.1,0.6-0.3,1.4-0.4,2l-0.9,2.8c0.5-0.6,1.1-1,1.4-1.7
		C81.4,71.6,81.5,70.1,82,67.7z M90.6,51.5c-0.2,0.2-0.4,0.5-0.5,0.6c-0.8,0.5-1.6,1.6-2,3.3C88,56,87.8,57,87.9,57
		c0.2,0.1,0.8,0,0.9-0.3c0.4-1,0.7-1.6,1-1.2c0.1,0.2-0.2,1.1-0.3,1.7l-0.8,2.5c-0.1,0.3-0.5,0.7-0.6,0.7c-0.1,0-0.1-0.5-0.1-0.8
		c0.1-0.5,0.1-0.9,0.2-1.3c-0.2,0.4-0.5,0.9-0.6,1.3c-0.6,2-0.7,1.5-0.9,0.7c0,0-0.5,0.6-0.7,0.9c0,0.3,0,1,0.1,0.9
		c0.7-0.4,0,2.6,1.2,0.9c0.5-0.7,0.1,0.7-0.1,1c-0.2,0.5-0.4,2-0.7,1.2c-0.1-0.2-0.2-0.1-0.3-0.2c-0.1,0.3-0.3,0.8-0.3,1
		c0.5,0.7,0.4,1.5-0.5,2.7c-0.1,0.1-0.3,1-0.3,1c0.5,1,1.3,0.1,1.9-2c0.1-0.5,0.4-1.2,0.4-1.5c0.3-3.6,1.5-4.8,2.9-5.9
		c0.2-0.2,0.4-0.5,0.7-0.8c-0.7,0.7-1.3,0.5-0.9-1.3c0.4-1.5,0.7-1.9,0.5-2.9c-0.2-1.1-1.3-0.6-0.3-3.1L90.6,51.5z M88.3,50.4
		c0,0-0.4,0.5-0.9,1.1c-0.1,1-0.3,2-0.4,3l1.8-2.1L88.3,50.4z M85.5,45.5c0.2-0.2,0.6-0.9,0.6-1.3c0.2-1.2-0.3,0-0.5,0.1
		c-0.9,0.3-2,2.9-2.9,3.4c-0.7,0.4-1.2,0.7-1.7,2.5c-0.9,2.1-0.4,1.4,0.2,1.1c1-0.4,0.8,1.6,0.5,3.7c-0.1,0.5,0.1,0.8,0.1,1.1
		c0.2-0.5,0.6-1.1,0.7-1.6c0.3-1,0.5-2,0.6-2.8c0.1-0.6-0.3-0.9-0.1-1.5C83.6,48.3,84.4,46.6,85.5,45.5z M92.9,42.4
		c0-0.2-0.1-0.4-0.3-0.3c-0.1,0-0.4,0.4-0.7,0.7c-0.1,0.2-0.1,0.5-0.2,0.9C91.6,45.1,91.8,46,91,48c-0.5,1.3,0,1,0.3,1.1
		c0.3,0.1,0.9-0.7,1-1.4L92.9,42.4z M94.9,41.2c-0.8,0.8-1.2,1.8-1.4,2.9c0,0.1,0,0.1,0.1,0.3c0.2-0.1,0.4-0.2,0.6-0.4
		c0.3-0.3,0.8-1.3,0.9-1.2c0.9,0.1,0.7-0.9,0.8-1.5C96,40.1,95.5,40.6,94.9,41.2z M96,35.1c-0.4,0.6-0.9,1.3-1.3,1.9
		c0,0,0,0.8,0.1,0.8c0.5,0,0.2,1.1,0.2,1.8l0,0.6l0.3-0.3l0.5-0.9c0.7-1.7-0.7-1.4,0.4-3.5L96,35.1z M93.3,31c0,0-0.6,0.6-0.7,0.9
		c-0.7,1.4-1.1,2.1-1.6,1.6c-0.9-1.1-2.4-0.7-4.1,0.5c-0.4,0.3-0.9,0.9-1.5,1.5C85.2,36.3,85,37,85,37.4c0,1.7,0.6,2.7,1.1,3.7
		c0.2,0.4,0.4,0.3,0.8-1.2c0.3-1,1.3-2.8,2-3.8c0.6-0.8,1.5-1.5,1.8-1.3c0.5,0.3,1.2-0.6,1.9-1.4c0.2-0.2,0.6-0.9,0.6-0.9
		C93.3,32,93.3,31.5,93.3,31z M102.4,18.3c-0.1,0.2,1.1-1.2,0.7,0.1c0,0,0.4-0.1,0.5-0.2l1.2-1.8c0.7-1.1,0.9-1.1,1.2-0.9l0.1-0.1
		c0.8-2,0.6-2.3,0.3-2c-0.9,0.8-1.8,1.7-2.7,2.8C103.1,16.6,102.7,17.6,102.4,18.3z M106.5,15.8c0-0.1-0.1-0.2-0.3-0.2
		c-2.6,7-2.1,6.8-1.8,6.4c0.2-0.2,0.4-0.7,0.5-1C105.3,19.4,105.5,17.9,106.5,15.8z"/>
</g>
</svg>
