<?xml version="1.0" encoding="utf-8"?>
<!-- Generator: Adobe Illustrator 25.1.0, SVG Export Plug-In . SVG Version: 6.00 Build 0)  -->
<svg version="1.1" id="Calque_1" xmlns="http://www.w3.org/2000/svg" xmlns:xlink="http://www.w3.org/1999/xlink" x="0px" y="0px"
	 viewBox="0 0 744.8 17.4" style="enable-background:new 0 0 744.8 17.4;" xml:space="preserve">
<style type="text/css">
	.st0{fill:#E83C4C;}
</style>
<g>
	<polygon class="st0" points="617.7,6.6 617.7,6.6 617.8,6.6 	"/>
	<path class="st0" d="M512.1,3.7L512.1,3.7L504.7,4C511.6,4.1,511.8,4.1,512.1,3.7z"/>
	<path class="st0" d="M198,8.4c-1.1,0-2.5,0-4.5,0.1C194.8,8.6,196,8.6,198,8.4z"/>
	<path class="st0" d="M193.5,8.5l-0.2,0c-0.3,0-0.4,0-0.7,0C193,8.5,193.2,8.5,193.5,8.5z"/>
	<polygon class="st0" points="198.1,8.4 198,8.4 198.1,8.4 	"/>
	<path class="st0" d="M220.3,8.6c0.6,0,3.3,0,4.6-0.1c0.8,0,1-0.1,0.8-0.2c-0.3-0.1-1.5-0.1-1.9-0.2c-0.8-0.2-2.6-0.2-6.6,0
		c-3.7-0.1-3.9,0-3.1,0.1C215.7,8.4,217.9,8.5,220.3,8.6z"/>
	<path class="st0" d="M229.6,8.5c0.5,0,4.7-0.2,4.2,0c-0.1,0.1-2.1,0.3,1.6,0.2c1,0,1.9-0.5,2.9-0.6c0.2,0,0-0.1,0-0.1
		c0.2-0.2-1.1,0.1-4.9,0.1c-1.4,0-4,0.1-4.3,0.1C228.6,8.3,228.7,8.4,229.6,8.5z"/>
	<path class="st0" d="M296,6.4c1.6-0.1,5.1-0.3,6.3-0.4c0.8-0.1,1.1-0.1,1.6-0.2c-1.4,0-4.9,0.1-5.2,0.1c-2.4,0-4,0.1-4.8,0.1
		c-1.5,0.1-3.7,0.2-3.5,0.2c0.3,0.1,2,0.1,3.4,0.2C294,6.4,295.5,6.4,296,6.4z"/>
	<path class="st0" d="M232.2,7.5c-0.2-0.1,1.7-0.3-2.3-0.2c-1.6,0.1-3.1,0.1-5.4,0.2c2.1,0,3.7,0.1,5.5,0.1
		C230.5,7.7,232.3,7.6,232.2,7.5z"/>
	<path class="st0" d="M251.9,8.4c0.7,0,2.3,0,2.3,0c0.3-0.1,0.4-0.3,0.5-0.4c-0.6,0-1.4,0.1-1.7,0.1c-0.6,0.1-1.1,0.1-1.6,0.2l1.4,0
		c-0.6,0-1.3,0.1-1.7,0.1C251,8.3,251.5,8.4,251.9,8.4z"/>
	<path class="st0" d="M7.6,16.4c1.8,0,3.4,0.2,5.8,0c3.5-0.2-1-0.2-2.3-0.3c-0.6,0-1.1-0.1-1.6-0.1c-0.7,0,1.4-0.2-1.8-0.2
		c-2.7,0.1-5,0.2-7.5,0.3c-0.2,0-0.1,0-0.1,0c0.6,0,1.1,0,1.7,0C3.7,16.4,5.7,16.4,7.6,16.4z"/>
	<path class="st0" d="M40.2,12.5c1.8-0.1,4.5-0.2,6.9-0.3c0.5,0,0.6-0.1,0.1-0.1c-0.6,0-2.7,0-3,0c-1.7,0.1-3.7,0.2-6.3,0.2
		c-2.1,0-5.5,0-4.9,0.2C33.6,12.7,37,12.5,40.2,12.5z"/>
	<path class="st0" d="M112.1,9.6c1.5,0,4.6-0.2,7.7-0.3c0.2,0,0,0,0-0.1c-3.8,0.1-7.6,0.1-11.3,0.2c-0.9,0.1-1.7,0.1-2.5,0.2
		c1,0,2.1,0,3.1,0C109.4,9.6,109.9,9.6,112.1,9.6z"/>
	<path class="st0" d="M59.3,10.3c-0.6,0-1.2,0-1.9,0c-4.1,0-7,0.2-8.1,0.4c0.2,0,1.6,0,2.1,0C54.2,10.6,56.7,10.5,59.3,10.3z"/>
	<path class="st0" d="M31.2,13.7c1.3-0.1,2.2-0.2,3.3-0.3c1.9-0.2-2.7-0.1-1.7-0.3c-0.6,0-1.5,0-1.6,0c-1,0.2-2,0.3-2.6,0.5
		C28.4,13.6,29.7,13.6,31.2,13.7z"/>
	<path class="st0" d="M49.9,11.2C49.7,11.3,49.8,11.3,49.9,11.2c0,0.1-0.3,0.2,0.1,0.2c0.3,0,1.6,0.1,2.4,0c0.8,0,2.1-0.1,2.3-0.1
		c0.4-0.1,0.4-0.2-0.1-0.2c-0.3,0-1.6-0.1-2.4-0.1C51.4,11.1,50.6,11.2,49.9,11.2z"/>
	<path class="st0" d="M464.7,3.9c2.4,0,4.9-0.1,7.3-0.1c2.8,0,7-0.2,7.9,0c0.2,0-3.6,0.2-5.4,0.3c-0.5,0-1,0.1-1.4,0.1
		c1.1,0,2.2,0,3.2,0c3.4,0,4.8-0.3,8.5-0.2c3.3,0.1,5.6-0.2,9.4-0.2c2.4,0,6.4,0,8.9-0.2c0.1,0,1.1,0,1.7,0l4.2,0
		c-0.6-0.1-0.9-0.2-1.9-0.2c-0.8-0.1-9.5,0.1-10.8,0.1c-2.2,0.1-4.4,0.2-6.8,0.3c-2.7,0.1-6,0-6.5-0.1c-0.1,0,1.2-0.1,1.7-0.1
		c1.8,0,3.6,0,5.4,0c0.6,0,1.4,0,2.1-0.1c-0.5,0-0.9,0-1.6-0.1c-3.4-0.1-8.8,0.1-11-0.1c-0.2,0-1.5,0-2.2,0c-0.7,0-1.5,0.1-1.9,0.1
		c-2.9,0.2-5.3,0.3-7.3,0.1c-0.4,0,0.6-0.2-2.2-0.1c-1.7,0.1-3.6,0.1-4.9,0.2c-0.6,0-0.2,0.1-0.3,0.2C460.4,3.9,460.1,4,464.7,3.9z"
		/>
	<path class="st0" d="M392.1,11.2c0.1,0.1-1.6,0.3-3.3,0.4c-1.4,0.1-4,0.1-6.6,0.2c-2.3-0.1-9.8,0.1-10.7-0.2
		c-0.2-0.1-4.9,0-2.2-0.2c1.5-0.1,1-0.3,5-0.3c1.6,0,3.3-0.1,5-0.2c1.2,0.2,7.2-0.1,8.4,0.1C388.2,11.1,392,11.1,392.1,11.2z
		 M385,11.3c0.6-0.1-4.6-0.3-5.9-0.2c-1.6,0.1-3.2,0.2-3.7,0.2c-0.8,0.1,2.5,0.2,7.1,0.1C383.1,11.5,384.5,11.4,385,11.3z"/>
	<path class="st0" d="M569.6,2.3c2.3,0,3.9-0.1,3.7-0.2c-0.1-0.1-0.1-0.1,0-0.2c0.1,0,0.8-0.1,1.2-0.1c0.4,0,1.3,0,1.1,0.1
		c-2.1,0.3,3.9,0.2,5.6,0.2c0.7,0,1.7-0.1,2.5-0.1c0.8,0,1.5-0.1,1.5-0.1c0.2-0.2-5.4-0.3-9.4-0.2c-1.2,0-2.9,0-3.6,0.1
		c-3.3,0.2-4.3,0.2-4.1,0c0,0-0.8-0.1-1.2-0.1c-0.4,0.1-0.5,0.1-1.2,0.2c-1.4,0.1-4.1,0.2-4.7,0.3C559.8,2.2,565.3,2.4,569.6,2.3z"
		/>
	<path class="st0" d="M732.5,4.2c1,0,0.8-0.2,3.5-0.2c0.1,0,0.7-0.1,0.5-0.1c-2.5,0-5-0.1-7.6-0.1c-0.2,0-1,0.1-1.7,0.1
		c-3.5,0.1,3.5,0.2-2.6,0.3c-1.5,0-2.8,0.2-4.5,0.3c-2.1,0.1-4.6,0.3-6.8,0.4c-0.4,0-0.1,0.1-0.1,0.1c0.5,0,1.1,0,1.8,0
		c0.7,0,1.8,0,2.2-0.1c2.4-0.2,4.7-0.4,7-0.5C729.6,4.7,730.1,4.4,732.5,4.2z"/>
	<path class="st0" d="M321,5.9c3,0.1,6.7,0.1,6.2,0.4c-0.1,0.1,2.5,0.1,4.5,0.1c2-0.1,3.5-0.2,4.6-0.3c0.5,0,0.2-0.1-0.4-0.1
		c-3.6-0.1-7.5-0.3-11.1-0.4c-1.4-0.1-2.5,0-3.5,0.1c-0.8,0.1-1.4,0.1-1.8,0.2C319.4,5.9,320.4,5.9,321,5.9z"/>
	<path class="st0" d="M700.9,5.5c-0.1,0,0,0.1,0,0.1c0,0.1-0.8,0.2,3.3,0.2c0.5,0,0.9,0.1,1.7,0.2c0.3,0,1.8,0,1.8,0
		c2.1-0.2,6.6-0.3,5.4-0.5c-0.8-0.1-1.7-0.3-3.3-0.4C708.8,5.1,701.4,5.4,700.9,5.5z"/>
	<path class="st0" d="M542.7,8c-0.1,0-0.7,0-0.8,0c-1.4,0.4-8.8,0.5-13.5,0.7c-2.1,0.1-2.2,0.2-0.6,0.2c3.3,0.1,5.8,0.1,8.8-0.2
		c1.2-0.1,2.4-0.2,3.9-0.3c2.9-0.1,4.1-0.3,3.4-0.4c0,0,0.1-0.1-0.1-0.1C543.8,8.1,543.2,8.1,542.7,8z"/>
	<path class="st0" d="M424,4.2c3.2-0.2,5.4-0.2,9.2-0.2c3.2,0,2.7-0.2,2.9-0.3c5.7-0.1,7.7,0,7.4,0.2c-0.3,0.2,2,0.2,5.5,0
		c0.8,0,2.3-0.1,3.3-0.1c1.2-0.1,2.3-0.1,3.5-0.1c-0.9,0-1.8-0.1-2.8-0.1c-3.3-0.1-8.4,0-10-0.2c-0.7-0.1-6.5,0-9.3,0.2
		c-1.8,0-3.6,0-5.4,0c-4.3,0-7.8,0.1-9,0.3c-0.6,0.1-0.3,0.2,0.5,0.2C420.1,4.3,423.1,4.3,424,4.2z"/>
	<path class="st0" d="M716.8,2.9c1.1-0.1,3-0.1,3.3-0.2c0.4-0.1,1.7-0.2-1.3-0.3c-1.6,0-4.7,0.1-1.7-0.1c0.7,0,1-0.1,0.8-0.2
		c-0.4-0.1,1.8-0.3-1.9-0.2c-2.7,0-5.6,0.2-5.4,0.4c1.2,0.1,2.4,0.3,3.7,0.4C715,2.8,716,2.8,716.8,2.9z"/>
	<path class="st0" d="M697.5,1.1c-2.4,0.1-4.7,0.2-7.6,0.2l-3.8,0.1c0.8,0,1.6,0.1,2.5,0.1c2.6,0.1,5.3,0.1,8.1,0.2
		c0.7,0,2.5,0,3.1,0c0.7,0,1.2-0.1,0.8-0.2c-0.6,0-1.9-0.1-3-0.1c1.4-0.1,2.5-0.2,3.1-0.2C701.5,1.1,699,1,697.5,1.1z"/>
	<path class="st0" d="M553,2.4c1,0,2.9-0.1,3-0.1c0.1-0.1-0.2-0.2,2.5-0.4c-1.8,0-3.5-0.1-5.5-0.1c-1.8,0.2-5.5,0.1-7.2,0.2
		c-0.4,0-1.5,0.1-1.6,0.1C544.2,2.3,549.1,2.4,553,2.4z"/>
	<path class="st0" d="M657.5,6.5c-2.6,0.1-3.3,0-4.4,0c-2.8,0.1-4,0.3-2.2,0.4l3.4,0.2c0.4,0,1.2,0,1.2,0c0.9-0.2,4.5-0.3,8.6-0.4
		c0,0,0-0.1,0-0.1C663.9,6.3,663.6,6.3,657.5,6.5z"/>
	<path class="st0" d="M530.3,2.9c0.3-0.1,1.3-0.2,0.8-0.2c-3.2-0.1-1.2-0.3-2-0.4c-0.6-0.1-1.8-0.2-3.2-0.2c-0.4,0-2.2,0-3.2,0
		c-0.4,0-0.6,0.1-1.1,0.1c1.4,0.2,2.9,0.4,4.7,0.6C526.8,2.9,528.9,2.9,530.3,2.9z"/>
	<path class="st0" d="M611,7.3c-1.4,0-2.8,0-4,0c-2.3,0-4.5-0.1-4.5,0.1c0,0-0.5,0-0.8,0.1c-2,0.1-4,0.1-5.9,0.2c1.9,0,3.9,0,5.7,0
		c2.1,0,4,0,5.9,0.1c1,0,1.9,0,3.6,0.1c0.9-0.1,1.3-0.2,2.3-0.3c1.3-0.1,2.9-0.2,1-0.2C614,7.2,612.1,7.2,611,7.3z"/>
	<path class="st0" d="M627.8,7.3c-0.5,0.2-3,0.2-5.8,0.3c-0.7,0-1.4,0.1-2.1,0.1c1,0,2,0,3,0.1c6.1-0.1,11-0.4,11.7-0.7
		c0.1,0-0.7,0-1.4-0.1C631.3,7.1,628.1,7.2,627.8,7.3z"/>
	<path class="st0" d="M651.9,7.1c-5.4,0.1-10.3,0.2-13.6,0.4c-0.3,0-0.5,0.1-0.7,0.1c0.7,0,1.1,0,1.8,0.1c0.7,0,2.2,0,2.5,0
		c2.7-0.2,6.4-0.3,10.6-0.3c0.6,0,1.5-0.1,1.8-0.1C654.9,7.1,653.9,7.1,651.9,7.1z"/>
	<path class="st0" d="M491.3,8.7c-0.7,0-2.2,0-3.3,0c-1,0.1-1.9,0.2-2.9,0.3c0.3,0.1,5.7,0.1,7.4,0.1c1.9-0.1,3.8-0.2,5.7-0.3
		c0.5,0,0.9-0.1,1.3-0.1c-0.7,0-1.3,0-2,0C495.2,8.8,493,8.8,491.3,8.7z"/>
	<path class="st0" d="M612.5,7.7c-2,0-2.8,0-3.5,0.1c-3.1,0-5.8,0.2-5.4,0.3c0.4,0.1,3.5,0.1,6.7,0c1,0,2.1-0.1,2.8-0.1
		c0.9-0.1,2-0.1,1.8-0.2C614.8,7.7,612.8,7.7,612.5,7.7z"/>
	<path class="st0" d="M468.5,10c-1,0.1-1.7,0.1-2.6,0.2c0.4,0,0.7,0,1.1,0.1c3.1,0.1,5.9,0.1,9.1-0.1c1-0.1,1.2-0.1,1.8-0.2l-3.6,0
		C472.3,9.9,470.3,10,468.5,10z"/>
	<path class="st0" d="M364.8,11.6c-3.9,0.1-7.7,0.1-11,0.1c-0.3,0-1.3,0-2,0.1c0.3,0,0.6,0.1,0.8,0.1c0.8,0.2,3.3,0.2,7.2,0.1
		c1.8,0,3.5-0.1,4.9-0.1c0.7,0,1.1-0.1,1.3-0.1C366,11.7,365.2,11.6,364.8,11.6z"/>
	<path class="st0" d="M701,3c-1.9,0.1-3.4,0.2-5.1,0.2l4.9,0.1c2.7,0,6.7-0.1,4.1-0.2C704.1,3.1,705.1,2.9,701,3z"/>
	<path class="st0" d="M352.3,5.2c-1.2,0-3.5-0.1-5.4-0.1c-0.8,0.1-1.5,0.2-2.4,0.3c0.9,0.1,1.2,0.2,2.4,0.2
		C348.4,5.5,353.2,5.2,352.3,5.2z"/>
	<path class="st0" d="M465.6,8.8c0.4,0,0.6,0.1,1.2,0.1c1.1,0,2.4,0,3.5,0c2.1-0.1,4.2,0.1,6.3-0.1c0.3,0,1-0.1,0.8-0.1
		c-1.7-0.1-3.7-0.1-6.9,0c-1.5,0-3,0.1-4.4,0.1C465.7,8.7,465.7,8.8,465.6,8.8z"/>
	<path class="st0" d="M454,9.6c-2.1,0.1-4.3,0.1-6.3,0.2c-0.7,0-1.1,0.1-1.7,0.1c0.6,0,1.2,0,1.9,0c2,0,4-0.1,6-0.1
		c0.4,0,0.8,0,1.2,0l5.5-0.1C458.8,9.6,457.4,9.5,454,9.6z"/>
	<path class="st0" d="M697.9,6.1c-1.5,0.2-2.9,0.3-4.3,0.5c0.1,0,1.2,0,2.5,0c1.5-0.1,3.7-0.2,4.6-0.3c0.7-0.1-0.3-0.2-0.7-0.2
		C699.8,6.1,698,6.1,697.9,6.1z"/>
	<path class="st0" d="M451.5,10.1c-1,0.1-1.7,0.1-2.6,0.2c-0.8,0.1-1.5,0.1-2.3,0.1c1.4,0,2.8,0,3.1,0c2.4,0,3.9-0.1,4.7-0.1
		c1,0,1.6-0.1,1.8-0.2c0.2,0-0.3-0.1-0.7-0.1C454.2,10.1,452.7,10.1,451.5,10.1z"/>
	<path class="st0" d="M716.8,3.2c-0.3,0-1,0.1-1.7,0.2c0.5,0.1,0.7,0.1,1.7,0.2c1.3,0,3.2,0,4.9,0c0.2,0,1.3-0.1,1.2-0.1
		c-0.6-0.1-1.3-0.2-2.5-0.2C719.7,3.3,718.1,3.3,716.8,3.2z"/>
	<path class="st0" d="M743.5,5.2c-2.6,0-5.2-0.1-7.9-0.1c-0.5,0-1.5,0-2.2,0.1c-0.2,0-0.5,0-0.4,0c0.9,0.1,6.8,0.2,9.8,0.1l2-0.1
		C744.3,5.3,744,5.3,743.5,5.2z"/>
	<path class="st0" d="M735.1,4.8c-0.1,0-0.9,0-1,0c-3.1,0.1-5.9,0.3-8.7,0.4c-0.4,0-0.2,0.1,0,0.1c0.2,0,1.1,0,1.6,0
		c2.1-0.1,4.2-0.1,6.3-0.2C736.7,5,734.6,4.9,735.1,4.8z"/>
	<path class="st0" d="M639.6,1.5c1.6,0,3.5-0.1,5.3-0.2c0.6,0,0.9-0.1,1.3-0.1l-8.2,0c-0.3,0.1-0.6,0.2-0.9,0.3c0,0,1,0.1,1.7,0.1
		C638.9,1.6,638.9,1.5,639.6,1.5z"/>
	<path class="st0" d="M488.8,9.4c-2.3,0.1-3.4,0.1-4.6,0.1c-0.3,0-0.8,0-0.8,0c0.3,0,0.8,0,1.2,0c2.6,0.1,6.5,0,9.9,0
		c-0.1,0,0.1-0.1-0.4-0.1C492.2,9.4,490.1,9.4,488.8,9.4z"/>
	<path class="st0" d="M257.1,13.2c1.2,0.1,1.5,0.1,1.9,0.1c2.8,0,5.6-0.1,7.2-0.2c0.3,0-0.1-0.1-0.2-0.1
		C263.2,13.1,260.4,13.1,257.1,13.2z"/>
	<path class="st0" d="M715,5.8c1.1,0,2.3,0.1,3.5,0.1c0.7,0,1.7-0.1,1.9-0.1c-1.2,0-2.6-0.1-4-0.2C716,5.6,715.7,5.7,715,5.8z"/>
	<path class="st0" d="M253.7,6.7c0.5,0,0.7-0.1,0.9-0.1c0.1,0-0.5,0-0.8,0c-2.2,0-7.1,0.2-8.1,0.3c-0.1,0-0.2,0-0.1,0
		c0.6,0,1.3,0,2,0C249.7,6.8,251.8,6.7,253.7,6.7z"/>
	<path class="st0" d="M511.9,2.5c-0.3,0-1.4-0.1-2.3-0.1c-1.5,0-3.1,0.1-4.7,0.1c1.3,0,2.6,0.1,5.7,0.2
		C511.3,2.6,512.2,2.5,511.9,2.5z"/>
	<path class="st0" d="M314.9,12.6c2,0,2.8,0,3.6,0c1.7,0,4.2,0,4.7-0.2c0.2,0-0.7-0.1-1.1-0.1C320.1,12.4,318.1,12.5,314.9,12.6z"/>
	<path class="st0" d="M294.5,6.7c1.8,0,3.5-0.1,4.9-0.1c0.7,0,1.1-0.1,1.3-0.1c0.1,0-0.7-0.1-1.1-0.1c-3.9,0.1-7.7,0.1-11,0.1
		c-0.3,0-1.3,0-2,0.1c0.3,0,0.6,0.1,0.8,0.1C288.1,6.7,290.6,6.8,294.5,6.7z"/>
	<path class="st0" d="M373,5.2c1,0,1.6-0.1,1.8-0.2c0.2,0-0.3-0.1-0.7-0.1c-1.3,0-2.8,0.1-4,0.1c-1,0.1-1.7,0.1-2.6,0.2
		c-0.8,0.1-1.5,0.1-2.3,0.1c1.4,0,2.8,0,3.1,0C370.7,5.2,372.3,5.2,373,5.2z"/>
	<path class="st0" d="M585.9,2.6c0.1,0,4,0,4.8,0c1.6,0,1.6,0.2,3,0.2c2.8,0,2.5-0.1,3.5-0.2c0.5,0,3.7-0.3,3.9-0.3
		c1-0.1,0.1-0.3-3.5-0.2c-3.7,0.1-1.4,0.2-4,0.3c-4,0.1-9.1-0.3-8.3,0.1L585.9,2.6z"/>
	<path class="st0" d="M607.3,1.7l-0.4,0c0.7,0.1,2.7,0.1,4.7,0c-0.2-0.1-1.2-0.1-1.3-0.1c0-0.1,1.1-0.2,0.9-0.3
		C610.4,1,595.5,1.7,607.3,1.7z"/>
	<path class="st0" d="M617.7,2.7c1.4-0.1,0.1-0.2,0.6-0.3c0.4-0.1,2.6-0.1,2.6-0.2c-0.1-0.1-4.6,0-6.6,0c1.2,0,2.3,0,3.5,0l-2.6,0.1
		C606.3,2.4,613.3,2.9,617.7,2.7z"/>
	<path class="st0" d="M632.5,1.2c0.7-0.2-3.4-0.1-1.2-0.3c-1.5,0-3.1,0-4.6,0L625.2,1C618,1.4,628.5,1.3,632.5,1.2z"/>
	<path class="st0" d="M623.5,1c1,0,2.1,0,3.2,0l0.2,0C625.7,1,624.6,1,623.5,1z"/>
	<path class="st0" d="M664.9,3.3c0.5,0,1.4,0.1,2.2,0.1l2.2,0c0.9,0,3.1-0.1,4.4-0.1C672.3,3.2,667.7,3.1,664.9,3.3z"/>
	<path class="st0" d="M648.4,0.9c1.6,0,4.6,0,6.1-0.1c2.3,0,1.5,0.2,1.7,0.3c0.7,0,1.3,0,1.8,0c-0.4,0-0.9,0.1-0.6,0.1
		c0.8,0.1,4.3,0,6.8,0c2.2,0,4.1,0.2,6.8,0.1c2.5-0.1,0.7-0.3-0.5-0.4c-1.6-0.1-6.6-0.1-9.1-0.1l0,0.1c-0.4,0-0.7,0-1,0
		c0.4-0.1-1.6-0.3-1.2-0.3c0.8-0.1,5.6-0.2,4.4-0.4c-1.4-0.2-11.7,0-14.4,0.1c0.6,0,1.7,0.1,0.5,0.1C647.3,0.6,645.7,0.9,648.4,0.9z
		"/>
	<path class="st0" d="M680.2,0.5c2.6,0,5.7-0.1,7.8-0.1c-5.2,0-2.6-0.4-9.6-0.2l-0.9,0c-2.2,0-3.8,0.3-2.5,0.3
		C676.2,0.6,678.1,0.6,680.2,0.5z"/>
	<path class="st0" d="M496.6,3.1c1.9,0,4.5,0.2,7.5,0.1c2.4-0.1-2.8-0.3-3.7-0.4c-0.7-0.1,0.5-0.1-1-0.2c-1.5,0-5.9,0.1-7.4,0.1
		c0.2,0,0.7,0,1.4,0l-2.2,0.2C485.7,3.1,494.8,3.1,496.6,3.1z"/>
	<path class="st0" d="M686.3,0.7l-1.3,0c-3.2,0.1-7.6,0.3-7.3,0.5c3,0,8.2-0.1,10.3-0.2c0.1,0,0,0,0.1,0c3.6-0.1,7.6-0.2,10.1-0.3
		c1.5,0,2.9-0.1,4-0.1c2.2,0,0.9,0.2,5.5,0.1c-0.1,0-1-0.1-1.1-0.1c-0.2-0.1-0.8-0.1-0.1-0.3c0.5-0.1,1.7-0.3-3.9-0.2l-3.1,0.2
		c-2-0.1-4,0.1-5.1,0.3c-1.8,0.1-4.5,0.2-7.3,0.3C686.6,0.7,686.6,0.7,686.3,0.7z"/>
	<path class="st0" d="M691,5.9c0.3,0.1-0.5,0.2,0.2,0.3c1.6,0.2-5.7,0.2-5.1,0.4c0.1,0-1.1,0.1-1.9,0.1c-0.9,0-2.2,0-2.8,0
		c-0.7,0-0.8-0.1-1.1-0.1c-0.5,0-0.9,0.1-1.4,0.1c-1.7,0.1-4.5,0.2-7.1,0.3c0.9-0.3-8.2,0-7.6-0.3c2.1-0.1,4.4-0.1,6.2-0.2
		c7.3,0,7.3-0.1,9.3-0.4c1.1-0.2,0.6-0.2-2.2-0.1c-2.1,0.1-4.1,0.2-5.9,0.2c-2.2,0.1-2.5,0.1-2.5,0c0-0.2,1.5-0.3,4.7-0.5
		c0.7,0,1.5-0.1,2.3-0.1c-1.1,0-2.2,0-3.3,0c-0.8,0-1.9,0-2.4,0c-4.1,0.2-7.4,0.3-9.4,0.1c-0.2,0-2.2,0-3.2,0c-1.4,0-3.5,0.2-3.2,0
		c0.4-0.3-2-0.1-4.9,0c-6.6,0.2-6.5,0.2-5.4,0.5c0.3,0.1-1.1,0.2-2.1,0.3c-0.3,0-0.6,0-0.9,0.1c0.5,0.1,6.4,0.1,7.5,0.2
		c1.7,0.2-3,0.3-6.5,0.3c-3.6,0-3.5-0.1-3.4-0.3c0.1-0.2,0.2-0.2-1.5-0.3c-1.3,0-2.8,0-4.8,0c-0.7,0-1.4,0-2.1,0.1
		c0.2,0,0.3,0.1,0.8,0.1c1.2,0,2.6,0,3.9,0.1c0.7,0,1.3,0,2,0c-0.9,0-1.8,0.1-2.7,0.1c-2.7,0-5.3,0-7.8,0.1c-1.6,0-2.8,0-3.8,0
		c0.9,0.1,0.2,0.2-1.2,0.3c-2.6,0.1-8.8,0.2-10.3,0.1c-3-0.2,1.8-0.4,6.6-0.5l3.1,0.1c0.6,0,1,0,1.4,0c-1.5-0.1-2.6-0.1-4-0.2
		l-0.4,0l0.3,0c-0.8,0-1.7,0-2.9-0.1c-1,0-0.3-0.2-3.1,0c-0.8,0-2,0.1-2.7,0.1c-1.8,0.1-3.9,0.3-2.6,0.3c-2.2,0-4.6,0.1-6.5,0.2
		c-2.4,0.1-3.5,0.3-7,0.3c-0.9,0-1.6,0-2.2,0c0.7,0,1.3,0,1.9,0.1c0.4,0,0.3,0.1-0.1,0.1c-1.1,0.1-9.6,0.2-9.3,0.1
		c5-0.3-5-0.2-2.9-0.4c-1,0-2.2,0-2.8,0c-1.4,0-3,0.1-3.6,0.2c-1.3,0.1,1.5,0,2.4,0.1c2.8,0.1,6.6,0.1,2.2,0.3
		c-0.5,0,0.6,0.2,1.9,0.2c1.8,0,4.3,0,6.5,0c0.5,0,0.9,0,0.9,0.1s-0.3,0.1-0.8,0.1c-5.1,0.2-7.5,0-11.3,0c-4.9,0,0.2-0.1-0.2-0.2
		c-0.4-0.1-0.8-0.2-1.2-0.2c-1.4,0-2.8,0.1-4.2,0.1c-0.5,0-1.6,0-1.9,0c-0.5-0.1-0.2-0.2-2.4,0c-2.4,0.1-4.5,0.2-8.3,0.3
		c-6.5,0.1-10,0-13.9-0.1c0-0.1,0.1-0.1,0-0.2c-0.1,0-0.5-0.1-0.8-0.1c-0.9,0-1.9,0.1-2.5,0.1c-1.5,0.1-2.9,0.2-4.4,0.4
		c-0.2,0-1.1,0-1.7,0c-0.2,0-0.5,0-0.3,0c0.7-0.1,1.8-0.1,2.1-0.2c0.5-0.1,0.9-0.3-3,0c-0.2,0-1.5,0-1.6,0c-0.3-0.1-0.5-0.3,2.6-0.4
		c0.5,0,2,0,2.2,0c0.5,0.1-0.1,0.2,3,0c2.8-0.2,5.2-0.4,10.1-0.3c0,0,1.8-0.1,1.6-0.1c-0.8-0.1-1.3-0.2-5.2-0.1
		c-1.1,0-3.5,0.1-4,0.1c-3.4-0.2-6,0-8.8,0.2c-0.9,0.1-2.5,0.2-3.6,0.2c-4.5,0-6,0.1-5.3,0.3c0.1,0-0.7,0.1-1,0.1
		c-0.4,0-1-0.1-1.3-0.1c-0.7-0.1-3,0-3.5-0.2c0.5,0,0.8,0,1.6-0.1c0.7,0,1.4-0.1,1.7-0.2c0,0-1.8,0-3.3,0.2c-4.1-0.2-5.4,0-8.1,0.2
		c-0.1,0,1.2,0.1,2.3,0.1c1.2,0,2.9-0.1,4.4-0.1c-0.2-0.1,0.3-0.1,1.3-0.2c-0.7,0.3-0.7,0.4,0.5,0.4c2.5,0,5.7,0.1,8.2,0.2
		c1.1,0,2.2,0.2,1.6,0.2c-3.2,0.2-5,0.4-7.1,0.6c-1.1,0.1-4,0.2-5.6,0.4c-2.3,0.2-7.1,0.3-11.3,0.2c-0.9,0-4,0,0-0.2
		c5.8-0.2,11.7-0.5,15.7-0.8c1.1-0.1,2-0.2,1.4-0.3c-1.7-0.1-4-0.3-10.6-0.3c-0.7,0-1.5-0.1-2.5-0.2c-0.5,0-2.2,0,0.2,0.1
		C504.5,8,503.7,8,503,8c0.4,0,0.6,0.1,1.2,0.1c0.8,0,1.9,0,2.8,0c1.2,0,2.1,0,2.9,0c0.9,0.1,0.2,0.2-0.1,0.2
		c-0.3,0.1,4.6,0.1-0.1,0.2c-0.1,0-0.2,0-0.3,0l0.1,0c0.3,0.1,1.2,0.1,1.2,0.2c0.1,0.1-1.5,0.2-3.3,0.3c-1.3,0-4.9,0.1-5.9,0.1
		c-1.3,0,0.2-0.2,2.1-0.3c-0.3,0-0.6,0-0.8,0c0.9,0,1.8-0.1,2.7-0.1c0,0-0.2-0.1-0.3-0.1c-1.8,0-3.3,0-3.6-0.1
		c-0.2-0.1-3.7-0.1-4.2-0.2c-0.8-0.1-1.4-0.1-3.3,0c-1,0.1-2.5,0.2-3.6,0.2c-7,0.1-5.5,0.3-5.5,0.4c-5.8-0.1-5.8-0.1-2.5-0.4
		c4.7-0.1,4.7-0.1,7.4-0.5c0.6-0.1,4.4-0.1,4.7-0.1c0.6,0.2,2.1,0.2,5.2,0c1.5-0.1,3.1-0.2,4.6-0.2c0.7,0,1.5-0.1,2.2-0.1
		c-0.7,0-1.4,0-2.1,0c-2,0-4,0.1-6.1,0.1c-4.4,0.1-7.8,0.1-8.8-0.1c-0.1,0-1.4,0-2.1,0c1.3,0.1-4.8,0.3-2,0.4
		c4.5,0.2,0.3,0.2-3.7,0.3c-0.7,0-1.3,0.1-1.9,0.1c-5.1-0.1-12.8,0.1-14.7-0.2c-0.7-0.1-2.5-0.1-4.2,0c-1.7,0.1-5,0.2-2.6,0.3
		c4.5,0.1,4.6,0.3,4.5,0.5c0,0,0.7,0.1,1.5,0.1c2.5,0.1,4.5,0.2,9.1,0.1c2,0,6.5-0.2,6.4,0c-0.1,0.2-3.8,0.1-5.7,0.2
		c-1.3,0-3.6,0.1-3.7,0.1c-0.1,0.1-1.7,0.2-3.7,0.2c-1.1,0-4,0-2.7-0.2c1.3-0.2-5.2-0.4-7.9-0.3c-0.5,0-0.8,0-1.2,0
		c-1.9,0.1-4.5,0.2-6.5,0.2c-4.2,0-6.5,0.1-8,0.3c-1.6,0.2-4.5,0.2-7.2,0.4c-0.8,0-1.7,0-2.6,0.1l-0.2-0.1c-0.9,0-1.5,0-1.7-0.1
		c-0.3,0-0.7,0-1.2,0c-1.2,0-1.7,0.1-2.8,0.2c1,0,2.1,0.1,0.1,0.1c-0.5,0-1.5,0-2.5,0c-0.8,0-1.7,0.1-2.6,0.1
		c-2.1,0-4.1,0.1-6.2,0.1l0.4,0.1c-1.1,0-2.9,0.1-3.2,0.1c-2-0.1-3.7,0-5.4,0.1c-2.2,0.2-4.2,0.1-5.1,0c-0.9-0.1-0.4-0.2-1.1-0.3
		c-0.3,0-2.1-0.1-3.2-0.1c-2,0.1-4.6,0.1-5.9,0.2c-1.7,0-2.1-0.1-3.7-0.2c-0.9,0-3,0-4.5,0c-0.7,0-1.4,0-2,0l1.5-0.1l13.5-0.2l2-0.1
		c-0.6,0-1.2,0-1.9,0c-1.2,0-2.5,0-3.7,0.1c-1.4,0-2.7,0-4.1,0c1.2-0.1,2.2-0.1,3.5-0.2c1,0,2.2-0.1,3.3-0.1l-5.2-0.2
		c-0.6,0-1.7,0.1-1.6,0.1c0.3,0.1-0.4,0.2-4.5,0.3c-2.9,0.1-6,0.2-8.7,0.2c-2.5,0.1-1.3,0.1,0.8,0.1c4.6,0,3.1,0.2,1.9,0.3
		c-2.2,0.2-4.1,0.1-5.7,0c-1.5,0-3-0.1-4.3-0.1c-2-0.1-4.2-0.1-7.6,0c-3.4,0.1-4.7,0.1-1.7-0.1c0.8-0.1,0.4-0.1,0.3-0.2
		c0,0-1,0-1.4,0c-2.5,0.1-5.1,0.2-7.5,0.2c-0.7,0-1,0.1-0.7,0.2c0.3,0,1.6,0.1,2.5,0.1c2.8,0.1,2.7,0.1-1.4,0.2
		c-0.4,0-1.4,0.1-1.2,0.2c0.8,0.1,1.9,0,3,0c6.9-0.2,9.6-0.2,11.5,0.1c0.3,0-1.2,0.2-1.9,0.2c-2.7,0-5.3,0-8,0.1
		c-3.5,0-7.1,0.1-10.6,0.1c-0.5,0-1.4,0.1-1.4,0.1c0.1,0,0.5,0.1,1.2,0.1c0.3,0,1.6,0,2.3,0c1.3,0,2.5,0,3.7,0
		c-0.7,0.1-1.2,0.2-2.3,0.2c-2.9,0.1-6,0.2-9,0.2c-4.7,0.1-11.6,0.2-12.4,0c-1.4-0.2-4.9-0.1-11.1-0.3c0,0,0,0,0.1,0
		c-1.3,0-2.2-0.1-2.3-0.1c-1.5-0.1-2-0.1-2.2,0c-0.9,0.1-2.5,0.2-2.3,0.3c0.3,0.2,3.9,0,5.8,0c0.7,0,1.3,0,2,0
		c0.6,0.3-3.6,0.5-4.4,0.6c-0.6,0.1-3.8,0.2-6.5,0.1c-2.5-0.1-4.9-0.1-9.3,0c-3.7,0.1-8.5,0.2-12.8,0.3c-0.5,0-1.6,0-1.6,0
		c1.7-0.1-3.7-0.3,3.3-0.4c0.2,0,0.2-0.1,0.4-0.1c-5.4,0.1-7.3-0.2-11.1-0.2c-0.6,0-1.4,0-1.9,0c-1,0-2.1,0.1-2.9,0.1
		c-0.4,0-0.3,0.1,0.1,0.1c2.2,0,4.6,0.1,6.6,0.1c0.5,0,0.5,0.1-0.1,0.1c-0.6,0-2.5,0.1-3.1,0.1c-2.8-0.1-4.6-0.2-9.1-0.1
		c-2.6,0-2.6-0.1-1-0.2c2.6-0.2,2.9-0.3-1.9-0.2l-1.4,0c-0.1,0-0.3,0-0.4,0.1c-2.8,0.1-4,0.3-4.1,0.5c0,0-1.1,0.1-1.8,0.1
		c-0.9,0-2.3,0-2.9,0c-0.8-0.1-1.2-0.1-1.9-0.2c-0.4,0-1.1,0-1.7-0.1c-0.4,0.1-1,0.1-1.3,0.2c-0.5,0.1-0.8,0.2-1.3,0.2
		c-3.5,0-7.1,0.1-10.6,0.1c-0.8,0-1.2-0.1-1.8-0.1c-0.6,0.1-0.8,0.2-1.8,0.2c-2.6,0.1-5.8,0.3-8.4,0.4c-2.5,0.1-3,0.1-3.2,0
		c-0.2-0.1,0-0.2,3.8-0.3c3.3,0,4.6-0.1,3-0.2c-1.3-0.1-2.8-0.2-4.4-0.2c-0.3,0-1.6,0-2.4,0c1.3,0.3-4.8,0.5-8,0.7
		c-1.7,0.1-4,0.2-6,0.3c-0.2-0.1-0.1-0.2-0.9-0.3c-0.6-0.1-2.2-0.1-3.5-0.2c-1.4,0-3-0.2-4,0.1c-0.4,0.1-3.6,0.2-5.5,0.4
		c-3.5-0.1-6.6,0.2-10.1,0.2c-1,0-3.1,0-3.2,0l-0.1,0l-4.3,0.1c-0.4,0-0.8,0-1.2,0c-2.9,0-6.9,0-8.6,0c-3.4,0.2-6.7,0.2-10.2,0.3
		c-4.4,0.1-8.7,0.2-12.1,0c-1,0-4.5,0-6.8,0.1c0.8-0.1,1.6-0.2,4.8-0.3c-3.6,0.1-5,0.1-6,0.1c-2.8,0.1-5.4,0.2-8.1,0.3l9.3-0.1
		c0,0.1-0.5,0.1,0.1,0.2c3.1,0,2,0.2-0.3,0.2c-4.7,0.1-9.1,0.3-14.4,0.4c-0.7,0-1.4,0-2.1,0c0.8,0,1.5-0.1,2.3-0.1
		c0.6,0,1.4-0.1,2-0.1c0.9-0.1,2.3-0.1,2.4-0.2c-0.8,0-2-0.1-3.3-0.1c-2.7,0-5.5,0.1-8.1,0.1c-2.1,0.1-3.9,0.2-5.9,0.2
		c-2.3,0-4.8,0-7.2,0.1c-1.6,0-3.8,0.1-4.8,0.1c-5.4,0.3-9.9,0.2-14.7,0.2c-1.2,0-2.8,0-4.2,0c0.6,0,1.7,0.1,1.6,0.1
		c-0.1,0.1-1.4,0.1-2.2,0.2c-6-0.2-14.1,0.4-20.2,0.2c-5,0.3-9.9,0.2-15.1,0.3c-2.5,0-6,0.1-8.2,0.2C28.7,16.9,28,17,27.7,17
		c0.3,0,0.4-0.1-2.3,0c-1.4,0-1.9,0-3.6,0.1c-2.1,0.1-5.4,0.2-7.2,0.2c-4.2,0-8.2,0.1-12.3,0.1c-0.7,0-1.3,0-1.9,0
		c0.3,0,0.5,0,0.9-0.1c5.5-0.1,9.6-0.6,16.7-0.4c0.6,0,1.7,0,2.1,0c6.1-0.3,0.5,0,7.1-0.2c0.7,0,1.3-0.1,2-0.1c-0.9,0-1.9,0-2.7,0
		c-5.7,0.1-4.6-0.1-4.5-0.2c0-0.1,0.9-0.1,1.4-0.2c-4.5,0.1-3-0.2-6.3-0.1c-3,0-3.3,0-2.3-0.1c0.4,0,2.7,0,4-0.1c3.2,0,6.2,0,9.4,0
		c3.1,0,4-0.1,2.5-0.2c-0.5,0-1.1-0.1,2.3-0.2c0.8,0,1,0,0.1,0c6.6-0.1,8.9-0.1,11.3-0.2c0.5,0,1-0.1,1.5-0.1c-0.3,0-0.5,0-0.9,0
		c-4.9,0-10,0-15.4,0.1c-0.4,0-0.8,0.1-0.7,0.1c0.1,0,0.6,0.1,1.1,0.1c-3.2,0-4.5,0-5.7,0.1c0.3-0.1,0.3-0.1,1.1-0.2
		c0.9,0,2.4-0.1,3.8-0.2c2,0,4.1-0.1,6.1-0.1c2.1,0,8.3-0.4,7.8-0.4c-1.6-0.1-3.3-0.2-5.3-0.3c-0.9,0-3.1,0-4.5,0
		c-3.6,0-6.5,0.4-9.2,0.2c-1.3-0.1,1.8-0.3,1.8-0.5c0-0.2,2.2-0.2,4.6-0.2c3.8,0,3.7,0,1.8,0.2c-1.6,0.1-0.9,0.1,1.2,0.1
		c1.3-0.1,3-0.1,3.7-0.1c1.7,0,2.9,0.1,4.5,0.1c0.7,0,2.1,0,3.3-0.1c-0.4,0-0.8-0.1-1.1-0.1C43.8,14,44,14,44.4,14
		c2.6-0.1-3.5-0.2,1-0.3c-1.7,0-3.6,0-5.2,0c-1.6,0-2.9-0.1-4.4-0.1c1.1-0.1,2.3-0.2,3.4-0.2c3.5-0.1,3.8-0.1,3.8-0.3
		c0-0.2-2.9-0.1-5.1-0.1c-4,0-2.8-0.1-2.2-0.2c1.5-0.2,2.5,0,4,0c2.2,0,4.3,0,6.5,0c3-0.1,6.1-0.1,9-0.2c0.6,0,1.3-0.1,1-0.2
		c-0.3,0-1.6-0.1-2.5-0.1c-1.2,0-2.6-0.1-3.4-0.1c-0.4,0-0.1-0.1,0.5-0.2c0.6,0,2.8-0.1,3.1-0.1c3.7,0.2,6.1,0,9.8-0.2
		c6-0.3,7.5-0.3,17.4-0.5c1.2,0,2.7,0,3.6-0.1c1.6-0.1,3-0.2,4.3-0.2c0.4,0,0.2-0.1-0.2-0.1c-0.9,0-3,0-3.1,0
		c-3.7,0.4-9.6,0.3-14.1,0.3c-3.9,0-7.5,0.1-11.4,0.1c-1.1,0-2.1,0-3.1,0c0.9-0.1,1.7-0.1,2.6-0.2c1.8-0.1,5.5-0.1,5.1-0.3
		c0,0,2.8-0.1,3-0.1c2.1,0.1,3.5,0,5.4-0.1c1.3,0,3.3-0.1,5.1-0.2c2.9-0.1,5.9-0.2,8.7-0.3c0.8,0,1.8-0.1,1.6-0.1
		c-0.9,0-3.1,0-3.2,0c-2.1,0.1-4.8,0.2-7.7,0.2c-1.1,0-2.2,0-3.3,0c1.1,0,2.6-0.1,3.3-0.1c2-0.1,2-0.2-1.7-0.2
		c-0.9,0-1.4-0.1-2.1-0.1c1,0,2-0.1,3-0.1c1.1,0,2.4,0,3.5,0c8.7,0,8.6,0,16-0.2c1,0,2.2-0.1,3.4-0.1c1.1,0,2.6,0,3.1,0
		c0.5,0,0.3,0.1-0.3,0.1c-2.1,0.1-4.5,0.3-6.7,0.4c-0.7,0.1-1.2,0.1-1.8,0.1c1.5,0,3.1,0,4.5,0c1.8-0.1,3.6-0.1,5.1-0.2
		c4.2-0.2,9.5-0.3,13.4-0.3c3.4,0,4.8-0.1,5.2-0.1c1.1-0.2,4.1-0.3,7.6-0.5c2.8-0.1,4.9-0.2,7.6-0.1c-1.8,0.1-3.5,0.2-5.5,0.2
		c-4,0.1-6.2,0.2-2.2,0.3c0,0-0.9,0.1-1.6,0.1c-1.5,0-4.3,0.1-4.4,0.1c0.2,0.1,2.8,0,4.3,0l9.4-0.2c-2.9-0.1,0.1-0.2,0.2-0.3
		C138,9,140.4,9,142.1,9c3.4,0,6.7,0,10.1-0.1c0.7,0,1.4,0,2.2-0.1c-0.2,0-0.4-0.1-0.5-0.1c-4.8,0.1-6.1-0.2-11.5,0
		C137,8.6,130.8,8.8,125,8.9c-0.7,0-1.3,0-2,0c0.6,0,1.2-0.1,1.9-0.1c3.5-0.1,6.9-0.1,10.1-0.3c3.3-0.2,7.1-0.3,9,0
		c0.8,0.1,3.8,0.1,6.3,0c1.7,0,4.4-0.1,4.6,0c0.2,0.1,2.2,0.1,4,0c1.5-0.1,3-0.2,3.2-0.3c0.3-0.2-2.7,0-4.4,0c-0.4,0-0.9,0-1.2,0
		c-1.3,0-2.5,0-3.8,0c1.1-0.1,2.1-0.2,3.5-0.2c1.8,0,4.8-0.1,5.5,0c3.2,0.2,7.7,0.1,12,0c2.8,0,3.4,0,3.2,0.1
		c-0.3,0.2,0.9,0.2,3.5,0c3-0.2,5.6-0.3,7,0c0,0,0.6,0,1,0c-0.1,0-0.2,0-0.3,0c1-0.1,1.9-0.2,2.8-0.2c1.4-0.1,4.1-0.4,7.2-0.3
		c4.2,0.1-1.4,0.2-2.9,0.4c-0.4,0-1.3,0.1-1.7,0.1c-0.5,0.1-0.9,0.1-1.3,0.2c1.4,0,2.9,0,4.2-0.1c4.4-0.1,8.6-0.3,13-0.4
		c0.5,0,1.7,0,2.2,0.1c0.3,0-0.2,0.1-0.5,0.1c-1.9,0-3.9,0.1-5.7,0.1c-2,0.1-4,0.1-11.9,0.4c-0.4,0-0.9,0-1.3,0
		c-1.2,0-4.7,0.1,0.6,0.1c-0.5,0.2-4.2,0.3-7.4,0.5c-0.7,0,1.5,0.2,2.4,0.3c1.4-0.1,3-0.1,4.3-0.2c0.8-0.1,1.2-0.1,1.8-0.2
		c0.3,0,0.6,0.1,0.7,0.1c0.1,0.1-0.1,0.1,0.1,0.2c0.1,0,0.6,0.1,0.9,0.1c0.5,0,1.1-0.1,1.5-0.1l0.5,0l-2.6,0c2-0.1,4.4-0.2,6.6-0.4
		c0.3,0-0.2-0.1-2.7,0c-0.7,0-1.9,0-1.8,0c0.6-0.1,1.6-0.2,2.3-0.3c0.2,0-0.7-0.1-1.1-0.1c2.3,0,3.1-0.1,3.6-0.1
		c5.8-0.1,7.4,0.1,8.7,0.2c0.1,0,0,0,0,0c3.5,0.2,4.8,0.2,8.4,0.4c1.5,0,3.2,0,5,0c0,0,0,0,0-0.1c0.1,0,2-0.1,2.1-0.1
		c1.4,0.1,7.2-0.2,7.6,0.1c0.2,0.1,5.5,0.1,0.7,0.4c0.5,0,1,0,1.6,0.1c0.6,0,1.9-0.1,2-0.1c0.3-0.1,0.3-0.3,0.6-0.4
		c0.1-0.1,0.8-0.1,1.2-0.2c0.9,0,1.7-0.3,2.4-0.2c1,0.1,1.8,0.1,2.6,0.2c0.3-0.1,0.8-0.2,0.9-0.3c0.2-0.1,0.7-0.3-0.1-0.4
		c-1.2-0.2,2.2-0.3,4.7-0.4c-1,0-2,0-3.3,0c0.8,0-1.1,0-1.4,0c0,0,0,0,0,0c-1,0-2.1,0-2.9,0c-0.2,0-0.7-0.1-1.1-0.1l1.7,0
		c0-0.1-0.2-0.3,0.1-0.4c0.1,0,1.9-0.1,2.9-0.2c0.6,0,1.6,0,1.8,0.1c0.8,0.1-1.8,0.3-0.5,0.4c0.5,0,0.8,0,1.3,0
		c2.9-0.1,5.8-0.2,8.7-0.2c0.2,0,0.4,0,0.7,0c-0.1,0-0.1,0-0.2,0c-2.1,0-5-0.1-7.4-0.1c-0.4,0-0.4-0.1,0-0.1c0.8,0,2.1-0.1,3-0.1
		c1.4,0,2.5,0,3.9,0c0.5,0,1.5,0,2.1-0.1c0.2,0,0-0.1-0.3-0.1c-0.8,0-1.7-0.1-2.5-0.1c-0.4,0-0.6,0-0.9-0.1c0.7,0,1.4,0,2.1-0.1
		c3.7-0.1,5.9,0,7.3,0.1c0.4,0,1,0.1,1.4,0.1c0.3-0.1,0.4-0.1,1.1-0.2c1,0,2.6-0.1,3.9-0.1c0.3,0,1.2,0.1,0.8,0.1
		c-2.6,0.1-3,0.3-2.2,0.4c0.6,0.1,4.5,0.1-0.9,0.2c-2,0-3.6,0.2-5.4,0.3c-0.2,0-0.5,0-0.8,0c-1.3-0.1-2.6-0.1-4-0.2
		c-0.1,0-0.1,0-0.2,0c-1.4,0.1-2.6,0.2-4.4,0.3l0.1,0c-0.1,0.1,0.3,0.2-0.4,0.2c-6.1,0.3-7,0.6-6.3,0.9c0.4,0.2,1.4,0.1,3.3,0
		c1.2-0.1,2.7-0.1,4.1-0.2c4.2,0,6.1,0,7.4-0.2l1.6-0.2c1.1,0,2.4,0.1,3.3,0.1l1.1,0.1c0.1,0,0.1,0,0.2,0c0.8,0,1.8-0.1,2.7-0.1
		c2.2-0.1,3.3-0.3,3.4-0.4c0,0-0.2-0.1-0.3-0.1c-0.1,0-0.2,0-0.3,0c-0.6,0-2.4,0.1-3.1,0.1c-1.3,0-2.2-0.1-4.3-0.1
		c1.6-0.1,3.4-0.2,5.4-0.3c1.2,0,2.7-0.1,4.1-0.1c0,0-0.1,0-0.1,0c0.6,0,1.2,0,1.8,0L280,7c-1,0-2.2-0.1-3-0.1
		c-0.8-0.1-1.2-0.1-1.8-0.1c1.4,0,3.5-0.1,4.1-0.1c2.3,0.1,5.9,0.1,5.9,0.3c0,0.1,6.1,0.1,6.6,0c1-0.3,4-0.2,7-0.3
		c1.1,0,3.8,0,5.3-0.1c0.4,0-0.6-0.1-0.8-0.1c-0.2,0-0.3-0.1-0.4-0.1c1.1,0,2.5,0,3.2,0c0.4,0,0.6,0,1,0c0.3-0.1,2.6-0.1,4.3-0.2
		c0.4,0,0.8,0,2.4,0c0.3,0,1.7,0,3,0c-0.9,0.1-1.6,0.2-2.7,0.3c-1.7,0.1-3.3,0.1-4.9,0.1l0,0.3c-1.4,0-2.6,0.1-3.8,0.1
		c0.4,0,0.9,0,1.3,0c0.6,0,1.2,0,1.7,0c0.3,0,0.5,0,0.8,0.1l-1.2,0c0.4,0,1.1,0.1,1.1,0.1c0.1,0.1-3.6,0.2-0.2,0.3l-1.6,0.1
		c1.7,0,3.2,0,5.9-0.2c2.9-0.2,5.7-0.3,8.7-0.5c0.7,0,2.2-0.1,3.3-0.1c0.1,0.1,0.9,0.1,0.3,0.2c-1.2,0.1-3,0.2-0.8,0.2
		c3.1,0,6.5,0,10.1,0.1c1.7-0.1,4.1-0.1,6.2-0.2c0,0.1-0.4,0.2,0.1,0.2c0.7,0,2.2,0.1,3.3,0.2c0.9-0.1,2-0.2,2.5-0.2
		c0.8-0.1,1.1-0.3,1.8-0.4c0.5-0.1,3.6-0.2,5.1-0.1c3.5,0.1,6.9,0.2,10.3,0.3c0.4,0,0.7,0,1,0.1c-0.7,0-1.4,0-2.1,0.1
		c-2.3,0.1-4.9,0.1-6.9,0.2c-1.4,0.1-3.2,0.2-2.7,0.3c1.6,0.1,2.4-0.1,4-0.1c1.5,0,3.7,0,4.6-0.1c3.3,0.1,2.4,0,3.8-0.1
		c1.5-0.1,5.2-0.2,8.1-0.3c2.6-0.1,6.1-0.1,8-0.1c2.7,0-1.1,0.2-1.7,0.3c-0.6,0.1,1.5,0.2,3.6,0.1c2-0.1,3.6-0.2,3.9,0
		c0.1,0,3,0,3.6,0c1.5-0.1,2.4-0.2,3.5-0.3c1.3,0,3.4-0.1,3.9-0.1c-0.9-0.3-1.8-0.6-2.8-0.9c0,0,0.2-0.1,0.1-0.1c-0.1,0-0.3,0-0.4,0
		l-0.3-0.1l-1.8,0c-0.8,0-1.7,0-2.4,0c-0.4,0-0.8,0.1-0.7,0.1c4.9,0.2-2.1,0.7,6.6,0.8c0.2,0-1.5,0.2-2.2,0.3c-1.5,0-3.7,0-4.4,0
		c-2.4-0.1-3.2-0.4-3-0.7c0.2-0.2,0-0.2-5.1-0.1c-4.7,0.2-4.7,0.2-7.2-0.1c-0.6-0.1-4.8-0.1-6,0c-2.4,0.1,0.3,0.1,0.8,0.1
		c0.9,0.1,1.8,0.1,2.7,0.2c-2.7,0.1-5.3,0.2-8.1,0.3c-0.2,0-1.8-0.1-1.6-0.1c0.6-0.1,1.6-0.2,2.2-0.3c0.2,0-0.8-0.1-1-0.1
		c-5.4,0.1-7.9,0-11-0.1c-1.7,0-2,0-2.8,0.1c-1.2,0.2-2.6,0.4-5.2,0.5c-4.1,0.2,0.7,0.3-4.5,0.5c0.6-0.2-1.3-0.3-4.6-0.3
		c-1.4,0-3.5,0-4.5,0c-1,0-4.5,0-1.8-0.2c1.3-0.1,3.7-0.2,4.9-0.2c2.1,0,3.6,0.1,5.5,0.1c0.4,0,1.5,0,2.2-0.1c0.2,0,0.1-0.1-0.3-0.1
		c-1.7,0-1.7-0.1-0.4-0.2c4.1-0.4,10.5-0.4,16.4-0.5c2.2,0,2.2,0,0.7,0.1c-0.2,0,0.7,0.1,0.9,0.1c1.8,0,5.1-0.1,5.2-0.1
		c0.6-0.2,2.2-0.2,5.5-0.2c2.5,0,5.5,0,8.3,0c1.1,0,2.1-0.2,3.7-0.3c1.9-0.1,4.4-0.2,6.5-0.3c4.3-0.2,5.8-0.2,5.5,0
		c-0.2,0.2,1.4,0.2,3.2,0.3l-0.4,0c1.5,0,3.4-0.1,4.5-0.1c1.8-0.1,3.5-0.1,5-0.2c2.2-0.1,4.2-0.3,4.9-0.4l-0.3,0
		c-0.8,0-1.8-0.1-2.4-0.1c-1.3-0.1-2.1,0-3.1,0.1c-0.9,0.1-1.7,0.1-2.7,0.2c-0.1,0-0.2,0-0.3,0c-1,0.1-2.8,0.1-4.1,0.1
		c-0.8,0-1.6,0-3.6,0c2.9-0.1,4.7-0.2,6.6-0.2c0.6-0.1,2-0.3,3.1-0.3c3.9,0,7.6,0,11.3,0c0.1,0,0.2,0,0,0.1
		c-0.9,0.1-1.9,0.1-2.8,0.2c0.6,0.2,1.2,0.3,1.8,0.5c1.3,0,3.2,0,3.3,0c0.1,0.2,1.8,0.2,3.6,0c3.1-0.3,5.9-0.2,6.1,0.1
		c2.9-0.4,1.3-0.6,6.9-0.7c0.9-0.1,1.7-0.1,2.6-0.2c0.7,0,1.7-0.1,2.6-0.1c0,0.1,0.2,0.1-0.1,0.2c-0.5,0.1-1.9,0.2-1.7,0.3
		c0.1,0.1,2.5,0.1,3.8,0.1c3.3-0.3,7.1,0,8.9-0.1c3.4-0.2,7.8-0.2,11.1-0.3c0.7,0,2.2-0.1,2.5-0.1c1.9,0.1,5.5,0.1,5.3,0.3
		c-0.2,0.2,1.8,0.2,5.1,0c2-0.1,4.5-0.2,6.7-0.2c0.1,0.3,3.7,0,5.7,0c0.7,0,1.8,0,1.9,0c-0.3,0.1-0.9,0.1-1.3,0.2
		c1.4,0,3.4-0.1,4.1-0.1c3.2-0.3,7.9-0.3,12.2-0.3c0,0.1-0.2,0.2,0.1,0.3c0.1,0,1,0.1,2.7,0.1l-0.3,0l0.5,0c0.5,0,1,0.1,1.7,0.1
		c1.6,0.2,1,0.2,0.5,0.2c0.5,0,0.8,0.1,1.6,0.1c0.7,0,2,0,3.1,0c-1,0-2,0.1-3.1,0.1c-1.1,0-2.6,0.1-3.4,0.1c-0.7,0-0.7,0.1-0.6,0.2
		c0.1,0,1.6,0,1.8,0c5-0.2,9.2-0.2,13.2-0.1c2.5-0.3,10.5,0,11.8-0.4c0.2,0,2.5-0.1,2.9-0.1c4.1,0.1,7.5-0.2,11.2-0.2
		c1.3,0,2.1-0.1,3.6-0.1c0.7,0,3.5,0,3.9-0.1c0.7-0.1,0.9-0.2,0.2-0.2c-0.5,0-2.6,0-3.9,0c-3.8,0.1-7.1,0.3-11.2,0.3
		c-0.8,0-1.8,0-1.8-0.1c0,0,1-0.1,1.9-0.1c1.6,0,4.9-0.1,5-0.1c-0.5-0.2-9.6-0.2-13.6-0.1c-1.9,0.1-3.9,0.1-1.6,0.2
		c1.5,0.1,0.8,0.3,1,0.4c0.2,0.2-0.3,0.3-5.2,0.2c-0.4,0-1.4,0-1.7,0c-1.5,0.1-3.5,0.2-5,0.1c-1.8-0.1,1-0.2,2.8-0.3
		c1.1,0,3-0.1,4.6-0.1c0.7,0,1.3-0.1,2-0.1c-0.6,0-1.3,0-1.8,0c-3.6,0.1-6.9,0.1-7.7-0.1c-1.1-0.2-2.4-0.1-5.6,0
		c-1.4,0-3.3,0.1-5.1,0.2c-0.2-0.2,1.3-0.3,3.9-0.3c2.5-0.1,5.1-0.2,7.5-0.2c2.1-0.1,2.3-0.2,0.3-0.2c-2.8,0-5.7,0-8.6,0h0
		c0.8-0.2,7.9-0.3,8.6-0.6c0,0,1.8,0,2.2,0c0.7,0,1.7,0.1,1.4,0.1c-2.5,0.2-1.5,0.3,1.7,0.3c3.2,0,5.8,0,5.7,0.2c0.8,0,2.2,0,2.3,0
		c0.8-0.2,1.5-0.3,2.3-0.5c-4.6,0,2.2-0.3-0.1-0.3c-2.1-0.1-3.3-0.2-4.3-0.3c-0.5-0.1,0.3-0.2,0.5-0.3c1.7,0,3.6,0,5,0
		c1.9,0.1,3.7,0.1,5.2,0.2c2.3,0.1,2.5,0.4,0.1,0.4c-5.8,0.1-3.3,0.3-3.4,0.4c-0.2,0.2,2.1,0.2,4.4,0c2.8-0.2,3,0,4.4,0
		c-0.6,0.1-1.1,0.1-1.7,0.2c-0.2,0-0.6,0-0.8,0.1c-5.4,0.1-3.3,0.2-1.1,0.2c1.2,0,2.2,0.1,3.6,0.1c0.7,0,2.1-0.1,3.2-0.1
		c-5.9-0.1,1.5-0.4,0.3-0.5c-0.8-0.1,0.1-0.2,3.2-0.3c0.5,0,1.2-0.1,1.2-0.1c-3.2-0.1-1.8-0.1,1.6-0.2l8.5-0.1
		c1.2,0.1-3.2,0.5,4.1,0.4c1.5,0,1.5,0.1-1.3,0.2c-1.3,0-3.9,0.1-1.6,0.1c3.9,0,6.5,0,7.6,0.1c0.1,0,1.6,0,2.3,0
		c0.4,0,0.8-0.1,0.6-0.1c-2.3-0.1-2.1-0.1,1.1-0.2c1,0,2.6,0,2.7,0c3.2-0.2,6.4-0.1,8.9-0.1c5.8-0.1,4.7,0.1,7.2,0.2
		c2.1,0,4,0.1,5.2-0.1c0.2,0,0.4-0.1,0.7-0.1c1.9,0,3.8-0.1,5.8-0.1c-0.5,0.1-1.7,0.1-1.4,0.2c1.7,0.3,3.5,0.5,9.6,0.6
		c0.6,0,1.7,0,2.6,0c0,0,0.4-0.1,0-0.1c-3.5-0.1-3.7-0.3,0.4-0.5c1.1,0,3-0.1,4.4-0.1c0.8,0,1.5-0.1,2.2-0.1l-4.2,0
		c0.8,0,1.5-0.1,2.4-0.1c1.4,0,4.1-0.1,4.3-0.1c0.2,0,0.3,0,0.5-0.1c0-0.1-0.7-0.3-2.3-0.3c-2.2-0.1-8.1,0-7.6-0.2
		c0.5-0.2,4.9-0.3,7.1-0.2c0.9,0.1,1.3,0.1,2.2,0.2c1.1,0,3.2,0.1,4.2,0.1c1.1,0.1,1.7,0.2,1,0.3c0.6,0,1.3,0,1.9,0.1
		c2.6,0.1,5.4,0.2,9,0c3.4-0.2,5.3-0.2,8-0.1c0.3,0,2.5-0.1,3-0.1c0.5,0,0.2-0.1-0.4-0.1c-1.2,0-1.3-0.2-4.3,0
		c-2.8,0.1-3.8,0-4.5-0.1c-0.4,0,1.1-0.1,2-0.2c2.3-0.2,3.3,0,4.2,0c2.5,0.1,4.3,0,7-0.1c1.6-0.1,3.3,0,1.6,0.1
		c-2,0.2,4.8,0.2-0.1,0.4c1.6,0.1,3.1,0.1,4.8,0.2c1.5,0,2.7,0.1,0.4,0.2c-2.6,0.1-4.9,0.2-7.5,0.1c-0.2,0,0.9-0.1,1.3-0.2
		c-1.4,0-2.8,0-4.2,0c-0.8,0-1.6,0-2.5,0c0.6,0.1,0.7,0.2,2,0.3c1.6,0.1,4.1,0.2,6.4,0.1c3.4-0.2,8.4-0.2,11.4-0.4
		c1.9-0.1,1.4-0.2-0.1-0.3c-0.3,0,1.2-0.1,2.2-0.2c3.9-0.1,5.5,0,6.1,0.2c0.5,0.2,2.2,0.2,7.3,0.1c1.5,0,3.8-0.1,4.7-0.1
		c3.4,0.1,7.5,0,11.3-0.1c3,0,3,0,2.2,0.1c-0.6,0.1-2.2,0.2-1.9,0.3c1.5,0.3-4.6,0.3-7.3,0.4c-3.4,0.1-4,0-5.1-0.1
		c-0.9,0-2.3-0.1-3.5-0.2c-0.5,0.1-0.7,0.2-1.4,0.3c-0.4,0-1.6,0.1-5.6,0c0.3-0.1,0-0.1-0.3,0c-5.2,0-7.5,0-8.4,0
		c-3.3-0.1-3.3-0.1-5.2,0C667,3,665.7,3.1,663.9,3c-1.8,0-4.2-0.2-5.2,0.1c0,0-1.2,0-1.6,0c-1,0-2.4,0-2.5-0.1
		c-0.3-0.1-1.2-0.2-4.2-0.1c-1.9,0.1-5.5,0.2-2.5,0.3c0.9,0,1.2,0.1,1.9,0.2c0.1,0,1.6-0.1,2-0.1c0.6,0,0.9-0.1,1.3-0.2
		c0.3,0,0.6,0,0.9,0c0.7,0,2.3,0.1,2,0.1c-2.6,0.2,1.6,0.2,1.8,0.3c7.7-0.4,8.5,0,12.8,0c0.9,0,1.7,0,2.6,0c0.3-0.1,0.4-0.1,0.8-0.2
		c0.5-0.1,1.3-0.2,2-0.2c1.6,0,3.2,0,4.8,0c0.3-0.1,0.1-0.2,0.9-0.3c0.7-0.1,1-0.1,1.2-0.2c3.9,0.2,6.7,0.3,13,0.2l4.9,0.1
		c2.8,0.1,1.1,0.4,2.9,0.4c3.1,0.1,0.7,0.3-0.1,0.5c-1.2,0.3,2.4,0,3.5,0c2,0,3.5,0.1,5.3,0.1c2.7-0.2,4.3-0.1,5,0
		c0.6,0-0.4,0.2-1.5,0.2c-3.2,0.2-1.9,0-2.8,0c-2.5-0.1-5.5,0-7.3,0.2c-0.6,0-2.2,0.1-3.2,0.2c-2.1,0.1-4.6,0.2-7.6,0.2
		c-0.1,0-0.5,0.1-0.1,0.1c3.2,0.1,3.6,0.2,0.5,0.3C691.3,5.6,690.6,5.7,691,5.9z M389.8,5.3c-0.1,0-0.8,0-1.3-0.1
		c-0.3,0-0.8,0-0.8,0.1c0.9,0.3-8.3,0.3-7.6,0.5c0.1,0,0.5,0.1,0.8,0.1C385.2,5.8,390.5,5.5,389.8,5.3z M51.9,14.5
		c6.3-0.1,6.3-0.1,6.2-0.3c-0.1-0.1,0.2-0.2-3.5-0.1c-3,0.1-5.7,0.2-8.5,0.3c0.9,0.1,1.4,0.1,2.7,0.2C49.8,14.5,51.7,14.5,51.9,14.5
		z M62.1,15.6c-1,0-1.7-0.1-1.9-0.1l1.9-0.1c-0.6,0-1.5,0-2.1,0.1c0,0,0.2,0,0.3,0l-1.2,0.1c-4.7,0.1-9.9,0.4-2.6,0.3
		C58.3,15.7,60.6,15.6,62.1,15.6z M69.3,13c-4.7,0.2-8.9,0-14,0.2c-5.7,0.2-1.6,0.4,3.6,0.3l6.5-0.1c-0.8,0-1.7,0-2.6,0
		C65.3,13.2,70.1,13.1,69.3,13z M76.8,12.2c-1-0.1-2.8,0-4.6,0.1c-0.5,0-1.6,0-2.4,0c0.3-0.1-0.9-0.2-3.4-0.1
		c-2.3,0.1-4.4,0.2-6.3,0.3c-0.2,0,0.6,0.1,1.3,0.1c1.5,0,3.2,0,4.9-0.1c2,0,4.2-0.1,6.1-0.1C74.1,12.3,77,12.2,76.8,12.2z
		 M101.4,10.7c1.9,0,1.3,0.3,5.7,0.2c6.6-0.1,7.6-0.6,7.1-0.7c-0.4-0.1-2.5,0.1-8,0.2l4,0.1c-0.6,0-1.2,0.1-1.9,0.1
		c-3.2,0.1-5,0.1-5.3-0.1c-3.1,0.1-5.4,0.1-6.5,0.2C95,10.8,99.3,10.6,101.4,10.7z M101.6,11.7c-1.7,0.1-3.1,0.2-4.6,0.2
		c1.8,0,3.4,0.1,5.3,0.1c0.5,0,1.8-0.1,2.8-0.1c1.1,0,2.3,0,3.6,0c0.7,0,2.4-0.1,2.4-0.1C110.5,11.7,104.1,11.6,101.6,11.7z
		 M100.8,14.2c-2.6,0.1,1.9,0.3,1.8,0.4c-0.1,0.1-0.1,0.2-1.8,0.2c-1.1,0-2.2,0-4.3,0c-3.2,0-8.2,0.2-9.2,0.3
		c-1.7,0.3,5.9,0.2,6.1,0.1c-2.7-0.2,2.7-0.3,5.9-0.4c0.7,0,1.1,0,1.5-0.1c1.2,0,2.2,0,4.2-0.1C111.3,14.4,104.1,14.3,100.8,14.2z
		 M106.1,13.5l-2.7-0.1c-3.8,0.1,2.3,0.1,0.5,0.3c-6.9,0.5-7.3,0.4,2,0.1C116.3,13.4,118.5,13.3,106.1,13.5z M125.9,11
		c0.7,0,1.7,0,2.5,0c-0.2,0-0.2-0.1-0.7-0.1c-2.2-0.2-6.2,0-10.9,0c-4.2,0-6.7,0.2-9.7,0.4c-0.6,0-0.4,0.1-0.6,0.2
		c0.9,0,2.3-0.1,2.5-0.1c2.1-0.3,8.4-0.2,11.1-0.4C120.4,11,123.9,11,125.9,11z M133.1,12l-4.8,0.1c-6.2,0.3-1.5,0.5,3.1,0.3
		c1.9-0.1,0.5-0.2-0.5-0.3C131.7,12.1,132.4,12,133.1,12z M137.5,9.9c-0.2-0.1,1-0.1-1.6-0.2c-1.7,0-6.1,0-7.1,0l-1.3,0
		c-4.4,0.5,6.8,0.2,6.2,0.5C138.6,10.4,137.6,10.1,137.5,9.9z M169.4,9.7c2.6,0.1,6.7,0.1,8.2-0.1c1.8-0.3-6.3-0.3-1.7-0.7
		c1.2-0.1,3.5-0.1,4.3-0.2c0.9-0.1-0.8-0.2-3.4-0.2c-0.1,0,0.2,0.1-3.1,0.3C171.7,9.1,162.9,9.5,169.4,9.7z M160.7,9
		c1.1,0,2.2,0.1,3.4,0.1c0.9,0,1.9,0,2.7,0c0.2,0,0.5,0,0.7,0c0.8-0.1,0.3-0.1,0.6-0.2c-0.4,0-1.1-0.1-1.9-0.1L160.7,9z M140.7,9.5
		c3.2,0,6.3,0,9.5,0c2.3,0,5.1-0.2,6.9-0.3c0.9-0.1,0-0.2-0.1-0.2c-1.4,0-3,0.1-4.1,0.1c-1.3,0.1-2.2,0.1-3.5,0.2c-1.1,0-2.9,0-4,0
		c-0.9,0-1.2-0.1-1.8-0.1c-1.3,0.1-2.5,0.2-3.3,0.2C140.5,9.5,140.5,9.5,140.7,9.5z M153,13.4c-1.1,0-2.1,0.1-3.8,0.1
		c-1.2,0,0.5-0.1-1.3-0.1c-3,0-1.7,0.2-0.4,0.2l2.6,0.1c-0.6,0-1,0-1.3,0.1C154.2,13.7,159.2,13.3,153,13.4z M167.1,10.2
		c-0.9,0-2.1,0-2.8,0c-1.7-0.1-3.8-0.1-6.4,0c-0.3,0-0.6,0-0.9,0c-2.1-0.2-5.3-0.2-9.3,0c-0.6,0-1.1,0.1-1.8,0.1c0.5,0,0.8,0,1.4,0
		c2.7,0,5.4,0,8.2,0c0.7,0,1.7,0,2.5,0l0,0c0.8,0,1.5,0.1,2.4,0.1c0.6,0,2.7,0,3,0C164.8,10.4,165.9,10.3,167.1,10.2z M172.7,11.2
		c3.9-0.1-0.3-0.2,2.4-0.4c1.5-0.1-1.1-0.1-3.4-0.1c-3.8,0.1-3.8,0.1-3.7,0.3C167.4,11.3,169.3,11.3,172.7,11.2z M182.9,13.4
		c-0.7-0.1-1.5-0.1-3.6,0c-3.3,0.1-0.8,0.3-2.3,0.4c-1.8,0.1-5,0.1-5.9,0.2c-0.9,0.2,2.5,0.2,5.3,0.1l1.7,0
		C178.8,14.1,183.8,13.4,182.9,13.4z M194.4,11.8c-1.5-0.1-4.6-0.2-0.3-0.5l-4.7-0.1c-0.7,0.1-1.8,0.1-2.1,0.2
		c-0.5,0.1-0.3,0.2-0.7,0.3c-0.7,0.2,3,0.3,6.9,0.3C193.6,11.9,194.6,11.8,194.4,11.8z M216,9.6c-1.8,0-3.5,0-5.2,0.1
		c0.5,0,1,0.1,1.5,0.1c-0.8,0.1-1,0.2-1.9,0.2c-2.1,0.1-3.7,0.1-3.7-0.1c0,0-1.5,0-2.4,0c-5.2,0-5.6-0.1-3.4-0.3c2-0.2,3.9,0,6-0.1
		c0,0,0.1,0,0-0.1c-0.1-0.1-2.1-0.2-4.5-0.2l-0.1,0c-1.7,0.1-4,0.2-7.3,0.3c-1.5,0-2.4,0.1-3.5,0c-0.9,0.1-1.6,0.1-2.7,0.2
		c-0.7,0-2.5,0-3.2,0.1c-1.2,0-2.4,0-3.6-0.1c-1.6,0-5,0.1-5.1,0.1c-0.1,0.1,3.4,0.1,4.6,0.2c1.9,0,3.7,0,5.5,0
		c1.3,0,2.5,0.1,2.5,0.2c0,0-1.1,0.1-2.5,0.2c-1.4,0-3,0.1-4,0.1l-1.5,0l-0.4,0.2c1.5,0,2.9,0.1,3.6,0.1c2.1,0.2,2.6-0.1,3.8-0.1
		c1.2,0,2.4,0,3.6,0c0.3,0.1,0.6,0.1,0.9,0.1l1.7-0.1c2.5-0.1,2.6-0.2,2.3-0.3c-0.1,0-0.7,0-1.1-0.1c-0.4,0-1,0.1-1.3,0.1
		c-0.9,0.1-1.7,0.2-2.5,0.2c0-0.2-0.1-0.4,0.1-0.5c0.2-0.1,0.7-0.3,1.1-0.4l6.2,0.1c0,0.1-0.2,0.2,0.1,0.2c0.1,0,1.1,0,1.6,0.1
		c1.7-0.1,4.1-0.2,2.9,0c-1.6,0.2-2.3,0.3,2.8,0.2c0.7,0,1.4,0.1,2.4,0.1c0.5,0,1.5,0,2.2,0C210.7,10.2,215,9.9,216,9.6z M220.5,9.2
		l0.6,0.1c0.1,0,0.3,0,0.3,0c0.2,0,0.2,0,0,0.1c0.2,0,0.8,0,1.2,0.1c0.4,0,1.1-0.1,1.1-0.1c0.1-0.1,0.1-0.2,0.1-0.3L220.5,9.2z
		 M231.1,11.6c-2.4,0-5.5-0.1-7.1-0.1c-1.3-0.1-0.8-0.2-1.1-0.3c-3.1,0.2-0.6,0.3-1.7,0.4c-0.8,0.1-2,0.2-2.3,0.2
		c0,0.2,3.6,0.4,7.4,0.4c0.6,0,1.7-0.1,2.4-0.1c0.2,0,0.2,0,0-0.1C224.8,11.9,229.5,11.8,231.1,11.6z M234,9.6c-0.6,0-1.2,0-1.7,0
		c-2.3,0.4-8,0.1-11.4,0.3c-0.8,0-1.8,0.1-1.8,0.1c-0.1,0.1,0.4,0.1,0.8,0.2c0.1,0,0.7,0,1.5,0c0.7,0,2.3-0.1,2.4-0.1
		c0.5-0.1,0-0.3,2.7-0.1c1.3,0.1,8.1,0,9.1-0.1C236.8,9.8,236.9,9.7,234,9.6z M254.2,8.8c-0.6,0-2.2,0-3.3,0
		c0.9,0.2-4.7,0.2-5.9,0.4c-0.3,0-0.8,0.4-1.3,0.4c0.7,0,1.5,0,2,0c2.4-0.1,4.8-0.3,7.1-0.5c-0.1,0-0.1-0.1-0.2-0.1l2.3,0l0.3,0
		C255.2,9,254.9,8.8,254.2,8.8z M262.9,8.9c-0.2,0.1-0.3,0.1,0.3,0.2c0.4,0,3.2,0,3.9,0l0.3,0C264.9,9,263.5,9,262.9,8.9z
		 M269.7,11.8c0.1,0-1-0.1-1.3-0.1l-6.2,0.1c-0.8,0.1-1.4,0.2-2.1,0.3c2.5,0,5-0.1,7.4-0.1C268.4,11.9,269.6,11.9,269.7,11.8z
		 M274.9,8.9c-0.4,0-0.7,0-1.2,0c0.3,0,0.5,0,0.8,0l-1-0.1c-1.2,0-2.4,0-3.6,0c-0.4,0.1,0,0.1-0.2,0.2l0.4,0
		c2.6,0.1,4.4,0.2,5.8,0.2C276.7,9,275.6,9,274.9,8.9z M289.9,7.8c0.3,0,0.4,0,0.7,0c0.9,0,1.2,0.1,1.6,0.1c0.5,0.1,0.4,0.2,1.2,0.2
		c0.5,0,2.9,0,3.2,0c2.2-0.1,5.7-0.2,8.1-0.2c4.3,0,5,0,6.5-0.2c-0.5-0.1-2.2-0.2-4.2-0.1c-4.6,0.2-5.5,0-7.8,0
		c-3.9-0.1-2.2-0.3-2.1-0.4c0.1,0,2.6-0.1,3-0.1c1.5,0.1,2.7,0.1,4,0.2l0,0c0-0.1-0.5-0.1,0.1-0.2c0.4,0,1.6-0.1,2.8-0.1
		c-1.7,0-3.7,0-4.7,0c-0.3,0-0.2,0-0.2-0.1c-2.1-0.1-6.5,0.1-9,0.1c-2.7,0-3.5,0.1-3.3,0.2c0.1,0.1,0,0.1-0.6,0.2c0,0-0.1,0-0.1,0
		C288.7,7.6,289.1,7.7,289.9,7.8z M294,8.9c3.7-0.1,3.6-0.2,1.7-0.2c-0.6,0-1.4,0-2-0.1c-0.4,0-0.8,0-1.2,0c-1.8,0-2.4,0.1-2.6,0.1
		l-0.2,0c-0.1,0-0.2,0-0.2,0.1c0.4,0.2-1.3,0.5,3.2,0.5c0.9,0,2.2,0,3.3,0c-0.2,0-0.2-0.1-0.7-0.1c-0.7,0-1.8-0.1-2.5-0.1
		C291.3,9.1,291.1,9,294,8.9z M284.8,8C284.9,8,285,8,284.8,8l2.5,0c0,0,0.1,0,0.1,0l-0.4,0L284.8,8z M299.3,12.1
		c-0.1,0-0.5,0-0.8,0c-4.9,0-5.6,0.3-8.5,0.4c-0.4,0-0.3,0.1-0.6,0.1c0.8,0,1.9,0,2.6,0C295.6,12.5,299.9,12.2,299.3,12.1z
		 M299.3,11.8l-1.9,0c-4.7,0.1-9.8,0.1-13,0.4c-0.6,0-1.2,0.1-1.7,0.1c1.1,0,2.2,0,4.4,0c3.5-0.1,7.5-0.3,11.4-0.4
		C298.7,11.8,299,11.8,299.3,11.8z M308.9,11.1c-0.1,0-2.3-0.1-2.7-0.1c-2.4,0.1-4.8,0.2-6.9,0.3c-1,0.1-1.7,0.1-2.5,0.2
		c1.4,0,2.7,0,3.2,0C307.1,11.5,309.5,11.3,308.9,11.1z M311.9,8.4c1.4,0,2.8,0,4.4,0.1c0.7,0,2.1,0,2.5,0c1.1-0.1-0.7-0.3-1.9-0.2
		c-3.5,0.1-9.4,0-10.5,0.3c-0.1,0-1.5,0-1.6,0c-1.1-0.1-2.4-0.1-2.9-0.2c-0.8,0-1.6,0-2.3,0.1c0.3,0.2,1.6,0.4,4.6,0.5
		c0.7,0,0.7,0.1,1.1,0.1c0.5-0.1,1-0.1,1.4-0.2c0.1,0-0.1,0,0-0.1C307.7,8.7,312.6,8.6,311.9,8.4z M322.4,10c-1-0.1-2.7-0.2-3.8,0.1
		c-0.7,0.2-3.3,0.1-5.4,0.1c-2.9,0-4.3,0.1-4,0.3c1.5,0,3.5,0.1,5.8,0.1c2.6,0,5.9-0.1,8.1-0.3C324,10.2,323.3,10.1,322.4,10z
		 M323.7,8.3c0.1,0,0.3,0.1,0.5,0.1c0.6,0,1.6,0,1.6,0c-0.2-0.2,3.4-0.1,4.1-0.2c5.3-0.3,6.7-0.1,8.4,0c0.3,0,0.7,0,1,0.1
		c0.5,0,1.4-0.1,1.3-0.1c-0.4-0.1,1.3-0.2,2.2-0.4c0.5-0.1-1.8-0.2-3.6-0.2c-2,0-3.2,0.1-3.6,0.2c-0.4,0.1-4,0.2-4.2,0.1
		c-0.5-0.2-2.8-0.1-5.7-0.1c-3.9,0.1-1.6,0.2-2.2,0.3C323.6,8.2,323.7,8.2,323.7,8.3z M333.2,11.3c-2.5-0.1-4.9-0.1-7.5-0.2
		c-0.1,0-1.4,0.1-1.8,0.1c-0.3,0.2,1.6,0.3,4.5,0.3C330,11.4,331.6,11.3,333.2,11.3z M343.9,11.2c-1.2-0.2-2.3-0.4-3.4-0.5
		c-0.1,0-0.5,0-0.8,0c-4.2,0.3-4.8,0-7.6,0c-0.5,0-1.2,0.1-0.8,0.1c1.4,0.1,3.8,0.1,4.6,0.2c0.5,0.1,4.7,0.1,0.8,0.2l4.4,0.1
		C342,11.3,343,11.2,343.9,11.2z M355.6,8.2c-3.4-0.1-5-0.2-8-0.3c-0.2,0-1.3,0.1-1.7,0.1c-0.2,0.2,3.7,0.4,8.4,0.3
		c0.2,0,0.7,0,0.8,0C355.3,8.2,355.8,8.2,355.6,8.2z M377.8,9.5c-0.3,0-0.6,0-0.9,0c-0.5,0-1.5,0.1-1.5,0.1c0.3,0.2-2.9,0.3-4.4,0.4
		c-0.2,0,0.4,0.1,0.7,0.1c2.9,0,5.4-0.1,7.6-0.2C381.4,9.6,379.5,9.6,377.8,9.5z M428.2,5.5c6.6,0.2,14.6,0.3,23.7,0.4
		c0.9,0,2.7-0.1,3.7-0.1c0.3,0-0.6-0.1-1.1-0.1c-3.9,0.1-5.3,0-6.2-0.2c-1.1-0.2-4.3,0.2-4.6,0.1c-0.3-0.1-2.4-0.2-3.7-0.2
		c-9.3,0.2-5.6-0.1-4-0.3c0.3,0,0.1-0.1,0-0.1c-0.2-0.1,0.9-0.2-2.4-0.2c-3.9,0-1.9,0.1-2.5,0.2c-0.5,0.1-1.8,0.1-2.8,0.1
		C426.5,5.4,426.8,5.5,428.2,5.5z M448.8,6.1c-4,0-2.5,0.2-3.1,0.3c0.4,0,1.1,0.1,1.8,0.1l5.7-0.4C451.7,6.1,450.4,6.1,448.8,6.1z
		 M421.3,6.3c1,0.2,1.8,0.4,2.7,0.6c0.5,0,1.9,0,3.8,0c0.3-0.1,0.5-0.2,0.8-0.3c-5.7,0.1-3.9-0.2-5.9-0.3
		C422.3,6.4,421.8,6.3,421.3,6.3z M414.7,7.6c-1.4,0.1,0.2,0.2,2.2,0.2c0.3,0,0.5,0,0.7,0l0.1,0l0.1,0c0.4-0.1,0.5-0.1,1.2-0.2
		c1.2-0.1,2.7-0.2,3.9-0.3c0.3,0-0.2-0.1-0.6-0.2C419.1,7.4,416.7,7.5,414.7,7.6z M400.8,6c5.1,0.1,6.4,0,10.8-0.2
		c1.2-0.1,2.6-0.2,3.3-0.2c0.9-0.1,4.7-0.2,2.8-0.3c-0.4,0-1,0-1.5,0c-2.1,0-4.3,0-6.8,0.2c-1.4,0-2.8,0-4.3,0c-0.9,0-1.3,0.1-1,0.2
		c0.4,0.1-1.8,0.1-3.6,0.2C398.5,5.9,398.6,6,400.8,6z M401.7,8c0.5-0.1,0.7-0.1,0.2-0.1c0,0-0.1,0-0.1,0c-0.1,0-0.3,0-0.4,0
		l-0.1-0.1c-0.4,0-0.8,0-1.5,0l-4.9,0.1c-1.2,0-2.7,0-3.6,0.1c-0.8,0-1.1,0.1-1.2,0.2c-0.1,0,0.8,0,1.3,0.1
		C394.4,7.9,398.7,8.4,401.7,8z M425.4,10c-0.9,0-1.9,0-3.3,0c-0.1,0-0.2,0-0.3,0c-1.3,0.1-2.3,0.1-3.8,0.2
		c-0.3-0.1-0.8-0.2-1.3-0.2c-0.7,0-1.5,0-2.3,0c-6.3,0.2-4-0.2-7.3-0.2c-0.2,0,0-0.1,0-0.1c2.3,0,4.6,0,6.9,0
		c1.3-0.1,2.8-0.1,3.6-0.1c1,0,2.1,0.1,2.9,0.1c0.1,0,0.2,0,0.3,0c0.1,0,0-0.1,0-0.1c-1.7,0-3.5-0.1-5.5-0.1c-3.7,0-4.6-0.5-12.1,0
		c-0.2,0-3.3-0.1-5.2-0.1c-0.4,0-1.6,0-2.2,0c-0.3,0-0.4,0.1-0.1,0.1c3.7,0.1,4.3,0.2,4.3,0.4c0,0.1,1.8,0.2,3.6,0.3
		c1.2,0,3.9-0.1,6-0.1l0,0.1c-2.5,0.1-6.4,0.2-2.8,0.3c1,0,1.8,0.1,2.8,0.1c2.1,0,3.7-0.1,4.9-0.2c-0.7,0-1.5,0-2.2,0
		c-1.3-0.1-2.1-0.1-3.1-0.2c0.9,0,1.3-0.1,1.8-0.1c0.8,0,2.2,0,2.3,0c0.8,0.1,2.1,0.1,4,0.1c0.3,0,0.6,0,0.9-0.1
		c2.5,0,4.6,0,6.7-0.1C424.9,10.1,425.2,10,425.4,10z M457.6,8.8c-3,0-3.1-0.3-8.3,0c-1.2,0.1-4-0.2-2-0.3c1.4-0.1,2.9-0.2,4.3-0.3
		c2.2-0.1,1.9-0.3-1.3-0.3c-2.8,0-6,0.1-9,0.1c0.6,0.3-5.2,0.2-7.6,0.3c-0.8,0-2,0-3.1,0.1c0.4,0.1,0.7,0.2,1.1,0.3
		c-0.6,0-1.2,0-1.8,0c0.2,0,0.3,0,0.5,0.1c1.5,0,2.9-0.1,3-0.1c-0.1-0.3,6.3,0,6.6-0.2c1.1,0.1,2.4,0.1,3.3,0.2
		c-0.1,0-1.8,0.1-3,0.2c-2.7,0.1-5.6,0.2-6.3,0.2c-3.3,0-4.3,0.1-4.8,0.1c-0.1,0-0.2,0-0.2,0c-0.6,0-1.2,0-1.6,0
		c-1.4,0-2.5-0.1-3.8-0.1c-0.1,0-0.3,0.1-0.8,0.1c-0.6,0-1.4,0.1-2.1,0.1l0.1,0c0.1,0,1.3-0.1,2-0.1l7.9,0.2c3.1,0,6,0.1,9.6-0.1
		c0.8,0,1.4,0,1.9,0.1l8.5-0.2c-0.1-0.2,2-0.2,3.6-0.1l0.1,0c0.2,0,0.4,0,0.6,0c0.8,0,2,0,2.2,0c0.8,0,1.5-0.1,2.3-0.1
		C461.6,8.8,461.2,8.7,457.6,8.8z M486,6.1c-1.2-0.1-1.3-0.2-1.8-0.3c-0.8,0.1-1,0.3-2.7,0.3c-3.1,0.1,1.4,0.3-3.6,0.4
		c-0.8,0-1.5,0.1-2.2,0.1c0.7,0,1.4,0,2.1,0c1,0,2,0,3.9,0c0.2,0,1-0.1,1-0.1c-0.5-0.1,0.8-0.3,3.2-0.4C487.5,6.2,487.2,6.2,486,6.1
		z M504.5,4.8c-0.9-0.1-4.1-0.1-6.4-0.1c0.3,0-0.3,0-0.6,0c-1.5,0.1-2.9,0.2-4.5,0.4c-1.3,0.1-2.8,0.2-5,0.1c-1.5,0-3.5,0-5.4,0
		c-2.3,0-4.6,0.1-6.9,0.1c0.5,0.1,6-0.1,4.6,0.1c3.4,0,7.9,0.1,10.1,0c4.3-0.1,8.3-0.2,12.5-0.3c0.4,0,1,0,1,0
		C504.2,5.1,505.4,4.9,504.5,4.8z M533.9,6.5c-0.4,0-0.7,0-1.3,0c-1.3,0-2.8,0-4.1,0c-4.5,0.1-8.9,0.2-13.2,0.3
		c-0.6,0-0.7,0.1-1.3,0.2c1.3,0,2.5,0,3.9,0c1.3,0,2.8-0.1,4.3-0.1l9.6-0.3C532.5,6.5,533.2,6.5,533.9,6.5z M553.4,5.2
		c-1.1,0-2.7,0.1-4.1,0.2c1.9,0,3.9,0,5.7,0c1.8,0,3.4,0,5.2,0c0.9,0,2.9-0.1,3.1-0.1c0.6-0.1-0.6-0.3,4.2-0.4
		c2.2-0.1,4.4-0.3,5.1-0.4c1.6-0.3,4.6-0.3,8.6-0.3c1.6,0,3.9,0,5.7-0.1c0.7,0,1.1-0.1,1.1-0.2c0-0.1,2-0.2,4-0.2
		c5.2-0.1,2.5-0.1,1-0.2c-0.6,0-0.1-0.1-0.1-0.2c0-0.1-1-0.1-2.5,0c-2,0.1-8.2,0.1-7.5,0.3c-0.6,0-1.3,0-1.7,0
		c-6.2-0.1-12.5-0.1-18.6-0.2c-0.8,0-1-0.1-1.5-0.1c-0.4,0-0.8,0-1.2-0.1c-0.4,0-1.3,0.1-1.2,0.1c0.9,0.2,1.9,0.5,3.1,0.7
		c0.1,0,2.1,0,3.2,0c1.7-0.1,3.4-0.1,5.1-0.2l1.2,0.2c0.3,0.1-1.1,0.2-4.4,0.3c-2,0.1-4.2,0.2-5.5,0.2c-1.1,0.1-0.9,0.2-1.3,0.3
		c-2.1,0-3.9-0.1-3.9-0.2c0-0.2-5.4-0.1-7.8-0.1c-0.1,0-1.7,0.1-1.8,0.1c0.1,0.1-0.1,0.2,0.9,0.2c1.4,0,3.9,0.1,5.7,0.1
		C553.7,5,553.9,5.1,553.4,5.2z M566.1,5.9c-3.1,0-4.1,0-5.3-0.1c-1.5,0-3,0.1-4.6,0.1l-6.6,0.1c1.5,0.1,2.9,0.2,4.5,0.2
		C557.3,6.2,560.6,6.1,566.1,5.9z M607,6.2c-0.6,0-1.3,0-1.7,0c-1.7-0.1-4.6-0.2-8.7-0.1c-0.6,0-1.5,0-2.2,0.1
		c-0.7,0-1.2,0.1-1.3,0.1c-0.1,0.1,0.6,0.2,1.3,0.2c2.5,0,4.1,0,3.3,0.1c-0.3,0-2.5,0.1-3.9,0.1c-2,0-4.1,0.1-6.1,0.1
		c-0.8,0-1.9,0-1.9-0.1c0,0,0.9-0.1,1.7-0.1c0.8,0,2-0.1,3-0.1c-1.1,0-2.2,0-3.2,0c-4.7,0.1-3.7,0-2.1-0.2c-0.2,0-1.6,0-2.5-0.1
		c-0.6,0.1-2,0.1-1.8,0.1c1.5,0.1-5.8,0.3-1.1,0.4c2,0-1.4,0.1-2.3,0.1c-1.1,0-4.5,0.2-3.1-0.1c0.3,0,0.1-0.1,0.2-0.1
		c-0.8,0-2.3,0-2.3,0C571,7,569.2,7.1,566,7c-0.3,0-2.2,0-2.4,0c-1.9,0.2,0.6,0.4,5.6,0.3c1.2,0,2.8,0,3.6-0.1
		c8.1-0.4,11.6-0.2,15,0c0.6,0,1.4,0.1,2.2,0.1c-2.1-0.1-2-0.3,2.2-0.4c3.6-0.1,4.6,0,6.7-0.2c2.3-0.2,0.1-0.4,6.4-0.5
		C606,6.2,606.5,6.2,607,6.2z M607.6,5.4c-0.1,0-1.4,0-3-0.1c-2.3,0.1-4.4,0.2-6.6,0.3l5.9,0.2C605.1,5.7,606.5,5.6,607.6,5.4z
		 M615.4,4c0.5,0,2.4,0,3.1,0c2.6-0.1-0.3-0.1-0.6-0.1c-1.3-0.2-7.6-0.1-9.3-0.3c-1.2-0.1-2.4-0.2-6.4-0.1c-5,0.1-3,0.1-2.1,0.2
		c1.6,0.2-2.7,0.4-7.2,0.6c-1,0-1.5,0.1-2.3,0.2c1.3,0,2.7,0,3.9,0c2.2-0.1,4.5-0.1,6.3-0.2c1.3-0.1,1.6-0.2,2.9-0.2
		C608.1,3.9,612.3,3.8,615.4,4z M628.2,5.5c0.5,0,0.7-0.1,0.5-0.1c-0.2,0-1.1,0-2.2-0.1c-0.5,0-1.3,0.1-2,0.1
		c-2.9,0.2-4.8,0.4-9.7,0.4c-3.1,0-2.1,0.2-2.1,0.2c0,0.1,2.3,0.1,3.8,0.1C620.4,5.9,624.3,5.7,628.2,5.5z M632.6,5.8
		c-2.3-0.1-4.7,0-7.3,0.1c-0.2,0-0.3,0-0.5,0.1c0.4,0,0.7,0.1,1.4,0.1c1,0,3.3,0,3.5,0c0.6,0.2,2.5,0,3.8,0
		C636,5.9,634.3,5.9,632.6,5.8z M646.3,5.1c-1.6,0-3.3,0-5,0c-0.2,0-1.7,0.1-1.5,0.2c0.5,0.1-2.1,0.2-3.5,0.3
		c-0.4,0-0.8,0.1-1.2,0.1c0.3,0,0.6,0,0.9,0c0.8,0,1.6,0,2.4,0c4.2-0.1,2.1-0.4,7.7-0.5C645.9,5.2,646.4,5.1,646.3,5.1z M651.7,3.8
		c-0.1,0-1.7,0-2.5,0c-3.5,0.1-5.4,0.1-4.8-0.1c1.3-0.4-0.9-0.7-5-1c-1,0-2.6-0.1-4.3-0.1c-1.5,0.1-3,0.2-3.9,0.2
		c-3.4,0.3-4.9,0.6-6.3,0.9c-0.5,0.1-0.1,0.1,3.1,0c2.3-0.1,6.7-0.1,9.3-0.1c2.2,0,4.4,0.1,4.4,0.3c0,0.2,2.4,0.2,4.6,0.3
		c0.6,0,2.3,0,2.4,0C649.9,3.9,650.9,3.8,651.7,3.8z M686.4,3.8c-0.4,0,3.6,0,0.6,0.2c-0.1,0,0.6,0.1,1,0.1c1.6,0,3.2,0,4.8-0.1
		c2.8-0.1,3.2,0,3.2,0.1c0,0,0.2,0,0.3,0c4.7-0.2,5-0.3,4-0.3c-2.6,0-5.5-0.1-8.5-0.1C690.4,3.7,688.1,3.7,686.4,3.8z M695.9,4.3
		c0.2,0,0.2-0.1,0-0.1c-16.4,0.7-15.6,0.8-14.4,0.8c0.5,0,1.9,0,2.5-0.1C687.7,4.7,690.8,4.4,695.9,4.3z"/>
</g>
</svg>
