<?xml version="1.0" encoding="utf-8"?>
<!-- Generator: Adobe Illustrator 25.1.0, SVG Export Plug-In . SVG Version: 6.00 Build 0)  -->
<svg version="1.1" id="Calque_1" xmlns="http://www.w3.org/2000/svg" xmlns:xlink="http://www.w3.org/1999/xlink" x="0px" y="0px"
	 viewBox="0 0 433.3 390.3" style="enable-background:new 0 0 433.3 390.3;" xml:space="preserve">
<style type="text/css">
	.st0{fill:#FFD405;}
</style>
<g>
	<polygon class="st0" points="58.4,276.5 58.4,276.5 58.4,276.5 	"/>
	<path class="st0" d="M21.5,111.3c0,0,0.1,0,0.1,0c1.1-4.1,2.3-8.2,3.7-12.1C20.8,110.3,21.1,110.8,21.5,111.3z"/>
	<path class="st0" d="M420.6,185.6c-0.3,1.8-0.6,4.2-1.1,7.5C419.9,191.1,420.3,189.1,420.6,185.6z"/>
	<path class="st0" d="M419.5,193.2l-0.1,0.3c-0.1,0.4-0.1,0.7-0.2,1.1C419.4,194,419.4,193.7,419.5,193.2z"/>
	<polygon class="st0" points="420.6,185.6 420.6,185.6 420.6,185.5 	"/>
	<path class="st0" d="M420.1,148c0.1-1-1.3-5.6-1.8-7.7c-0.4-1.3-0.7-1.7-0.7-1.3c0,0.5,0.3,2.6,0.3,3.2c0,1.4,0.7,4.3,1.9,11
		c0.6,6.2,1,6.6,1,5.2C420.7,155.9,420.4,152.1,420.1,148z"/>
	<path class="st0" d="M416.1,132.6c-0.2-0.8-3.2-7.4-2.4-6.8c0.2,0.2,1.7,3.2-0.5-2.8c-0.7-1.7-2-2.7-3-4.1c-0.2-0.2-0.1,0-0.1,0
		c-0.4-0.2,0.9,1.7,3.1,7.8c0.9,2.3,2.5,6.4,2.6,6.8C416.2,134.3,416.5,134.1,416.1,132.6z"/>
	<path class="st0" d="M342.5,50c-2.3-1.4-8.1-3.5-9.9-4.3c-1.4-0.5-1.8-0.6-2.7-0.9c2.2,1,7.5,3.5,8.1,3.8c3.8,1.7,5.8,3.4,7.1,4
		c2.2,1.2,5.5,3.1,5.3,2.8c-0.3-0.4-2.7-2.1-4.6-3.4C345.4,51.7,343.2,50.4,342.5,50z"/>
	<path class="st0" d="M412.7,128.9c0,0.4-1.5-2.4,0.9,3.7c0.9,2.5,1.6,5,2.7,8.6c-0.8-3.5-1.2-6.2-2.2-9.1
		C414,131.7,412.8,128.8,412.7,128.9z"/>
	<path class="st0" d="M399.8,98.1c-0.7-1-2.1-3.3-2.1-3.3c-0.5-0.2-0.8-0.2-1.2-0.2c0.6,0.8,1.4,2,1.6,2.3c0.7,0.9,1.2,1.4,1.8,2.1
		l-1.3-2.1c0.6,0.8,1.4,1.8,1.8,2.4C400.6,99.5,400.2,98.8,399.8,98.1z"/>
	<path class="st0" d="M156.7,316.1c3.2,0.9,5.9,1.9,10,2.6c6.2,1.1-1.7-0.8-3.9-1.6c-1-0.3-1.9-0.6-2.8-1c-1.3-0.4,2.6,0.2-3-1.1
		c-4.8-1.1-8.8-2-13.1-3c-0.3-0.1-0.2,0-0.2,0c1,0.3,1.8,0.6,3,1C149.9,314.1,153.5,315.2,156.7,316.1z"/>
	<path class="st0" d="M214.8,319.4c3.2,0.2,7.8,0.4,12,0.7c0.9,0,1.1-0.2,0.2-0.3c-1-0.1-4.7-0.5-5.2-0.5c-3-0.1-6.5-0.3-10.9-0.9
		c-3.6-0.4-9.5-1.3-8.5-0.8C203.3,318.2,209.2,318.6,214.8,319.4z"/>
	<path class="st0" d="M335.7,298.5c2.2-1.3,6.9-3.8,11.2-6.8c0.3-0.2,0-0.1-0.1-0.1c-2.7,1.8-5.4,3.4-8.3,4.9
		c-2.8,1.6-5.6,3.1-8.5,4.4c-1.4,0.7-2.5,1.4-3.8,2.1c1.6-0.7,3.2-1.4,4.8-2.2C331.6,300.5,332.3,300.2,335.7,298.5z"/>
	<path class="st0" d="M248.3,317.4c-1.1-0.1-2.1-0.1-3.3-0.2c-7-0.1-12.1-0.3-14.1,0.1c0.3,0,2.8,0.3,3.7,0.3
		C239.4,317.7,243.8,317.4,248.3,317.4z"/>
	<path class="st0" d="M198.7,319.5c2.3,0.1,3.9,0.2,5.8,0.3c3.4,0.2-4.6-1-2.9-1c-1-0.1-2.7-0.4-2.8-0.4c-1.8,0-3.5,0.1-4.7,0.2
		C193.8,318.5,196.2,319,198.7,319.5z"/>
	<path class="st0" d="M231.8,318.4c-0.3,0,0,0.1,0,0.1c0,0.1-0.5,0.2,0.2,0.3c0.6,0.1,2.7,0.3,4.2,0.4c1.4,0.1,3.7,0,4,0
		c0.6-0.1,0.7-0.3-0.1-0.4c-0.7-0.1-2.7-0.3-4.2-0.4C234.5,318.4,233.1,318.4,231.8,318.4z"/>
	<path class="st0" d="M64.8,45.2c-3,2.7-6.6,5.1-9.1,8.1c-3.1,3.4-8,8.5-9,9.7c-0.1,0.2,0.6-1.2,1.8-2.7c1.3-1.5,2.8-3.3,3.9-4.5
		c0.6-0.7,1-1.3,1.5-1.9c-1.3,1.3-2.6,2.7-3.8,3.9c-1,1-1.8,1.9-2.6,2.7c-0.6,0.9-1.2,1.8-1.8,2.7c-1.1,1.8-2.3,3.5-4.3,5.9
		c-3.6,4.3-4.7,8.3-8.2,13.6c-1.8,3.7-4.9,9.8-6.1,13.9c-0.1,0.2-0.7,1.7-1.1,2.7c-0.8,2.2-1.8,4.4-2.5,6.7c0.5-0.9,0.8-1.5,1.6-2.9
		c0.3-0.6,1.8-4.4,3.3-8.3c1.7-3.8,3.5-7.6,3.9-8.7c1.3-3.6,3.3-6.7,5.1-10.2c2-4.1,5.7-8.4,6.4-8.9c0.1-0.1-1.1,1.8-1.6,2.4
		c-2,2.4-3.4,4.9-5,7.5c-0.5,0.9-1.2,2.1-1.7,3.1c0.5-0.7,0.9-1.2,1.6-2.2C40,72.9,45.6,65.7,48,63c0.2-0.3,1.5-1.9,2.4-2.7
		c0.8-0.9,1.6-1.8,2.1-2.4c3.1-3.6,5.6-7,8.7-8.6c0.6-0.4-0.6,0.9,2.9-2.1c2.1-1.8,4.5-3.9,6.2-5.4c0.8-0.7,0.2-0.4,0.2-0.6
		C70.4,40.9,70.7,40.2,64.8,45.2z"/>
	<path class="st0" d="M182,0.5c-0.2-0.2,2.8-0.4,5.9-0.5c2.5-0.1,7.2,0.1,11.9,0.1c4.1,0.3,17.5,1.9,19,2.6c0.4,0.2,8.8,1.2,3.9,0.9
		c-2.7-0.1-1.8,0.3-8.9-0.5c-2.9-0.3-5.9-0.6-8.8-0.8c-2-0.8-12.9-0.4-15-1.1C189.1,1,182.2,0.6,182,0.5z M194.9,0.7
		c-1,0.2,8.2,0.8,10.5,1.1c2.8,0.2,5.7,0.4,6.6,0.4c1.4,0.1-4.3-1.3-12.6-1.6C198.2,0.6,195.7,0.6,194.9,0.7z"/>
	<path class="st0" d="M16.2,208.1c1.1,3.7,1.9,6.3,2.1,5.9c0.1-0.2,0.2-0.3,0.4-0.1c0.1,0.1,0.6,1.2,0.9,1.8c0.2,0.6,0.7,2,0.6,1.7
		c-1.7-3,1.8,6.2,3.3,8.6c0.6,1,1.5,2.4,2.2,3.6c0.7,1.2,1.3,2.1,1.3,2.1c0.6-0.1-4.1-7.9-6.3-14.1c-0.8-1.8-1.9-4.4-2.1-5.4
		c-1.8-5.1-2.2-6.7-1.7-6.5c0.1,0.1-0.2-1.3-0.3-2c-0.3-0.6-0.5-0.7-0.8-1.9c-0.5-2.3-1.4-6.6-1.7-7.6c-0.4-1.1-0.3,0.6,0,3.5
		c0.2,1.5,0.4,3.2,0.6,5C15.1,204.5,15.7,206.3,16.2,208.1z"/>
	<path class="st0" d="M129,322.5c1.4-1,0.9-1,5-3.7c0.2-0.1,1-0.9,0.6-0.6c-3.7,2.3-7.6,4.6-11.5,7.1c-0.3,0.2-1.5,1.1-2.4,1.8
		c-5.1,3.4,5.5-2.9-3.6,3c-2.2,1.4-3.9,3-6.4,4.8c-3.1,2.2-6.7,4.8-9.8,7c-0.6,0.4,0,0.2,0,0.2c0.8-0.5,1.7-1,2.7-1.6
		c1-0.6,2.7-1.7,3.3-2.1c3.4-2.6,6.6-5,9.9-7.4C125.1,326,125.5,325,129,322.5z"/>
	<path class="st0" d="M303.2,33.2c-4.7-2.2-11-3.6-10-4c0.2-0.1-4.1-1.4-7.3-2.4c-3.3-0.7-6-1.2-7.8-1.6c-0.8-0.1-0.4,0.1,0.5,0.4
		c5.9,2,12.2,4.1,18.2,6.2c2.4,0.7,4,1.2,5.7,1.7c1.3,0.3,2.4,0.6,3,0.7C305.7,34.2,304,33.5,303.2,33.2z"/>
	<path class="st0" d="M82.7,353.8c-0.2,0.2,0,0.2,0.1,0.2c0.1,0.2-0.9,1.1,5.2-2.7c0.7-0.5,1.6-0.6,2.7-1.1c0.4-0.3,2.8-1.6,2.8-1.6
		c3-2.2,9.7-6.5,7.7-5.8c-1.4,0.5-2.9,1.1-5.4,2.3C94.3,345.9,83.3,353.2,82.7,353.8z"/>
	<path class="st0" d="M1,162.3c0-0.1,0-1.4,0-1.5c-0.4-1.3,0.1-5.2,0.6-10c0.6-4.7,1-10.2,2-14.4c0.7-3.8,0.6-3.9-0.2-1.1
		c-1.9,5.7-2.1,10.4-2.6,15.7c-0.2,2.2-0.3,4.4-0.6,7.1c-0.2,5.2,0.1,7.5,0.4,6.2c0.1,0,0.2,0.3,0.2-0.1C0.9,164.3,1,163.1,1,162.3z
		"/>
	<path class="st0" d="M127.2,18.2c-5.4,0.9-8.8,2.2-15.1,3.8c-5.2,1.4-4.3,1.5-4.6,1.8c-2.3,0.7-4.2,1.2-5.8,1.7
		c-1.5,0.6-2.7,1.1-3.6,1.5c-1.8,0.7-2.6,0.8-2.4,0.5c0.3-0.7-3.2,0.9-8.6,3.5c-1.3,0.5-3.5,1.6-4.8,2.6c-1.7,1.1-3.2,2.2-4.9,3.2
		c1.3-0.7,2.6-1.4,4.1-2.2c1.2-0.6,2.5-1.5,4-2.2c1.5-0.6,3-1.2,4.5-1.8c2.9-1.2,5.6-2.2,6.9-2.5c0.6-0.1,3.1-1.3,6-2.4
		c3-0.9,6.5-2,8.8-2.9c2.9-0.8,5.8-1.6,8.7-2.4c7.1-1.5,13-2.3,15-3c1-0.3,0.5-0.5-0.9-0.4C133.7,17.1,128.7,17.9,127.2,18.2z"/>
	<path class="st0" d="M104,334.8c1.6-1.2,4.3-3,4.7-3.4c0.5-0.6,2.2-2-2.3,0.8c-2.4,1.5-7,4.5-2.6,1.3c1-0.7,1.4-1.1,1-1
		c-0.7,0.2,2.4-2.1-3.1,1.3c-4,2.5-8.2,5.5-7.7,5.6c2-0.9,3.8-1.7,6-2.6C101.1,336.2,102.7,335.4,104,334.8z"/>
	<path class="st0" d="M72.8,349.1c-3.1,2.1-8.1,5.2-9.3,5.9c-0.9,0.5-1.8,1.2-2.8,1.9c0.6-0.2,1.1-0.4,1.8-0.8
		c1.1-0.6,2.3-1.1,3.5-1.7c2.1-1.1,4.2-2.3,6.4-3.5c1.1-0.6,3.8-2.2,4.7-2.9c1-0.7,1.7-1.3,1.1-1c-0.9,0.4-3,1.6-4.7,2.5
		c2-1.4,3.7-2.6,4.4-3.2C79,345.4,75.1,347.6,72.8,349.1z"/>
	<path class="st0" d="M12.3,180.7c0.1,1.7,0.4,5,0.4,5c0.3,0.1,0.5-0.4,1,4.2c-0.1-2.9-0.1-5.9-0.2-9.1c-0.9-2.9-0.1-9.2-0.2-12.1
		c0-0.7,0-2.7-0.1-2.7c-0.2,0-0.5,2-0.7,4.9C12.1,173.7,11.9,177.4,12.3,180.7z"/>
	<path class="st0" d="M54,339.4c1.5-4.2,2.1-5.1,2.8-7c1.8-4.4,1.6-6.5,0.7-3.8c-0.7,1.8-1.7,3.5-2.5,5.3c-0.2,0.6-0.7,1.8-0.7,1.8
		c-0.1,0.8-0.6,2.6-1.5,5.1c-0.6,1.2-1.2,2.5-1.9,4c-1.3,2.7-2.7,5.5-4.2,8.5c0.1,0,0.2,0,0.3-0.1c0.6-0.3,0.9-0.7,2.1-3
		c0.6-1.2,1.4-2.8,2.5-5.2C52.2,343.6,53.2,341.9,54,339.4z"/>
	<path class="st0" d="M14.7,142.2c0,0.5,0,2.2,0.1,1.4c1.3-5.4,1-1.9,1.5-3.2c0.4-0.9,1.1-3,1.8-5.2c0.2-0.7,0.9-3.6,1.2-5.3
		c0.2-0.7,0.1-1,0.2-1.9c-1,2.3-2,4.5-3.2,7.5C16.2,136.1,15.3,139.9,14.7,142.2z"/>
	<path class="st0" d="M51,269.9c-0.4-0.3-0.2-0.2-0.6-0.4l-1.8-1c-1.2-0.6-2.2-1.4-3.1-2c-3.7-2.5-6.8-5.1-7-4.7
		c0,0-0.8-0.5-1.3-0.9c-3-2.2-5.7-4.9-8.4-7.4c2.6,2.5,5.2,5.2,7.8,7.2c3,2.6,5.9,4.7,9,6.8c0.8,0.5,1.5,1,2.5,1.6
		c0.9,0.6,2.5,1.4,2.4,1.4c0.9,0.4,1.5,0.8,2.6,1.7c1.4,1.2,2.9,3,1.4,0.8C54.2,272.6,52.1,270.6,51,269.9z"/>
	<path class="st0" d="M61.9,291.8c-0.3-0.4-0.5-1.5-0.8-3c-0.5-1.5-1-3.4-1.7-5.4c-0.5-1-1-1.8-1.4-2.8c0.5,1.4,1.1,2.8,1.5,4.1
		c2.9,8.6,2.9,16.7,3.6,17.7c0,0.1,0.3-1.1,0.3-2.2c-0.2-1.6-0.4-3.6-0.5-5.4C62.4,293.3,62,292,61.9,291.8z"/>
	<path class="st0" d="M56.5,330.2c1.5-4.3,2.6-8.4,3.5-12.1c0.6-3.7,1.3-7.1,1.3-9.7c0-0.5,0-0.8-0.1-1.1c-0.2,1-0.2,1.8-0.5,2.9
		c-0.3,1.2-0.7,3.5-0.8,3.9c-0.3,4.4-2,10.4-4.3,16.9c-0.3,0.9-0.8,2.4-0.9,2.9C54.6,334.8,55.2,333.4,56.5,330.2z"/>
	<path class="st0" d="M26.8,73.8c0.7-1.1,2.1-3.4,3.2-5.2c0.7-1.7,1.5-3.2,2.4-4.7c-0.8,0.2-5.9,8.7-7.4,11.5
		c-1.8,3-2.9,6.4-4.3,9.5c-0.4,0.9-0.6,1.5-0.9,2.3c0.5-1.1,1.1-2.2,1.6-3.2c1-2,1.8-3.9,2.7-5.7C25,76.6,25.9,75.1,26.8,73.8z"/>
	<path class="st0" d="M51.9,271.9c-0.9-0.9-1.8-1.5-1.7-1.4c-0.4-0.2-0.7-0.3-1-0.5c-0.4-0.2-0.7-0.4-1.1-0.6c-5.4-3-9.5-6-9-5.3
		c0.5,0.6,5.5,4.6,10.7,7c-0.1-0.1,0.4,0.3,0.9,0.7c0.5,0.4,0.9,0.8,1.3,1c0.9,0.8,2,1.8,2,1.6C54,274.2,52.2,272.1,51.9,271.9z"/>
	<path class="st0" d="M51.4,39.7c1.4-1.3,2.4-2.2,3.6-3.3c-0.6,0.4-1.1,0.7-1.8,1.2c-4.9,3.2-8.2,7.4-12.1,11.9
		c-1.2,1.4-1.3,1.8-1.9,2.6l4.7-4.9C46.5,44.7,48.7,41.7,51.4,39.7z"/>
	<path class="st0" d="M230.9,4.2c6.9,0.6,13.7,1.9,19.4,3.3c0.5,0.1,2.3,0.4,3.6,0.6c-0.5-0.1-1.1-0.3-1.3-0.4
		c-1.4-0.7-5.6-1.6-12.5-2.8c-3.1-0.5-6.2-0.8-8.8-1.1c-1.2-0.1-2.1-0.1-2.3,0C228.8,3.8,230.2,4.1,230.9,4.2z"/>
	<path class="st0" d="M80.2,349.3c-2.8,1.8-5,3.3-7.4,5l7.6-4.1c4.1-2.5,10.1-6.2,6-4.1C85,346.7,86.3,345.3,80.2,349.3z"/>
	<path class="st0" d="M250.3,21.4c1.9,0.6,6,1.4,9.1,2.2c1.3,0.1,2.7,0.2,4.2,0.3c-1.4-0.4-2-0.7-4.1-1.2
		C257.1,22.1,248.8,20.9,250.3,21.4z"/>
	<path class="st0" d="M57.3,38.2c-0.6,0.4-1,0.6-1.8,1.2c-1.5,1.3-3.4,2.7-4.9,4.1c-2.6,2.9-5.5,5.3-7.9,8.4
		c-0.3,0.4-1.1,1.4-0.9,1.2c2.3-2.2,4.8-4.6,8.8-9c1.8-1.9,4.1-3.6,6-5.3C57.2,38.5,57.1,38.5,57.3,38.2z"/>
	<path class="st0" d="M73.8,25c1.7-1.1,3.3-2.1,5-3.2c1.7-0.8,3.5-1.7,5.2-2.5c1.1-0.6,1.9-0.9,2.8-1.4c-1.1,0.4-2.1,0.9-3.2,1.3
		c-1.7,0.7-3.3,1.4-5,2.3l-4.7,2.9c-0.6,0.4-1.3,0.8-1.9,1.2L63.4,31C66.2,29.5,68.6,28.3,73.8,25z"/>
	<path class="st0" d="M78.7,357.6c-2.2,1.7-4.2,3.2-6.1,4.6c0.1,0,1.8-1,3.8-2.2c2.2-1.5,5.5-3.6,6.7-4.6c0.9-0.7-0.6,0-1.4,0.3
		C81.7,355.8,78.9,357.5,78.7,357.6z"/>
	<path class="st0" d="M77.3,21.8c1.5-1.1,2.8-1.6,4.1-2.3c1.3-0.7,2.5-1.3,3.7-1.9c-2.4,1-4.7,2-5.3,2.3c-3.9,1.9-6.3,3.7-7.5,4.4
		c-1.5,1-2.4,1.7-2.7,2c-0.2,0.3,0.7-0.1,1.3-0.5C73,24.5,75.4,23,77.3,21.8z"/>
	<path class="st0" d="M104.3,335.4c-0.5,0.3-1.4,1.1-2.3,1.8c0.9-0.4,1.2-0.4,2.7-1.2c2-1.2,4.8-2.9,7.4-4.4
		c0.2-0.2,1.8-1.3,1.6-1.2c-1.1,0.5-2.1,0.9-4,1.9C108.7,332.7,106.3,334.2,104.3,335.4z"/>
	<path class="st0" d="M146.4,313.7c-3.9,2.5-7.8,4.9-11.8,7.5c-0.7,0.5-2.1,1.5-3.2,2.2c-0.3,0.2-0.7,0.5-0.6,0.5
		c1.5-0.7,10.3-6.2,14.7-9.2l2.9-2.1C147.8,312.9,147.3,313.2,146.4,313.7z"/>
	<path class="st0" d="M133.5,321c-0.1,0.1-1.4,0.9-1.5,0.9c-4.4,3.1-8.6,6.1-12.6,8.9c-0.5,0.4-0.3,0.4,0.1,0.2
		c0.3-0.1,1.7-1,2.4-1.5c3.1-2.1,6.1-4.2,9.2-6.3C136.1,319.8,132.9,321.6,133.5,321z"/>
	<path class="st0" d="M73.4,312.3c-0.5,2.9-1.1,6.5-1.7,9.6c-0.3,1-0.3,1.5-0.5,2.3c0.8-2.4,1.3-4.9,1.8-7.4c0.4-2.5,1.2-5,1.3-7.6
		c-0.1-0.6-0.3-1.2-0.5-1.8c0-0.1-0.3,1.8-0.5,3.1C73.4,311,73.6,311,73.4,312.3z"/>
	<path class="st0" d="M27.9,69.1c2-3.7,3.4-5.4,4.6-7.1c0.3-0.5,0.8-1.2,0.8-1.3c-0.4,0.5-1,1.2-1.4,1.7c-1.7,1.8-3.3,4.3-4.9,7.1
		c-1.6,2.8-3.3,5.7-4.8,8.5c0.2-0.2,0.1,0.2,0.5-0.6C24.7,74.4,26.7,71.1,27.9,69.1z"/>
	<path class="st0" d="M402.9,84.7c-1.2-1.7-1.5-2.2-2-2.8c-3.3-3.9-6.4-8.2-8.8-9.9c-0.5-0.4,0,0.2,0.1,0.4
		C395.7,75.9,398.9,80,402.9,84.7z"/>
	<path class="st0" d="M104.4,341.5c1.8-1,3.5-2,5.3-3.1c1-0.7,2.9-2.1,2.7-2c-1.8,1-4,2.2-6.1,3.4
		C105.8,340.3,105.3,340.8,104.4,341.5z"/>
	<path class="st0" d="M395.2,97.5c-0.4-0.6-0.7-1-0.9-1.2c-0.1-0.1,0.4,0.7,0.7,1.2c1.9,3.2,6.6,9.8,7.6,11.3c0.1,0.2,0.2,0.2,0.1,0
		c-0.4-1-1.1-1.9-1.7-2.9C399,103,397,100.2,395.2,97.5z"/>
	<path class="st0" d="M24.1,111.9c0.3-0.4,1-2.2,1.4-3.6c0.7-2.5,1.6-5,2.5-7.5c-0.9,2.1-1.9,4.1-3.7,8.9
		C24.2,110.9,23.9,112.3,24.1,111.9z"/>
	<path class="st0" d="M318,23.9c-3.3-1.3-4.7-1.9-6-2.4c-3-1.1-7.2-2.8-8.1-2.8c-0.3,0,1.2,0.6,1.9,0.9
		C309.1,20.9,312.6,22.1,318,23.9z"/>
	<path class="st0" d="M345,50.8c-1.3-0.8-2.5-1.6-3.8-2.3c-1.3-0.6-2.5-1.2-3.6-1.7c-1.1-0.5-1.8-0.7-2.1-0.7c-0.1,0,1,0.7,1.7,1
		c3.1,1.3,5.9,3.1,8.5,4.8c2.7,1.7,5.3,3.3,7.6,4.9c0.4,0.2,2,1.2,3,1.8c-0.4-0.3-0.9-0.7-1-0.8C354.2,56.6,350.7,54.3,345,50.8z"/>
	<path class="st0" d="M214.7,15.5c-1.7-0.1-2.7-0.1-3.1,0c-0.3,0.1,0.5,0.3,1.2,0.4c2.3,0.2,4.9,0.5,7,0.7c1.7,0.1,3,0.2,4.4,0.3
		c1.4,0.1,2.7,0.1,4,0.2c-2.4-0.3-4.8-0.6-5.4-0.7C218.7,16,216,15.7,214.7,15.5z"/>
	<path class="st0" d="M26.3,233.1c0.1,0.2,3.8,5.5,4.6,6.6c1.7,2.1,1.5,2.3,3,4.1c3,3.7,3,2.9,4.3,4.1c0.5,0.6,4.8,4,5.1,4
		c1.5,0.8,0.3-0.2-3.9-4.2c-4.4-4.2-2-1.3-5-4.5c-1.1-1.2-2.3-2.6-3.3-3.9c-0.9-1.4-1.8-2.8-2.6-4c-1.5-2.3-2.5-3.8-2.6-2.9
		L26.3,233.1z"/>
	<path class="st0" d="M51.9,257l-0.6-0.4c0.4,0.4,1.4,1,2.5,1.7c0.6,0.3,1.1,0.6,2,1.1c1.4,0.7,2.4,1.6,3.2,2.2
		c-0.1-0.2-0.6-0.7-1.1-1.1c-0.5-0.5-1.3-1-1.3-1.1c0-0.1,0.8,0.3,1.4,0.7c0.6,0.3,1,0.6,0.9,0.4c-0.2-0.2-0.5-0.7-1.9-1.6
		c-0.8-0.4-1.8-1-2.8-1.6c-1.8-1-3.9-2.3-5.5-3.4C45.6,251.8,44.2,251.5,51.9,257z"/>
	<path class="st0" d="M65.3,272.2c1.5,2.3,0.4-0.1,1,0.7c0.2,0.3,1,1.4,1.5,2.4c0.5,1.1,1,2,1,2c0.4-0.3-3.7-8.2-6.6-11.1
		c1.5,1.9,2.9,3.5,4,5.6c-0.8-1.5-2-2.8-3-4.2c-2.8-3.4-4.8-4.9-5.7-5.5c-1-0.6-0.7-0.2,0.2,0.6C59.5,264.4,63,268.6,65.3,272.2z"/>
	<path class="st0" d="M75,299c0.4,1.3,0.1-6.6,0.5-2.4c0.1-2.9-0.5-6-1-9.1c-0.2-1-0.4-1.9-0.7-2.9c-2.3-6.9-2-5.2-0.8-0.9
		C74.3,288,75.1,295.1,75,299z"/>
	<path class="st0" d="M73,281.3c0.5,1.9,1.3,4.1,1.6,6.2l0.1,0.5C74.4,285.7,73.6,283.5,73,281.3z"/>
	<path class="st0" d="M54.7,353.1c-0.5,0.8-1.2,2-2,3.4l-1.9,3.2c-0.7,1.3-2.4,4.4-3.5,6.2C49,363.3,53.2,357.1,54.7,353.1z"/>
	<path class="st0" d="M70.6,328.4c-0.5,1.3-1,3.4-1.7,5.4c-0.8,2-1.6,3.9-2.1,5.2c-1.7,3.9-1.4,2.5-1.7,2.7c-0.5,1.3-0.9,2.2-1.2,3
		c0.2-0.6,0.5-1.5,0.2-1.2c-0.4,0.7-1.2,2.5-2.2,4.5c-0.3,0.6-0.6,1.3-1,2c-0.2,0.4-0.4,0.8-0.6,1.1c-0.6,1.2-2.1,2.8-2.8,4.3
		c-0.6,1.3,1.3-0.9,1.8-1.6c0.9-1.1,2.1-3.1,2.6-4.1l-0.2-0.1c0.2-0.4,0.4-0.8,0.6-1.3c-0.1,0.8,1.8-2.4,1.6-1.6
		c-0.1,0.4-1.7,3.9-1.3,3.4c-0.1,0.3-0.1,0.5,0.2,0.3c0.2-0.1,0.3-0.2,0.4-0.3c0.9-1.7,2.3-4.3,3.2-7c2.1-5.3,4.3-10.9,4.8-13.4
		c-0.4,1-1.1,3-0.4,0.9C71.8,326.7,72.2,323.7,70.6,328.4z"/>
	<path class="st0" d="M60.4,354.5c0.9-0.5,1.9-1.1,2.6-1.6c-1.5,0.7-0.1-0.9-1.4,0l-0.3,0.2c-0.4,0.3-0.7,0.3-1.5,1.3
		c-0.1,0.2-0.3,0.4-0.4,0.6l-0.2,0.3l0.2-0.1C59.7,355,60,354.8,60.4,354.5z"/>
	<path class="st0" d="M32.7,87.3c-1.4,2.9-4,6.6-5.4,11.5c-1.2,3.9,2.3-4.3,3.2-5.5c0.6-1-0.1,0.9,1.1-1.4c1.2-2.1,4.1-9,5.5-11.1
		c-0.2,0.3-0.6,1-1.2,2l1.5-3.3C41.9,71.6,33.7,84.4,32.7,87.3z"/>
	<path class="st0" d="M62,354.3l-0.5,0.3c-1.4,1-4.4,3.2-5.2,4.1c1.6-0.9,5-2.8,6.3-3.9c0.1-0.1,0,0,0.1-0.1
		c1.3-0.9,2.7-1.7,3.9-2.6c2.6-1.6,5-3.2,6.9-4.3c2.3-1.4,4.3-2.7,5.9-3.7c3.3-1.9,1.6-0.4,8.4-4.8c-0.1,0-1.6,0.8-1.8,0.8
		c-0.5,0-1.4,0.5-0.6-0.4c0.7-0.7,2.3-2.1-6.1,3.2l-4.4,3c-3.1,1.7-5.9,3.8-7.5,5c-0.7,0.4-1.4,0.9-2.3,1.4c-0.8,0.5-0.6,0.4-1,0.7
		c-0.6,0.4-1.2,0.9-1.8,1.3C62.1,354.3,62.1,354.2,62,354.3z"/>
	<path class="st0" d="M66.4,364.4c0.7-0.2-1.3,1.4,0.6,0.4c4.6-2.2-15.6,9.5-14.4,9.2c0.2-0.1-3.4,2.2-5.6,3.6
		c-2.5,1.4-6.1,3.5-7.9,4.5c-1.8,1-1.8,0.8-2.6,1.2c-1.5,1-2.8,1.8-4.6,3c-1.3,0.8-2.8,1.8-4.5,2.8l-1.3,0.8l-0.6,0.4l0.3-0.6
		c0.4-0.8,0.8-1.6,1.3-2.5c1.8-3.4,3.8-7.2,5.7-10.8c-0.1,0.8,3.2-5.1,6.5-11c1.5-2.8,3.7-6.4,5.1-8.7c1.4-2.4,2.3-3.8,2.2-3.4
		c-3.2,5.9-6.7,12.3-9.6,17.6c-2.7,4.9-4.7,8.6-6.3,11.4c-0.8,1.4-1.4,2.6-2,3.6c-0.3,0.5-0.5,1-0.7,1.4c-0.1,0.2-0.3,0.5-0.2,0.5
		l0.7-0.4c3.4-2.1,5.2-3.4,8.4-5.7c3.5-2.5,2.4-1.8-4.8,2.5c-0.6,0.3-1.5,1-1.9,1.1l1-1.9c0.6-1.2,1.3-2.4,1.9-3.6
		c1.2-2.4,2.4-4.6,3.5-6.8c2.7-5.3,3.4-6.4,3.8-6.6c0.7-0.6-0.8,3-4.4,10c-0.8,1.6-1.7,3.3-2.6,5c1.5-2.6,2.9-5.2,4.4-7.9
		c1-1.8,2.5-4.5,3-5.5c1.2-2.3,2.3-4.5,3.4-6.5c1.3-2.4,2.5-4.6,3.6-6.6c1.2-2.1,2.1-3.9,3-5.5c0.8-1.5,1.8-3.2,2.3-4
		c0.1-0.2,1.9-3.4,2.3-4.9c0.8-2.2,1.9-5.8,2.1-5.2c0.2,0.8,1.8-3.1,3.1-7.8c3.1-10.9,2.5-10.7,1.7-9.1c-0.2,0.4,0-1.8,0.2-3.5
		c0.1-0.6,0.1-1,0.2-1.5c-0.2,0.4-0.8,3-1.4,5.7c-0.9,2.7-1.8,5.5-2.2,6.4c-0.6,1.3-0.4,0.1,0.2-2.2c0.6-2.3,1.5-5.6,2-8.4
		c1.2-5.7,1.4-5.7,1.7-5.5c0.3,0.2,0.4,0.4,0.9-2.5c0.2-2.2,0.8-4.6,0.4-7.8c-0.1-1.2-0.1-2.3-0.2-3.5c0,0.4-0.1,0.6-0.1,1.3
		c-0.1,2,0.2,4.1-0.1,6.3c-0.1,1.1-0.2,2.2-0.4,3.3c0.1-1.5,0.1-2.9,0.2-4.4c-0.1-2.2-0.1-4.3-0.2-6.4c-0.1-2.1-0.6-4.1-0.8-6.1
		c-0.5-2.5-1.1-4.2-1.4-5.8c0.2,1.4-0.2,0.4-1.2-1.5c-0.8-1.8-2.3-4.9-4.2-7.3c-1.7-2.6-3.8-4.5-4.5-5.2c-0.5-0.6-0.4-0.6-0.4-0.7
		c0.2-0.1,0.2-0.1,1.2,0.5c1.7,1.1,4.3,3.8,6.3,7c0.7,1.4,1.4,2.8,1.8,4.4c0.4,0.9,0.6,1.4,0.8,2c-0.8-2.2-1.2-3.9-2.3-5.8l-0.3-0.5
		l0.2,0.4c-0.5-1.2-1.2-2.3-2.3-3.8c-0.9-1.2,0.1-0.7-3.2-3.5c-0.4-0.4-1.1-0.8-1.5-1.1c-0.2-0.1-0.3-0.2-0.5-0.2
		c-0.4-0.2-0.8-0.4-1.1-0.5c-3.2-1.4-6.5-3.4-4.7-1.9c-3.5-2.3-7.1-5-10-7.2c-1.8-1.3-3-2.5-4.4-3.7c-1.5-1.2-3-2.7-5-5.3
		c-1-1.3-1.8-2.3-2.6-3.2c0.8,1,1.5,2,2.2,2.8c0.4,0.6,0.2,0.5-0.2,0.1c-1.9-1.1-10.7-14.4-10.1-14.1c5,7.9-4.2-8.4-1.9-5.1
		c-0.9-1.5-1.6-3.6-2.1-4.8c-1.1-2.3-2.3-5.1-2.9-6.1c-1.2-2.2,1,2.6,1.5,4.1c1.7,4.9,5,11.2,0.9,4c-0.4-0.9,0,1.3,1.1,3.3
		c1.7,2.9,3.7,7.3,6.1,10.6c0.5,0.8,0.9,1.4,0.8,1.5c0,0.1-0.5-0.3-1-1.1c-5.5-7.9-7.2-12.3-9.7-18.8c-3.4-8.6,0.4,0.2,0.3-0.4
		c-0.2-0.8-0.3-1.6-0.4-2.3c-1.2-2.3-1.7-4.8-2.6-7.3c-0.3-0.9-0.8-2.9-0.9-3.3c-0.1-0.9,0.2-0.4-1.1-4.3c-0.9-4.3-2-8.1-2.8-15
		c-0.4-6-0.7-10.6-0.6-14.6c0.3-3.9,0.6-7.3,0.9-10.8c0.1,0,0.2,0.2,0.3,0c0.1-0.2,0.2-0.9,0.4-1.4c0-1.6,0-3.6,0.1-4.6
		c0.2-2.8,0.3-5.2,0.5-8c0-0.3,0.3-2,0.4-3c0.1-0.4,0.2-0.8,0.2-0.6c0,1.2-0.2,3.3-0.2,3.8c0.1,0.9,0.3,1.6,0.9-5.3
		c0-0.3,0.4-2.7,0.5-2.8c0.3-0.5,0.6-0.7,0,4.7c-0.1,0.9-0.5,3.7-0.6,3.9c-0.3,0.8-0.4-0.3-0.9,5.3c-0.5,5,0.1,9.4-0.7,18.2
		c-0.1,0,0.1,3.3,0.2,2.9c0-1.5,0.5-2.4,0.5-9.3c0-2,0.2-6.4,0.3-7.2c1-6.1,1.7-10.6,2-15.7c0.2-1.6,0.3-4.6,0.8-6.5
		c1.9-7.8,2.3-10.5,1.7-9.3c-0.1,0.2,0.2-1.2,0.2-1.9c0.3-0.8,0.6-1.8,0.8-2.2c0.6-1.2,1.3-5.2,2-5.9c-0.2,0.8-0.3,1.3-0.6,2.8
		c-0.3,1.2-0.4,2.5-0.4,3c0,0.1,0.2-0.7,0.4-1.9c0.2-1.1,0.4-2.7,0.6-4c2.5-6.9,2.8-9.2,4-13.8c0-0.2-0.9,2-1.5,3.8
		c-0.8,2.1-1.5,5-2.2,7.6c0.2-0.3,0.1,0.6-0.4,2.3c-0.2-1.4-0.4-1.4-1.1,0.6c-1.2,4.3-2.7,9.9-3.9,14.3c-0.6,2-1.3,3.8-1.1,2.8
		c1-5.7,1.3-8.9,1.8-12.7c0.2-1.9,1.4-7.1,2-9.9c0.4-2,1.2-5.1,2.3-8.7c1-3.5,2.4-7.4,4-10.9c0.6-1.5,2.7-6.8,0.3,0.1
		c-3.6,10.1-6.1,20.2-7.4,27.4c-0.3,1.9-0.5,3.7-0.1,2.7c1-3,2.3-6.9,6-18c0.5-1.2,1.1-2.4,1.8-4.2c0.3-0.9,1.3-3.8-0.4,0.2
		c2.9-7.2,3.5-8.4,3.9-9.7c-0.3,0.6-0.6,1-1,2c-0.5,1.3-1.3,3.1-2,4.7c-0.9,2-1.3,3.6-1.8,4.8c-0.7,1.4-0.4,0.3-0.4-0.2
		c0.1-0.5-2.8,7.8-0.3-0.2c0-0.1,0.1-0.3,0.1-0.5l-0.1,0.1c-0.3,0.5-0.9,2-1,2c-0.2,0.1,0.4-2.8,1.3-5.8c0.8-2.2,3.1-8.4,3.8-10
		c1-2.1,0.2,0.6-0.9,3.7c0.2-0.5,0.4-1,0.6-1.4c-0.5,1.5-1.1,3.1-1.6,4.6c0,0,0.2-0.2,0.4-0.4c1.1-3,2.2-5.5,2.7-5.9
		c0.2-0.3,3-5.9,3.6-6.7c0.9-1.2,1.3-2.2,2.6-5.4c0.8-1.7,2-4.1,3-5.7c3.2-5.5,4.4-7.6,5-8.4c0.4-0.8-0.1-0.4-0.2-0.6
		c6.5-8.3,6.5-8.3,3.4-3.1c-5,6.9-4.8,7.1-6.7,11.6c-0.4,1.1-3.9,7-4.1,7.3c-0.8,0.7-2,3.3-4.2,8.5c-1.1,2.5-1.9,5.2-2.8,7.8
		c-0.4,1.3-0.9,2.6-1.3,3.8c0.5-1.1,0.9-2.3,1.4-3.4c1.3-3.4,2.6-6.8,4.2-10c3.1-7.3,6.5-12.5,7.7-13.7c0.1-0.1,1.3-2.1,2-3.2
		c-0.7,1,0.2-1,1.2-2.6c1-1.6,1.8-2.8,0.1-0.9c-4.7,6.5-0.9,0,3.5-5.7c0.7-1,1.3-2,1.9-2.9c2.7-3.8,7.1-7.7,10.5-11.4
		c1.7-1.9,3.5-3.4,5.1-4.5c1.6-1.2,2.8-2,3.6-2.4c1.2-0.6,3.7-2.7,6-4.7c2.4-2,7.4-5.1,3.7-3.1c-3.7,1.9-5.2,3.3-6.2,3.8
		c-0.9,0.5-1,0.3-1.1,0c0-0.1-1.1,0.7-2.3,1.5c-3.6,2.8-7,4.5-12.6,11c-1.2,1.4-3.3,3.6-5,5.4c-1.7,1.8-2.8,3.5-3,3.2
		c0-0.1,0.8-1.7,2.3-3.3c1.5-1.6,3.3-3.5,4.5-4.8c0.8-0.9,2-2.2,2.9-3.2c0.9-1,1.7-1.9,1.7-1.9c-0.1-0.4,2-2.5,5-4.7
		c1.7-1.3,5.8-4.6,4.1-2.8c-0.8,0.9,1.2-0.5,3.9-2.4c2.6-2,6.4-3.8,8.4-5.3c0.7-0.5,1.3-0.8,1.9-1.2c2.9-1.9,6.8-4.9,10.3-6.1
		c7-3.1,10.9-4.8,13.3-6.2c2.5-1.5,7.7-2.8,12.4-4.4c1.3-0.4,3-0.9,4.5-1.4l0.3,0.1c1.6-0.4,2.7-0.7,3-0.7c0.6-0.2,1.2-0.3,2-0.6
		c2-0.6,3-0.8,4.8-1.3c-1.8,0.2-3.8,0.5-0.3-0.2c0.8-0.2,2.6-0.4,4.6-0.7c1.5-0.3,3.1-0.6,4.6-0.9c3.7-0.6,7.4-1.3,11.1-1.9
		c-0.2,0-0.5,0-0.8,0c1.9-0.4,5.2-0.5,5.7-0.6c3.7,0,6.7-0.2,9.7-0.6c4-0.6,7.6-0.6,9.1-0.5c1.7,0.1,0.7,0.4,1.9,0.5
		c0.6,0,3.8,0,5.7,0.1c3.6,0.1,8.2,0.1,10.6,0.2c3.1,0.2,3.8,0.5,6.6,0.7c1.6,0.1,5.3,0.2,8,0.3c1.3,0.1,2.4,0.1,3.6,0.2l-2.7,0
		l-24.1-0.7l-3.5,0c1.1,0.1,2.2,0.1,3.4,0.2c2.1,0.1,4.4,0.1,6.5,0.2c2.5,0.1,4.9,0.2,7.3,0.4c-2.1,0-4,0.1-6.2,0.1
		c-1.7,0-3.9,0-5.9,0l9.3,0.8c1,0,3,0,2.9-0.1c-0.5-0.3,0.7-0.5,8-0.2c5.2,0,10.7,0.8,15.5,1.1c4.4,0.4,2.3,0.1-1.3-0.4
		c-8.2-1-5.5-1.1-3.4-1c4,0.2,7.2,0.8,10.1,1.3c2.6,0.4,5.2,0.9,7.6,1.3c3.6,0.7,7.4,1,13.5,1.9c5.9,1.1,8.2,1.6,2.9,0.9
		c-1.5-0.2-0.8,0.2-0.6,0.3c0,0.1,1.8,0.5,2.4,0.6c4.4,0.7,8.9,1.5,13.1,2.2c1.2,0.2,1.9,0.1,1.4,0c-0.6-0.2-2.7-0.7-4.3-1.1
		c-4.8-1.1-4.7-1.2,2.4,0.1c0.7,0.1,2.5,0.3,2.1,0.1c-1.4-0.6-3.2-0.6-5.2-1c-12.2-2.1-16.8-3.1-20.1-3.9c-0.5-0.1,2.2-0.1,3.4,0.1
		c4.7,0.7,9.3,1.8,14,2.6c6.2,1.2,12.3,2.4,18.5,3.6c0.8,0.2,2.5,0.4,2.4,0.3c-0.2-0.1-0.9-0.4-2-0.7c-0.6-0.1-2.8-0.5-4.1-0.8
		c-2.3-0.5-4.3-0.9-6.5-1.4c1.3,0.1,2.2,0.1,4.1,0.4c5,0.9,10.6,1.8,15.9,2.9c8.3,2.1,20.2,5.4,21.6,6.1c2.3,0.9,8.2,3.2,18.6,7.5
		c-0.1-0.1-0.1,0-0.1-0.1c2.2,0.9,3.7,1.6,3.7,1.7c2.6,1.1,3.3,1.4,3.6,1.6c1.6,0.5,4.2,1.6,4,1.3c-0.4-0.7-6.2-3.1-9.5-4.2
		c-1.2-0.5-2.2-0.9-3.3-1.4c-0.8-1,6.4,1.4,7.9,1.6c1.1,0.1,6.4,2.6,10.8,5c2,1.1,3.9,2.2,6.3,3.4c1.2,0.6,2.5,1.2,4,1.9
		c1.4,0.8,2.9,1.7,4.7,2.8c5.8,3.5,13.5,7.8,19.6,13c0.8,0.6,2.4,2,2.3,1.9c-2.6-1.7,4.9,4.8-5.3-3.1c-0.3-0.2-0.4-0.2-0.7-0.2
		c7.7,6.3,10.5,8.3,15.1,13.5c0.8,0.8,1.7,1.8,2.5,2.5c1.4,1.3,2.9,2.7,3.8,3.6c0.5,0.4,0.5,0.2,0-0.3c-2.7-2.8-5.8-6.1-8.4-8.8
		c-0.7-0.7-0.5-0.8,0.3-0.1c0.8,0.7,3.4,3.2,4.2,3.9c1.7,1.8,3.2,3.4,4.9,5.2c0.9,0.9,1.8,1.9,2.9,3c1,1.2,2.1,2.6,3.4,4.2
		c3,3.6,2.8,3.8,0.8,1.6c-3.2-3.5-3.7-3.8,1.8,3l1.6,1.9c0.1,0.1,0.4,0.3,0.5,0.5c3.4,3.8,4.6,5.7,5.1,5.6c0.1,0,1.2,1.5,2,2.7
		c0.9,1.4,2.3,3.6,2.8,4.6c0.8,1.5,1,2,1.6,3.2c0.3,0.7,0.9,1.9,1.3,2.8c0.5,0.7,1,1.5,1.3,2c0.5,0.8,1,1.2,1.4,1.9
		c1.4,2.9,3.1,5.8,4.3,8.8c1.1,3.1,2.3,6.1,3.4,9.1c0.5,1.4,0.6,2.1,0.8,3.2c0.5,0.9,0.7,1.3,1.3,3.1c1.3,4.6,3.4,10.3,4.2,14.9
		c1,4.6,1,5.4,0.8,5.8c-0.2,0.3-0.5,0-1.5-6.8c-1.1-6-2.1-8.2-1.6-5.3c0.4,2.2,0.8,5,1,8c0.1,0.5,0.5,2.8,0.7,4.3
		c0.1-1.2,0.7,0.9,1.3,4.1c0.5,3.2,0.8,7.5,1.2,10.4c0.5,3,0.4,7.4,0.4,11.1c-0.2,0.4-0.5,0.2-0.7,1.5c-0.3,1.1-0.3,4-1,6.4
		c-0.5,2.6-1.3,5.5-1,7.3c0.3,0.8-1,6.6-1.8,10.2c-0.9,3.2-2,6-2.9,8.9c-0.9,2.9-2,5.7-3.4,8.6c-0.4,0.8-0.9,2.1-1.4,3.3
		c-0.5,1.1-1,2-1,2c0,0-0.1,0.2-0.2,0.2l-3.4,7.1c-0.3,0.7-0.7,1.3-1.1,2c-2.6,4.7-6.6,10.7-8.3,13.4c-3.3,5.3-6.8,10.1-11,15
		c-5,6.2-10.6,11.9-15.3,15.8c-1.3,1.1-6,5.4-9.3,8.1c1.1-1,2-2.1,6.3-6.1c-4.9,4.4-6.9,6-8.3,7.1c-3.8,3.3-7.7,6.2-11.7,9.1l7-4.9
		l6.7-5.3c0.1,0.1-0.5,0.7,0.4,0.1c4.5-3.5,3.1-2-0.2,0.8c-6.6,5.5-13,10.5-21.4,15.5c-1.1,0.7-2.2,1.2-3.4,1.8
		c1.2-0.7,2.4-1.5,3.7-2.3c1-0.7,2.2-1.4,3-2c1.4-1,3.9-2.7,3.7-2.6c-1.4,0.7-3.3,1.7-5.3,2.9c-4.1,2.6-8.8,5-13,7.3
		c-3.5,1.7-6.2,3.4-9.7,4.8c-3.9,1.6-8.1,3.3-12.4,4.5c-2.8,1-6.7,2.1-8.4,2.6c-9.5,3.1-17.7,4.1-26.3,5.2c-2.1,0.2-5,0.5-7.5,0.8
		c1.1,0,3.2-0.1,3,0c-0.2,0.1-2.5,0.5-3.9,0.7c-10.9,0.4-25.6,1.9-36.5,0.8c-9,0-17.9-0.8-27.1-2.1c-4.5-0.6-10.6-1.4-14.5-1.9
		c-2.6-0.3-3.7-0.4-4.2-0.5c0.5,0,0.7,0.1-4.1-0.9c-2.4-0.5-3.4-0.7-6.3-1.1c-3.7-0.5-9.6-1.7-12.8-2.4c-7.2-1.8-14.2-3.4-21.4-5.4
		c-1.1-0.3-2.2-0.7-3.3-1c0.5,0.1,0.9,0.2,1.5,0.3c9.6,2.4,16.7,3.6,29.1,6.7c1,0.2,3,0.7,3.6,0.8c10.9,1.6,1,0.1,12.6,2.1
		c1.2,0.2,2.4,0.3,3.6,0.5c-1.6-0.3-3.3-0.6-4.7-0.9c-10-1.7-8-1.7-7.8-2c0.1-0.1,1.6,0.1,2.5,0.1c-7.9-1.3-5.2-1.5-10.9-2.6
		c-5.2-1.1-5.7-1.4-3.8-1.2c0.6,0.1,4.8,1,6.9,1.4c5.6,1.3,10.8,2.3,16.4,3.4c5.4,0.9,7.1,1,4.5,0.3c-0.8-0.2-1.9-0.5,4.2,0.3
		c1.4,0.2,1.8,0.3,0.1,0c11.6,1.5,15.8,1.9,20.1,2.2c0.9,0,1.8,0.1,2.7,0.1c-0.5-0.1-0.9-0.1-1.5-0.2c-8.7-0.9-17.7-2-27.2-3.4
		c-0.7-0.1-1.4-0.1-1.3,0c0.2,0.1,1.1,0.4,1.9,0.5c-5.7-0.8-7.9-1.3-10-1.7c0.6,0,0.5-0.2,1.9,0c1.5,0.2,4.3,0.6,6.8,0.9
		c3.5,0.4,7.2,1.2,10.7,1.5c3.6,0.5,14.8,1.2,13.8,0.9c-2.7-0.5-5.7-1-9.3-1.7c-1.5-0.2-5.5-0.7-7.9-1c-6.2-1.1-11.5-1.1-16.1-2.5
		c-2.2-0.6,3.2,0,3.2-0.3c0-0.3,3.8,0.3,8.1,1c6.6,1,6.4,1.2,3,0.9c-2.8-0.2-1.6,0,2.1,0.5c2.4,0.2,5.3,0.5,6.5,0.6
		c3.1,0.4,5,0.9,7.9,1.3c1.3,0.1,3.8,0.3,5.7,0.5c-0.7-0.1-1.5-0.3-1.9-0.4c-0.2-0.1,0.2-0.1,0.8-0.1c4.5,0.2-6.1-1,1.9-0.4
		c-3.1-0.3-6.4-0.7-9.1-0.9c-2.8-0.5-5.1-0.8-7.7-1.3c2,0.1,4,0.2,6,0.4c6.1,0.7,6.7,0.5,6.7,0.2c0-0.4-5.1-0.7-8.9-1.2
		c-7-0.9-4.9-1-3.9-1c2.6,0,4.4,0.6,6.9,0.9c3.9,0.4,7.6,0.8,11.4,1.2c5.3,0.3,10.7,0.7,15.9,0.7c1.1,0,2.2-0.2,1.8-0.3
		c-0.5-0.1-2.8-0.2-4.4-0.3c-2.1-0.2-4.6-0.4-5.9-0.6c-0.8-0.1-0.2-0.2,1-0.2c1.1,0,4.9,0.2,5.4,0.2c6.4,0.7,10.7,0.5,17.1,0
		c10.5-0.9,13.2-0.8,30.1-3.2c2.1-0.4,4.7-0.6,6.2-1.1c2.7-0.7,5.1-1.3,7.2-1.9c0.6-0.2,0.3-0.3-0.4-0.1c-1.5,0.3-5,1-5.2,1
		c-6.2,2-16.4,3.1-24.1,3.6c-6.8,0.3-13.1,0.6-19.8,0.7c-1.8,0.1-3.6-0.1-5.4-0.2c1.5-0.1,2.9-0.1,4.5-0.2c3.2-0.2,9.6-0.3,8.9-0.7
		c0.1,0,4.9-0.3,5.2-0.3c3.7,0,6-0.1,9.3-0.7c2.2-0.3,5.7-0.8,8.8-1.2c4.9-0.8,10-1.7,14.7-2.9c1.3-0.3,2.9-0.8,2.6-0.8
		c-1.6,0.3-5.2,0.9-5.5,0.9c-3.4,1.1-8.1,1.6-12.9,2.4c-1.9,0.2-3.8,0.4-5.7,0.5c1.9-0.3,4.4-0.6,5.7-0.8c3.3-0.8,3.4-0.8-3-0.1
		c-1.5,0.1-2.5,0.1-3.7,0.1c1.7-0.2,3.4-0.4,5.2-0.7c1.9-0.2,4.1-0.6,5.9-0.8c14.6-2.2,14.6-2.3,26.6-6.1c1.7-0.6,3.6-1.2,5.3-1.9
		c1.8-0.6,4.1-1.6,5-1.9c0.8-0.2,0.5,0-0.4,0.5c-3.2,1.7-7,3-10.6,4.5c-1.1,0.5-2,0.8-3,1.1c2.5-0.6,5.1-1.6,7.4-2.3
		c2.9-0.9,5.7-2.2,8-3.3c6.5-2.9,14.5-7.2,20.3-10.3c5-3,7-4.3,7.4-4.8c1.3-1.5,5.5-4.3,10-8.3c3.7-3.1,6.4-5.4,9.8-8.4
		c-2.3,2.1-4.2,4.2-6.9,6.4c-5.2,4.3-8.1,6.7-2.6,2.8c0,0-1.1,1.1-2,1.8c-1.9,1.6-6,4.4-6,4.4c0.5,0,4.1-2.6,6.1-4.2l6.3-5l6-5.4
		c-3.8,3.1-0.2-0.4-0.2-0.7c0.1-0.4,3.1-3.3,5.2-5.4c4.1-4.1,8-8.2,11.6-12.6c0.7-0.9,1.5-1.9,2.3-2.9c-0.2,0.2-0.6,0.5-0.7,0.6
		c-5.1,6.5-7,7.6-13.2,14.3c-6.6,6.3-14.5,13.2-22.6,18.9c-1,0.6-1.9,1.2-2.8,1.8c0.8-0.6,1.6-1.3,2.5-1.9c2.4-1.7,4.8-3.4,7-5.2
		c2.2-1.8,4.4-3.5,6.3-5.5c4.1-3.8,8.5-8.5,11.2-10.4c1.1-0.9,4.5-4.5,7.2-7.8c1.9-2.3,4.6-5.8,5.1-6c0.4-0.1,2.4-2.8,4.2-5.4
		c1.5-2.1,2.6-4.5,2.7-4.7c0-0.5-2.6,3.8-4.4,6.1c-0.4,0.5-0.9,1.2-1.2,1.7c-1.3,1.7-2.6,3.4-4,5c1.2-1.6,2.1-3,3.4-4.9
		c1.7-2.4,4.7-6.5,5.4-7.6c3.3-4.3,7.3-10.8,10.4-17.5c2.2-4.3,2.6-5.2,2.7-4.8c0.1,0.6,0.9-1.2,2.4-5.3c1.6-4.9,2.9-9.1,4.1-11
		c0,0,0.2-0.9,0.4-1.5c0,0.2,0,0.3-0.1,0.5c0.3-1.6,0.5-3.1,0.8-4.5c0.6-2.2,0.7-6.7,1.7-11.8c1.3-6.8,0.2,2.4,0,4.9
		c-0.1,0.7-0.2,2.2-0.2,2.8c0,1,0,1.5-0.1,2.2c0.6-2.2,0.8-4.7,1.2-6.8c0.2-1.8,0.5-3.6,0.7-5.4l0.1-5.4l0.1-5.4
		c0-1.8-0.2-3.6-0.4-5.5c-0.1-0.9-0.1-2.9,0-3.7c0-0.4,0.2,0.3,0.2,0.9c0.1,3.1,0.6,6.6,0.5,9.6c-0.3,3.4,0.5,6.8-1.5,19.9
		c-0.1,0.7-0.4,1.4-0.6,2.1c-0.6,2-1.9,7.6,0.4-1c0.1,0.9-1,7-2.7,12.2c-0.4,1.1,1.5-2.3,2-3.6c0.5-2.4,1.1-5,1.6-7.1
		c0.3-1.4,0.3-2,0.3-3c0.2-0.4,0.4-1,0.5-1.2c0.1-0.2,0.2,0.2,0.4-0.1c0.1-0.1,0.3-1,0.4-1.5c0.1-0.9,0.2-1.9,0.3-2.5l0.1-0.9
		l-0.7,4.4c0.2-3.4,1-7.4,0.7-11.3c-0.1-0.5,0,0.4-0.5,4.6c-0.2,1.2-0.6,3.1-0.6,2.9c0-1.1,0.1-2.8,0.1-3.8c0-0.3-0.3,1.1-0.5,1.8
		c0.6-3.9,0.3-5.2,0.5-6.1c0.6-9.8,0.3-12.5,0.7-14.7c0-0.2,0,0,0.1-0.1c0.1-6.2,0.1-8-0.6-14.4c-0.2-1.2-0.3-2.6-0.5-4
		c-0.3-1.4-0.7-2.9-1.1-4.5c-0.1,0-0.1,0-0.1,0c0-0.1-0.9-3.4-1-3.4c-0.2-1.2-0.8-4.3-1.9-7c-1-2.7-2-5.2-1.9-5.6
		c0.1-0.4-2.9-9,0.3-1.4c-0.3-0.9-0.4-1.6-0.8-2.7c-0.3-0.9-1.2-3.2-1.4-3.2c-0.5-0.4-0.7-0.3-1.2-0.7c-0.2-0.1-0.8-1.1-1.2-1.7
		c-0.6-1.4-1.8-2.3-2.2-3.4c-0.6-1.6-1.1-2.8-1.7-4.2c-0.4-0.4-1-1.1-1.2-1.1c-0.4-0.1-1.1-0.7-0.7,0.6c0.2,1-0.2,0.2-1.2-1.2
		c-1-1.4-2.4-3.4-3.6-5.2c0.9,1.5,1.9,2.9,3.1,4.8c-0.7-1.2,1.1,1.6,1.1,2.2c0,0-0.1-0.1,0-0.1c0.8,1.6,1.6,3.3,2.2,4.4
		c0.2,0.3,0.4,1.1,0.6,1.7l-1.4-2.6c-0.3,0.1-0.3,0.6-0.9,0.2c-0.2-0.1-1.6-2.7-2.4-4.2c-0.5-0.9-1.3-2.3-1.5-2.7
		c-0.5-1.3,2.1,2.3,1.2,0.3c-0.4-0.6-0.7-1.1-1.2-1.8c-1.4-2.1-2.8-4.1-4.1-6.2l-2-3l-2.4-2.8c-0.2-0.3-0.5-0.6-0.7-0.9
		c0.1,0.1,0.1,0.1,0.2,0.2c2.3,2.8,4.8,7,6.8,10.5c0.3,0.6,0.2,0.6-0.2,0.1c-0.8-1.1-2.1-2.9-2.8-4.2c-1.2-2-2.3-3.6-3.7-5.4
		c-0.6-0.7-1.6-1.9-2.3-2.7c-0.2-0.2-0.1,0.1,0.2,0.5c0.7,1,1.7,2.3,2.5,3.4c0.4,0.6,0.6,0.9,0.9,1.3c-0.8-0.9-1.5-1.7-2.3-2.7
		c-4-4.8-6.1-7.7-7.5-9.7c-0.5-0.5-1-1.2-1.6-1.8c-0.5-0.3-0.6-0.3-1.5-1.1c-1.3-1.2-3.2-3-4.8-4.5c-0.3-0.4-1.2-1.6-0.8-1.2
		c3.3,2.9,4,3.3,3.2,2.1c-0.6-0.8-5.2-5.5,1.4,0.8c2.3,2.4,4.7,3.9,6.8,6.2c0.2,0.3,0.6,0.7,0.8,1c1.3,1.8,2.5,3.6,3.9,5.6
		c0.1,0.1,0.1,0.1,0.3,0.2c1.5,1.8,3.2,3.2,5,5.6l-0.1-0.1c0.2,0.1,0-0.6,0.7,0.4c6,8.5,7.3,9.4,7.2,8.1c0-0.7-1.1-2.2-3-4.7
		c-1.2-1.7-2.7-3.9-4.1-5.8c-4.4-5.7-6.6-8.2-8.2-9.6l-2.1-1.8c-1.1-1.5-2.8-3-3.7-4.2l-1.2-1.4c-0.1-0.1-0.1,0-0.2-0.2
		c-1-0.9-2.3-2.1-3.4-3.1c-2.8-2.5-4.3-3.6-4.6-3.5c-0.1,0,0.1,0.3,0.2,0.6c0.2,0.1,0.2,0.2,0.5,0.3c0.8,0.7,3.1,2.8,3.9,3.7
		c1.5,1.7,2.6,2.8,5,5.4c-2-1.8-4.3-3.8-6.8-6.1c-1.5-1.3-3.3-3.3-5.3-4.7c0,0,0.1,0,0.2,0c-0.8-0.6-1.6-1.3-2.4-2l-2.5-1.8
		c1.3,1.1,2.9,2.5,3.9,3.3c1,0.9,1.5,1.5,2.2,2.2c-1.9-1.4-4.8-3.6-5.5-4.2c-3-2.6-7.7-6.4-7.4-6.8c0.3-0.4-8.7-5.9-9.4-6.2
		c-1.8-0.4-5.9-3.6-10.5-5.8c-1.7-0.8-5.8-2.9-8.3-3.8c-0.6-0.2,0.8,0.6,1.1,0.9c0.3,0.2,0.4,0.4,0.6,0.5c-1.7-0.8-3.9-1.9-5-2.5
		c-0.6-0.3-1-0.6-1.5-0.8c-0.7,0-4-1.9-6.8-2.7c-0.6-0.2-1.3-0.5-3.9-1.4c-0.5-0.2-2.7-1.1-4.8-1.9c1.5,0.4,2.6,0.6,4.6,1.2
		c2.8,0.9,5.5,1.8,7.9,3l0.2-0.5c2.2,1,4.1,1.9,5.8,2.8c-0.7-0.4-1.4-0.7-2-1.1c-1-0.5-1.8-1-2.5-1.4c-0.5-0.3-0.8-0.5-1.2-0.7
		l1.9,0.9c-0.6-0.4-1.7-1-1.7-1.1c0-0.2,5.8,2.4,0.5-0.4l2.6,1.1c-1.3-0.7-2.5-1.3-4-1.9c-1.5-0.5-3.3-1.1-5.6-1.8
		c-4.9-1.5-9.5-2.9-14.5-4.4c-1.1-0.4-3.6-1.1-5.4-1.6c-0.2-0.2-1.5-0.7-0.4-0.5c2,0.4,5.2,1,1.5-0.1c-5.1-1.5-10.9-3.2-16.8-5
		c-2.9-0.9-7-1.6-10.6-2.2c0-0.1,0.8-0.2-0.1-0.5c-1.1-0.4-3.7-1-5.6-1.5c-1.5-0.1-3.6-0.4-4.4-0.4c-1.5,0-1.9,0.2-3.3,0.2
		c-1,0-6.3-0.9-8.8-1.5c-5.9-1.4-11.8-3-17.7-3.8c-0.8-0.2-1.2-0.2-1.7-0.4c1.2,0.1,2.4,0.2,3.6,0.3c4,0.3,8.5,1.2,11.9,1.8
		c2.5,0.4,5.5,0.7,4.8,0.5c-2.7-0.9-4.1-0.7-6.8-1.2c-2.7-0.6-6.5-1.2-8-1.3c-5.7-1-4.2-0.5-6.7-0.6c-2.6-0.1-9-0.8-14.1-1.3
		c-4.5-0.4-10.6-1.4-13.9-1.4c-4.8-0.3,2-0.3,3-0.4c1.1-0.2-2.5-0.5-6.3-0.5c-3.5,0-6.3,0.2-6.9-0.3c0,0-5.2-0.3-6.4-0.3
		c-2.6,0-4.2,0.1-6.2,0.2c-2.3,0-6-0.2-6.8,0c1.5,0.5,3.2,1.4,4.9,2c-0.1,0.1-0.4,0.1-0.1,0.2c0.1,0,0.5,0.1,0.8,0.1l0.5,0.2
		c1,0,2.1,0.1,3.1,0.1c1.4,0,2.9,0.1,4.1,0.1c0.7,0,1.5-0.1,1.2-0.1c-8.5-0.8,3.7-1.3-11.5-2.2c-0.3,0,2.5-0.3,3.9-0.4
		c2.6,0.1,6.5,0.2,7.7,0.3c4.2,0.4,5.5,1,5.1,1.7c-0.3,0.5,0,0.5,8.8,0.6c8.2,0.2,8.1,0.6,12.4,1.5c1,0.2,8.4,1.2,10.4,1.4
		c4.2,0.3-0.5-0.3-1.4-0.5c-1.5-0.3-3.1-0.7-4.7-1c4.7,0.4,9.3,0.8,14.1,1.3c0.4,0,3,0.5,2.7,0.5c-1,0-3,0.1-4,0.2
		c-0.4,0,1.4,0.4,1.7,0.5c9.4,0.8,13.5,2.5,18.8,3.6c2.9,0.7,3.4,0.7,4.8,0.8c2.2,0.1,4.6,0.2,9,0.9c7,1.1-1.1-1,7.9,0.7
		c-1.1,0.2,2.2,0.8,7.7,2.3c2.4,0.7,5.9,1.6,7.5,2.1c1.6,0.5,7.5,2.2,2.9,1.2c-2.2-0.5-6.2-1.4-8.3-2c-3.5-1.1-6-1.8-9.3-2.5
		c-0.7-0.1-2.6-0.5-3.7-0.6c-0.3,0-0.1,0.1,0.4,0.2c2.9,0.7,2.9,0.8,0.5,0.6c-7.2-0.7-18.1-2.9-28.2-4.8c-3.9-0.7-3.7-0.7-1.1-0.5
		c0.4,0-1.2-0.4-1.5-0.5c-1.6-0.2-3.8-0.4-5.7-0.6c-1.8-0.2-3.3-0.3-3.4-0.3c-1,0.3-3.9,0-9.5-0.9c-4.2-0.6-9.4-1.4-14.4-1.9
		c-1.9-0.3-3.7,0-6.5,0.1c-3.3,0-7.6,0-11.3,0.1c-7.4,0.1-10,0-9.4-0.5c0.4-0.3-2.3-0.6-5.5-0.9l0.6,0.1c-2.6,0-5.9,0.3-7.7,0.5
		c-3.2,0.3-6,0.6-8.7,0.7c-3.8,0.4-7.2,0.9-8.4,1.3l0.5-0.1c1.4,0,3.2,0,4.1,0c2.2,0.1,3.7-0.2,5.3-0.3c1.5-0.2,3-0.3,4.5-0.5
		c0.2,0,0.3,0,0.5,0c1.6-0.2,4.8-0.3,7.1-0.5c1.3-0.1,2.7,0,6.2,0.2c-4.9-0.2-8.2,0.4-11.3,0.6c-1.1,0.3-3.4,0.7-5.4,0.8
		c-3.3,0.2-6.6,0.3-9.8,0.5l-4.8,0.2l-4.7,0.7c-0.2,0-0.3,0,0-0.1c1.5-0.3,3.1-0.7,4.7-1.1c-0.9-0.2-2-0.4-3.2-0.6
		c-2.3,0.4-5.7,0.9-5.7,0.9c-0.2-0.4-3.2,0.2-6.1,0.9c-5.2,1.3-9.9,1.8-10.3,1.6c-4.6,2.1-1.8,1.7-11,4.5c-1.5,0.5-2.7,1-4.2,1.5
		c-1.2,0.4-2.8,0.8-4.1,1.5c0-0.1-0.4-0.1,0-0.3c0.7-0.6,2.9-1.5,2.5-1.6c-0.3-0.2-4,1.3-6.1,2.2c-4.8,2.8-11.3,4.6-13.8,6.3
		c-2.4,1.7-5.2,3.4-8,5.2c-2.8,1.7-5.7,3.4-7.7,5.4c-0.9,0.8-2.9,2.5-3.2,2.7c-2.7,1.9-7.4,5.6-7.3,5.2c0-0.6-2.4,1.9-6.1,6.2
		c-1.1,1.3-2.4,2.6-3.6,4.2c-1.1,1.6-2.3,3.3-3.4,4.8c-0.5-0.2-4.1,4.9-5.6,7.8c-0.6,1-1.7,2.8-1.7,2.7c0.1-0.4,0.5-1.4,0.9-2.1
		c-1.2,2.1-2.9,5.1-3.4,6.1c-1.3,2.4-2.5,5.6-4,8.8c-1.6,3.2-3.1,6.8-4.3,10.3c-0.2-0.1-0.3-0.6-0.7,0c-0.2,0.2-0.7,1.5-2,4.2
		l0.2-0.6l-0.3,0.7c-0.3,0.8-0.7,1.7-1.1,2.7c-1.2,2.5-0.9,1.6-0.6,0.6c-0.4,0.8-0.7,1.2-1.2,2.6c-0.4,1.1-1.2,3.3-1.7,5.1
		c0.4-1.8,1-3.4,1.5-5.2c0.6-1.9,1.3-4.4,1.7-5.6c0.3-1.1,0.3-1.3,0.1-1.1c-0.1,0-1,2.5-1.1,3c-2.4,8.4-4.7,15.4-6.4,22.2
		c-0.3,2.2-1.4,6.7-2.4,10.9c-1.2,4.2-1.3,8.3-1.3,9.5c0,0.2-0.5,4.4-0.6,4.9c-1.6,7-1,13-1.4,19.4c-0.1,2.2-0.1,3.6,0,6.2
		c0,1.2,0.4,6.1,0.5,6.7c0.2,1.2,0.4,1.5,0.5,0.4c0-0.8-0.1-4.5-0.3-6.6c-0.4-6.5,0-12.3,0.3-19.4c0.2-1.4,0.6-3.1,0.7-3.1
		c0.1,0-0.1,1.8-0.2,3.2c-0.1,2.8-0.2,8.5-0.2,8.6c0.2-0.4,0.4-4.5,0.9-9.4c0.8-4.9,1.6-10.5,2.1-14c0.3-3.3,1.3-6.7,0.1-2.9
		c-0.6,2.6-0.8,1.3-1.1,1.5c-0.4,0.2-0.8-0.7,1.6-8.9c0.2-0.7,0.6-2.4,0.7-2.8c0.5-2.7,1.1-6,1.9-8.5c1-3,0,1.9-0.6,4.9
		c-0.4,1.9-1.2,5.2-1.7,7.8c-0.2,1.2-0.5,2.2-0.7,3.4c0.3-1,0.6-2.2,0.8-3.1c1.4-6.2,2.8-11.8,3.4-13c0.8-1.8,1.5-3.9,2.8-9.3
		c0.6-2.4,1.6-5.4,2.5-8.5c0.5-0.2-0.2,2.3-1.5,6.6c-1.2,4.3-2.5,8.6-3.3,12.6c-0.7,3.5-0.5,3.9,0.3,0.7c1.1-4.6,2.7-9.7,4.3-14.4
		l0,0c0,1.3-3.5,13.4-3.1,14.6c0,0-0.7,3.1-0.9,3.7c-0.4,1.2-0.9,2.8-0.8,2.3c0.7-4.3,0.1-2.6-1.3,2.8c-1.4,5.4-2.4,9.7-2.7,9.5
		c-0.2,1.4-0.5,3.8-0.5,4c0.1,1.6,0.2,2.8,0.4,4c1.3-7.7-0.1,3.9,0.7-0.1c0.7-3.5,1.3-5.5,1.9-7.1c0.3-0.8,0.3,0.6,0.4,0.9
		c-0.4,2.8-1,6-1.3,8.3c-0.6,3.3-1.3,6.3-1.4,8.7c-0.4,3.8-1,4.2-0.9,0c0.7-9.8,0.2-5.6-0.1-5.9c-0.3-0.5-1,3.5-0.8,7.5
		c0.1,4.7-0.3,5-0.4,7.5c-0.1-1-0.1-1.9-0.2-3c0-0.3,0-0.9,0-1.5c0.3-9.3,0-5.8-0.3-1.8c-0.2,2-0.3,3.8-0.5,6.1c0,1.3-0.2,3.6,0,5.5
		c0.5-10.1,0.6,2.6,1.1,0.6c0.2-1.4,0.3,0.2,0.8,5.4c0.1,0.9,0.3,2.1,0.3,2.1c-0.1-5.4,0.1-3,0.5,2.7c0.3,4.8,1.5,9.4,2.3,14.1
		c0,1-0.4-0.3-0.6-0.3c-0.2,0-0.2,1.3,1.6,7.2c0.7,2.5,0.4,2.6-1-2.1c-0.7-2.1-1.9-6.2-0.9-2.5c1.7,6.2,2.9,10.3,3.4,12.3
		c0,0.1,1.1,2.5,1.5,3.6c0.3,0.6,0.6,1.1,0.5,0.9c-1.4-3.7-1.1-3.3,1,1.6c0.5,1.6,1.9,4,1.9,4.1c1.5,2.3,2.7,4.7,4.1,6.8
		c1.4,2.1,2.8,4,4,5.8c6.4,7.4,4.8,6.3,7.7,9.4c2.4,2.6,4.9,4.7,6.7,5.7c0.3,0.2,0.6,0.3,1.1,0.6c2.6,1.8,5.3,3.7,8.1,5.1
		c-0.8-0.3-2.5-1.2-2.2-0.9c0.5,0.5,1.1,1,1.7,1.5c0.3,0.3,0.7,0.5,1.1,0.8c0.5,0.3,1.3,0.8,1.8,1.3c2,1.9,4.6,4.6,7.5,9.5
		c0.5,1.1,1.7,2.7,2.3,4.1c0.1,0,0.4,0.5,0.2-0.1c-2.9-5.8-2.7-6.4,1.1,0.2c0.4,1,1,2.2,1.6,3.6c0.4,1.4,0.9,2.9,1.3,4.2
		c0.5,1.5,0.8,2.7,1.1,4c-0.2-2.6-1.2-5.1-1.8-7.6c0.5,1.4,0.9,2.8,1.4,4.3c0.8,2.6,1.4,7.7,1.6,7.9c0.1,0.2,0.2,0.6,0.2,0.9
		c0.3-0.1,0.4-1.3,0.1-4.4c-0.1-2.1-1.1-6-2-9.1c-1.1-3.1-2.2-5.6-1.7-5.2c0.3,0.3,1.5,2.5,2.5,5.2c0.8,2.7,1.8,5.9,1.9,8
		c0.2,1.9,0.1,2.3,0.3,4.3c0.1,2.1,0.1,6.1,0,7.9c-0.2,2.1-0.6,3.1-0.7,1.8c-0.1,1.2-0.3,2.3-0.4,3.5c-0.4,4.8-1.8,9.7-3,16.2
		c-1.6,5.9-2.2,9.3-4.4,13.8c-0.2,0.5-1.6,4.2-1.9,5.1c-0.2,0.8,0.1,0.4,0.6-0.6c0.9-2,1.2-2.1,3-7.2c1.4-4.9,2.1-6.6,2.7-7.8
		c0.3-0.6-0.3,1.9-0.6,3.5c-0.8,4.2-1.9,5.7-2.6,7.2c-2,4.1-2.8,7.3-4.8,11.7c-0.7,1.7-0.8,1.8-1,2.2c-0.2,0.3-0.3,0.3-0.1-0.4
		c0.6-1.8-2.5,3.9-0.7-0.2c-0.9,1.5-1.8,3-2.8,4.6c-0.9,1.5-1.9,2.9-0.8,0.7c0.5-1.3,1.1-2.6,1.7-3.9c0.8-1.6,1.6-3.2,2.5-4.8
		c0.2-0.3-0.5,1.5-0.8,2.3c1.2-2.2,2.3-4.4,3.2-6.8c0.5-1.3,1.1-2.8,1.6-4.2c-0.6,0.9-0.9,1-1.9,3.1c-0.6,1.3-1.3,3-2.3,4.7
		c-0.5,0.9-0.9,1.8-1.4,2.7c-0.4,0.8-0.7,1.4-1,2.1c-1.4,4-4.9,9.7-5.9,12c-0.5,1.4,0,0.5,1.2-1.2c0.2-0.3,0,0.5-0.4,1.2
		c-0.5,0.7,0.3,0.1,0.6-0.1c0.4-0.2,0.7-0.4,1-0.6c0.6-0.3,1-0.5,1.3-0.7c0.6-0.2,0.8-0.1,0.7,0.3c-0.3,0.7,1.7-0.3,7.2-3.7
		c0.8-0.5,1.9-1.2,2.8-1.7c1.3-0.7,2.4-1.4,2.9-1.8c5.3-2.9,11.3-6.7,17.1-10.3c4.5-2.8,4.5-2.6,3.6-1.8c-0.8,0.7-3.2,2.4-2.6,2.2
		c2.6-0.9-6.6,4.7-10.7,7.3c-5,3.3-6.1,3.6-7.9,4.4c-1.2,0.6-3.2,1.6-4.8,2.4c-0.6,0.5-0.9,1-2,1.7c-0.5,0.4-2.3,1.5-7.4,4.4
		c0.7-0.6,0.3-0.4-0.4,0.2c-3.2,1.8-5.6,3.1-7.3,4c-0.3,0.3-0.1,0,0-0.3c0.1-0.2,0.2-0.4,0.3-0.6c0.2-0.4,0.4-0.7,0.6-1
		c0.4-0.6,0.6-1,0.8-1.3c3.1-4.8,3.1-4.8,4.3-7.1c1.4-2.6,2.2-4.3,3.5-6.6c0.6-1.1,1.4-2.4,2.1-3.6c0.8-1.5,1.4-2.9,1.5-3.9
		c0,0,0.8-2,1.1-2.7c0.7-1.6,1.7-3.9,1.8-4.1c0.4-0.5,1.4-1.8,2.9-6.9c0.8-3.3,2.5-9.6,0.7-4.5c-0.6,1.5-0.8,1.9-1.3,3.1
		c0,0.1-0.8,2.8-1,3.5c-0.3,1.1-0.4,1.6-0.6,2.3c-0.2,0.5-0.5,1-0.6,1.4c-0.6,1.2-1.7,3.7-1.6,3.2c1.4-4.5-1.5,2.4-1.8,2.7
		c-2.5,6.4-4.2,9.3-5.7,12.1c-1.4,2.7-3.2,5-5.3,8.6c-1,1.6-1.8,3-2.7,4.5c0,0.2,0.1,0.2,0,0.6c-0.2,0.6-0.4,1.3-1,2.4l-0.5,0.9
		l-0.1,0.2l0.2-0.1l0.4-0.2l1.7-1l3.5-1.9c0.7-0.7,0.9-1,2.3-2c1.2-0.9,1.8-1.3,2.2-1.7c4.4-1.9,9-4.4,18.6-10.1l7.6-4.1
		c4.4-2.4,2-0.3,4.9-1.8c4.9-2.5,1.4-0.1,0.3,1c-1.5,1.5,3.6-2.2,5.2-3.2c3-1.7,5.4-3.1,8.1-4.6c3.9-2.9,6.5-4.1,7.5-4.6
		c0.9-0.4-0.4,0.7-2,1.8c-4.6,3.3-2.9,1.7-4.2,2.5c-3.9,2.2-8.4,5-10.9,7c-0.8,0.6-3.3,2.2-4.7,3.1c-3.1,2.2-6.8,4.5-11.3,7.2
		c-0.1,0.1-0.7,0.6-0.1,0.3c4.9-2.6,5.7-2.8,1,0.1c-3.5,2.3-5.5,3.6-6.6,4.3C66,364.3,65.9,364.5,66.4,364.4z M185.6,12.8
		c0.2,0.1,1.4,0.2,2.2,0.2c0.5,0,1.5,0,1.4,0c-1.5-0.6,14.4,0.1,13.3-0.4c-0.1-0.1-0.9-0.2-1.4-0.3
		C193.8,12.1,184.6,12.4,185.6,12.8z M235,325.5c11.2,0.4,11.2,0.2,11-0.2c-0.1-0.2,0.4-0.5-6.2-0.5c-5.3-0.1-10-0.2-15-0.4
		c1.5,0.3,2.5,0.5,4.7,0.8C231.2,325.2,234.5,325.4,235,325.5z M253,328.3c-1.7,0-3-0.1-3.5-0.2l3.4-0.2c-1,0-2.7,0.1-3.8,0.1
		c-0.1,0,0.3,0.1,0.5,0.1l-2.1,0.1c-8.4-0.1-17.7,0.1-4.7,0.4C246.2,328.6,250.5,328.5,253,328.3z M265.8,322.5
		c-8.4,0.8-15.7,0.4-24.6,0.4c-10,0-2.9,0.8,6.3,0.8c3.9,0,7.7-0.2,11.6-0.3c-1.5,0-3.1,0.1-4.5,0.1
		C258.7,323.5,267.1,322.8,265.8,322.5z M278.8,320c-1.8,0-4.9,0.4-8,0.8c-0.8,0.1-2.8,0.2-4.2,0.3c0.5-0.3-1.7-0.3-5.9,0.1
		c-4.1,0.3-7.6,0.5-11.1,0.7c-0.4,0,1.1,0.2,2.3,0.2c2.6-0.1,5.7-0.1,8.5-0.2c3.6-0.2,7.4-0.4,10.6-0.7
		C274.2,320.7,279.1,320,278.8,320z M319.7,307.8c3-1.1,2.3-0.2,9.3-3.2c10.4-4.8,11.2-6.9,10.5-6.6c-0.8,0.1-3.7,2.3-12.3,6.3
		l6.3-2.6c-1,0.5-1.9,1-2.9,1.5c-5,2.6-7.9,3.3-8.5,3.3c-4.9,2.2-8.8,3.2-10.4,4C309.3,311.3,316.3,309,319.7,307.8z M320.9,309.7
		c-2.8,1.2-5,2-7.5,3c2.9-0.9,5.8-1.6,8.9-2.8c0.8-0.3,2.9-1.3,4.5-2c1.8-0.6,3.6-1.5,5.8-2.5c1.2-0.5,3.9-2,3.8-2
		C335.2,303.8,324.9,308.2,320.9,309.7z M321.3,315c-4.4,1.7,3.4-0.6,3.2-0.4c-0.1,0.4-0.1,0.4-2.8,1.6c-1.9,0.6-3.9,1.2-7.5,2.4
		c-5.5,1.6-14,4.1-16,4.6c-1.5,0.6,1.2,0.2,4.2-0.4c3-0.8,6.4-1.7,6.7-1.8c-4.9,0.8,4.7-1.6,10.1-3.8c1.1-0.4,1.8-0.7,2.5-0.9
		c2-0.8,3.8-1.5,7.1-3C339,308.2,327,313.3,321.3,315z M329.6,310.3l-4.6,1.5c-6.3,2.6,4-1.2,1.1,0.2c-5.6,2.8-8.7,3.8-8.4,3.8
		c0.4,0,4.1-1.4,11.7-4.8c8.5-4,13.4-7,13.8-7.3C343.6,303.2,339.7,305.6,329.6,310.3z M357.7,289c1-0.7,2.4-1.6,3.6-2.6
		c-0.4,0.1-0.4,0-1.1,0.5c-3.3,2-8.9,6.1-15.8,10.2c-3.2,1.7-5.8,3.2-8,4.6c-2.3,1.3-4.4,2.4-6.6,3.7c-1,0.5-0.5,0.5-0.7,0.7
		c1.3-0.7,3.5-1.7,3.9-1.9c3.2-1.8,12.9-7,16.6-9.9c0.1,0,1.4-0.8,3.2-1.9C354.2,291.3,356.2,289.9,357.7,289z M369.1,283.1
		l-6.7,5.2c-8.7,6.6-1.5,2.6,4.7-2.9c2.6-2.2,0.4-0.9-1,0C367.1,284.7,368.2,283.8,369.1,283.1z M372.1,274.9
		c-0.4,0,1.1-1.3-2.4,1.6c-2.2,2-8.2,6.7-9.5,7.7l-1.7,1.4c-5.6,5.3,9.6-6.7,9.1-5.6C374.1,274.2,372.5,274.9,372.1,274.9z
		 M406.3,231.9c2.4-3.9,5.8-10.1,6.3-12.6c0.3-1.5-0.9,0.9-1.9,2.7c-1.1,1.8-2,3-0.5-0.6c0.7-1.9,2.3-5.6,2.6-6.9
		c0.4-1.5-1,1-2.8,5.1c0,0.1,0.4-0.2-1.9,5C407.4,228,400.2,241.5,406.3,231.9z M397.1,243.9c1.2-1.6,2.3-3.1,3.5-4.7
		c0.8-1.3,1.7-2.8,2.4-4c0.2-0.4,0.4-0.7,0.6-1.1c0.6-1.2,0-0.6,0.1-1.2c-0.4,0.6-1.1,1.6-1.8,2.6
		C400.4,238.4,398.6,241.1,397.1,243.9z M375.4,270.5c4-3.7,7.7-7.6,11.4-11.8c2.5-3,5.5-6.9,7-9.5c0.8-1.3-0.3-0.2-0.5-0.2
		c-1.4,1.9-3,4.1-4.2,5.6c-1.4,1.9-2.2,3-3.5,4.8c-1.2,1.4-3.4,3.7-4.7,5.1c-1.1,1.1-1.5,1.4-2.3,2.1c-1.4,1.6-2.9,3.2-3.8,4.3
		C375.2,270.6,375.2,270.7,375.4,270.5z M396.2,260.1c-1.3,1.5-2.3,3-4.2,5.3c-1.5,1.6,0.4-0.9-1.7,1.5c-3.6,4-1.8,2.5-0.2,0.9
		c1.1-1.1,2.2-2.2,3.3-3.4c-0.7,0.9-1.2,1.5-1.4,1.8C398.1,259,403,251.4,396.2,260.1z M405.2,235.9c-0.9,1.4-1.9,3.1-2.6,4.1
		c-1.8,2.4-3.6,5.5-6.3,9c-0.3,0.4-0.6,0.8-0.9,1.3c-2.4,2.7-5.9,7.1-10.3,12.5c-0.7,0.9-1.3,1.5-1.9,2.4c0.6-0.6,1-1,1.7-1.7
		c3.2-3.4,6.2-7,9.3-10.7c0.8-1,1.7-2.3,2.6-3.5l0,0c0.8-1,1.8-2,2.6-3.1c0.6-0.8,2.7-3.9,2.9-4.3
		C403.6,239.6,404.4,237.9,405.2,235.9z M411.9,228.6c3-6.2-0.6,0.3,1.3-4.1c1.1-2.4-1.1,1.6-2.9,5.3c-3.1,5.9-3.3,5.9-2.6,5.9
		C407.3,236.7,409.3,234,411.9,228.6z M423.6,213.8c-0.5,1.1-1.1,2.5-2.6,6c-2.3,5.6-0.1,1.6-1,4.2c-1.1,3.1-4,8.1-4.4,9.7
		c-0.5,1.6,2.5-3.9,4.7-8.4l1.4-2.9C422.1,221.2,424.4,212.4,423.6,213.8z M426.4,193.1c-0.6,2.6-2.3,7.9-1,0.4
		c-0.4,2.8-1.6,5.4-2.3,8.1c-0.2,1.3-0.6,3.1-0.6,3.7c-0.1,0.9,0.2,0.7,0.1,1.4c0,1.4,2.3-4.9,3.8-11.7
		C426.4,194.4,426.5,192.6,426.4,193.1z M423,155c0.6,3,0.8,6.1,0.9,9c0.1-0.8,0.1-1.7,0.2-2.5c0.3,1.3,0.5,1.7,0.6,3.3
		c0.3,3.7,0.4,6.5,0.1,6.5c0,0.2-0.2,2.6-0.3,4.2c-0.6,9.1-0.8,9.6-1,5.8c-0.2-3.5,0.5-6.7,0.3-10.3c0,0-0.1-0.1-0.1-0.1
		c-0.1,0.2-0.6,3.7-0.8,7.6l0,0.2c0,1.5,0.1,3.2,0,5.3c-0.3,2-0.6,4.4-0.9,7.3c-0.3,2.5-0.5,4.1-1.2,5.9c-0.3,1.4-0.4,2.6-0.8,4.5
		c-0.2,1.2-1,4.1-1.6,5.2c-0.8,1.9-1.5,3.9-2.3,5.8c-1,2.6-3.4,8-3.4,8.3c0,0.3,2.6-5.2,3.6-7.1c1.2-3.1,2.3-6,3.4-8.9
		c0.6-2.2,1.4-4,1.5-4c0.1,0-0.3,2-0.9,4.3c-0.8,2.3-1.7,5-2.3,6.6c-0.3,0.8-0.7,1.7-1,2.5c0,0.3,0.1,0.5,0.2,0.8
		c1-2.4,2-4.5,2.5-5.8c1.7-3.4,1.5-4.3,2-6.4c0.5-2.1,1.1-4.1,1.7-6.1c0.3-0.5,0.5-1,0.7-1.4c0.1-1,0.2-2,0.4-3
		c0.5-4.4,0.3-4.5,0-4.1c-0.1,0.1-0.3,1.2-0.5,1.8c-0.1,0.8-0.1,1.8-0.2,2.3c-0.1,1.6-0.1,3.1-0.4,4.4c-0.4-0.2-0.8,0-1-0.4
		c-0.2-0.3-0.2-1.3-0.4-2l2-10.5c0.2,0,0.3,0.3,0.5-0.1c0.1-0.2,0.2-1.9,0.3-2.8c-0.1-3,0.1-7.2,0.3-5.1c0.2,2.8,0.4,4.1,0.6-4.9
		c-0.1-1.1,0.1-2.5,0-4.2c0-0.9-0.1-2.6-0.2-3.9C425.1,164.1,424.1,156.6,423,155z M421.2,147.5c0-0.4,0.1-0.7,0.2-1.1
		c0-0.2-0.1-0.5-0.1-0.6c-0.1-0.4,0-0.4,0.1,0c0-0.3-0.2-1.3-0.4-2c-0.2-0.7-0.6-1.8-0.7-1.9c-0.2-0.1-0.4,0-0.6-0.1
		C420.2,143.7,420.9,145.5,421.2,147.5z M421.5,128.1c1.6,4.1,2.4,9.7,3.1,12.3c0.4,2.3-0.1,1.5-0.2,2.1c1.6,5.3,0.8,1,1.5,2.7
		c0.4,1.4,0.9,3.4,1.1,4.1c0.2-0.1,0.2-1.7,0-4.2c-0.4-2.4-1.1-5.7-2-9c-0.3-1.1-0.9-2.9-1.3-4.2c-0.1-0.3-0.2-0.3-0.1,0
		C424.9,139,423,130.7,421.5,128.1z M415.8,124.6c0.3,1,0.6,1.9,0.9,2.9c2.5,3.5,4,13.3,5.7,19c0.3,1.4,0.6,3,0.7,3.1
		c0.2,0.1,0.2-0.8,0.2-1.5c0-0.1-0.2-1.2-0.3-2.5c-0.3-1.2-1.1-3.8-1.2-4.1c-0.4-0.8-0.5,0.1-1.3-4.5c0-2.3-4.2-13.6-5-15.1
		C414.5,120,414.2,119.9,415.8,124.6z M398.4,94.3c0.5,0.9,2,3.2,3,4.9c-0.6-1.6,4.9,6.5,5.9,8.5c0.3,0.4,1.3,0.9,1.8,1.7
		c-0.5-1.1-1.1-2.3-1.4-3.1c-2.1-3.7-4.9-6.8-7.2-10c0.1,0.2,0,0.2,0.1,0.4c-0.7-1.1-1.5-2.3-2.2-3.4L398,93
		C397.7,92.6,397.8,93.2,398.4,94.3z M389.3,82.2c0.4,0.2,0.5,0.2-0.1-0.6c-0.2-0.3-1-1.4-2-2.5c-1.1-1-2.1-2-2.6-2.5l-0.3-0.3
		C387.5,79.1,388.8,81.3,389.3,82.2z M385.7,69.1c-0.2-0.1,1.1,1.4,1.5,1.9l4,3.9c1.3,1.4,2.4,2.9,3.6,4.3c1.1,1.1,1.9,1.8,2.8,2.7
		c-2.9-3.4-5.6-7.2-8.9-10C387.5,70.7,385.9,69.2,385.7,69.1z M374.9,67c0.5,0.5,0.9,0.9,1.4,1.5c-0.4-0.4-0.7-0.6-1-0.9l1.1,1.5
		c1.4,1.5,2.9,3,4.4,4.5c0.6,0.4,0.1-0.2,0.5,0l-0.5-0.4c-3.1-3.4-5-5.8-6.9-7.5C372.7,64.9,374.1,66.1,374.9,67z M352.8,53.1
		c-0.4-0.2-0.6-0.3-1-0.6c-1.3-0.8-1.7-1.3-2.2-1.8c-0.6-0.6-0.4-0.7-1.5-1.6c-0.6-0.5-4.2-2.8-4.7-3.1c-3.5-1.7-9-4.1-12.8-6.1
		c-6.6-3.4-7.7-3.9-10.4-4.4c0.8,0.5,3.4,1.7,6.6,3.2c7.3,3.2,8.6,4.2,12.1,6.1c6,3.1,3,2.4,2.8,2.4c-0.1,0-4.1-1.9-4.7-2.2
		c-2.3-1.3-4.1-2.4-6-3.5l0,0c-0.1,0.1,0.6,0.6-0.4,0.3c-0.6-0.2-2.6-1.1-4.3-1.9c2.6,1.3,5.8,2.9,7.2,3.7c0.4,0.2,0.3,0.2,0.2,0.3
		c1.6,0.9,4.1,2.1,6.8,3.3c2.6,1.3,5,2.9,6.9,4c4,2.5,5.2,3.1,5,2.7c-0.1-0.2,0.2-0.2,1,0.3l0.1,0C354.4,54.6,353.9,54,352.8,53.1z
		 M348.1,47.3c-5.5-3.3-5.6-3.2-2.8-1.2c0.9,0.6,2,1.4,3,2c0.6,0.3,1.2,0.7,1.8,1.1c2.6,1.6,3.7,2.2,4,2.3c0.1,0.1,0.2,0.1,0.4,0.2
		c0.1,0,0.3,0.1,0.4,0.1c-0.3-0.8,2.4,0.4-4.2-4c-1.3-0.8-3.2-2-4.9-3.1c0.3,0.3,0.2,0.3,0.9,0.8c1,0.7,2.6,1.8,3.6,2.5
		C352.2,49.6,352.4,49.9,348.1,47.3z M360.4,57.7c-0.1-0.1-0.1-0.2,0-0.2c-1.1-0.9-2.3-1.6-3.5-2.3c0,0.1-0.2-0.1-0.2-0.1l0.6,0.4
		C358.3,56.2,359.4,56.9,360.4,57.7z M343.3,36.8c0.1,0.1,0.8,0.5,1.3,0.7c7.6,4.4,8.8,4.9,13.4,7.4c0.7,0.4,0.6,0.2,1,0.3
		c-1.2-0.8-2.9-1.9-4-2.6c-2.8-1.7-5.9-3.4-8.2-4.7C344.4,37,342.8,36.5,343.3,36.8z M342.9,37.4L346,39c7.2,4.6,15.2,9.2,20.2,12.3
		c0.8,0.6,1.8,1.2,2.6,1.7c-1.6-1.2-3-2.7-6.4-4.8c-5.5-3.1-11.6-7-18.1-10.2C343.8,37.8,343.4,37.6,342.9,37.4z M326.8,30.8
		c0.1,0.2,3.7,2,4.3,2.3c4,1.8,7.8,3.4,11.3,5c1.8,0.8,2.9,1,4.2,1.7c-2.1-1.3-4.4-2.3-5-2.6C330.1,31.6,326.1,29.9,326.8,30.8z
		 M319.7,33.9c-2.3-0.9-4.6-1.9-7.1-2.9c-1.1-0.4-3.5-1.3-4-1.5c-1.8-0.5,1,1,2.9,1.6c2.9,1.1,6.7,2.5,10.1,3.7
		c3.4,1.2,6.1,2.8,7.2,2.8c0.1,0,2.4,1.1,2.5,1.2c1.6,1,3.6,2.2,4.4,2.7c1.2,0.6,2.5,1.2,3.7,1.7c-0.3-0.6-2.1-1.9-6.7-4.5
		c-1-0.6-1.1-0.7-1.6-1.1c-0.8-0.2-1.6-0.5-2.4-0.7c-0.2-0.1,0.1,0.2-0.1,0.1c-0.9-0.3-3.3-1.5-5.4-2.3
		C321,34.1,319.2,33.5,319.7,33.9z M303.6,24.1c1.6,0.8,4.4,2.1,6.4,2.3c1.2,0.1,5.6,1.9,9.1,3.3c4.8,1.9,7.2,2.7,6.8,2.1
		c-2.3-1.1-5.7-2.5-9.6-4c-4.4-1.6-10-3.6-13.7-4.7C301,22.9,302.1,23.4,303.6,24.1z M300.2,26.9c-0.1-0.1-0.5-0.3-0.8-0.5
		c-1-0.2-2.8-0.7-2.8-0.7c0.2,0.5-5.8-1.4-7-1.7c-9.1-1.9-11.3-3.1-14.3-4c-0.5-0.2-1.2-0.3-1.7-0.5c-0.8-0.1-2.5-0.4-2.4-0.3
		c0.7,0.4-2.4,0-4,0c-0.8,0,3.1,1,6.1,1.6c3.4,0.7,5.5,1.2,6.3,1.1c0.8,0,6.8,1.6,7.1,1.8c0.8,0.6,4.6,1.6,9.5,2.9
		c6.5,1.7,2.9,0.4,3.9,0.5C300.3,27.1,300.2,27,300.2,26.9z M285.9,16.3c4.2,1.3,8.4,2.6,12.8,4c0.2,0,2.5,0.5,3.2,0.7
		c0.6-0.3-2.6-1.5-7.7-2.8C291.4,17.5,288.7,17,285.9,16.3z M267.3,12.1c2.1,0.8,3.8,1.5,5.6,2.3c0.2,0,0.9,0.2,1.4,0.3
		c7.4,0.9,8.3,2.3,13.2,3.4c0.9,0.2,2.1,0.3,1.5,0.1c-2.3-0.8-6.4-2.1-7.8-2.7c-0.8-0.5-8.2-2.2-1.2-0.8c-2.5-0.9-5-1.3-7.5-1.9
		C270.7,12.5,268.9,12.3,267.3,12.1z M245.8,14.1c6.1,1.3,8.6,2.2,13.7,3.4c0.3,0,2.3,0.3,3,0.5c0.4-0.4-6.2-2-14.4-3.7
		c-0.4-0.1-1.3-0.2-1.4-0.2C246.2,14,245.4,14,245.8,14.1z M207.4,5.4c0.5,0.1,1,0.2,1.6,0.3c0.9,0.1,2.6,0.2,2.7,0.2
		c-0.6-0.4,5.2,0.2,7.9,0.3c0.3,0-0.6-0.2-1.2-0.3c-5-0.6-9.6-1.1-13.4-1.3C201,4.4,204.4,4.9,207.4,5.4z M119.5,16.8
		c-5.6,1.4-11.7,2.9-18.4,4.5c-3.2,1.1-6.5,2.6-9.9,3.9c-3.4,1.5-7.1,2.6-10.5,4.7c-1.4,0.8-3.9,2.5-5.4,3.5
		c-0.4,0.3,1.1-0.4,1.7-0.8c2.9-1.7,4.8-3,6.3-3.6c1.5-0.6,2.5-0.9,3.3-1.1c1.9-0.4,6.6-3.2,7.3-3.2c0.6,0,4-1.2,6-2.1
		c15.3-4.8,9.3-2.4,6.8-1.3c-0.4,0.2-0.1,0.2,0,0.2c0.4,0.1-1.3,0.8,4.1-0.8c6.5-1.9,3-1.1,4-1.5c0.7-0.3,2.9-1,4.5-1.5
		C122.4,16.4,121.9,16.3,119.5,16.8z M85.5,27.2c6.4-2.8,3.9-2,4.7-2.7c-0.7,0.2-1.9,0.6-3,0.9l-4.5,2.3c-1.4,0.8-2.8,1.9-4.2,2.8
		C80.8,29.3,82.8,28.2,85.5,27.2z M131,13.2c-1.8-0.2-3.3-0.4-4.9-0.6c-0.9,0.1-3.3,0.4-6.6,1.1c-0.4,0.4-0.8,0.7-1.1,1
		c9.7-2.2,6.8-0.8,10.3-1.2C129.2,13.4,130.2,13.3,131,13.2z M142.1,8.8c2.5-0.5-0.5-0.4-4,0.1c-0.5,0.1-0.9,0.1-1.3,0.2l-0.2,0
		l-0.1,0c-0.6,0.2-0.9,0.4-2,0.6c-2,0.5-4.7,1.1-6.7,1.6c-0.5,0.1,0.4,0.1,1.2,0.1C134.5,10.4,138.7,9.5,142.1,8.8z M166.7,10.8
		c-8.9,0.3-11.1,0.4-18.7,1.3c-2,0.2-4.5,0.5-5.7,0.9c-1.6,0.4-8,1.6-4.8,1.3c0.7-0.1,1.7-0.2,2.5-0.3c3.6-0.7,7.4-1,11.6-1.3
		c2.4-0.1,4.8-0.2,7.4-0.3c1.6-0.2,2.3-0.3,1.7-0.5c-0.7-0.2,3.2-0.4,6.3-0.7C170.6,10.9,170.4,10.7,166.7,10.8z M165,6.8
		c-0.8,0.2-1.2,0.3-0.3,0.3c0.1,0,0.1,0,0.2,0c0.2,0,0.5-0.1,0.6-0.1l0.2,0.1c0.7,0,1.5-0.1,2.7-0.1c2.9-0.3,5.8-0.1,8.6,0
		c2.2,0.1,4.7,0.1,6.3,0.2c1.3,0,1.9-0.1,2.1-0.2c0.1,0-1.5-0.1-2.3-0.2C177.8,7.1,170.3,5.5,165,6.8z M122.5,6.8
		c1.6-0.2,3.3-0.5,5.9-0.8c0.2,0,0.4,0,0.5,0c2.3-0.5,4.1-0.9,6.7-1.4c0.5,0.1,1.4,0.2,2.4,0.2c1.3-0.2,2.7-0.5,4-0.7
		c11.2-1.2,7.2-0.1,13-0.4c0.4,0,0,0.1,0,0.2c-4.1,0.2-8.3,0.3-12.3,0.6c-2.3,0.5-5,1-6.4,1.2c-1.8,0.2-3.8,0.4-5.1,0.5
		c-0.2,0-0.4,0.1-0.5,0.1c-0.1,0.1,0,0.1,0,0.2c3.1-0.4,6.3-0.8,9.7-1.3c6.6-0.9,8.2,0.4,21.6-1.2c0.3,0,5.8-0.1,9.2-0.1
		c0.8,0,2.8,0.1,4,0.1c0.5,0,0.7-0.1,0.2-0.1c-6.5-0.6-7.6-0.3-7.6-0.9c0-0.2-3.2-0.3-6.5-0.2c-2,0-7,0.4-10.7,0.7l0-0.2
		c4.5-0.4,11.5-0.8,5-0.9c-1.8,0-3.2,0-5,0c-3.8,0.3-6.7,0.4-8.7,0.9c1.3-0.2,2.8-0.2,4-0.2c2.4,0,3.8,0,5.7,0.1
		c-1.7,0.2-2.4,0.2-3.2,0.3c-1.4,0.1-4,0.3-4.1,0.3c-1.4-0.2-3.9,0.3-7.2,0.7c-0.5,0.1-1,0.2-1.6,0.4c-4.5,0.7-8.3,1.3-12,1.9
		C123.3,6.5,122.8,6.7,122.5,6.8z M69,29.9c4.8-2.8,5-2.7,13-7.4c1.9-1,6.8-2.5,3.5-0.8c-2.1,1.2-4.8,2.2-6.7,3.7
		c-3.3,2.3-2.6,2.2,2.2-0.6c4.6-2,9.8-4.3,14.8-6.5c-0.5,0,1.5-1.3,4.3-2.1c2.9-0.9,6.3-1.9,8.3-2.6c1.3-0.4,3.4-1,5.4-1.6
		c-0.6,0-1.3,0-2,0c1-0.3,2.1-0.6,3.1-0.9c-0.3,0-0.6,0.1-0.9,0.1c-2.5,0.8-5.1,1.6-5.1,1.6c0.3,0.6-11,3-11.2,3.7
		c-1.9,0.7-4.1,1.5-5.6,2c-0.2,0.1,3-1.5,4.9-2.4c4.6-1.8,9.6-3.2,10.7-3.6c5.6-1.7,7.4-2.2,8.4-2.5c0.2,0,0.3-0.1,0.4-0.1
		c1-0.3,2-0.6,2.7-0.8c2.5-0.3,4.5-0.5,6.8-0.8c0.2-0.1,0.5-0.2,1.3-0.4c1.1-0.2,2.4-0.5,3.6-0.7c-0.1,0-0.2,0-0.3-0.1
		c0,0-2.3,0.5-3.5,0.7l-7.1,0.8c-2.4,0.3-4.6,1-7,1.6c-5.4,1.5-10.6,2.5-16.7,5c-1.4,0.5-2.3,0.9-3.3,1.2l-14,6.4
		c0.4,0.3-3,2.2-5.5,3.5l-0.2,0.1c-0.3,0.2-0.6,0.4-0.9,0.6c-1.3,0.8-3.2,1.8-3.5,2c-1.2,0.8-2.4,1.6-3.5,2.4
		C62.8,33.5,63.4,33.3,69,29.9z M36.4,68.6c1.4-1.6,1.6-1.6,2.4-2.2c0.7-1.3,0.6-1.8,2.3-4.2c3.1-4.5-2.1,1.5,3.2-5.5
		c0.9-1.1,1.7-2,2.6-3c-0.9,0.9-1.7,1.8-2.6,2.6c-1.3,1.3-2.3,2.8-4.3,5.3c-0.1,0.2-1,1.5-0.9,1.4c0.7-0.5-0.5,1.5-2.8,5
		C34.7,70.7,35.1,70.2,36.4,68.6z M23.9,98.2c0.7-1.5,2.8-6.5,4.8-10c-0.2,0.5,0.2-0.5,0.4-1c1-2.5,1.6-4.8,2.9-7.3
		c1-2.1,2.2-4.3,4.3-7.6c1.2-2.2,3.6-4.9,5.4-7.5c2.3-3.2,4.6-6.5,7.4-9.3c-0.4,0.2-2.2,2.1-3.7,3.7c-1.3,1.7-2.4,3.2-1.9,2.1
		c-1.8,2.4-3.9,5.1-5.9,7.6c-1.9,2.5-3.2,5.1-4.2,6.8c-1.8,3.3-3.6,6.4-5,9.7c-1.4,3.3-3.2,6.5-4.4,10c-0.2,0.6-0.6,1.6-0.6,1.6
		C23.6,97.6,23.1,99.7,23.9,98.2z M6.4,147c0.1-0.7,0.3-1.3,0.4-2.2c0.3-2.3,0.9-4.9,1.5-7c1.8-7.7,3.2-15.4,5.4-22.8
		c0.3-1,0.1-1.2,0.2-2.3c-0.7,2.1-1.4,4.2-2.1,6.6c-0.7,2.2-1.1,4.9-1.7,7.4c-1.1,5.6-2.6,11.1-3.4,16.7
		C6.7,144.6,6.6,145.7,6.4,147z M6.4,181.4c-0.2-1.8-0.7-4.7-0.5-7.1c-0.2,3.4,0.3,6.9,0.4,10.1c0.3,3.1,0,6,0.7,9.1
		c0.3,1.6,1,5.1,1,5.3c0.5,1,0.2-1,2.1,7.2c1.1,3.7,2.6,7.2,3.2,8.3c0.6,1.3,1.6,3,2.6,5.3c1.1,2.2,1.9,5.2,3.6,8.2
		c1.4,2.3,3,6,5,8.4c0.7,1,1.4,1.5,1.5,1.4c0.3-0.2,2,2.7,4.4,5.4c5.9,6.8,2.9,3.1,1.4,1.1c-0.6-0.8,0.1-0.2,0.1-0.4
		c0.1-0.2-1-1.5-2.7-3.4c-1.1-1.3-3.1-4.2-4.8-6.6c-1.5-2.5-2.7-4.6-2.7-3.9c-0.5-0.9-1.1-1.9-1.5-2.6c-4.5-9.7-7.9-19.9-9-30.4
		c-0.2-1.4-0.1-1.7-0.2-2.6c0-0.6-0.1-1.3-0.2-2c-0.2-0.7-0.5-1.8-0.5-2c-0.3,1.6-0.5,3.3-0.7,5.5c0,0.2,0.6,3.7,0.9,5.4
		c0.4,3,1.6,5.6,2.4,8.4l0.2,2c-0.2,0.5-1-1.8-2.7-7.3c-0.8-3.5-1.5-7.2-2.1-9.4c-0.5-1.8-0.6-1.5-0.9-2.1c-0.5-3.7-0.2-6.9,0-6.9
		c0.2,0,0.1-2.4,0-5.2c-0.1-1.4-0.2-3-0.2-4.5c0.1-1.5,0.2-2.8,0.3-3.9c0-0.2,0-3.1,0-3.1c-0.2,0.1-0.4-0.2-0.6,1.6
		c-0.1,1.2-0.2,2.9-0.4,4.7c-0.1,1.8,0.1,3.7,0.1,5.2C6.7,182,6.5,182.3,6.4,181.4z M7.3,203.9c-0.8-5.4-1.1-7.3-1.4-9.3
		c-0.6-2.6-0.9-5.3-1-8.1c-0.2-3.9-0.6-7.8-0.6-11.7c-0.3,2.7-0.3,5.1-0.2,8.1c0.2,2.8,0.3,5.7,0.7,9C5.6,195.3,6.4,199.2,7.3,203.9
		z M46.6,264.6c-1-0.6-2.1-1.4-2.5-1.8c-2.4-2.1-6.7-5.3-11.9-10.4c-1.8-1.5-4.3-4.5-4.4-4.5c-0.3-0.1,0.3,1.1,1.2,2.1
		c3,3.4,5.3,5.3,4,4.5c-0.4-0.3-3.5-3.1-5.1-5.1c-1.2-1.4-2.5-2.8-3.7-4.2c-1.1-1.5-2.2-3.1-3.2-4.6c-0.8-1.2-1.9-2.9-1.9-3
		c0-0.1,1.2,1.3,2,2.5c0.9,1.2,2.2,2.9,3.2,4.3c-1.1-1.6-2.3-3.3-3.3-4.8c-4.9-7.1-3.4-5.9-1.9-3.4c0.2,0.2-1.3-2.6-2-4
		c-0.7-1-2-3.1-1.8-2.8c0.6,1.2-1-0.9-1.8-2.6c-0.9-1.7-1.5-2.7,0.1,1.3c0.8,1.6,0.5,1.1-0.2,0c-0.5-1.2-1.3-3-1.6-3.8
		c-0.8-1.9-3.4-7.6-2-5.2c0.3,0.4,0.2,0.1,0.3,0.2c-0.7-1.3-1.4-3.9-1.5-4c-1-2-2.2-5.2-3.3-10.9c-0.1-0.5-0.7-4-0.8-4.2
		c-0.5-1.7-0.7-1.4-0.5,0.5c0.2,1.9,0.6,5.3,2.1,9.7c0.6,2.2,1.5,4.9,1.9,6.4c3,6.8,5,11.8,7.2,15.5c1,1.9,1.8,3.6,2.6,5.1
		c0.9,1.5,1.7,2.9,2.5,4.3c0.5,0.9,1.3,2.1,2.2,3.4c-1.9-3.4-1.8-3.2,3.2,2.7c4.3,5,5.7,6.3,8.7,8.7c3.5,2.4,0.6-0.2,9.8,6.6
		C45,263.7,45.8,264.2,46.6,264.6z M48.3,263.9c0.2,0.1-2.2-1.4-4.4-3.2c-3.4-2.3-6.6-4.6-9.4-7.2c2.4,2.7,5.1,5,7.8,7.3
		C44.4,261.9,46.5,263.1,48.3,263.9z M60.6,270.2c0.3,0.4,0.9,1.3,1.5,2.2c0.6,1,1.2,2,1.5,2.5c2.5,4.1-0.1-0.6-0.3-1.1
		c-0.4-1.1-2.1-4.2-4.6-6.8c-1.2-1.4-2.5-2.6-3.9-3.7c-1.7-1-2.4-1.4-3.1-1.9c-1.7-1.4-3.3-2.4-8.8-6.5c-1.6-1.3-2.7-2.2-3.4-2.8
		c-0.6-0.6-0.9-0.8-0.9-0.8c-0.1,0,0.7,1,1.2,1.6c1.9,2.1-4.3-2.3-9.5-8.2c-1.2-1.3-1.9-1.9-2.8-2.8c1.4,1.8,3,3.7,4.4,5.3
		c2.6,2.8,5.6,5.6,8.1,7.5c1.9,1.4,2.4,1.6,4.2,2.8c3.2,2.2,6.3,4.2,9.3,5.7C57.1,265.3,59,267.9,60.6,270.2z M65.7,291.8
		c0.2,0.8,0.3,1.1,0.4,0.7c0-0.3-0.2-1.8-0.4-3.7c-0.1-0.9-0.6-2.1-0.9-3.2c-0.4-1.1-0.8-2.2-1.2-3.2c-0.5-1-1-2-1.5-3
		c-1-2.1-2.5-4.5-4.9-7.7c-3.4-3.8-2.5-2.3-2.6-2.2c-0.1,0.1,2.3,2.8,3.7,4.7C62.1,279.3,64.5,285.5,65.7,291.8z M65.5,299.2
		c0.2-3.9-0.3-7.9-1.4-12c-0.1-0.4-0.2-0.4-0.4-0.8c0.1,0.6,0.2,1.1,0.4,2.3c0.2,1.6,0.8,5.5,0.8,5.6c-0.5,1.1,0,4.1,0.2,6.3
		C65,304.8,65.5,302.1,65.5,299.2z M63.3,322.3c1-2.6,1.4-5.4,2.1-8.4c0.1-0.3,0.3-2.9,0.2-2.7c-0.3,0.8,0.1-3.7,0-6
		c0-0.7,0-1.4,0-2.1c-0.1,0.5-0.1,1-0.2,1.5c-0.1,1.3-0.2,2.7-0.3,4c-1,7.1,0.4,3.7-1.8,13C63.4,321.7,63.3,322.5,63.3,322.3z
		 M63.1,332.2c0,0.1,1.1-2.7,1.4-4.1c1.7-6,2.7-9.1,2.7-8c0.3,2.4,1.8-1.2,3.8-8.3c0.5-1.6,0.7-4.7,1.1-7.9c0.3-2.8-0.2-5.7-0.3-7.1
		c-0.2-3.1-1-5.3-1.6-7.1c-0.6-1.7-1-3-1.7-4.2c-0.6-0.9,0-0.2,0.9,5.4c1,4.1,0.9,12.1,0.2,16.7c-0.1,2-0.5,3.9-1,5.3
		c-0.4,1.4-0.7,2.4-0.8,2.3c-0.5-0.2-1,4.1-2.5,7.8c-0.3,1-1.2,3.9-1.3,4.1C63.8,329.1,63.5,330.9,63.1,332.2z M57.7,364.2
		c-0.7,0.4,6.2-3.5,0.8,0c-0.1,0.1,0.9-0.4,1.8-0.8c2.8-1.7,5.7-3.4,8.5-5.1c4.3-2.6,4.9-2.8,5-2.6c0,0,0.3-0.2,0.5-0.3
		c7-4.6,7.3-5,5.8-4.2c-4,2.3-8.4,4.7-13.2,7.4C64.5,360,60.6,362.4,57.7,364.2z M73.8,356.1c0.4-0.2,0.2-0.3-0.1-0.2
		c-7.4,4.7-12.8,8.2-16.8,10.8c-4.7,3-7.7,4.9-9.6,6.1c-3.9,2.5-3,2-1.7,1.3c1.2-0.7,4.2-2.5,5.4-3.2
		C58.2,366.2,64,362.5,73.8,356.1z"/>
</g>
</svg>
