<?xml version="1.0" encoding="utf-8"?>
<!-- Generator: Adobe Illustrator 25.1.0, SVG Export Plug-In . SVG Version: 6.00 Build 0)  -->
<svg version="1.1" id="Calque_1" xmlns="http://www.w3.org/2000/svg" xmlns:xlink="http://www.w3.org/1999/xlink" x="0px" y="0px"
	 viewBox="0 0 434.4 389.2" style="enable-background:new 0 0 434.4 389.2;" xml:space="preserve">
<style type="text/css">
	.st0{fill:#6B2775;}
</style>
<g>
	<polygon class="st0" points="366.7,271.3 366.7,271.4 366.7,271.5 	"/>
	<path class="st0" d="M420.5,108.1c0,0,0.1,0,0.1,0c-1.5-4.2-2.9-8.3-4.7-12.4C419.8,107.5,419.5,108,420.5,108.1z"/>
	<path class="st0" d="M2,186.5c0.3,2,0.7,4.6,1.3,8.3C3,192.4,2.8,190.1,2,186.5z"/>
	<path class="st0" d="M3.2,194.7l0,0.3c0.1,0.5,0.1,0.7,0.2,1.2C3.3,195.6,3.4,195.3,3.2,194.7z"/>
	<polygon class="st0" points="2,186.4 2,186.5 2,186.3 	"/>
	<path class="st0" d="M4.8,146.1c0.1-1,1.4-5.9,1.9-8.1c0.3-1.4,0.2-1.9,0-1.6c-0.3,0.5-1,2.6-1.3,3.2c-0.8,1.3-1.9,4.4-2.6,11.8
		c-1.4,6.6-1.1,7.1-0.7,5.6C2.9,154.3,3.8,150.3,4.8,146.1z"/>
	<path class="st0" d="M8.9,129.7c0.4-0.8,2.7-8.1,2.9-7.1c0.1,0.3-0.9,3.7,1.5-2.6c0.7-1.7,0.2-3.6,0.9-5.3c0.1-0.3-0.1-0.1-0.1-0.1
		c-0.2-0.5-0.9,1.9-3.3,8.3c-0.9,2.4-2.6,6.9-2.6,7.3C8.1,131.3,8.3,131.2,8.9,129.7z"/>
	<path class="st0" d="M84.2,38.6c2.3-1.7,8.1-4.6,10-5.7c1.3-0.8,1.7-1.1,2.5-1.7c-2.3,1.2-8,3.9-8.5,4.2c-4.1,1.8-6.3,3.6-7.6,4.4
		c-2.3,1.5-5.6,3.8-5.3,3.7c0.5-0.1,3.3-1.6,5.5-2.7C81.1,40.6,83.4,39.2,84.2,38.6z"/>
	<path class="st0" d="M8.9,124.6c-0.3,0.3,0.6-3-1.9,3.8c-1,2.8-1.4,5.6-2.3,9.6c1.2-3.7,1.8-6.6,3.1-9.7
		C7.9,127.7,9,124.5,8.9,124.6z"/>
	<path class="st0" d="M27.1,93.9c0.7-1.1,2.3-3.5,2.3-3.5c0-0.6-0.1-0.9-0.2-1.3c-0.5,0.9-1.3,2.2-1.6,2.6c-0.5,1.1-0.9,1.8-1.3,2.7
		l1.5-2.1c-0.5,1-1.2,2.1-1.5,2.7C26.1,95.2,26.7,94.5,27.1,93.9z"/>
	<path class="st0" d="M273.5,305.5c-3.1,0.6-5.9,1-9.8,2.1c-5.9,1.6,1.8,0,4.1-0.3c1-0.1,1.9-0.3,2.9-0.4c1.3-0.2-2.3,1,3.1-0.4
		c4.6-1.2,8.4-2.6,12.6-3.8c0.3-0.1,0.1-0.1,0.2-0.1c-1,0.2-1.8,0.4-3,0.6C280.2,304,276.7,304.8,273.5,305.5z"/>
	<path class="st0" d="M218.3,322.6c-3.2,0.4-7.9,0.9-12.1,1.4c-1,0.1-1,0.3-0.1,0.3c1,0,4.7-0.3,5.3-0.4c3.1-0.4,6.5-0.8,11-1.3
		c3.6-0.4,9.6-1.1,8.5-1.3C229.9,321.1,224,322,218.3,322.6z"/>
	<path class="st0" d="M91.9,308c-2.4-1.3-7.5-3.8-12.2-6.8c-0.3-0.2-0.1,0.1-0.1,0.1c2.9,1.9,5.9,3.6,8.9,5.2c3,1.7,6.1,3.2,9.2,4.6
		c1.6,0.7,2.8,1.2,4.2,1.8c-1.7-0.8-3.3-1.7-5.1-2.5C96.3,310.1,95.5,309.9,91.9,308z"/>
	<path class="st0" d="M184.5,328.3c1.1,0,2.2,0,3.4,0c7.3,0,12.6-0.6,14.5-1.1c-0.3,0-2.9,0.1-3.8,0.1
		C193.7,327.9,189.2,328,184.5,328.3z"/>
	<path class="st0" d="M234,318.4c-2.3,0.6-3.7,1-5.6,1.4c-3.3,0.7,4.7-0.2,3.1,0.2c1-0.2,2.7-0.4,2.8-0.4c1.7-0.6,3.4-1.1,4.5-1.6
		C238.9,317.9,236.5,318.2,234,318.4z"/>
	<path class="st0" d="M201.4,326.2c0.3,0,0-0.1,0-0.1c0-0.1,0.5-0.3-0.3-0.3c-0.6,0-2.8,0-4.3,0.1c-1.4,0.1-3.8,0.2-4.1,0.3
		c-0.6,0.2-0.7,0.3,0.1,0.4c0.6,0.1,2.8,0.2,4.3,0.1C198.6,326.6,200.1,326.4,201.4,326.2z"/>
	<path class="st0" d="M375.4,35.7c3.4,2.9,7.3,5.6,10.1,9c3.4,3.8,9.1,9.1,9.5,11c0,0.2-0.9-1.1-2.3-2.7c-1.5-1.5-3.4-3.3-4.6-4.6
		c-0.7-0.7-1.3-1.2-1.9-1.8c1.3,1.5,2.8,3.1,3.9,4.4c1,1.2,1.9,2.1,2.8,3c0.8,0.9,1.5,1.8,2.2,2.7c1.4,1.8,2.9,3.6,4.7,6.4
		c3.4,5,5.5,8.7,9,14.6c1.7,4.1,5,10.6,6.8,14.8c0.1,0.2,0.7,1.8,1,2.9c0.8,2.4,1.8,4.7,2.5,7.1c-0.2-1.1-0.1-1.7-0.6-3.4
		c-0.2-0.7-1.7-4.8-3.2-8.9c-1.8-4.1-3.8-8.2-4.3-9.4c-1.7-3.7-4.1-7-6.3-10.7c-2.4-4.3-6-9.2-6.3-10.2c0-0.1,1.5,1.8,2,2.5
		c2.1,2.7,3.5,5.5,5.2,8.4c0.6,1,1.3,2.2,2,3.4c-0.4-0.9-0.6-1.5-1.3-2.7c-2.6-5.7-8.9-13.6-10.9-17.1c-0.1-0.3-1.6-2.2-2.6-3.1
		c-0.9-0.9-1.9-1.9-2.5-2.5c-4-3.6-6.9-7.2-9.6-9.7c-0.5-0.6,1.1,0.5-3-2.7c-2.5-1.9-5.2-4.1-7.3-5.6c-1-0.7-0.5-0.1-0.7-0.1
		C369.4,30.6,368.8,30.3,375.4,35.7z"/>
	<path class="st0" d="M250.9,13.7c0.2,0.2-2.7,0.6-5.7,0.8c-2.4,0.2-6.9,0.4-11.3,0.6c-3.9-0.5-16.9,1.7-18.5,1.1
		c-0.4-0.1-8.6,0.8-3.9,0c2.6-0.5,1.7-0.7,8.6-1.5c2.8-0.4,5.7-0.8,8.6-1.1c2,0,12.5-0.5,14.6-0.2C244.1,13.6,250.8,13.5,250.9,13.7
		z M238.6,14.2c1-0.1-7.9-0.6-10.2-0.1c-2.7,0.4-5.5,0.9-6.3,1.1c-1.3,0.5,4.3-0.3,12.3-0.6C235.4,14.5,237.8,14.4,238.6,14.2z"/>
	<path class="st0" d="M427.8,211c-1.2,4.1-2.1,7-1.7,6.7c0.2-0.2,0.4-0.1,0.4,0.2c0,0.1-0.5,1.4-0.7,2.2c-0.3,0.7-1.1,2.2-1,1.9
		c0.9-3.8-3,6.6-5,9.2c-0.6,1.2-1.5,2.9-2.2,4.2c-0.7,1.4-1.3,2.5-1.3,2.6c0,0.4,6.2-8.3,8.7-15.4c0.9-2.1,2.3-5,2.4-6.3
		c1.5-6,2.1-7.7,2.4-7.3c0.1,0.1,0.6-1.4,0.9-2.1c0.1-0.7,0.1-1.1,0.3-2.3c0.4-2.7,1.1-7.5,1.2-8.7c0.1-1.3-0.5,0.5-1.3,3.6
		c-0.4,1.6-0.8,3.5-1.2,5.4C429,207.1,428.4,209.1,427.8,211z"/>
	<path class="st0" d="M307.5,316.5c-1.5-0.9-1.3-0.5-5.3-3.1c-0.2-0.1-1.2-0.6-0.8-0.3c3.5,2.5,7.2,5.1,11,7.8
		c0.3,0.2,1.6,0.9,2.6,1.5c5.1,3.3-4.9-3.8,4.1,2c2.2,1.4,4.3,2.4,7,3.8c3.3,1.8,7.1,4,10.5,5.9c0.6,0.3,0.2-0.1,0.2-0.1
		c-0.8-0.5-1.6-1.1-2.6-1.8c-1-0.6-2.7-1.7-3.3-2c-3.7-2-7.2-3.9-10.8-5.9C312.2,318.6,311.1,318.7,307.5,316.5z"/>
	<path class="st0" d="M125.6,20.5c5.1-1.7,11.8-2.8,11.1-2.2c-0.2,0.2,4.4-0.9,7.8-1.6c3.3-1.1,6-1.9,7.8-2.5
		c0.8-0.3,0.4-0.3-0.7-0.1c-6.4,1.3-13.2,2.6-19.7,3.9c-2.5,0.4-4.3,1.1-6,1.9c-1.3,0.6-2.4,1.1-3,1.5
		C122.9,21.4,124.6,20.8,125.6,20.5z"/>
	<path class="st0" d="M355.3,345c0.3,0.1,0.1-0.1,0.2-0.2c0.1-0.2,1.4,0.3-4.7-3.5c-0.7-0.5-1.2-1.1-2.2-1.9
		c-0.4-0.3-2.6-1.8-2.6-1.8c-3.3-1.7-10-5.8-8.5-4.4c1.1,1,2.2,2.1,4.4,3.8C343.1,338.2,354.4,344.8,355.3,345z"/>
	<path class="st0" d="M421.4,162.7c0-0.1-0.1-1.3-0.1-1.4c-0.2-1.1-1.1-4.8-1.8-9.2c-0.8-4.4-1.3-9.5-2.6-13.4
		c-1-3.5-1.1-3.6-0.7-0.9c1.2,5.6,1.4,9.8,2.5,14.7c0.4,2,0.8,4,1.3,6.6c0.6,4.8,0.8,6.9,1.1,5.7c0.1,0,0.2,0.2,0.2-0.1
		C421.5,164.5,421.4,163.5,421.4,162.7z"/>
	<path class="st0" d="M308.2,5c5.8,0.6,9.6,1.9,16.2,4c5.5,1.8,4.8,1.2,5.2,1.1c2.5,0.7,4.6,1.4,6.3,1.9c1.6,0.8,2.9,1.4,3.9,1.9
		c1.9,1,2.6,1.5,2.2,1.6c-0.7,0.2,3.1,1.9,9.1,4.3c1.4,0.5,3.8,1.7,5.4,2.7c2,1.1,3.7,2.1,5.6,3.2c-1.4-1-2.7-1.8-4.2-2.9
		c-1.3-0.8-2.7-1.9-4.2-2.7c-1.6-0.8-3.3-1.5-4.8-2.3c-3.1-1.5-5.9-2.9-7.2-3.7c-0.6-0.3-3.3-1.8-6.5-2.9c-3.3-1-7.2-2-9.7-2.6
		c-3.1-1-6.3-2-9.4-2.9c-7.6-1.9-14-2.6-16.2-2.7c-1.1,0-0.6,0.3,0.8,0.7C301.2,3.8,306.5,4.7,308.2,5z"/>
	<path class="st0" d="M328.9,334.2c-1.8-1-4.6-2.7-5-2.8c-0.8-0.3-2.7-1.2,1.7,1.8c2.3,1.6,7,4.4,2.3,1.8c-1-0.6-1.6-0.8-1.3-0.5
		c0.5,0.5-2.9-1.3,2.5,2.2c4,2.6,8.5,5,8.4,4.6c-1.6-1.4-3.2-2.8-4.9-4.3C331.4,336.3,330.1,335.2,328.9,334.2z"/>
	<path class="st0" d="M355.5,356c4,2.2,6.2,3.6,13.7,8l8.5,4.9c-1.9-1.2-3.5-2.3-5.7-3.8c-2.8-1.8-5.7-3.6-8.5-5.5
		c-2-1.3-4-2.7-6.1-4.1c-1.1-0.7-3.7-2.3-4.7-2.9c-1.1-0.6-1.9-0.9-1.4-0.5c0.8,0.6,2.8,2,4.4,3.1c-2.1-1.1-4-2.1-4.8-2.5
		C349.4,352.1,353.1,354.7,355.5,356z"/>
	<path class="st0" d="M433.2,180.9c-0.1,1.9-0.3,5.5-0.3,5.5c0.2,0.2,0.6-0.4,0.4,4.7c0.4-3.3,0.7-6.5,1.1-10.1
		c0-3.4,0.2-10.1-0.2-13.4c-0.1-0.7-0.3-2.9-0.3-2.9c-0.2,0-0.3,2.2-0.3,5.4C433.6,173.3,433.6,177.3,433.2,180.9z"/>
	<path class="st0" d="M368.3,343.5c-1.9-4.4-2.1-5.6-2.9-7.5c-2-4.7-2.7-6.8-2.1-3.6c0.5,2,1.2,4,1.8,6.1c0.3,0.7,0.8,2,0.8,2
		c0.5,0.7,1.4,2.6,2.5,5.2c0.7,1.4,1.6,3.2,2.5,5.1l0.3,0c0.4,0,0.6,0,0.4-0.4c-0.1-0.2-0.2-0.5-0.5-0.9
		C370.5,347.9,369.3,346.1,368.3,343.5z"/>
	<path class="st0" d="M429.6,139.7c0.3,0.5,0.7,2.2,0.6,1.3c-0.9-5.8,0.1-2.2,0.1-3.7c0-1.1-0.4-3.3-0.8-5.8
		c-0.1-0.8-0.9-3.8-1.3-5.6c-0.2-0.8-0.4-1-0.7-1.9c0.2,2.6,0.3,5.2,0.6,8.6C428.2,133.3,429.1,137.2,429.6,139.7z"/>
	<path class="st0" d="M374.8,260.2c0.6-0.5,1.8-1.2,2.5-1.5l1.4-0.7c0.9-0.4,1.8-1,2.7-1.4c3.3-1.9,6.2-3.9,5.9-4.3
		c0,0,0.6-0.6,1-0.9c2.5-2,4.8-4.4,7.1-6.6c-2.3,2.1-4.6,4.5-6.9,6.2c-2.6,2.1-5.3,3.8-7.9,5.3c-0.7,0.4-1.3,0.8-2.1,1.1
		c-0.4,0.2-0.8,0.4-1.3,0.6c-0.1,0-2,0.9-2.7,1.5c-1.6,1.5-2.1,2.1-3.5,3.8c-1.8,2.1-3.7,4.7-1.1,1.9
		C370.2,264.7,372.8,261.6,374.8,260.2z"/>
	<path class="st0" d="M358.3,289.4c-0.1-0.5,0-2,0.3-4c0.6-2,1.2-4.6,2.2-7.2c0.6-1.4,1-2.7,1.5-4c-0.9,1.8-2,3.7-2.5,5.5
		c-3.9,11.9-2.6,21.7-2,22.8c0.1,0.1,0-1.3,0.2-2.6c0-1.9,0-4.4,0-6.5C358.1,291.3,358.4,289.6,358.3,289.4z"/>
	<path class="st0" d="M363.5,334.3c-1.6-4.7-2.9-9.4-4-13.5c-0.8-4.3-1.8-8-2.4-11.1c-0.1-0.6-0.2-0.9-0.3-1.3
		c0.1,1.3,0,2.2,0.2,3.5c0.3,1.4,0.7,4.1,0.8,4.6c1.1,5,3.1,11.7,5.6,19c0.4,1,1.1,2.5,1.4,3C365.5,339.4,364.9,337.8,363.5,334.3z"
		/>
	<path class="st0" d="M397.4,78.3c-0.6-1.1-1.8-3.3-2.7-5c-0.9-1.3-2-2.6-3.2-3.7c0.4,0.4,4.7,8.5,6.2,10.9c1.9,2.7,3.1,5.7,4.6,8.5
		c0.4,0.8,0.7,1.3,1.1,2c-0.4-1-0.9-2.1-1.3-3.1c-0.9-1.9-1.7-3.7-2.4-5.3C398.8,81,398,79.6,397.4,78.3z"/>
	<path class="st0" d="M371.7,261.6c1.6-1.5,2.6-2.4,4.4-3.4c0.5-0.2,0.9-0.5,1.3-0.7c0.3-0.2,0.5-0.3,0.8-0.4
		c4.2-2.3,7.6-5.2,6.9-4.9c-0.8,0.2-4.5,3-9.3,5.3c-1.7,1-2.6,1.8-3.5,2.6c-0.8,0.8-1.5,1.4-2,2c-1.2,1.5-2.7,3.3-2.4,3.1
		C368.2,265.1,371.1,262,371.7,261.6z"/>
	<path class="st0" d="M372.2,49.5c-1.3-1.1-2.3-1.7-3.5-2.6c0.4,0.4,0.8,0.8,1.4,1.3c4,3.3,6.8,7,10.7,10.5c1.2,1.1,1.5,1.3,2.3,1.9
		l-4.1-4.5C376.6,53.9,374.7,51.2,372.2,49.5z"/>
	<path class="st0" d="M203.7,17.5c-6.7,0.6-13.3,1.9-19,2.8c-0.5,0.1-2.3,0.5-3.5,0.7c0.5,0,1.1-0.1,1.4-0.1
		c1.5,0.1,5.7-0.5,12.4-1.9c3-0.5,6-0.7,8.5-1.1c1.2-0.2,1.9-0.4,2.2-0.5C205.8,17.4,204.4,17.4,203.7,17.5z"/>
	<path class="st0" d="M352.4,349.3c2.9,1.7,5.2,2.9,7.8,4.4l-7.1-4.9c-4.1-2.5-10.1-6.3-6.4-3.5
		C347.8,346.2,346.1,345.6,352.4,349.3z"/>
	<path class="st0" d="M180,7.2c-2,0.2-6.2,0.8-9.5,1.3c-1.3,0.4-2.6,0.8-4.1,1.2c1.5-0.1,2.2,0,4.3-0.4C173.3,9,181.6,7.1,180,7.2z"
		/>
	<path class="st0" d="M370,44.4c0.5,0.5,0.7,0.8,1.4,1.4c1.4,1.2,3.1,2.5,4.5,3.8c2.5,2.6,4.5,5.5,7.3,7.8c0.4,0.3,1.3,1.2,1.1,0.9
		c-1.8-2.3-4-4.8-7.8-8.8c-1.8-1.7-3.9-3.3-5.8-4.8C370.4,44.5,370.3,44.6,370,44.4z"/>
	<path class="st0" d="M353.3,34.3c-1.6-0.9-3.1-1.9-4.6-2.8c-1.6-0.8-3.3-1.4-4.9-2.1c-1.1-0.4-1.8-0.7-2.7-1c1,0.5,1.9,0.9,2.9,1.4
		c1.5,0.7,3.1,1.3,4.6,2.1l4.3,2.6c0.6,0.4,1.2,0.7,1.7,1.1l8,4.8C360,38.7,358.1,37.2,353.3,34.3z"/>
	<path class="st0" d="M360.4,346.8c2.5,1.2,4.7,2.2,6.9,3.2c-0.1,0-1.7-1.1-3.7-2.4c-2.3-1.2-5.7-3.2-7.1-3.9
		c-1.1-0.5,0.2,0.5,0.8,1.1C357.5,345,360.2,346.7,360.4,346.8z"/>
	<path class="st0" d="M349.3,32.9c-1.4-0.9-2.7-1.2-3.9-1.7c-1.2-0.5-2.4-0.9-3.6-1.3c2.1,1,4.2,2,4.7,2.2c3.6,1.7,5.6,3.4,6.7,3.9
		c1.4,0.8,2.3,1.2,2.7,1.3c0.3,0.1-0.3-0.5-0.9-0.9C353.2,35.3,351,34,349.3,32.9z"/>
	<path class="st0" d="M329.3,333.7c0.5,0.3,1.6,0.8,2.6,1.4c-0.7-0.6-0.9-0.9-2.2-1.9c-1.9-1.3-4.6-3.1-7.1-4.8
		c-0.2-0.2-2-1.1-1.8-1c0.8,0.8,1.7,1.6,3.4,2.8C325,330.8,327.4,332.4,329.3,333.7z"/>
	<path class="st0" d="M293,303.7c3.7,2.7,7.4,5.3,11.2,8.1c0.7,0.5,2.2,1.4,3.2,2.1c0.3,0.2,0.8,0.4,0.7,0.3
		c-1.2-1.1-9.6-7.1-13.9-10l-2.9-1.9C291.8,302.8,292.2,303.1,293,303.7z"/>
	<path class="st0" d="M304.4,313c0.1,0.1,1.3,1,1.4,1c4.6,2.8,8.9,5.4,13.1,8c0.6,0.3,0.4,0.1,0.1-0.2c-0.2-0.2-1.6-1.1-2.3-1.6
		c-3.2-2-6.2-4-9.3-5.9C302.3,311,305.2,313.3,304.4,313z"/>
	<path class="st0" d="M369.9,310.4c0.5,2.6,1.2,5.8,1.8,8.6c0.3,0.9,0.5,1.4,0.8,2c-0.7-2.2-1-4.5-1.4-6.7c-0.3-2.2-1-4.5-1-6.7
		c-0.2-0.4-0.4-1-0.7-1.5c0-0.1,0,1.6,0,2.7C369.5,309.3,369.6,309.3,369.9,310.4z"/>
	<path class="st0" d="M394.1,75.3c-1.8-3.3-3.1-4.9-4.3-6.4c-0.3-0.4-0.8-1-0.9-1.1c0.3,0.5,0.8,1.2,1.1,1.6c1.2,1.8,2.6,4.1,4,6.7
		c1.4,2.5,3.1,5.1,4.4,7.7c0-0.2,0.2,0-0.1-0.7C396.8,80.2,395.1,77.1,394.1,75.3z"/>
	<path class="st0" d="M40.7,92.5c1.3-1.4,1.8-1.8,2.2-2.3c3-3.5,5.8-7.4,7.7-9.3c0.3-0.4-0.2,0-0.4,0C46.9,84.3,44.2,88.2,40.7,92.5
		z"/>
	<path class="st0" d="M334.8,331c-1.6-1.2-3.3-2.3-5-3.5c-1-0.6-3.1-1.8-2.9-1.6c1.7,1.2,3.7,2.7,5.6,4.1
		C333.1,330.2,333.7,330.5,334.8,331z"/>
	<path class="st0" d="M26.1,89c0.4-0.7,0.7-1.2,0.8-1.5c0-0.1-0.5,0.7-0.9,1.2c-2.3,3.4-7.1,11-7.8,12.8c-0.1,0.2-0.1,0.3,0,0.1
		c0.5-1.1,1.3-2.1,2-3.1C22.2,95.3,24.2,92.1,26.1,89z"/>
	<path class="st0" d="M422.9,107.1c-0.1-0.5-0.5-2.5-1-4c-0.8-2.6-1.9-5.3-3-8c0.7,2.3,1.6,4.6,2.9,9.9
		C422.4,106.2,422.9,107.6,422.9,107.1z"/>
	<path class="st0" d="M120,37.2c3.2-1.1,4.5-1.5,5.8-2c2.8-1,6.8-2.4,7.6-2.9c0.2-0.2-1.2,0.2-1.9,0.4C128.2,34,125,35.2,120,37.2z"
		/>
	<path class="st0" d="M82.1,40.6c1.4-0.8,2.7-1.7,4-2.4c1.3-0.7,2.6-1.3,3.8-1.9c1.1-0.6,1.8-1.1,2-1.2c0.1-0.1-1.2,0.4-1.9,0.7
		c-3.2,1.4-6.2,3.3-9.1,5c-2.9,1.8-5.7,3.4-8.3,4.9c-0.4,0.3-2,1.3-3.1,2c0.4-0.2,1.1-0.5,1.3-0.6C72.3,46.6,76.1,44.4,82.1,40.6z"
		/>
	<path class="st0" d="M216.8,2.8c1.7-0.3,2.8-0.5,3.2-0.7c0.3-0.1-0.6-0.2-1.3-0.1c-2.3,0.3-5,0.6-7.2,0.9c-1.8,0.3-3.1,0.5-4.5,0.7
		c-1.4,0.2-2.7,0.5-4,0.7c2.5-0.2,5-0.5,5.6-0.5C212.7,3.3,215.5,3,216.8,2.8z"/>
	<path class="st0" d="M414.6,238c-0.1,0.2-4.4,6-5.3,7.2c-2,2.2-2.3,2-4,4c-3.5,3.9-3.1,3.4-4.4,4.9c-0.5,0.7-4.8,5-5.2,5.2
		c-1.4,1.3,0.5,0.7,5.2-3.9c5-4.9,1.7-2,4.9-5.8c1.2-1.4,2.5-2.9,3.8-4.3c1.2-1.5,2.3-3,3.3-4.2c1.9-2.5,3.1-4.1,2.2-3.7L414.6,238z
		"/>
	<path class="st0" d="M386.9,266.7l0.7-0.4c-0.7,0.3-1.8,0.9-3.2,1.7c-0.7,0.4-1.5,0.7-2.3,1.2c-0.1,0-0.5,0.4-1.1,0.8
		c0.1-0.1,0.5-0.2,0.8-0.4c0.3-0.2,0.3-0.1,0.3-0.1c0,0.1,0.1,0.1-0.1,0.4c-0.2,0.2-0.4,0.5-0.2,0.5c0.1,0,0.6-0.3,0.6-0.2
		c0,0,0,0,0.1,0c0.2-0.1,0.5-0.2,0.8-0.4c0.5-0.3,1.1-0.6,1.7-0.9c2.3-1.3,4.8-2.9,6.6-4.4c1.8-1.3,2.9-2.4,2.5-2.2
		C393.6,262.6,391.6,263.8,386.9,266.7z"/>
	<path class="st0" d="M373.6,275.6c-1.1,2,0.3,0.3,0,1.1c-0.3,0.6-1.8,3.8-1.6,3.8c0.2,0,0.8-1.7,2-3.5c1-1.9,2.6-3.9,3.6-5.1
		c-1.1,1.4-2.3,2.7-3.2,4.3c0.6-1.2,1.4-2.3,2.2-3.4c4.4-5.1,5-5.1,3.5-4.4C378.5,269.3,375.3,272.5,373.6,275.6z"/>
	<path class="st0" d="M370,298.9c0.3,1.1,0.6-5.4,0.7-1.9c0-2.4,0.5-4.7,0.9-7.1c0.1-0.8,0.1-1.5,0.4-2.3c1.3-5.3,0.8-4.2-0.3-0.9
		C370.6,289.9,369.9,295.6,370,298.9z"/>
	<path class="st0" d="M372.9,285.2c-0.4,1.4-1.1,3-1.3,4.6l0,0.4C371.8,288.4,372.4,286.8,372.9,285.2z"/>
	<path class="st0" d="M380.2,353.4c0.3,0.9,0.8,2.2,1.5,3.7l1.9,3.5c0.9,1.5,3,5.1,4.2,7.3C387.1,365.9,383,358.8,380.2,353.4z"/>
	<path class="st0" d="M374.1,324.5c0.3,1.2,0.8,3.1,1.5,5c0.7,1.8,1.4,3.6,1.9,4.8c1.3,3.8,0.6,2.6,0.4,2.9c0.5,1.2,0.8,2,1.1,2.8
		c-0.3-0.5-0.6-1.3-0.6-0.9c0.1,0.7,0.8,2.4,1.8,4.4c1.5,3.1,3.3,6.7,4.8,9.7c1.6,3,3.1,5.9,4.3,8.4c1.2,2.5,2.5,5,4.4,8.4
		c3.5,6.1,2.5,3.1,1,0.1c-1-2-2.9-5.8-5.6-10.8c-1.3-2.5-2.9-5.3-4.1-7.6c-1.1-2.3-2.1-4.5-2.9-6.2l-0.2,0.1c-0.4-0.7-0.7-1.3-1-2.1
		c0.5,0.6-0.6-2.7-0.2-2.2c0.6,0.8,1.1,1.8,3.2,6c1.7,3.3,3.1,6,2.4,4.2c-0.4-1-1.6-3.8-3.4-7.5c-1-2.1-2-4.2-2.9-6.7
		c-1.9-4.9-4-9.9-4.5-12.1c0.2,0.9,0.6,2.8,0.1,0.9C374.2,322.7,373,320.1,374.1,324.5z"/>
	<path class="st0" d="M395.1,381.7c-6.9-4.1-15.3-9-21-12.4c14.2,8.7,7.8,5.6,27.5,17.1l2.4,1.4c0.8,0.4,1.5,0.9,2.2,1.3
		c0.6,0.4,0.1-0.2-0.1-0.5c-0.2-0.4-0.4-0.7-0.6-1c-0.8-1.4-1.5-2.5-2-3.4c-1.1-1.7-1.5-2.3-0.8-0.8c0.4,0.8,0.8,1.6,1.3,2.5
		c0.3,0.5,0.5,1,0.8,1.5c-0.6-0.3-1.1-0.7-1.7-1C400.6,384.9,397.9,383.4,395.1,381.7z"/>
	<path class="st0" d="M412,81.2c1.3,3.2,3.1,7.7,5.1,12.8c1.7,4.1-1-5.1-1.6-6.7c-0.4-1.2,0.7,0.8-0.4-1.9c-1-2.5-4.4-9.9-6.1-12.3
		c0.2,0.4,0.6,1.2,1.2,2.2l-2.3-3.4C402.4,63.6,411.2,78,412,81.2z"/>
	<path class="st0" d="M378.3,371l3.4,2.1c8.4,4.8,18.7,10.5,17,9.1c-7.4-4.5-19.7-11.8-24.8-14.5c-0.2-0.1,0,0-0.3-0.1
		c-7-4.1-14.7-8.6-19.5-11.4c-2.3-1.4-4.4-2.6-6-3.6c-3.2-2.1-1.1-1.2-8.1-5.4c0,0.1,1.4,1.1,1.5,1.2c0.2,0.5,1.1,1.1-0.2,0.7
		c-0.9-0.3-2.9-1.1,5.6,4.1l4.7,2.6c2.9,2,6.1,3.6,7.9,4.4c4.3,2.5,10.5,6,17.1,9.8C377.4,370.4,377.4,370.4,378.3,371z"/>
	<path class="st0" d="M368.7,352.6c0-0.3,0.3-0.4,0.1-0.7c-0.3-0.7,1.5,0.6,1.1,0c-0.1-0.1,0-0.2,0.1-0.2c0.1,0,0.4,0.3,0.6,0.5
		c0.4,0.4,0.5,0.5,0.8,0.8c-0.1-0.1-0.1-0.3-0.2-0.4c0-0.2-0.6-0.9-0.8-1.2c1.2,1.2-0.2-0.9,0.5-0.7c0.3,0.6,1,1.5,1.3,2
		c0.5,1,0.9,1.6,1.1,2c-0.1,0,0.1,0.4,0.4,1c0.2,0.6,0.4,0.7,1.7,1.3c0.1,0,0.3,0.2,0.3,0.1l-0.3-0.5l-0.6-0.9
		c-0.4-0.6-0.8-1.1-1.1-1.7c-0.8-1.2-0.7-1.1-0.4-1c0.6,0.4,1.6,1.5,3.3,4.1c0.4,0.6,0.8,1.2,1.2,1.8l-1.1-2.1
		c-0.3-0.5-0.7-1.3-1-1.6c-2.4-3.4-2.9-4.7-3.4-7c0-0.2-1.8-3.6-2.3-5.2c-1-2.3-2.7-5.8-2.1-5.5c0.9,0.4-1.3-3.4-2.8-8.4
		c-3.7-11.5-3.1-11.4-3.4-9.3c-0.1,0.5-0.7-1.9-1.2-3.7c-0.1-0.6-0.3-1.1-0.4-1.6c0,0.4,0.4,3.4,0.9,6.5c0.8,3,1.6,6.2,1.8,7.1
		c0.3,1.6-0.3,0.3-1.1-2.2c-0.9-2.4-1.9-6.1-2.3-9.4c-1.1-6.6-0.8-6.6-0.5-6.4c0.4,0.2,0.4,0.3,0.5-3c0-2.5-0.5-5.1-0.2-9
		c0-1.4,0.1-2.7,0.1-4.1c-0.1,0.5-0.2,0.6-0.2,1.4c-0.1,2.3-0.5,4.9-0.3,7.3c0.1,1.2,0.1,2.5,0.2,3.8c-0.2-1.7-0.3-3.4-0.5-5
		c0-5.1,0.4-10.1,1.5-14.9c0.6-3,1.6-5.2,2.2-7c-0.6,1.6-0.7,0.2,0.4-2.4c0.9-2.5,2.8-6.5,5.4-9.8c2.5-3.4,5.6-6,7.1-7
		c1.5-1.1,2.6-1.3,2.3-1.1c-0.2,0.1-1.5,1.1-2.5,2.1c-2.3,2-5.4,5.6-7.9,9.7c-1.2,1.6-2.3,3.3-3.1,5.1c-0.5,1.1-0.8,1.8-1.1,2.4
		c1.3-2.6,2.2-4.6,3.9-6.8l0.4-0.6l-0.3,0.5c0.8-1.3,1.9-2.7,3.3-4.5c1.2-1.5,0.5-0.3,4.3-4.4c0.5-0.6,1.2-1.2,2.2-1.9
		c0.5-0.4,1.1-0.8,1.6-1c0.3-0.2,0.6-0.3,0.8-0.5c2.4-1.5,5.2-3.6,3.3-2.7c3.2-1.8,6.2-4.4,8.6-6.5c1.4-1.3,2.3-2.5,3.5-3.7
		c1.2-1.2,2.5-2.5,4.4-4.7c1-1.1,1.8-1.9,2.5-2.7c-0.8,0.8-1.5,1.6-2.2,2.2c-0.5,0.5-0.4,0.3-0.1-0.2c1.4-1.2,9.4-12.7,8.9-12.4
		c-3.7,7.5,4.6-7,3.1-3.7c0.9-1.3,1.7-3.2,2.1-4.2c0.9-2.2,1.9-4.7,2.2-5.7c0.6-2.1-1.1,2.3-1.7,3.5c-1.9,4.3-5.1,9.7-2.1,3
		c0.2-0.8-0.6,0.9-1.7,2.5c-1.7,2.4-3.4,6.3-5.6,9c-0.5,0.6-0.9,1.1-1,1.1c-0.1,0,0.1-0.5,0.6-1.1c4.4-7,6.5-10.3,9-16
		c3.4-7.4,0.2,0.4,0.5-0.1c0.5-0.6,0.9-1.1,1.3-1.7c1-2.1,1.3-4.4,2.1-6.7c0.2-0.8,0.8-2.6,1-2.9c0.3-0.7,0.5-0.2,1.2-3.8
		c0.4-4,1.2-7.5,1.9-13.8c0.4-5.5,0.7-9.7,1-13.4c0-3.7,0.1-6.8,0.1-10.1c0.1,0,0.2,0.2,0.3-0.1c0.1-0.2,0.2-0.9,0.3-1.4
		c-0.2-1.5-0.1-3.3-0.4-4.3c-0.6-2.6-1.1-4.8-1.7-7.4c0-0.3-0.3-1.9-0.4-2.8c0-0.3,0-0.8,0-0.6c0.3,1.1,0.7,3.1,0.9,3.5
		c0.3,0.8,0.7,1.4-0.5-5.1c-0.1-0.3-0.3-2.6-0.3-2.7c0.2-0.6,0.4-0.9,1.3,4.3c0.2,0.9,0.5,3.5,0.5,3.7c-0.1,0.8-0.5-0.1,0.6,5.1
		c1,4.7,1.1,8.9,1.3,17.3c0.1,0,0.2,3.1,0.2,2.8c0.4-1.4,0.5-2.3,0.1-8.9c-0.1-1.9-0.3-6.1-0.3-6.9c0-5.9-1.1-10.3-2-15.1
		c-0.4-1.6-0.7-4.3-1.3-6.2c-1.7-7.6-2.5-10.1-2.6-8.8c0,0.2-0.4-1.1-0.6-1.7c-0.1-0.8-0.2-1.8-0.3-2.3c0-1.3-1-5.1-0.8-6
		c0.3,0.8,0.4,1.3,0.7,2.7c0.3,1.1,0.8,2.4,1,2.8c0,0-0.1-0.7-0.4-1.8c-0.3-1.1-0.7-2.5-1.3-3.7c-1.4-7.1-2.5-9.2-4.1-13.5
		c-0.1-0.1,0.4,2.1,0.9,3.8c0.6,2.1,1.5,4.9,2.2,7.4c0.1-0.4,0.4,0.5,0.9,2.2c-0.9-1.1-1.1-0.9-0.6,1c0.8,4.2,1.9,9.7,2.7,14
		c0.3,1.9,0.5,3.8,0.2,2.8c-1.6-5.4-2.6-8.2-3.8-11.6c-0.5-1.6-1.9-6.6-3-9.3c-0.7-1.9-1.7-4.8-2.8-8.1c-1-3.3-2.2-7-3.4-10.3
		c-0.5-1.4-2.3-6.4,0.3-0.2c3.8,9.1,6.9,18.8,9.1,25.5c0.5,1.7,1.2,3.3,1,2.3c-0.3-2.8-0.9-6.9-4.1-18c-0.2-1.2-0.5-2.5-0.9-4.3
		c-0.2-0.9-1.2-3.7-0.2,0.4c-2.2-7.1-2.8-8.3-3.2-9.5c0.2,0.7,0.2,1,0.5,2.1c0.4,1.3,1,3,1.6,4.6c0.7,2,1.1,3.6,1.4,4.7
		c0.2,1.5-0.2,0.5-0.5,0c-0.2-0.4,2.2,7.6-0.3,0c0-0.1-0.1-0.3-0.2-0.5l0,0.2c0,0.5,0.4,2,0.3,2.1c-0.1,0.2-1.2-2.4-2.2-5.2
		c-0.8-2-3-7.8-3.5-9.4c-0.7-2.1,0.5,0.3,1.7,3.2c-0.2-0.5-0.3-0.9-0.5-1.4c0.6,1.4,1.2,2.9,1.7,4.3c0,0,0-0.3,0-0.5
		c-1.1-2.8-1.9-5.3-1.8-5.9c0.1-0.4-2.3-5.8-2.5-6.7c-0.3-1.4-0.8-2.3-2.3-5.2c-1-1.5-2.4-3.6-3.3-5.1c-2.9-5.2-4.2-7.1-4.9-7.7
		c-0.6-0.6-0.4,0-0.6,0.1c-5.4-8.1-5.5-8.1-1.7-3.9c4.9,6.3,4.7,6.5,7.6,10.1c0.6,0.9,4,6.5,3.9,7c0,1.1,1.2,3.5,3.6,8.3
		c1.3,2.3,2.2,4.8,3.3,7.2c0.5,1.2,1,2.4,1.5,3.6c-0.4-1.1-0.8-2.2-1.2-3.4c-1.2-3.3-2.4-6.6-4-9.7c-3-7-6.1-12-6.5-13.7
		c-0.1-0.1-1.2-2.1-1.8-3.2c0.4,1.1-0.7-0.7-1.7-2.1c-1.1-1.4-2.1-2.4-0.8-0.4c3.6,6.7,0,0.5-4.2-4.8c-0.7-0.9-1.4-1.7-2.1-2.5
		c-2.3-3.7-6.4-7.4-9.5-11.1c-1.5-1.9-3.2-3.3-4.5-4.5c-1.3-1.2-2.4-2.2-2.9-2.9c-0.8-1-3.2-3-5.5-4.8c-2.4-1.7-7.5-4.3-4.1-2.1
		c3.3,2.1,4.5,3.7,5.2,4.4c0.6,0.8,0.5,0.9,0.2,1c-0.1,0,0.8,0.9,1.7,1.8c3,3,5.8,4.9,11,10.7c1.2,1.2,3.1,3.2,4.6,4.9
		c1.6,1.6,2.5,3.3,2.3,3.3c-0.2,0.1-1.1-1.3-2.4-2.7c-1.3-1.4-3-3.2-4.1-4.4c-1.6-1.6-4.4-4.5-4.4-4.5c-0.2,0-2.3-1.7-4.9-3.9
		c-1.4-1.2-5.1-4.4-3.2-3.2c0.9,0.5-0.6-1-2.8-3.1c-2.2-2.2-5.6-4-7.5-5.2c-0.7-0.4-1.2-0.7-1.8-1.1c-2.9-1.5-6.5-4-9.8-5.1
		c-6.5-2.9-10.1-4.5-12.6-5.2c-2.5-0.9-7.5-1.9-11.8-3.2c-1.2-0.4-2.8-0.8-4.2-1.2l-0.2-0.2c-1.5-0.4-2.4-0.8-2.7-1
		c-0.6-0.2-1.1-0.3-1.9-0.6c-2-0.5-2.9-0.3-4.7-0.5c1.7,0.4,3.5,0.8,0.1,0.3c-0.8-0.1-2.5-0.4-4.3-0.8c-1.4-0.2-2.9-0.4-4.4-0.7
		c-3.5-0.6-7-1.2-10.5-1.8c0.2,0.1,0.4,0.2,0.7,0.3c-1.8-0.3-4.9-0.3-5.4-0.4c-3.5-0.4-6.4-0.6-9.2-0.5c-3.8,0.1-7.2-0.3-8.7-0.6
		c-1.6-0.3-0.6-0.5-1.8-0.8c-0.5-0.2-3.6-0.5-5.5-0.3c-3.5,0.1-7.9,0.4-10.2,0.4c-3,0-3.7-0.3-6.5-0.3c-1.6,0-5.2,0.1-7.8,0.2
		c-1.2,0-2.3,0-3.5,0c0.9-0.1,1.7-0.2,2.6-0.2l23.4-0.7l3.4-0.2c-1.1,0-2.1,0-3.3,0c-2.1,0.1-4.3,0.1-6.4,0.2
		c-2.4,0-4.8,0.1-7.1,0.1c2-0.2,3.9-0.3,6.1-0.5c1.7-0.1,3.8-0.2,5.8-0.3l-9.1-0.2c-1,0.1-3,0.2-2.9,0.3c0.5,0.3-0.6,0.5-7.8,0.7
		c-5.1,0-10.4,1-15.1,1.6c-4.3,0.6-2.2,0.4,1.3,0.1c8-0.8,5.4-0.2,3.4,0.2c-3.8,0.7-7,0.8-9.9,1c-2.6,0.2-5.1,0.3-7.5,0.5
		c-3.6,0.2-7.4,0.4-13.3,1.4c-5.8,1.1-8.1,1.5-2.9,0.2c1.4-0.4,0.7-0.4,0.5-0.5c-0.1,0-1.8,0.2-2.4,0.3c-4.4,0.9-8.8,1.8-12.8,2.6
		c-1.1,0.2-1.8,0.5-1.2,0.5c0.6,0,2.7-0.3,4.3-0.6c4.9-0.7,4.7-0.5-2.3,0.8c-0.7,0.1-2.4,0.6-2,0.6c1.5,0,3.2-0.6,5.1-1
		c11.9-2.4,16.5-3.2,19.8-2.9c0.5,0-2.1,0.6-3.2,0.7c-4.6,0.7-9.1,1.6-13.7,2.4c-6,1.1-12.1,2.2-18.2,3.3c-0.8,0.1-2.4,0.6-2.3,0.6
		c0.2,0.1,0.9,0,2.1-0.1c0.6-0.1,2.8-0.5,4-0.7c2.2-0.4,4.3-0.7,6.4-1c-1.2,0.4-2,0.7-3.8,1.1c-4.9,1-10.3,2-15.4,3.1
		c-7.8,2.2-19.2,5.1-20.7,5.2c-2.6-0.1-8,2.4-18.3,5.4c0.1,0,0.1,0,0.1,0c-2.1,0.7-3.7,1.1-3.8,1c-2.6,0.7-3.3,1.1-3.5,1.2
		c-1.3,0.9-3.7,2.2-3.3,2.3c0.6,0,6-2.8,9.2-3.6c1.2-0.4,2.2-0.7,3.2-1c1.2,0.3-5.5,2.9-6.7,3.7c-0.8,0.5-5.6,3.1-10,4.8
		c-2,0.8-3.9,1.6-6.2,2.7c-1.1,0.5-2.4,1.1-3.7,1.8c-1.3,0.8-2.7,1.7-4.2,2.7c-5.2,3.5-12.5,7.4-18,12.2c-0.7,0.6-2.3,1.7-2.3,1.6
		c2.1-2-5.5,3.3,3.9-4.1c0.2-0.2,0.2-0.4,0.4-0.6c-7.2,5.8-10.5,6.9-15.1,11.4c-0.8,0.7-1.7,1.6-2.4,2.2c-1.2,1.3-2.5,2.6-3.4,3.5
		c-0.4,0.5-0.2,0.4,0.3,0c2.7-2.4,5.8-5.2,8.4-7.6c0.7-0.6,0.7-0.4,0.1,0.3c-0.7,0.7-3,3.1-3.7,3.7c-1.7,1.5-3.2,2.8-5,4.4
		c-0.9,0.8-1.8,1.6-2.8,2.6c-0.9,1.1-2,2.4-3.2,3.8c-2.7,3.4-2.9,3.2-1.3,1c2.6-3.6,2.8-4.1-2.4,2.2L40,90.7
		c-0.1,0.1-0.2,0.4-0.3,0.5c-3.1,3.6-3.5,5.8-3.4,6.2c0,0.1-0.8,1.6-1.5,2.7c-0.8,1.3-2.2,3.3-2.8,4.1c-0.9,1.2-1.3,1.6-2.1,2.6
		c-0.4,0.5-1,1.6-1.5,2.5c-0.3,0.7-0.6,1.5-0.8,2.1c-0.3,0.8-0.3,1.5-0.6,2.1c-1.3,2.7-2.8,5.3-3.9,8.1c-1.1,2.8-2.1,5.6-3.2,8.3
		c-0.5,1.3-0.9,1.8-1.4,2.7c-0.2,0.9-0.1,1.3-0.5,3c-0.8,4.4-2.4,9.6-2.7,13.8c-0.4,4.2-0.6,4.9-0.9,5.2c-0.3,0.2-0.4-0.1,0.6-6.3
		c1.1-5.5,1.8-7.5,0.7-5c-0.8,1.9-1.6,4.4-2.1,7.1c-0.1,0.5-0.4,2.6-0.6,4c0.5-1.1,0.4,1,0.1,3.9c-0.2,3-0.1,6.9-0.1,9.5
		c-0.1,2.8,0.2,6.6,0.6,10c-0.2,0.4-0.4,0.2-0.6,1.5c-0.1,1-0.3,3.6,0,5.9c0.2,2.3,0.3,5,1,6.5c0.1,0.7,1.7,5.7,2.7,8.7
		c0.4,2.8,1.6,5.4,2.6,8c1,2.6,2.1,5.2,3.2,7.9c0.6,1.5,2.1,5,2.1,5s0,0.2,0,0.2l3.3,6.5c0.3,0.6,0.7,1.2,1,1.8
		c2.3,4.4,5.6,10.2,7.4,12.6c3.4,4.7,6.7,9.1,10.5,13.7c4.7,5.8,9.9,11,13.7,15.2c1.1,1.2,5.6,5.1,8.6,7.7c-1.2-0.7-2.3-1.5-6.5-5
		c4.6,4.2,6.4,5.6,7.8,6.7c3.7,2.9,7.5,5.4,11.4,7.9l-6.5-4.6l-6.2-4.9c0.1-0.1,0.8,0.2,0-0.4c-3.9-3.6-2.4-2.5,0.8,0
		c6.2,4.9,12.4,9,20.1,13.7c1,0.7,2,1.2,3,1.8c-1.2-0.6-2.3-1.2-3.5-1.9c-0.9-0.5-2.1-1.2-2.9-1.7c-1.4-0.8-3.8-2.1-3.6-2
		c1.1,0.8,2.7,2,4.5,3.2c3.7,2.5,8.1,4.7,12,6.7c3.3,1.4,5.9,2.7,9.2,3.9c3.6,1.4,7.4,3.2,11.3,4.4c2.5,0.9,6.1,2,7.7,2.3
		c8.9,2.1,16.5,3.6,24.5,5.1c2,0.2,4.7,0.6,7.1,0.8c-1-0.2-2.9-0.5-2.8-0.6c0.2-0.1,2.4,0.1,3.7,0.1c10.2,1.7,24.2,0.9,34.7,1.2
		c8.5-0.8,17.1-1.1,26-2.1c4.4-0.4,10.3-1.2,14-1.9c2.4-0.5,3.5-0.7,4-0.7c-0.4,0.1-0.7,0.3,4-0.6c2.4-0.4,3.3-0.5,6.1-1.1
		c3.5-0.7,9.1-2.2,12.2-2.8c7-1.4,13.8-3.1,20.7-5c1.1-0.3,2.2-0.5,3.3-0.8c-0.5,0.2-0.9,0.3-1.4,0.5c-9.2,2.6-15.8,5.2-28,7.2
		c-1,0.2-2.9,0.6-3.5,0.7c-10.4,2.4-0.9,0.3-12.1,2.4c-1.2,0.2-2.3,0.4-3.4,0.6c1.5-0.2,3.3-0.3,4.6-0.6c9.7-1.9,7.8-1.1,7.8-0.8
		c0,0.1-1.5,0.5-2.3,0.8c7.7-1.5,5.3-0.5,10.8-1.6c5.1-1.1,5.6-1,3.9-0.5c-0.5,0.2-4.7,1-6.8,1.4c-5.5,1-10.6,1.7-16.2,2.6
		c-5.3,0.7-6.9,1.1-4.3,1.1c0.8,0,1.9-0.1-4,0.9c-1.3,0.2-1.8,0.3-0.1,0c-11.3,1.5-15.5,1.8-19.6,2.2c-0.9,0.1-1.7,0.2-2.6,0.4
		c0.5,0,0.9,0,1.5-0.1c8.6-0.5,17.4-1.3,26.7-3c0.7-0.1,1.4-0.3,1.2-0.4c-0.2,0-1.1,0-1.9,0.1c5.6-0.8,7.8-1.2,9.8-1.6
		c-0.5,0.2-0.4,0.4-1.8,0.7c-1.5,0.4-4.1,0.9-6.6,1.3c-3.4,0.5-7,1.1-10.5,1.5c-3.5,0.5-14.4,2.1-13.4,2.1c2.7,0,5.7,0,9.4-0.3
		c1.5-0.1,5.4-0.6,7.8-0.9c6.2-0.8,11.2-2.2,15.9-2.7c2.2-0.2-3,1.2-2.9,1.5c0.1,0.4-3.7,1-8,1.6c-6.6,1-6.4,0.7-3.1,0
		c2.8-0.6,1.6-0.5-2.1,0.1c-2.3,0.3-5.2,0.9-6.4,1c-3,0.3-5,0.4-8,0.5c-1.3,0.1-3.8,0.3-5.7,0.5c0.7,0,1.5,0,1.9,0.1
		c0.2,0-0.1,0.1-0.8,0.2c-4.5,0.6,6.1-0.1-1.8,0.7c3.1-0.2,6.4-0.5,9.1-0.7c2.9-0.2,5.2-0.4,7.7-0.6c-2,0.3-3.9,0.8-6,1
		c-6.1,0.7-6.6,0.8-6.6,1.1c0.1,0.4,5.2-0.1,9-0.6c7.1-0.8,5-0.2,4,0c-2.6,0.7-4.4,0.5-7,0.8c-3.9,0.4-7.7,0.5-11.5,0.9
		c-5.3,0.3-10.7,0.8-15.9,0.9c-1.1,0-2.2,0.3-1.8,0.3c0.5,0.1,2.9,0.1,4.4,0.2c2.1,0,4.6,0,6,0c0.8,0,0.2,0.2-0.9,0.3
		c-1.1,0.1-5,0.4-5.5,0.3c-6.5-0.4-10.9,0-17.4,0.1c-10.7,0-13.5,0.1-30.9-2.3c-2.2-0.4-4.8-0.7-6.4-1.1c-2.9-0.5-5.4-0.9-7.6-1.2
		c-0.6-0.1-0.4,0.1,0.3,0.3c1.6,0.4,5.2,1.2,5.4,1.2c6.9,0.9,17.1,2.3,25,3.3c6.9,0.7,13.4,1,20.3,1.1c1.9,0,3.7,0,5.5,0.1
		c-1.5,0.1-2.9,0.2-4.6,0.3c-3.3,0.1-9.9-0.1-9.2,0.3c0,0-1.2,0-2.6,0c-1.3-0.1-2.7-0.1-2.9-0.2c-3.8-0.6-6.2-0.4-9.7-0.7
		c-2.3-0.1-6-0.4-9.2-0.8c-5.1-0.7-10.5-1.4-15.5-2.5c-1.4-0.3-3.2-0.4-2.8-0.3c1.6,0.4,5.5,1.3,5.7,1.4c3.8,0.6,8.6,1.3,13.7,2.1
		c2,0.2,4,0.5,6,0.7c-2-0.2-4.6-0.4-6-0.5c-3.5-0.4-3.7,0,3,0.8c1.6,0.2,2.6,0.5,3.8,0.7c-1.8-0.2-3.6-0.3-5.5-0.5
		c-2-0.2-4.3-0.6-6.3-0.9c-15.5-3-15.4-3.1-28.5-6.6c-1.8-0.6-3.9-1.3-5.9-1.9c-1.9-0.6-4.5-1.8-5.3-2.2c-0.8-0.4-0.4-0.4,0.7-0.1
		c3.6,1.3,7.9,2.4,11.8,3.5c1.3,0.4,2.2,0.5,3.3,0.7c-2.7-0.7-5.4-1.8-7.8-2.6c-3.1-0.9-6.1-2.1-8.7-3.1c-7.2-2.5-15.9-7-21.8-10.7
		c-5.2-3.4-7.4-4.6-8.1-4.9c-1.8-0.9-6.6-3.7-11.7-7.6c-4.2-3-7.1-5.6-10.6-8.9c2.6,2.1,4.9,4.1,7.8,6.4c5.8,4.4,9,6.8,3.5,2.1
		c0,0,1.4,0.9,2.4,1.7c2.1,1.6,6.5,4.6,6.5,4.6c-0.1-0.5-4.2-3-6.2-4.7l-6.7-5.3l-6.4-5.6c3.7,3.6-0.3,0.2-0.7,0.2
		c-0.5,0-3.6-3.2-5.9-5.4c-4.3-4.4-8.3-8.9-12-13.8c-0.8-0.9-1.7-2-2.5-3c0.2,0.3,0.4,0.7,0.5,0.8c5.6,6.8,6.4,9,13.5,16
		c6.5,7.4,15.4,14.5,24.1,20.7c1,0.7,1.9,1.4,2.9,2.2c-0.9-0.6-1.9-1.2-2.9-1.9c-2.7-1.8-5.2-3.7-7.6-5.6c-2.4-1.9-4.8-3.7-7.1-5.6
		c-4.8-3.7-9.8-8.7-11.8-11.5c-0.8-1.3-4.5-5.2-7.5-8.7c-2-2.5-5.2-6.1-5.1-6.7c0-0.5-2.1-3.4-4.1-6c-1.7-2.1-3.3-4.5-3.6-4.6
		c-0.5-0.2,2.5,4.3,4.4,6.8c0.4,0.6,0.9,1.3,1.3,1.8c1.3,1.9,2.6,3.8,4.1,5.5c-1.4-1.6-2.7-2.9-4.1-4.9c-2-2.6-5.2-7.1-5.8-8.4
		c-2.9-5.2-7.2-12.1-10.7-19.4c-2.4-4.6-2.6-5.7-2.2-5.5c0.5,0.3-0.2-1.6-2.4-5.9c-2.4-5.1-4.1-9.5-4.2-12.1c0,0-0.3-1-0.4-1.7
		c0.1,0.2,0.1,0.3,0.2,0.6c-0.6-1.7-1.2-3.4-1.7-5c-1.1-2.5-2.2-7.4-2.8-13.3c-0.7-7.7,0.8,2.6,1.5,5.3c0.2,0.8,0.5,2.4,0.6,3
		c0.3,1.1,0.6,1.6,0.9,2.3c-0.6-2.5-0.8-5.3-1.3-7.6c-0.3-2-0.7-4-0.9-6l-0.4-6l-0.4-6c0-2,0.1-4,0.2-6c0-1,0.3-3.1,0.4-4
		c0.1-0.5,0.2,0.4,0.1,1c-0.1,3.4-0.6,7.2-0.3,10.5c0.5,3.7-0.1,7.4,2.6,21.8c0,0.8,0.2,1.6,0.4,2.4c0.5,2.3,2.3,8.4-0.2-1.2
		c0.8,0.8,2.3,7.6,4.4,13c0.5,1.1-0.6-2.7-0.6-4.3c-0.8-2.5-1.6-5.3-2.3-7.5c-0.5-1.5-0.7-2.1-1-3.1c0-0.5,0-1.1,0.1-1.4
		c0.1-0.3,0.2,0.1,0.3-0.2c0-0.2,0-1.1,0-1.6c-0.2-0.9-0.4-2-0.5-2.7l-0.2-1l0.7,4.7c-0.6-3.6-1.8-7.8-2-12
		c-0.1-0.6-0.2,0.4,0.2,4.9c0.2,1.3,0.4,3.4,0.3,3.2c-0.3-1.1-0.8-3-1.1-4c-0.1-0.3,0,1.3,0.1,2c-0.7-4.2-0.4-5.7-0.5-6.7
		c-0.8-10.7,0.4-13.6,0.8-15.9c0-0.2,0.1,0,0.1-0.1c0.5-6.6,1.6-8.3,2.9-15c0.2-1.3,0.5-2.7,0.8-4.2c0.4-1.5,0.8-3,1.3-4.6
		c0,0-0.1,0-0.1-0.1c0-0.1,0.9-3.6,0.9-3.6c0.6-1.2,1.1-4.4,2.2-7.2c1-2.8,2-5.4,2.4-5.6c0.4-0.3,3.9-9,1.2-0.9
		c0.4-0.9,0.7-1.5,1.2-2.7c0.4-0.9,1.2-3.3,1.3-3.4c0-0.6-0.2-0.8-0.2-1.4c0-0.2,0.4-1.3,0.7-2c0.8-1.4,0.9-2.9,1.5-4
		c0.9-1.5,1.7-2.7,2.5-4c0.1-0.6,0.4-1.5,0.3-1.7c-0.1-0.4,0-1.4-0.9-0.3c-0.7,0.9-0.4-0.1,0.4-1.8c0.9-1.6,2.3-3.9,3.5-5.8
		c-1,1.6-2,3.1-3.4,5.1c0.8-1.2-1.1,1.8-1.4,2.2c0,0,0-0.1,0-0.1c-0.9,1.7-1.8,3.5-2.4,4.7c-0.2,0.3-0.7,1.1-1.1,1.7l1.4-2.9
		c-0.3-0.1-0.7,0.1-0.7-0.6c0-0.2,1.4-3.2,2.2-4.9c0.7-0.9,1.7-2.4,2-2.7c1.1-1.1-1.4,3.1,0.2,1.2c0.4-0.7,0.7-1.2,1.3-2
		c1.4-2.3,2.9-4.5,4.3-6.8l2.1-3.4l2.5-3.1c0.2-0.3,0.5-0.6,0.8-0.9c-0.1,0.1-0.1,0.1-0.2,0.2c-2.8,2.7-5.7,7.2-8.3,10.8
		c-0.4,0.6-0.5,0.5-0.2-0.1c0.7-1.3,2-3.4,2.9-4.7c1.4-2.2,2.8-3.7,4.4-5.6c0.6-0.8,1.7-2.1,2.4-3.1c0.2-0.2-0.1,0-0.5,0.4
		c-0.9,1-2.1,2.4-3.1,3.4c-0.5,0.5-0.8,0.8-1.2,1.2c0.8-1,1.6-2,2.4-3c4.3-5.3,6.9-8.3,9-10.1c0.6-0.5,1.4-1.1,2.1-1.7
		c0.4-0.5,0.3-0.6,1.2-1.6c1.3-1.3,3.3-3.3,5-5.1c0.5-0.3,1.7-1.3,1.3-0.9c-3.3,3.5-3.7,4.2-2.4,3.3c0.9-0.6,6-5.4-1,1.5
		c-2.5,2.6-4.6,4.6-6.6,7.3c-0.2,0.3-0.7,0.7-0.9,1c-1.7,1.7-3.3,3.4-5,5.3c-0.1,0.1-0.1,0.1-0.2,0.3c-1.5,2.1-2.9,3.8-4.7,6.5
		l0.1-0.1c0,0.2,0.6-0.3-0.1,0.9c-5.8,9.6-6.1,11.1-4.9,10.4c0.6-0.4,1.6-2,3.3-4.9c1.1-1.8,2.6-4.2,3.9-6.4
		C35.6,82.7,37.8,80,39,78l1.5-2.5c1.4-1.5,3.2-2.9,4.4-4l1.5-1.3c0.1-0.1,0-0.1,0.2-0.2c1-1,2.2-2.4,3.3-3.5c2.7-2.8,4-4.5,3.9-4.8
		c0-0.1-0.3,0.1-0.6,0.2c-0.2,0.2-0.2,0.2-0.4,0.5c-0.7,0.8-3.1,3.2-4,4c-1.8,1.6-3.1,2.7-5.9,5.1c2-2.1,4.2-4.4,6.8-7.1
		c1.5-1.5,3.5-3.6,5.6-5.1c0,0-0.1,0.1-0.1,0.1c0.8-0.6,1.7-1.3,2.7-2l2.5-2.1c-1.5,1.1-3.3,2.3-4.5,3.2c-1.2,0.8-1.9,1.2-2.8,1.8
		c2-1.6,5-4,5.8-4.6c3.5-2.4,8.7-6.3,8.9-5.9c0,0,9.6-5.5,10.2-6.2c1.3-1.3,5.9-4.4,10.7-6.7c1.8-0.9,6.2-2.9,8.6-4.3
		c0.6-0.4-1,0.3-1.5,0.4c-0.4,0.1-0.6,0.1-0.8,0.1c1.8-0.8,4.1-1.9,5.3-2.5c0.7-0.3,1.1-0.4,1.6-0.7c0.5-0.4,4.1-2.3,7-3.2
		c0.7-0.2,1.4-0.5,4.1-1.5c0.6-0.2,2.9-1,5.2-1.8c-1.5,0.7-2.5,1.3-4.5,2.1c-2.8,1.3-5.6,2.1-8.3,3.1l0.2,0.5
		c-2.3,1.1-4.3,2.1-6.1,3c0.7-0.3,1.5-0.7,2.2-1c1.1-0.4,2-0.8,2.8-1.2c0.6-0.2,0.9-0.3,1.4-0.5l-2,1c0.7-0.3,1.9-0.7,1.9-0.7
		c0.2,0.1-5.7,3.2,0,0.7l-2.5,1.4c1.4-0.6,2.6-1.2,4.2-1.9c1.5-0.6,3.3-1.4,5.6-2.3c4.9-2.1,9.4-4,14.4-6.1c1.2-0.6,3.7-1.2,5.6-1.7
		c0.3,0.1,1.7-0.1,0.7,0.2c-2,0.7-5.1,1.7-1.3,0.8c5.3-1.3,11.3-2.7,17.5-4.2c3-0.8,7.1-1.9,10.7-2.6c0,0.1-0.7,0.5,0.3,0.4
		c1.2-0.1,3.8-0.4,5.8-0.6c1.5-0.4,3.5-0.9,4.3-1.2c1.4-0.5,1.8-0.9,3-1.4c0.9-0.4,6.3-1.5,8.9-1.8c6.1-0.8,12.1-1.7,18.2-1.9
		c0.8,0,1.2,0,1.8,0c-1.2,0.2-2.4,0.3-3.7,0.5c-4.1,0.4-8.6,1.3-12,2c-2.5,0.5-5.5,1.4-4.7,1.3c2.8-0.2,4.1-0.9,6.9-1.4
		c2.7-0.5,6.5-1.2,8.1-1.2c5.9-0.4,4.3-0.5,6.7-0.9c2.6-0.5,9.1-1.3,14.2-1.9c4.6-0.5,10.8-1.5,14.1-1.3c4.9,0-1.9,0.4-2.9,0.7
		c-1,0.2,2.6,0.3,6.4,0.1c3.6-0.2,6.4-0.6,6.9-0.1c0,0,5.3,0,6.4-0.1c2.6-0.2,4.3-0.4,6.3-0.6c2.4-0.1,6.1-0.3,6.9-0.2
		c-1.5-0.8-3.2-1.3-4.9-2c0.1-0.1,0.4-0.1,0.2-0.2c-0.1,0-0.6,0-0.8-0.1L256.6,2c-1.1,0-2.1,0.1-3.2,0.1c-1.4,0-3,0.1-4.3,0.1
		c-0.7,0-1.5,0.2-1.2,0.2c8.7,0.2-3.6,1.5,11.7,1.4c0.3,0-2.6,0.4-4,0.7c-2.7,0.1-6.6,0.2-7.8,0.2c-4.2-0.2-5.7-0.7-5.3-1.4
		c0.3-0.5-0.1-0.5-9.1,0c-8.3,0.5-8.2,0.9-12.8,0.7c-1,0-8.6,0.7-10.7,1c-4.2,0.6,0.5,0.2,1.5,0.1c1.6,0,3.2-0.1,4.9-0.1
		c-4.7,0.7-9.4,1.3-14.3,2c-0.4,0-3.1,0.2-2.8,0.1c1-0.3,2.9-0.8,3.9-1c0.4-0.1-1.5-0.1-1.8-0.1c-9.6,1-13.9,1.9-19.3,2.5
		c-3,0.4-3.5,0.5-4.8,1c-2.1,0.7-4.4,1.5-8.9,2.5c-7.1,1.5,1.4,0.5-7.7,2.3c0.9-0.5-2.4-0.3-8.2,1c-2.5,0.6-6.1,1.6-7.8,2
		c-1.7,0.4-7.9,1.9-3.2,0.5c2.2-0.7,6.3-1.9,8.4-2.4c3.6-1,6.3-1.3,9.7-1.7c0.7-0.1,2.6-0.5,3.8-0.7c0.3-0.1,0.1-0.1-0.5-0.1
		c-3,0.4-3,0.3-0.7-0.4c7.1-1.9,18.2-3.9,28.5-5.8c3.9-0.7,3.8-0.7,1.2,0c-0.4,0.1,1.2,0,1.6-0.1c3.3-0.4,9-1.2,9.2-1.2
		c0.9-0.6,3.9-0.8,9.7-1.3c4.4-0.3,9.7-0.8,14.8-1.4c2-0.3,3.7-0.7,6.6-0.9c3.3-0.2,7.8-0.5,11.6-0.8c7.7-0.5,10.3-0.6,9.8-0.1
		c-0.4,0.3,2.4,0.4,5.7,0.5l-0.7-0.1c2.7,0,6.1,0.3,8,0.3c3.3,0.1,6.3,0.2,9.1,0.4c4,0,7.5,0,8.9-0.2l-0.5,0
		c-1.4-0.2-3.3-0.4-4.2-0.6c-2.2-0.4-3.9-0.3-5.6-0.3c-1.6,0-3.1,0-4.8-0.1c-0.2,0-0.3,0-0.5,0c-1.7,0-5-0.3-7.5-0.4
		c-1.4-0.1-2.9-0.2-6.4-0.1c5.1-0.4,8.5,0,11.8,0c1.1-0.2,3.6-0.2,5.7-0.1c3.5,0.3,6.9,0.5,10.3,0.8l5.1,0.4l5,1
		c0.2,0,0.3,0.1,0,0.1c-1.7-0.2-3.4-0.4-5.1-0.6c0.9,0.5,2,1.1,3.1,1.7c2.4,0.4,5.8,1.1,5.9,1.1c0.1,0.4,3.2,0.9,6.4,1.2
		c5.6,0.5,10.5,1.7,10.7,2.5c5.3,0.8,2.5-0.4,12.4,2.5c1.6,0.5,3,0.7,4.7,1.2c1.3,0.3,3,0.8,4.5,1.5c0,0.1,0.2,0.3-0.2,0.2
		c-0.9-0.3-3.4-0.8-3.2-0.5c0.2,0,4.1,1.8,6.3,3c5.6,2.1,11.9,5.3,14.8,6.8c2.7,1.5,5.8,3.3,8.8,5.2c3,1.9,6.1,3.7,8.4,5.7
		c1,0.8,3.2,2.6,3.6,2.9c2.6,2.5,7.6,6.6,6.9,6.8c-0.6,0,1.9,2.7,6.2,7c1.2,1.3,2.8,2.7,4.1,4.3c1.3,1.7,2.6,3.4,3.8,5.1
		c-0.5,0.6,4.1,5.4,5.8,8.6c0.6,1.1,1.7,3.1,1.6,3c-0.3-0.4-1-1.2-1.5-1.9c1.3,2.2,3.2,5.4,3.8,6.3c1.8,2.3,3.2,5.6,4.8,9.1
		c1.7,3.4,3.2,7.2,4.5,10.8c-0.2,0.1-0.6-0.3-0.5,0.4c0,0.2,0.5,1.7,1.3,4.6l-0.2-0.6l0.3,0.8c0.2,0.9,0.4,1.8,0.7,3
		c0.5,2.8,0.2,1.9-0.1,0.9c0.2,0.9,0.2,1.4,0.5,2.9c0.3,1.1,1,3.5,1.5,5.3c-0.5-1.8-1.2-3.4-1.7-5.2c-0.6-1.9-1.5-4.4-1.9-5.7
		c-0.4-1.1-0.6-1.2-0.7-1c0,0.1,0.8,2.6,0.9,3.1c3,8.4,5,15.5,6.2,22.5c0.7,2.1,1.7,6.7,2.7,11c1.2,4.3,1.3,8.4,2,9.5
		c0.1,0.2,0.8,4.4,0.8,5c0.9,7.3,1.2,13.3,1.6,19.9c0.1,2.2,0.4,3.7,0,6.4c-0.1,1.3-0.5,6.3-0.4,6.9c0,1.3,0.2,1.6,0.4,0.5
		c0.1-0.9,0.5-4.7,0.6-6.9c0.3-6.8-0.6-12.7-0.7-20.1c-0.2-1.4-0.3-3.2-0.2-3.2c0.1,0,0.4,1.8,0.7,3.3c0.2,2.9,0.5,8.8,0.5,8.9
		c0.1-0.4,0.3-4.8,0-9.9c-0.6-5.1-1.4-10.9-1.9-14.5c-0.4-3.4-1.3-6.9-0.7-2.9c0.2,2.8-0.4,1.5-0.6,1.8c-0.4,0.4-0.5-0.5-2.2-8.9
		c-0.2-0.7-0.6-2.4-0.7-2.9c-0.8-2.7-1.7-6-2.1-8.6c-0.5-3.2,0.8,1.7,1.7,4.7c0.5,1.9,1.3,5.3,1.9,7.9c0.3,1.2,0.6,2.3,0.9,3.4
		c-0.2-1.1-0.4-2.2-0.6-3.2c-1.5-6.3-2.7-12.1-2.8-13.6c0-2.1-0.8-4.2-2.5-9.5c-0.8-2.4-1.9-5.5-2.9-8.6c0.3-0.5,1.2,2,2.6,6.5
		c1.3,4.4,2.7,8.6,3.8,12.8c0.9,3.6,1.3,3.9,0.6,0.5c-1-4.9-2.5-9.9-3.9-14.9l0,0c1,1.2,4.4,13.4,5,14.5c0,0.1,0.8,3.2,0.9,3.9
		c0.2,1.3,0.5,3,0.3,2.5c-1.3-4.4-1.1-2.5,0.1,3.2c1.3,5.6,2.1,10.2,1.6,10.2c0.2,1.5,0.6,4,0.6,4.2c0.5,1.5,1,2.7,1.5,4
		c-0.9-8.3,1,4,0.7-0.3c-0.3-3.8-0.3-6-0.2-7.9c0-1,0.4,0.5,0.7,0.8c0.4,3,0.8,6.5,1.1,9c0.3,3.6,0.8,6.8,0.6,9.5
		c-0.1,4.2-0.6,4.6-0.9,0.2c-1-10.5-1.1-5.8-1.3-6.2c-0.4-0.4,0.3,3.8,0.5,8c0.4,5,0.1,5.4,0.2,8c-0.1-1-0.3-2-0.4-3.1
		c0-0.4-0.1-1-0.1-1.5c-0.4-9.8-0.5-6-0.5-1.9c0,2.1,0,4,0,6.5c0,1.3,0.3,3.8,0.2,5.7c0.2-10.6,0.8,2.7,1,0.7
		c0.4-1.5,0.3,0.3,0.1,5.9c0,1,0,2.3,0,2.3c0.7-5.8,0.6-3.3,0.1,3c-0.4,5.2-1.7,10.4-2.5,15.6c-0.4,1-0.3-0.5-0.5-0.6
		c-0.1,0-0.2,0.3-0.5,1.4c-0.4,1.1-1,3-2,6.3c-0.9,2.7-1.1,2.6,0.3-2.5c0.7-2.3,1.8-6.8,0.6-2.8c-2.1,6.7-3.4,11.5-4.7,13
		c0,0.1-1.1,2.7-1.6,3.9c-0.3,0.6-0.4,1.3-0.3,1.1c1.9-3.9,1.8-3.3-0.5,2c-0.6,1.7-2.4,4.2-2.4,4.4c-1.4,2.6-2.7,5.3-4.3,7.5
		c-1.6,2.2-3.2,4.3-4.6,6.2c-6.9,8.3-5.9,6.3-9.3,9.4c-2.8,2.6-5.7,4.6-7.2,6.3c-0.3,0.3-0.4,0.6-0.9,0.9c-2.8,2.1-5.8,4.1-9,5.8
		c0.9-0.5,2.7-1.8,2.2-1.6c-0.7,0.3-1.5,0.5-2.4,0.8c-0.5,0.2-0.9,0.3-1.5,0.5c-0.4,0.1-0.7,0.2-1.1,0.4c-1.9,1.1-4.5,3.2-7.5,7.3
		c-0.5,0.9-1.5,2.4-2.1,3.7c0.1,0.1-0.1,0.7,0.2,0.1c3.2-4.9,3.4-4.9,0.6,1c-0.4,0.8-0.8,2-1.3,3.1c-0.4,1.2-0.7,2.6-1.1,3.7
		c-0.4,1.3-0.6,2.4-0.7,3.6c0.3-2.3,1.3-4.4,1.9-6.6c-0.3,1.3-0.6,2.4-1,3.8c-0.6,2.3-1.1,6.7-1.2,6.9c0,0.2,0,0.6,0.1,0.8
		c0.2-0.1,0.7-1,1.3-3.6c0.3-1.8,1.2-4.9,2.1-7.4c1.1-2.4,2.1-4.3,2.1-3.8c0.1,0.4-0.7,2.1-1.4,4.3c-0.6,2.2-1.5,4.6-1.8,6.4
		c-0.4,1.5-0.6,1.8-1,3.4c-0.3,1.8-0.4,5.2-0.7,6.7c-0.3,1.8-0.3,2.8-0.6,1.6c0,1.1,0,2.1,0.1,3.2c-0.1,4.3,0.5,9.1,2.1,15.1
		c1.9,5.5,2.5,8.6,4.2,13.1c0.2,0.5,1.6,4,2,4.8c0.3,0.7,0.4,0.2,0-0.8c-0.7-2-0.5-2.2-2.5-7c-1.6-4.5-1.7-6.3-2-7.5
		c-0.1-0.6,0.8,1.7,1.3,3.1c1.3,3.7,1.8,5.3,2.2,6.8c1.4,4.1,2.2,7,4.6,11.1c0.5,0.9,1.7,3.3,2.1,4.3c0.5,1,0.3,1-0.8-1
		c-2.6-4.6,4.9,11.3-0.8,0c1.5,3.7,3.2,7.2,5.1,11c1.6,3.2,2.7,5.4-0.2,0.6c-1.6-2.9-3.2-5.6-4.5-8.1c-1.3-2.6-2.5-5.3-3.3-7
		c-0.1-0.3,0.8,1.3,1.3,2c-1-2.2-2-4.3-2.8-6.7c-0.5-1.2-1-2.7-1.6-4c0.2,1.1,0,1.3,0.7,3.4c0.4,1.3,0.8,3.1,1.6,4.9
		c0.4,0.9,0.8,1.8,1.2,2.8c0.6,1.1,1.1,2.3,1.7,3.4c1.7,3.2,4.3,8.2,6.6,12c2.3,4.1,4.6,8,6.7,11.5c2.7,4.4,2.4,3.6,1.2,1
		c-0.2-0.5,2,3.1,3.3,5.3c1.3,1.8-0.5,0.4-1.3,0c-0.9-0.5-1.8-1-2.5-1.5c-1.6-1-2.9-1.8-4-2.5c-2.3-1.5-3.7-2.5-4.7-3.5
		c-1.7-1.5-5.1-3.7-14.8-9.3c-1.5-0.9-3.4-2-5.1-3c-1.4-0.9-2.6-1.6-3.2-2c-5-3.4-11.1-7-16.9-10.7c-4.5-2.8-4.3-2.9-3.2-2.4
		c1,0.4,3.5,1.8,3.1,1.4c-2-2,7.1,3.9,11.3,6.3c5.2,3,6,3.8,7.6,5c1.1,0.8,3.6,2.5,5.6,3.9c0.8,0.3,1.2,0.4,2.4,0.9
		c0.6,0.3,2.5,1.4,9.3,5.7c-0.3,0,0.4,0.5,0.5,0.3c4.6,2.8,7.9,4.9,10.3,6.3c0.5,0.4,0.2,0,0.1-0.3c-0.1-0.3-0.3-0.5-0.4-0.7
		c-0.3-0.5-0.5-0.9-0.7-1.2c-0.4-0.7-0.6-1.2-0.8-1.6c-2.5-5.1-2.6-5.3-4.7-8.8c-2.3-3.7-3.5-6.2-5.1-9.6c-0.7-1.7-1.6-3.7-2.3-5.5
		c-0.7-1.5-1.4-2.9-2.1-3.6c0,0-0.8-2-1-2.6c-0.5-1.6-1.4-4-1.4-4.2c0.1-0.6-0.4-2.1-2.3-6.9c-1-3.1-3-9.2-1.8-4
		c0.3,1.6,0.3,2,0.5,3.2c0,0.1,0.8,2.8,1.2,3.4c0.5,1,0.8,1.4,1.1,2.1c0.2,0.5,0.3,1.1,0.5,1.4c0.4,1.2,1.2,3.8,1,3.3
		c-2-4.2,0.6,2.8,0.5,3.2c2.9,6,4.8,9.7,5.9,12.4c1,2.7,1.8,4.3,3.4,7.3c0.7,1.2,1.2,2.3,1.8,3.5c0.4,0.6,0.8,1,1.4,1.8
		c0.7,1,1.9,2.7,2.5,3.8l0.5,0.9l0.1,0.2l-0.2-0.1l-0.5-0.3l-1.9-1.2l-3.9-2.4c-0.1,0.1,0.5,0.7-0.6,0.3c-0.9-0.4-1.3-0.5-1.5-0.5
		c-7.3-5.1-11.2-7.6-20.7-13.5l-7.1-4.9c-4.1-2.9-1.2-1.6-3.8-3.6c-4.4-3.2-0.7-1.2,0.7-0.7c2,0.7-3.6-2.3-5.1-3.3
		c-2.9-2-5.1-3.5-7.6-5.2c-4.2-2.3-6.4-4.1-7.3-4.8c-0.8-0.6,0.8,0.1,2.5,1.1c4.9,2.7,2.8,1.8,4,2.7c3.6,2.6,8.1,5.4,11,6.8
		c0.9,0.5,3.4,1.9,4.9,2.8c3.3,1.8,7.1,4.1,11.5,6.8c0.1,0,0.9,0.3,0.3-0.1c-4.5-3.2-5.1-3.7-0.4-0.9c1.5,0.9,2.7,1.6,3.7,2.1
		c0.9,0.5,0.8,0.4,1.1,0.5C368.8,353,368.8,352.8,368.7,352.6z M246.8,1.5c-0.2-0.1-1.5-0.1-2.2-0.1c-0.5,0-1.5,0.1-1.5,0.1
		c1.5,0.5-14.8,0.7-13.6,1.3c0.2,0,1,0.1,1.5,0.1C238.5,2.8,248,1.9,246.8,1.5z M197.5,319.6c-11,0.4-11,0.2-10.8,0.8
		c0.1,0.2-0.4,0.5,6.1,0.3c5.2-0.2,9.9-0.7,14.8-1.1c-1.5,0-2.5-0.2-4.7-0.2C201.3,319.4,198,319.6,197.5,319.6z M179.9,317.3
		c1.7,0.1,2.9,0.2,3.4,0.4l-3.3,0.1c1,0,2.6,0,3.7,0c0.1,0-0.3-0.1-0.4-0.1l2-0.1c8.2-0.1,17.1-0.8,4.5-0.5
		C186.5,317.1,182.4,317.2,179.9,317.3z M167,321.9c8.3,0.4,15.7,0.9,24.6,0.5c10-0.5,2.8-0.8-6.3-0.6c-3.8,0.1-7.7-0.1-11.5-0.1
		c1.5,0,3.1,0.1,4.5,0.1C174.1,322,165.7,321.5,167,321.9z M153.7,322.1c1.8,0.4,4.9,0.7,8,0.9c0.8,0.1,2.8,0.2,4.2,0.3
		c-0.5,0.2,1.6,0.5,5.9,0.7c4.2,0.1,7.8-0.1,11.2-0.1c0.4,0-1.1-0.3-2.3-0.3c-2.7-0.1-5.7-0.1-8.6-0.2c-3.6-0.2-7.5-0.5-10.7-0.7
		C158.4,322.4,153.3,322,153.7,322.1z M110.5,314.2c-3.1-1.5-1.9-1.3-9.2-4.5c-10.7-5-12.6-5.4-12-4.7c0.6,0.6,4,2.2,13.1,6.4
		L96,308c1,0.5,2,0.9,3.1,1.4c5.2,2.5,8.2,3.5,8.6,4.2c5.2,2.2,9.3,3.2,11.1,3.7C121.3,318,113.9,315.7,110.5,314.2z M110.8,312
		c2.9,1.1,5.3,1.6,7.8,2.4c-2.9-1.1-5.7-2.1-8.8-3.5c-0.8-0.4-3-1.1-4.7-1.7c-1.8-0.7-3.6-1.8-5.7-2.8c-1.2-0.6-4.1-1.8-4-1.8
		C96.6,305.5,106.7,310.6,110.8,312z M114,307.8c4.3,1.4-2.8-1.7-2.5-2c0.3-0.2,0.3-0.2,2.9,0.8c1.7,0.6,3.6,1.3,6.9,2.5
		c5.2,1.8,13.6,3.7,15.3,3.6c1.5,0-0.9-0.6-3.8-1.3c-2.8-0.8-6-1.6-6.2-1.7c4.3,1.7-4.6-0.7-9.8-2.5c-1.1-0.3-1.8-0.6-2.4-0.8
		c-1.8-0.8-3.5-1.5-6.8-2.6C97.8,300.1,108.8,305.4,114,307.8z M105.1,305.6l4.2,2.1c6.2,2.5-3.6-1.8-0.6-0.9c5.7,2,8.8,2.7,8.4,2.6
		c-0.3-0.1-4-1.2-11.5-4.2c-8.3-3.6-13.2-6.2-13.7-6.4C91.5,298.6,95.3,301.1,105.1,305.6z M72.7,292c-1-0.8-2.5-1.7-3.6-2.7
		c0.2,0.3,0.1,0.4,0.8,1c3,2.6,8.9,6.7,16,11c3.3,1.9,6,3.3,8.4,4.5c2.5,1,4.8,2,7.2,3c1,0.4,0.7,0.1,1,0.1c-1.4-0.6-3.7-1.7-4-1.9
		c-3.7-1-13.4-6.8-17.6-9.2C80.6,297.9,75.5,294.2,72.7,292z M64,282.3l6.6,5.3c9,6,2.6,1-3.8-3.9c-2.7-2-1-0.2,0.2,1
		C66,283.9,64.9,283.1,64,282.3z M55.4,280.3c0,0.4-1.5-1,1.9,2.3c2.1,2.2,8.4,7.3,9.8,8.3l1.9,1.4c6.9,4.1-9.4-7.8-7.9-8
		C54.4,278.3,55.3,279.9,55.4,280.3z M20.3,235c-2.1-4.3-5.1-10.9-6.5-13.2c-0.8-1.4,0,1.3,0.7,3.4c0.8,2.1,1.3,3.6-0.8,0
		c-1-1.9-2.6-5.9-3.4-7c-0.9-1.4,0.1,1.5,1.9,5.9c0.1,0.1-0.2-0.3,2.9,4.9C17.1,232,25.7,245.5,20.3,235z M27.1,249.4
		c-1-1.8-2-3.5-3.1-5.4c-0.9-1.3-1.9-3-2.6-4.3c-0.2-0.4-0.4-0.8-0.6-1.1c-0.8-1.2-0.5-0.3-1-0.8c0.3,0.7,0.8,1.9,1.4,3.1
		C23,243.8,25.2,246.5,27.1,249.4z M50.6,276.9c-4.1-4-7.8-8.4-11.5-12.8c-2.6-3.2-6-7.1-7.9-9.6c-1-1.3-0.3,0.2-0.3,0.4
		c1.5,2,3.2,4.4,4.5,5.9c1.6,1.8,2.6,2.9,4.3,4.7c1.3,1.5,3.5,4,4.9,5.5c1.1,1.2,1.3,1.8,2,2.6c1.7,1.5,3.4,3,4.6,4
		C50.8,277.2,50.9,277.2,50.6,276.9z M42.3,255.1c1.2,1.5,2.4,2.7,4.2,5c1.4,1.6-0.9-0.5,1.2,1.8c3.5,3.8,2.2,1.9,0.9,0.2
		c-1-1.2-1.9-2.3-2.8-3.5c0.7,0.8,1.2,1.4,1.5,1.7C41.6,253.3,36,246.7,42.3,255.1z M23.3,238c0.8,1.5,1.7,3.3,2.4,4.4
		c1.6,2.7,3.3,5.9,6.2,9.6c0.3,0.4,0.6,0.8,1,1.2c1.8,3.3,5.4,8,10.3,13.2c0.8,0.8,1.5,1.5,2.2,2.2c-0.5-0.6-0.9-1.1-1.6-1.9
		c-3.2-3.6-6.1-7.5-9-11.5c-0.8-1.1-1.7-2.4-2.6-3.6l0,0c-0.7-1.2-1.4-2.3-2.1-3.6c-0.5-0.9-2.5-4.1-2.8-4.5
		C25.6,241.5,24.4,239.9,23.3,238z M20.6,228.3c-3.2-6.2-0.2,0.7-2.5-3.5c-1.3-2.3,0.6,1.8,2.5,5.6c3.2,6,3.3,5.9,3.6,5.4
		C25.1,236.6,23.3,233.7,20.6,228.3z M17.8,210.2c0.2,1.2,0.6,2.5,2.1,5.8c2.3,5.2,1,1.1,2.2,3.4c1.4,2.8,3.7,7.6,4.6,8.9
		c1,1.2-1.5-4-3.6-8.3l-1.1-2.8C21.6,216.2,17.4,208.7,17.8,210.2z M9.8,192.1c0,2.6,1,7.9-0.9,0.7c0.2,2.8,1,5.4,1.5,8.1
		c0.4,1.2,1,3,1.2,3.5c0.4,0.8,0.5,0.5,0.9,1c0.6,1.1-0.7-5.2-2.3-11.7C10.1,193.3,9.7,191.6,9.8,192.1z M5.4,154
		c-0.6,3.1-0.8,6.3-1,9.3c0.2-0.9,0.3-1.7,0.5-2.6c0.1,1.4,0.3,1.8,0.2,3.5c-0.1,3.8-0.4,6.6-0.6,6.6c-0.1,0,0,2.6,0,4.3
		c0.2,9.4,0.1,10-0.5,6.1c-0.5-3.6-0.3-7-0.5-10.8c0,0-0.1-0.1-0.1-0.1c-0.4,0.2-0.4,3.8-0.3,8.1l0,0.2c0.2,1.6,0.3,3.4,0.6,5.5
		c0.4,2.1,0.8,4.6,1.3,7.6c0.4,2.7,0.8,4.3,1.2,6.2c0.5,1.5,0.9,2.6,1.5,4.6c0.4,1.3,1.2,4.3,1.7,5.5c0.6,2,1.3,4.1,2,6.2
		c1.1,2.7,3.5,8.3,3.7,8.5c0.2,0.2-2-5.7-2.7-7.7c-1.1-3.2-2.1-6.3-3.1-9.3c-0.6-2.3-0.8-4.4-0.7-4.4c0.1,0,0.7,1.9,1.4,4.3
		c0.9,2.3,1.9,5,2.4,6.7c0.3,0.9,0.6,1.7,0.9,2.6c0.3,0.2,0.5,0.3,0.7,0.4c-0.9-2.5-1.5-4.8-1.9-6.1c-0.9-3.7-1.6-4.3-2.1-6.4
		c-0.5-2.1-1.1-4.2-1.5-6.2c0-0.6,0-1.1-0.1-1.6c-0.2-1-0.4-2-0.6-3c-0.8-4.3-1-4.5-1.2-3.9c0,0.2,0.1,1.2,0.1,1.9
		c0.2,0.8,0.4,1.7,0.5,2.3c0.4,1.6,0.8,3,1.2,4.3c-0.4,0-0.7,0.4-1.1,0.1c-0.3-0.2-0.9-1.1-1.3-1.8l-1.2-11.1c0.2,0,0.4,0.3,0.4-0.2
		c0.1-0.2,0-1.9,0.1-2.9c-0.3-3-0.5-7.3-0.2-5.2c0.5,2.8,0.6,4.1,0.3-5c0.1-1.2,0.3-2.6,0.5-4.2c0.1-0.9,0.2-2.6,0.3-4
		C5.5,163.6,5.5,155.9,5.4,154z M6,146l0.5-1c0-0.2,0.1-0.5,0.2-0.6c0.2-0.4,0.2-0.3,0.1,0c0.1-0.3,0.5-1.3,0.7-2
		c0.1-0.7,0.4-2,0.3-2c-0.2-0.2-0.4-0.2-0.5-0.3C6.9,142,6.2,143.9,6,146z M16.2,129.3c-1.8,3.8-2.9,9.2-3.9,11.6
		c-0.8,2.2-0.8,1.3-1.2,1.7c-1.2,5.2,0.2,1.2,0,3c-0.1,1.5-0.2,3.4-0.2,4.1c0.3,0,0.7-1.5,1.3-3.8c0.7-2.2,1.7-5.2,2.6-8.4
		c0.3-1,0.6-2.8,0.9-4.1c0.1-0.3,0-0.4-0.1,0C13.5,140.1,15.1,132.1,16.2,129.3z M14.1,123.1c-0.4,1-0.8,1.9-1.2,2.8
		c-1.1,4-4.2,13.6-5.4,19.6c-0.2,1.4-0.3,3.2-0.3,3.3c0.1,0.2,0.4-0.7,0.6-1.3c0-0.1,0.2-1.2,0.5-2.5c0.3-1.2,0.9-3.9,0.9-4.2
		c0-0.9-0.5-0.2,1.1-4.6c0.4-2.3,4.8-13.5,5.3-15.2C16.3,118.7,16.1,118.4,14.1,123.1z M30.1,91c-0.6,0.8-2.2,3.2-3.4,5
		c1.4-1.1-4.6,7.1-5.1,9.4c-0.2,0.5,0,1.7-0.4,2.5c0.6-1,1.2-2.3,1.7-3.1C25,101,27,97.3,29,93.7c-0.2,0.2-0.2,0.1-0.4,0.2
		c0.8-1.2,1.5-2.3,2.3-3.5l0.3-0.4C31.5,89.6,30.9,89.9,30.1,91z M40.2,79c-0.2,0.4-0.1,0.6,0.6-0.2c0.2-0.3,1.2-1.3,2.1-2.5
		c1.1-1,2.2-2.1,2.6-2.6l0.3-0.3C42.7,76.4,41.1,78.3,40.2,79z M53.1,74.9c0.1-0.2-1.4,1-1.8,1.4L47.5,80c-1.2,1.3-2.3,2.7-3.4,4
		c-0.8,1.2-1.3,2.1-1.9,3.1c2.7-3.3,5.3-6.7,8.4-9.5C51.6,76.6,53,75.1,53.1,74.9z M55.6,64.1c-0.6,0.5-1,0.9-1.5,1.4
		c0.4-0.4,0.7-0.7,1-1l-1.5,1.1C52,67,50.4,68.5,48.8,70c-0.4,0.6,0.2,0.1,0,0.5l0.4-0.5c3.6-3,5.8-5.1,8-6.6
		C58.3,62.4,56.7,63.4,55.6,64.1z M76.2,46.8c0.4-0.3,0.6-0.4,1.1-0.7c1.3-0.8,2-1,2.6-1.2c0.8-0.3,0.8-0.1,2.1-0.7
		c0.7-0.3,4.5-2.6,4.9-2.9c3.4-2.1,9-4.7,12.9-6.5c6.9-3.1,8-3.7,10.4-5c-1,0.1-3.9,0.9-7.1,2.7c-7.3,3.8-8.9,4.2-12.7,5.9
		c-6.4,2.8-3.8,1.4-3.8,0.8c0-0.1,1.1-0.6,2.2-1.2c1.1-0.6,2.3-1.1,2.6-1.3c2.6-1,4.6-1.8,6.7-2.7l0,0c-0.1-0.1-0.9,0.1,0.1-0.5
		c0.6-0.4,2.6-1.4,4.4-2.3c-2.7,1.3-6.1,2.9-7.7,3.5c-0.5,0.2-0.4,0.1-0.4,0c-1.8,0.8-4.4,2-7.1,3.4c-2.7,1.4-5.2,3.2-7.2,4.4
		c-4.2,2.6-5.3,3.4-4.9,3.4c0.3,0,0.1,0.2-0.7,0.8L74.6,47C74,47.6,74.8,47.4,76.2,46.8z M83.6,45.2c5.5-3.5,5.4-3.6,2.4-2
		c-1,0.5-2.1,1.2-3.2,1.7c-0.6,0.4-1.2,0.8-1.8,1.2c-2.7,1.6-3.7,2.3-3.9,2.6c-0.1,0.1-0.2,0.2-0.4,0.2c-0.1,0.1-0.2,0.3-0.3,0.3
		c0.9,0.1-1.4,2,5.5-2c1.3-0.8,3.3-2,4.9-3c-0.3,0.1-0.4,0-1.1,0.4c-1.1,0.6-2.8,1.5-3.9,2.1C79.7,47.8,79.3,47.9,83.6,45.2z
		 M68.6,52c0.1,0,0.2-0.1,0.2,0c1.1-1,2.4-1.7,3.6-2.5c-0.1,0,0.2-0.2,0.2-0.2l-0.7,0.4C70.8,50.4,69.6,51.1,68.6,52z M94.8,46.6
		c-0.2,0-0.8,0.3-1.3,0.6c-7.4,3.9-8,5.2-12.1,7.8c-0.6,0.4-0.4,0.4-0.7,0.7c1.2-0.7,2.8-1.6,3.9-2.2c2.6-1.6,5.3-3.5,7.4-5
		C94,47.3,95.4,46.5,94.8,46.6z M94.5,46l-3.1,1.4c-6.8,4.3-14.6,8.5-18.7,12.3c-0.7,0.6-1.5,1.3-2.2,2c1.5-1,2.8-2.4,6.1-4.3
		c5-3.2,10.6-7.2,16.5-10.6C93.7,46.4,94.1,46.2,94.5,46z M109.1,37.8c-0.2,0-3.7,1.5-4.4,1.9c-3.7,2-7.3,3.8-10.6,5.6
		c-1.6,0.9-2.6,1.4-3.7,2.2c2.1-1.1,4.3-2,4.9-2.3C106.5,39.8,110.2,37.8,109.1,37.8z M112,30.8c2.4-0.8,4.8-1.6,7.3-2.4
		c1.2-0.4,3.5-1.2,4.1-1.5c1.7-0.8-1.4-0.1-3.3,0.6c-2.9,1.1-6.8,2.5-10.3,3.7c-3.5,1.2-6.2,2.9-7,3.6c-0.1,0-2.4,1.2-2.5,1.3
		c-1.8,0.7-4,1.5-4.9,1.7c-1.3,0.6-2.5,1.2-3.7,1.8c0.7,0.1,2.9-0.5,7.9-2.5c1.1-0.4,1.3-0.4,1.8-0.6c0.7-0.5,1.4-1,2.1-1.4
		c0.2-0.1-0.2,0,0-0.1c0.8-0.5,3.2-1.8,5.2-2.7C110.9,31.5,112.6,30.8,112,30.8z M130.5,27.9c-1.6,0.4-4.6,1.3-6.2,2.4
		c-1,0.7-5.4,2.1-8.9,3.3c-4.9,1.6-7.1,2.6-6.4,2.9c2.4-0.9,5.8-1.8,9.6-3.2c4.3-1.5,9.7-3.7,13.2-5.1
		C133.3,27.6,132.1,27.5,130.5,27.9z M131.7,23.8c0.1,0,0.6,0,1,0.1c1-0.3,2.8-0.8,2.8-0.8c-0.4-0.3,5.8-1.7,7-2
		c9-2.7,11.4-3.2,14.5-3.4c0.6,0,1.2-0.1,1.8-0.2c0.8-0.2,2.4-0.6,2.3-0.6c-0.8-0.1,2.2-0.9,3.7-1.4c0.8-0.3-3.3,0.2-6.3,0.7
		c-3.5,0.5-5.5,1.2-6.2,1.7c-0.7,0.4-6.8,2-7.2,2c-1-0.1-4.9,0.9-9.8,2.2c-6.6,1.8-2.7,1.1-3.6,1.5
		C131.5,23.6,131.6,23.6,131.7,23.8z M149.3,25.8c-4.2,0.9-8.4,1.8-12.7,2.8c-0.2,0.1-2.4,0.8-3,1c-0.3,0.5,3,0,7.8-1.3
		C144.1,27.5,146.7,26.6,149.3,25.8z M167.6,22c-2.2,0-4.1-0.1-6-0.1c-0.2,0-0.9,0.1-1.4,0.2c-7.1,1.8-8.2,1.8-13,3
		c-0.9,0.2-2,0.8-1.3,0.6c2.3-0.4,6.4-1.3,7.8-1.4c0.8-0.2,8.1-1.6,1.4,0.1c2.4-0.6,5-0.7,7.5-1.1C164.3,22.9,166.1,22.4,167.6,22z
		 M186.7,12.4c-6.1,0.9-8.8,1.1-14.1,1.8c-0.3,0.1-2.3,0.5-3,0.7c-0.2,0.5,6.5-0.3,14.8-1.8c0.4-0.1,1.2-0.3,1.4-0.3
		C186.4,12.6,187.1,12.4,186.7,12.4z M225.9,11c-0.5,0-1,0.1-1.6,0.1c-0.9,0.1-2.5,0.4-2.6,0.4c0.6,0.3-5,1-7.6,1.5
		c-0.3,0.1,0.7,0.1,1.2,0c5-0.5,9.5-1.1,13.1-1.7C232.2,10.6,228.8,10.8,225.9,11z M315,9.2c5.7,2,11.9,4.1,18.5,6.4
		c3.3,1.4,6.6,3.1,10,4.7c3.4,1.8,7.2,3.1,10.6,5.3c1.4,0.9,4.1,2.5,5.7,3.4c0.4,0.2-0.8-0.8-1.5-1.3c-3-1.9-4.9-3.1-6.4-4.1
		c-1.5-0.8-2.4-1.3-3.1-1.8c-1.7-1.2-7.1-2.9-7.6-3.4c-0.4-0.5-3.7-2.2-5.9-3.2c-16-4.9-9.5-3.3-6.6-2.9c0.5,0.1,0.3-0.1,0.1-0.2
		c-0.3-0.3,1.6,0.1-4.1-1.7c-6.8-2.1-3.3-0.8-4.4-0.9c-0.8-0.1-3.1-0.8-4.9-1.3C312.1,8,312.6,8.3,315,9.2z M349,23.3
		c-6.5-3-4.3-1.6-5.3-1.8c0.7,0.4,1.7,1,2.8,1.6l4.8,1.8c1.6,0.7,3,1.6,4.5,2.4C353.6,25.9,351.7,24.4,349,23.3z M302.6,8.3
		c1.7,0.8,3.1,1.5,4.5,2.2c0.8,0.3,3.3,0.6,6.6,1.4c0.6-0.1,1-0.2,1.5-0.3c-9.8-2.2-6.7-1.8-10.1-2.8C304.4,8.7,303.4,8.5,302.6,8.3
		z M290.6,8.8c-2.5-0.3,0.4,0.5,3.8,1.2c0.5,0.1,0.8,0.2,1.2,0.3l0.2,0l0.1,0c0.6,0,1,0,2.1,0.1c2.1,0.2,4.8,0.5,6.9,0.7
		c0.5,0.1-0.4-0.2-1-0.5C298.3,9.8,294.1,9.2,290.6,8.8z M266.3,3.3c9.1,0.9,11.3,1,19.2,1.1c2.1,0,4.6,0.1,6,0.3
		c1.7,0.1,8.4,1.3,5.1,0.4c-0.7-0.2-1.7-0.4-2.6-0.6c-3.8-0.8-7.7-1.1-12.1-1.2c-2.4-0.2-5-0.4-7.6-0.7c-1.6,0-2.4,0-1.8,0.3
		c0.7,0.3-3.3,0-6.5-0.1C262.3,2.7,262.5,2.9,266.3,3.3z M267.7,7.5c0.8-0.1,1.2-0.1,0.3-0.3c-0.1,0-0.1,0-0.2,0c-0.2,0-0.5,0-0.7,0
		L267,7.1c-0.7-0.1-1.5-0.1-2.7-0.2c-2.9-0.3-5.7-0.1-8.6,0C253.5,6.9,251,7,249.4,7c-1.3,0.1-1.9,0.2-2.1,0.4
		c-0.1,0,1.5,0.1,2.3,0.1C255,6.7,262.4,7.6,267.7,7.5z M308,17.1c-1.5-0.3-3.1-0.7-5.6-1.1c-0.2,0-0.4-0.1-0.5-0.2
		c-2.2-0.3-4-0.5-6.5-0.8c-0.4-0.3-1.2-0.6-2.1-0.9c-1.3-0.2-2.6-0.4-3.9-0.7c-10.8-0.7-6.9-1-12.5-1.5c-0.4,0,0-0.1,0-0.2
		c4,0.4,8.1,0.6,11.8,1.1c2.3,0.3,4.8,0.7,6.1,0.9c1.7,0.4,3.6,0.9,4.8,1.2c0.2,0,0.4,0,0.5,0c0.1,0,0-0.1,0.1-0.2
		c-3-0.6-6-1.3-9.3-1.9c-6.3-1.2-7.8-1.8-20.9-2.1c-0.3,0-5.7-0.6-9-1c-0.8,0-2.7,0.1-3.9,0.1c-0.5,0-0.7,0.2-0.2,0.2
		c6.4-0.1,7.4,0.8,7.4,1.1c0,0.2,3.1,0.7,6.3,1c2,0.2,6.8,0.4,10.3,0.7l0,0.2c-4.3-0.1-11.1-0.6-4.9,0.3c1.7,0.2,3.1,0.4,4.7,0.7
		c3.6,0.3,6.4,0.2,8.4,0.4c-1.2-0.3-2.6-0.4-3.8-0.5c-2.3-0.2-3.6-0.5-5.4-0.8c1.6,0,2.3,0,3.1,0.1c1.3,0.1,3.8,0.2,4,0.2
		c1.3,0.2,3.6,0.9,6.7,1.5c0.5,0.1,1,0.1,1.5,0.2c4.2,0.8,7.8,1.5,11.4,2.1C307.1,17.1,307.6,17.1,308,17.1z M359.4,36.2
		c-4.5-2.6-4.1-3.6-12-7.4c-1.9-0.7-6.1-3.2-2.8-2c2.1,0.9,4.9,1.6,6.8,2.9c3.4,1.8,3.1,1.2-1.6-1.7c-4.5-2-9.5-4.2-14.3-6.4
		c0.3,0.6-1.7-0.6-4.5-1.4c-2.8-0.8-6.2-1.8-8.2-2.3c-1.3-0.4-3.3-0.9-5.2-1.5c0.5,0.3,1.1,0.7,1.6,1.1c-0.9-0.3-2-0.6-3-0.9
		c0.3,0.1,0.5,0.2,0.8,0.4c2.4,0.7,4.9,1.4,4.9,1.4c0-0.6,10.5,3.2,11,3.1c1.7,0.9,3.7,2,5,2.7c0.2,0.1-2.9-1.1-4.8-1.9
		c-4.5-1.5-9.3-2.6-10.4-3c-5.4-1.6-7-2.1-8-2.4c-0.1-0.1-0.3-0.1-0.4-0.1c-1-0.3-1.9-0.6-2.6-0.8c-2.3-0.5-4.2-0.9-6.4-1.4
		c-0.2,0-0.5,0-1.3-0.1c-1.1-0.2-2.3-0.3-3.5-0.5l0.2,0.1c0,0,2.2,0.3,3.4,0.5l6.7,1.5c2.2,0.6,4.3,1.5,6.5,2.2
		c5,1.7,9.8,3.2,15.8,5c1.2,0.6,2.1,1.1,2.9,1.5l13.3,5.8c0.1-0.5,3.1,1.5,5.2,3.1l0.2,0.1c0.3,0.2,0.5,0.3,0.9,0.5
		c1.2,0.8,2.9,1.9,3.1,2.1c1.2,0.7,2.3,1.3,3.5,1.9C365,39.9,364.6,39.4,359.4,36.2z M397.5,67.5c-1.1-1.8-1-2-1.4-3
		c-1.1-1.1-1.5-1.2-3.3-3.5c-3.4-4.3,1,2.3-4.4-4.6c-1-1-1.9-1.8-2.8-2.8c0.8,0.9,1.6,1.8,2.4,2.7c1.3,1.3,2.1,2.9,4,5.5
		c0.2,0.2,1.1,1.4,1.1,1.3c-0.3-0.8,1.3,0.9,3.9,4.2C398.8,69.8,398.5,69.3,397.5,67.5z M414.1,95.9c-0.4-1.7-2.2-6.9-4-10.8
		c0.3,0.5-0.2-0.5-0.5-1c-1.4-2.4-2.4-4.7-4.2-7c-1.3-2-2.7-4.3-4.6-7.8c-1.1-2.4-3.5-5.3-5.4-8c-2.4-3.4-4.9-6.7-7.9-9.6
		c0.2,0.4,2.1,2.4,3.6,4.1c1.3,1.9,2.4,3.4,1.5,2.5c1.8,2.5,3.8,5.4,5.6,8.1c1.8,2.7,3.1,5.4,4.2,7.1c2,3.3,4,6.4,5.4,9.8
		c1.5,3.4,3.3,6.6,4.5,10.2c0.2,0.6,0.6,1.6,0.7,1.6C413.4,95.6,414.5,97.5,414.1,95.9z M423.1,147.1c-0.1-0.7-0.1-1.3-0.2-2.2
		c-0.2-2.3-0.5-4.9-1.1-7c-1.9-7.6-3.4-15.2-5.8-22.5c-0.3-0.9-0.5-1.1-1-2c0.5,2.2,1.1,4.3,1.7,6.7c0.7,2.2,1.2,4.8,1.9,7.2
		c1.3,5.4,2.9,10.8,4,16.3C422.7,144.7,422.9,145.9,423.1,147.1z M427.3,181.1c-0.1-1.9,0.3-4.7,0-7.2c0.2,3.4-0.4,6.9-0.5,10.1
		c-0.4,3.1-0.3,6-1.1,9.1c-0.3,1.6-0.9,5.1-0.9,5.3c0,1.1,0.9-0.8-0.9,7.5c-1.1,3.7-1.8,7.5-1.9,8.9c0,1.5-0.9,3.4-1.8,5.8
		c-1.1,2.3-2.1,5.3-4.1,8.4c-1.5,2.3-3.3,6.1-5.3,8.7c-0.7,1-1,1.8-0.9,1.9c0.2,0.1-1.7,3.2-4.2,6c-6.2,7.1-2.8,3.5-0.9,1.6
		c0.8-0.8,0.3,0,0.4,0.1c0.2,0.1,1.5-1.2,3.1-3.5c1-1.6,3.2-4.6,5-7.1c1.6-2.7,2.7-4.9,2.2-4.5c0.5-0.9,1.2-2.1,1.5-2.7
		c5.4-9.9,9.7-20.5,11.6-31.5c0.3-1.4,0.5-1.7,0.8-2.6c0.2-0.6,0.4-1.3,0.6-2c0.1-0.8,0.3-2.4,0.2-2.2c-0.8,1.6-1.6,3.3-2.5,5.3
		c0,0.2-0.7,3.8-1,5.6c-0.4,3.1-1.4,5.9-2.1,8.8l-1,1.9c-0.4,0.4,0.2-2.1,1.8-7.8c0.7-3.6,1.2-7.4,1.5-9.7c0.2-1.9-0.1-1.6-0.1-2.3
		c0.8-3.7,0.9-6.9,1.3-6.8c0.2,0,0.5-2.4,0.7-5.3c0.1-1.5,0.2-3.1,0.4-4.6c0-1.5,0-2.9-0.1-3.9c0-0.2-0.2-3.2-0.2-3.2
		c-0.2,0.1-0.4-0.2-0.5,1.7c0,1.2,0,2.9,0,4.8c0,1.8-0.3,3.8-0.4,5.3C427.5,181.7,427.3,182,427.3,181.1z M422.4,202.9
		c1.1-5.2,1.5-7.1,1.9-9c0.6-2.6,0.7-5.2,0.8-7.9c0.2-3.8,0.7-7.7,0.7-11.5c0,2.6-0.8,5-0.9,7.9c-0.2,2.7-0.4,5.5-0.6,8.8
		C423.8,194.4,423.2,198.2,422.4,202.9z M382.6,258.4c0.9-0.5,2-1.2,2.4-1.4c2.6-1.4,6.8-4.1,11.5-9c0.8-0.8,1.8-1.8,2.6-2.8
		c0.8-0.9,1.3-1.6,1.3-1.7c0-0.3-1,0.4-1.8,1.3c-2.8,3.1-5,4.7-4.1,3.7c0.3-0.4,3-3,4.5-4.8c1.1-1.3,2.2-2.6,3.4-3.9
		c1-1.4,2-2.8,3-4.2c0.8-1.1,2-2.5,2.1-2.5c0.1,0-0.8,1.4-1.5,2.5c-0.8,1.2-1.9,2.8-2.8,4.2c1.1-1.5,2.2-3,3.2-4.3
		c4.4-6.7,3.4-5.3,2.4-2.8c-0.1,0.2,1.5-2.3,2.3-3.5c0.5-1,1.5-3.1,1.3-2.8c-0.8,1,0.5-1.1,1-2.8c0.6-1.7,0.9-2.7-0.9,0.8
		c-0.9,1.4-0.7,0.9-0.1-0.1c0.5-1.1,1.2-2.8,1.5-3.5c0.8-1.7,2.8-7.1,2.2-4.7c-0.1,0.5,0.1,0.2,0.1,0.3c0.6-1.2,1.4-3.7,1.4-3.8
		c0.1-2.2,1.1-5.1,2.8-10.2c0.1-0.5,0.7-3.7,0.7-4c0.1-1.6-0.2-1.4-0.6,0.2c-0.4,1.7-1,4.8-2.4,8.9c-0.6,2-1.3,4.5-1.7,5.9
		c-2.3,6.4-4.1,11-6.3,14.2c-1,1.6-2,3.1-2.8,4.4c-1,1.3-2,2.3-2.9,3.4c-0.6,0.7-1.4,1.7-2.3,2.8c2.1-2.7,2.7-2.1-1.8,3.3
		c-3.8,4.6-5.3,5.5-7.6,8.2c-2.7,2.7,0.6,1.1-7.9,7.3C384,257.6,383.3,258,382.6,258.4z M382.5,260.3c-0.2,0.1,2.2-1.1,4.5-2.6
		c3.1-2.4,6-4.8,8.5-7.5c-2.5,2.3-5.3,4.2-8.1,6.1C385.8,257.6,384,259.2,382.5,260.3z M373.6,270.9c-0.3,0.4-0.9,1.2-1.6,2
		c-0.5,0.9-1.1,1.9-1.4,2.4c-2.2,4,0.4-0.4,0.8-0.7c0.7-0.8,2.6-3.5,4.9-5.8c1.1-1.2,2.5-2.2,3.5-2.9c0.9-0.4,2.5-1.1,3.1-1.4
		c2.1-0.9,4.2-1.6,9.9-6.2c1.7-1.4,2.9-2.3,3.6-2.9c0.7-0.6,0.9-0.9,0.9-0.9c0-0.1-1,0.8-1.7,1.1c-2.6,1.4,3.4-3.6,8.4-9.9
		c1.2-1.4,1.7-2.2,2.4-3.3c-1.6,1.7-3.2,3.6-4.6,5.2c-2.6,2.9-5.6,5.8-8,7.9c-1.8,1.5-2,2.2-3.8,3.5c-3.2,2.4-6.4,4.5-9.7,6
		C377.6,266.6,375.3,269.1,373.6,270.9z M361.9,290.7c-0.1,0.9,0,1.2,0.1,0.9c0.1-0.3,0.4-1.9,0.9-4c0.1-1,0.5-2.4,0.8-3.5
		c0.3-1.3,0.6-2.5,0.9-3.7c0.4-1.2,0.9-2.3,1.4-3.6c1-2.5,2.5-5.4,5.4-9c4-4.5,2.7-3.1,2.5-3.3c-0.2-0.2-3.4,3-4.9,5.4
		C364.6,276.2,362.5,283.6,361.9,290.7z M360.4,298.7c0.2-4.3,0.8-8.8,1.8-13.5c0.1-0.4,0.1-0.5,0.2-1c-0.2,0.7-0.6,1.2-0.9,2.6
		c-0.4,1.9-1.2,6.1-1.2,6.4c-0.6,1.1-0.4,4.7-0.4,7.2C360.2,305,360,301.9,360.4,298.7z M364.7,323.2c-0.8-2.8-1.2-5.8-1.7-8.9
		c-0.1-0.3-0.8-3-0.8-2.7c-0.3,0.9-0.9-3.8-1.2-6.4c-0.1-0.8-0.2-1.5-0.3-2.3c0,0.6,0,1,0,1.6c0.1,1.4,0.2,3,0.3,4.4
		c1.3,7.6,1.2,3.7,3.3,13.5C364.4,322.7,364.7,323.4,364.7,323.2z M370,331.7c0,0.1-0.8-2.8-1.2-4.2c-1.8-5.9-2.5-9.1-1.9-8.2
		c1.2,2,1.2-1.9,0.6-8.8c-0.2-1.5-0.1-4.4-0.2-7.3c-0.5-2.6-0.1-5.1-0.2-6.5c-0.2-2.9,0-4.9,0-6.6c0-1.7-0.1-3,0.1-4.2
		c0.2-0.9-0.5-0.4-1.2,5.1c-0.7,3.9-0.8,11.5-0.5,16.1c0,3.8,0.8,7.6,0.4,7.6c-0.3,0,0,4.3,1,8c0.3,1.1,1,3.9,1.1,4.2
		C368.8,328.8,369.3,330.5,370,331.7z M373.8,361c0.4,0.2-4.8-3.1-1-1.1c0.1,0-0.8-0.7-1.4-1c-2-1.2-4-2.4-6-3.6
		c-4.3-2.6-4.7-3-4.6-3.2c0,0-0.3-0.2-0.4-0.3c-7.3-4.1-7.8-4.2-6.3-3.3c3.7,2.6,8.1,5.4,12.4,8.2C368.4,358,371.7,359.8,373.8,361z
		 M361.3,351.9c-0.4-0.2-0.3,0-0.1,0.2c2.8,1.5,5.2,2.9,7.3,4.1c1.5,0.8,2.9,1.5,4,2.1c2.1,1.1,3.3,1.7,4,2c1.3,0.6,0.8,0.2,0.2-0.2
		c-0.5-0.3-1.7-1-2.2-1.2c-1.7-0.8-3.2-1.5-4.8-2.3c-1-0.5-2-1-3.1-1.6C365,354,363.3,353,361.3,351.9z"/>
</g>
</svg>
