<?xml version="1.0" encoding="utf-8"?>
<!-- Generator: Adobe Illustrator 25.2.0, SVG Export Plug-In . SVG Version: 6.00 Build 0)  -->
<svg version="1.1" id="Calque_1" xmlns="http://www.w3.org/2000/svg" xmlns:xlink="http://www.w3.org/1999/xlink" x="0px" y="0px"
	 viewBox="0 0 11.9 510.3" style="enable-background:new 0 0 11.9 510.3;" xml:space="preserve">
<style type="text/css">
	.st0{fill:#FFD402;}
</style>
<g>
	<polygon class="st0" points="7.4,423.2 7.4,423.2 7.4,423.3 	"/>
	<path class="st0" d="M9.4,350.8L9.4,350.8l-0.2-5C9.1,350.5,9.1,350.7,9.4,350.8z"/>
	<path class="st0" d="M6.1,135.7c0-0.7,0-1.7-0.1-3.1C6,133.4,6,134.3,6.1,135.7z"/>
	<path class="st0" d="M6.1,132.6l0-0.1c0-0.2,0-0.3,0-0.5C6,132.3,6,132.4,6.1,132.6z"/>
	<polygon class="st0" points="6.1,135.7 6.1,135.7 6.1,135.7 	"/>
	<path class="st0" d="M6,150.9c0,0.4,0,2.3,0.1,3.2c0,0.5,0.1,0.7,0.1,0.6c0.1-0.2,0.1-1,0.1-1.3c0.1-0.5,0.2-1.7,0-4.5
		c0.1-2.5,0-2.7-0.1-2.1C6.1,147.8,6.1,149.3,6,150.9z"/>
	<path class="st0" d="M6.1,157.3c0,0.3,0.2,3.2,0,2.9c-0.1-0.1-0.2-1.4-0.1,1.1c0,0.7,0.4,1.3,0.4,2c0,0.1,0,0,0,0
		c0.1,0.2,0-0.8-0.1-3.4c0-1-0.1-2.8-0.1-2.9C6.2,156.7,6.1,156.7,6.1,157.3z"/>
	<path class="st0" d="M7.5,202.8c0.1,1.1,0.2,3.5,0.3,4.3c0,0.6,0.1,0.8,0.1,1.1c0-1-0.1-3.3-0.1-3.6c0-1.7,0-2.7-0.1-3.3
		c0-1-0.1-2.5-0.2-2.4c-0.1,0.2-0.1,1.4-0.1,2.3C7.5,201.4,7.5,202.5,7.5,202.8z"/>
	<path class="st0" d="M6.7,159.1c0.1-0.2,0.2,1.1,0.1-1.6c0-1.1-0.1-2.1-0.2-3.7c0,1.4,0,2.6-0.1,3.8C6.6,157.9,6.7,159.2,6.7,159.1
		z"/>
	<path class="st0" d="M6.1,172.6c0,0.5,0,1.6,0,1.6c0.1,0.2,0.2,0.3,0.3,0.4c0-0.4,0-0.9,0-1.1c-0.1-0.4-0.1-0.7-0.1-1.1l0,1
		c0-0.4-0.1-0.9-0.1-1.2C6.2,171.9,6.1,172.3,6.1,172.6z"/>
	<path class="st0" d="M0.7,5.2c0,1.3-0.1,2.4,0,4c0.1,2.4,0.1-0.7,0.2-1.6c0-0.4,0-0.8,0.1-1.1c0-0.5,0.2,1,0.1-1.2
		C0.9,3.4,0.8,1.8,0.8,0.1c0-0.1,0-0.1,0-0.1c0,0.4,0,0.7,0,1.2C0.7,2.5,0.7,3.9,0.7,5.2z"/>
	<path class="st0" d="M3.3,27.6c0.1,1.3,0.1,3.1,0.2,4.7c0,0.4,0.1,0.4,0.1,0.1c0-0.4,0-1.8,0-2.1c-0.1-1.2-0.1-2.5-0.1-4.3
		c0-1.4,0-3.7-0.1-3.3C3.2,23,3.3,25.4,3.3,27.6z"/>
	<path class="st0" d="M5.3,76.8c0,1,0.1,3.1,0.2,5.3c0,0.1,0,0,0.1,0c-0.1-2.6-0.1-5.2-0.2-7.7c0-0.6-0.1-1.2-0.1-1.7
		c0,0.7,0,1.4,0,2.1C5.3,75,5.3,75.3,5.3,76.8z"/>
	<path class="st0" d="M4.8,40.6c0-0.4,0-0.9,0-1.3c0-2.8-0.1-4.8-0.3-5.6c0,0.1,0,1.1,0,1.5C4.6,37.1,4.7,38.9,4.8,40.6z"/>
	<path class="st0" d="M2.5,21.3c0.1,0.9,0.1,1.5,0.2,2.2c0.1,1.3,0.1-1.8,0.2-1.2c0-0.4,0-1.1,0-1.1c-0.1-0.7-0.2-1.3-0.3-1.8
		C2.6,19.4,2.6,20.4,2.5,21.3z"/>
	<path class="st0" d="M4.2,34.2C4.2,34,4.1,34.1,4.2,34.2c-0.1,0-0.1-0.2-0.1,0.1c0,0.2,0,1.1,0,1.6c0,0.6,0.1,1.5,0.1,1.6
		c0.1,0.2,0.1,0.3,0.1,0c0-0.2,0-1.1,0.1-1.7C4.3,35.2,4.2,34.7,4.2,34.2z"/>
	<path class="st0" d="M9.2,318.4c0,1.6,0.1,3.4,0.1,5c0,1.9,0.1,4.8,0,5.4c0,0.2-0.1-2.4-0.2-3.7c0-0.4,0-0.7-0.1-1
		c0,0.7,0,1.5,0,2.2c0,2.3,0.2,3.3,0.1,5.8c-0.1,2.3,0.1,3.8,0.1,6.4c0,1.7,0,4.4,0.1,6.1c0,0.1,0,0.7,0,1.1l0,2.9
		c0.1-0.4,0.1-0.6,0.2-1.3c0-0.6,0-6.5-0.1-7.4c-0.1-1.5-0.1-3-0.2-4.6c-0.1-1.8,0-4.1,0.1-4.5c0,0,0.1,0.8,0.1,1.2
		c0,1.3,0,2.4,0,3.7c0,0.4,0,1,0,1.5c0-0.4,0-0.6,0.1-1.1c0-2.3-0.1-6,0.1-7.5c0-0.1,0-1,0-1.5c0-0.5,0-1-0.1-1.3
		c-0.1-2-0.2-3.7-0.1-5c0-0.3,0.1,0.4,0-1.5c0-1.2-0.1-2.4-0.1-3.4c0-0.4-0.1-0.2-0.1-0.2C9.2,315.5,9.1,315.2,9.2,318.4z"/>
	<path class="st0" d="M4.3,268.7c-0.1,0.1-0.2-1.1-0.2-2.3c0-1-0.1-2.7-0.2-4.5c0.1-1.6-0.1-6.7,0.1-7.3c0.1-0.2,0-3.4,0.1-1.5
		c0.1,1,0.2,0.7,0.2,3.4c0,1.1,0.1,2.3,0.1,3.4c-0.1,0.8,0.1,4.9-0.1,5.8C4.3,265.9,4.3,268.6,4.3,268.7z M4.1,263.8
		c0.1,0.4,0.2-3.1,0.1-4c0-1.1-0.1-2.2-0.2-2.5C4,256.7,4,258.9,4,262.1C4,262.5,4.1,263.4,4.1,263.8z"/>
	<path class="st0" d="M10.3,390.3c0,1.6,0.1,2.7,0.1,2.6c0-0.1,0.1-0.1,0.2,0c0,0,0,0.5,0.1,0.8c0,0.3,0,0.9,0,0.8
		c-0.2-1.4-0.1,2.6-0.2,3.8c0,0.5,0,1.2,0.1,1.7c0,0.6,0,1,0.1,1c0.1,0.1,0.2-3.7,0.2-6.4c0-0.8,0-2,0-2.4c-0.1-2.3-0.1-2.9,0-2.8
		c0,0,0.1-0.5,0.1-0.8c0-0.3-0.1-0.3-0.1-0.8c-0.1-1-0.1-2.8-0.2-3.2C10.4,383.5,10.3,387.3,10.3,390.3z"/>
	<path class="st0" d="M9,501.9c0,0.7,0.1,0.5,0.1,2.4c0,0.1,0.1,0.5,0.1,0.3c0-1.7,0-3.4,0.1-5.2c0-0.1,0-0.7-0.1-1.2
		c-0.1-2.4-0.1,2.4-0.2-1.8c0-1-0.2-1.9-0.2-3.1c-0.1-1.5-0.2-3.2-0.3-4.7c0-0.3,0,0-0.1,0c0,0.4,0,0.8,0,1.2c0,0.5,0,1.2,0,1.5
		c0.1,1.6,0.2,3.2,0.4,4.8C8.7,499.9,8.9,500.2,9,501.9z"/>
	<path class="st0" d="M7.9,219.9c-0.1,2.1-0.1,4.6-0.3,4.3c0-0.1-0.1,1.7-0.1,3.1c0.1,1.3,0.1,2.4,0.2,3.1c0,0.3,0.1,0.2,0.1-0.2
		c0.1-2.5,0.2-5.1,0.3-7.6c0-1,0-1.7,0-2.4c0-0.5-0.1-1-0.1-1.2C7.9,218.8,7.9,219.5,7.9,219.9z"/>
	<path class="st0" d="M8.1,480.2C8.1,480.1,8.1,480.2,8.1,480.2c-0.1,0-0.2-0.5-0.2,2.3c0,0.3-0.1,0.6-0.1,1.1c0,0.2,0,1.2,0,1.2
		c0.1,1.4,0.2,4.5,0.3,3.7c0.1-0.6,0.2-1.2,0.3-2.3C8.4,485.6,8.2,480.5,8.1,480.2z"/>
	<path class="st0" d="M6.4,371.9c0,0,0-0.5,0-0.6c-0.2-0.9-0.3-6-0.5-9.2c-0.1-1.5-0.1-1.5-0.2-0.4c-0.1,2.3,0,4,0.1,6
		c0.1,0.8,0.1,1.7,0.2,2.7c0.1,2,0.2,2.8,0.3,2.3c0,0,0.1,0.1,0.1,0C6.4,372.6,6.4,372.2,6.4,371.9z"/>
	<path class="st0" d="M9,290.5c0.1,2.2,0.1,3.7,0.1,6.3c0,2.2,0.1,1.8,0.2,2c0.1,3.9,0,5.3-0.2,5.1c-0.2-0.2-0.1,1.3,0,3.8
		c0,0.6,0,1.5,0.1,2.2c0,0.8,0.1,1.6,0.1,2.4c0-0.6,0-1.2,0.1-1.9c0-2.2,0-5.7,0.2-6.8c0.1-0.5,0-4.4-0.1-6.4c0-1.2,0-2.5,0-3.7
		c0-2.9-0.1-5.3-0.2-6.2C9.1,286.8,9,287,9,287.6C8.9,287.8,9,289.9,9,290.5z"/>
	<path class="st0" d="M9.9,491.1c0,0.8,0.1,2,0.1,2.2c0.1,0.3,0.2,1.1,0.2-0.9c0-1.1-0.1-3.2,0.1-1.1c0,0.5,0.1,0.7,0.1,0.5
		c0.1-0.3,0.2,1.2,0.2-1.3c0-1.8-0.2-3.8-0.3-3.7c-0.1,0.8-0.2,1.6-0.3,2.5C10,489.9,9.9,490.5,9.9,491.1z"/>
	<path class="st0" d="M11.1,477.9c-0.1-1.6-0.1-3.3-0.2-5.2l-0.1-2.6c0,0.6,0,1.1-0.1,1.7c0,1.8-0.1,3.6-0.1,5.6c0,0.5,0,1.7,0,2.2
		c0,0.5,0.1,0.8,0.1,0.6c0-0.4,0-1.3,0.1-2.1c0.1,0.9,0.1,1.7,0.2,2.1C11.1,480.6,11.2,478.9,11.1,477.9z"/>
	<path class="st0" d="M10.3,378.9c0,0.7,0.1,2,0.1,2c0.1,0.1,0.2-0.2,0.3,1.7c0-1.2,0-2.4,0.1-3.7c-0.2-1.2,0-3.8-0.2-5
		c0-0.3-0.1-1-0.1-1.1C10.3,372.9,10.2,376.2,10.3,378.9z"/>
	<path class="st0" d="M7.4,450.5c-0.1-1.8,0-2.2,0-3c0-1.9-0.2-2.7-0.3-1.5L7,448.3c0,0.3,0,0.8,0,0.8c0.2,0.6,0.2,3.1,0.2,5.9
		c0,0,0.1,0,0.1,0C7.6,454.9,7.6,454.7,7.4,450.5z"/>
	<path class="st0" d="M9.9,363.3c0,0.2,0.1,0.9,0.1,0.5c0-2.2,0.2-0.8,0.3-1.4c0.1-0.4,0.1-1.3,0.2-2.2c0-0.3,0-1.5,0-2.2
		c0-0.3,0-0.4-0.1-0.8c-0.1,1-0.3,2-0.4,3.2C9.9,360.9,9.9,362.4,9.9,363.3z"/>
	<path class="st0" d="M6.9,418.6c0-1,0-1.9,0-2.7c0-1.6,0.1-3.1-0.1-3.1c0,0,0-0.3,0-0.6c0-1.3-0.1-2.7-0.1-4.1c0,1.3,0,2.7,0,3.9
		c0,1.4,0,2.7,0,4.1c0,0.7,0,1.3,0,2.5c0.1,0.6,0.1,0.9,0.2,1.6c0.1,0.9,0.1,2,0.2,0.7C7,420.7,6.9,419.3,6.9,418.6z"/>
	<path class="st0" d="M6.9,430.2c-0.1-0.3-0.1-2-0.2-3.9c0-0.5-0.1-1-0.1-1.4c0,0.7,0,1.4,0,2c0.1,4.2,0.3,7.5,0.5,8
		c0,0,0-0.5,0.1-0.9C7,432.5,7,430.3,6.9,430.2z"/>
	<path class="st0" d="M7,446.6c0-3.7-0.1-7.1-0.3-9.3c0-0.2,0-0.3-0.1-0.5c0,0.5,0,0.8,0,1.2c0,0.5,0,1.5,0,1.7
		c0.1,1.8,0.2,4.4,0.2,7.2c0,0.4,0.1,1,0.1,1.2C7,448.7,7,448,7,446.6z"/>
	<path class="st0" d="M5.9,336.6c0-0.5,0-1.5,0-2.3c-0.1-0.7-0.2-1.3-0.2-2c-0.1,0.2-0.1,3.9,0,5.1c0.1,1.3,0.1,2.6,0.2,3.9
		c0,0.4,0,0.6,0.1,0.9c0-0.5,0-0.9,0-1.4C5.9,339.3,5.9,337.8,5.9,336.6z"/>
	<path class="st0" d="M6.6,419.6c0-1.3,0-1.9,0-2.4c0-2.1-0.1-4-0.2-3.7c-0.1,0.3-0.1,2.4,0,4.6c0,0.7,0.1,1.5,0.1,1.9
		c0,0.6,0.1,1.3,0.1,1.2C6.6,421.2,6.6,419.9,6.6,419.6z"/>
	<path class="st0" d="M5,321c0-0.7-0.1-1.2-0.1-1.8c0,0.3,0,0.5,0,0.8c-0.1,2.1,0,4.1,0.1,6.2c0,0.7,0.1,0.8,0.1,1.2l0-2.5
		C5.1,323.6,5.1,322.2,5,321z"/>
	<path class="st0" d="M3.9,249.9c0-2.7-0.1-5.3,0-7.6c0-0.2,0-0.9,0-1.4c0,0.2,0,0.4,0,0.5c-0.1,0.6-0.1,2.2-0.1,4.9
		c0,1.2,0,2.4,0.1,3.4c0,0.5,0.1,0.8,0.1,0.9C3.9,250.7,3.9,250.2,3.9,249.9z"/>
	<path class="st0" d="M9.8,480.3c-0.1-1.3-0.1-2.3-0.2-3.5l-0.1,3.4c0,1.9,0.1,4.6,0.2,2.8C9.8,482.4,9.9,483.1,9.8,480.3z"/>
	<path class="st0" d="M8.4,241.4c0-0.8,0.1-2.4,0.1-3.7c-0.1-0.5-0.1-1-0.2-1.6c0,0.6-0.1,0.8-0.1,1.7C8.1,238.7,8.3,242,8.4,241.4z
		"/>
	<path class="st0" d="M5.9,319c0,0.3,0,0.4,0,0.8c0,0.8,0,1.6,0,2.4c0,1.5-0.1,2.9,0.1,4.3c0,0.2,0.1,0.7,0.1,0.6
		c0.1-1.2,0.1-2.5,0-4.7c0-1,0-2.1-0.1-3C5.9,319.1,5.9,319.1,5.9,319z"/>
	<path class="st0" d="M5.3,311.1c0-1.5-0.1-2.9-0.1-4.3c0-0.5,0-0.8-0.1-1.2c0,0.4,0,0.8,0,1.3c0,1.4,0,2.7,0.1,4.1
		c0,0.3,0,0.6,0,0.8l0.1,3.8C5.3,314.3,5.4,313.3,5.3,311.1z"/>
	<path class="st0" d="M7.7,478.1c-0.1-1-0.2-2-0.3-2.9c0,0,0,0.8,0,1.7c0.1,1,0.1,2.5,0.2,3.1c0.1,0.5,0.1-0.2,0.2-0.5
		C7.7,479.5,7.7,478.2,7.7,478.1z"/>
	<path class="st0" d="M5,309.4c0-0.7-0.1-1.2-0.1-1.7c0-0.5-0.1-1-0.1-1.6c0,1,0,1.9,0,2.1c0,1.6,0,2.7,0.1,3.2
		c0,0.7,0.1,1.1,0.1,1.2c0,0.1,0.1-0.2,0.1-0.5C5,311.2,5,310.2,5,309.4z"/>
	<path class="st0" d="M9.7,491.1c0-0.2-0.1-0.7-0.1-1.1c0,0.4-0.1,0.5-0.1,1.1c0,0.9,0,2.2,0,3.3c0,0.1,0.1,0.9,0.1,0.8
		c0.1-0.4,0.1-0.9,0.2-1.7C9.7,493.1,9.7,492,9.7,491.1z"/>
	<path class="st0" d="M8.3,509.4c0-1.8,0-3.6,0.1-5.4c0-0.3,0-1,0-1.5c0-0.2,0-0.3,0-0.3c-0.1,0.6-0.1,4.7-0.1,6.7l0.1,1.4
		C8.3,510,8.3,509.7,8.3,509.4z"/>
	<path class="st0" d="M8.6,503.6c0-0.1,0-0.6,0-0.7c-0.1-2.1-0.2-4.1-0.3-6c0-0.3-0.1-0.2-0.1,0c0,0.1,0,0.8,0,1.1
		c0,1.5,0.1,2.9,0.1,4.3C8.5,504.8,8.5,503.3,8.6,503.6z"/>
	<path class="st0" d="M10.9,438.2c0,1.1,0.1,2.4,0.1,3.6c0,0.4,0,0.6,0.1,0.9l0-5.6c-0.1-0.2-0.1-0.4-0.2-0.6c0,0,0,0.7-0.1,1.1
		C10.8,437.7,10.8,437.7,10.9,438.2z"/>
	<path class="st0" d="M5.4,334.9c0-1.6-0.1-2.4-0.1-3.1c0-0.2,0-0.5,0-0.6c0,0.2,0,0.6,0,0.8c-0.1,1.8,0,4.4,0,6.8
		c0-0.1,0.1,0,0.1-0.3C5.4,337.2,5.4,335.8,5.4,334.9z"/>
	<path class="st0" d="M2.8,176.2c0,0.8,0,1-0.1,1.3c0,1.9,0,3.8,0.2,4.9c0,0.2,0-0.1,0.1-0.1C2.9,180.4,2.9,178.4,2.8,176.2z"/>
	<path class="st0" d="M7.9,489.9c0,0.8,0,1.6-0.1,2.4c0,0.5,0.1,1.2,0.1,1.3c0-0.8,0.1-1.8,0.1-2.7C8,490.6,8,490.3,7.9,489.9z"/>
	<path class="st0" d="M7.3,173.8c0,0.3,0,0.5,0.1,0.6C7.4,174.5,7.4,174.1,7.3,173.8c0.1-1.5,0-4.8-0.1-5.5c0-0.1,0-0.1,0,0
		c0,0.4,0,0.9,0,1.4C7.2,171.1,7.3,172.5,7.3,173.8z"/>
	<path class="st0" d="M10.2,350.7c0-0.2,0.1-1,0.1-1.5c0-1-0.1-2.1-0.1-3.2c0,0.9-0.1,1.8-0.1,3.9C10.1,350.3,10.2,350.9,10.2,350.7
		z"/>
	<path class="st0" d="M3.3,215.8c0,1.4,0,1.9,0,2.4c0,1.2,0,2.9,0.1,3.2c0,0.1,0.1-0.5,0.1-0.8C3.4,219.3,3.3,217.9,3.3,215.8z"/>
	<path class="st0" d="M7.3,201.8c0,1.2,0,2.4,0.1,3.4c0,0.5,0.1,0.8,0.1,0.9c0,0.1,0-0.5,0-0.8c0-2.6-0.1-5.3,0-7.6
		c0-0.2,0-0.9,0-1.4c0,0.2,0,0.4,0,0.5C7.3,197.4,7.2,199.1,7.3,201.8z"/>
	<path class="st0" d="M8.3,255.6c0,0.7,0.1,1.1,0.1,1.2c0,0.1,0.1-0.2,0.1-0.5c0-0.9,0-1.9-0.1-2.8c0-0.7-0.1-1.2-0.1-1.7
		c0-0.5-0.1-1-0.1-1.6c0,1,0,1.9,0,2.1C8.3,254,8.3,255,8.3,255.6z"/>
	<path class="st0" d="M10.1,401.4c0,0.1,0,2.8,0,3.3c0,1.1-0.1,1.1-0.1,2.1c0,1.9,0.1,1.7,0.1,2.4c0,0.3,0.2,2.5,0.2,2.7
		c0.1,0.7,0.2,0,0.1-2.4c-0.1-2.5-0.1-1-0.2-2.8c-0.1-2.7,0.2-6.2-0.1-5.7L10.1,401.4z"/>
	<path class="st0" d="M10.7,416.1l0-0.3c-0.1,0.5-0.1,1.9,0,3.2c0-0.1,0.1-0.8,0.1-0.9c0.1,0,0.1,0.7,0.2,0.6
		C11.2,418.2,10.7,408,10.7,416.1z"/>
	<path class="st0" d="M10.1,423.2c0,1,0.1,0,0.2,0.4c0,0.3,0.1,1.8,0.1,1.8c0.1,0,0-3.1,0-4.5c0,0.8,0,1.6,0,2.4l-0.1-1.8
		C10.2,415.4,9.9,420.2,10.1,423.2z"/>
	<path class="st0" d="M11.1,433.4c0.1,0.5,0.1-2.3,0.2-0.8c0-1,0-2.1,0-3.2l-0.1-1C10.9,423.4,11,430.6,11.1,433.4z"/>
	<path class="st0" d="M11.2,427.2c0,0.7,0,1.4,0,2.2l0,0.2C11.2,428.7,11.2,427.9,11.2,427.2z"/>
	<path class="st0" d="M9.7,455.5c0,0.4-0.1,0.9-0.1,1.5l0,1.5c0,0.6,0.1,2.1,0.1,3C9.7,460.6,9.8,457.5,9.7,455.5z"/>
	<path class="st0" d="M11.2,444.2c0,1.1,0,3.2,0,4.2c0,1.6-0.1,1.1-0.2,1.2c0,0.5,0,0.9,0,1.2c0-0.2,0-0.6-0.1-0.4
		c-0.1,0.6,0,3,0,4.7c0,1.5-0.2,2.8-0.1,4.7c0.1,1.7,0.2,0.5,0.3-0.4c0-1.1,0.1-4.5,0.1-6.2l-0.1,0c0-0.3,0-0.5,0-0.7
		c0.1,0.3,0.2-1.1,0.2-0.8c0.1,0.6,0.1,3.9,0.3,3c0.1-1,0-8-0.1-9.9c0,0.4,0,1.2,0,0.3C11.5,443.5,11.3,442.4,11.2,444.2z"/>
	<path class="st0" d="M11.5,466c0,1.8,0.1,3.9,0.1,5.4c0-3.6,0.2-1.8,0.1-6.6l0-0.6c0-1.5-0.2-2.6-0.2-1.7
		C11.5,463.3,11.5,464.6,11.5,466z"/>
	<path class="st0" d="M9.8,340.2c0,1.3-0.2,3.1,0,5.1c0.1,1.6,0.2-1.9,0.3-2.6c0-0.5,0.1,0.4,0.1-0.7c0-1,0-4-0.1-5.1
		c0,0.2,0,0.5,0,0.9l-0.1-1.5C9.7,332.8,9.8,339,9.8,340.2z"/>
	<path class="st0" d="M11.4,470.2l0-0.9c-0.1-2.2-0.2-5.2-0.3-5c0,2,0.1,5.6,0.2,7.1c0,0.1,0,0,0,0.1c0.1,2.5,0.2,5.2,0.2,6.9
		c0,1,0.1,2,0.1,2.7c0,1.5-0.1,0.6,0,3.8c0,0,0-0.7,0.1-0.8c0.1-0.2,0.1-0.6,0.2-0.1c0.1,0.4,0.2,1.2,0.1-2.7l-0.1-2.1
		c0-1.4-0.1-2.7-0.2-3.5c0-1.3-0.1-3.1-0.2-5C11.4,470.4,11.4,470.4,11.4,470.2z"/>
	<path class="st0" d="M7.9,473.4c-0.1,0.2-0.2-0.4-0.2,0.1c-0.1,1.1-0.1-3.9-0.3-3.5c0,0.1-0.1-0.8-0.1-1.3c0-0.6,0-1.5,0-1.9
		c0-0.5,0.1-0.5,0.1-0.8c0-0.3-0.1-0.6-0.1-1c-0.1-1.1-0.1-3.1-0.2-4.8c0.2,0.6,0-5.6,0.2-5.2c0,1.4,0.1,3,0.1,4.3
		c0,5,0.1,5,0.3,6.3c0.1,0.7,0.1,0.4,0.1-1.5c-0.1-1.4-0.1-2.8-0.2-4c-0.1-1.5,0-1.7,0-1.7c0.1,0,0.2,1,0.3,3.2c0,0.5,0,1,0.1,1.6
		c0-0.8,0-1.5,0-2.3c0-0.5,0-1.3,0-1.6c-0.2-2.8-0.2-5,0-6.4c0-0.1,0-1.5,0-2.2c0-0.9-0.2-2.4,0-2.2c0.2,0.3,0.1-1.4,0-3.4
		c-0.1-4.5-0.1-4.5-0.3-3.7c0,0.2-0.1-0.7-0.2-1.4c0-0.2,0-0.4,0-0.6c-0.1,0.3-0.1,4.4-0.1,5.1c-0.1,1.2-0.2-2.1-0.2-4.4
		c0-2.4,0.1-2.4,0.2-2.4c0.1,0.1,0.1,0.1,0.2-1.1c0-0.9,0-1.9,0-3.3c0-0.5,0-1,0-1.5c0,0.2,0,0.2,0,0.5c0,0.8,0,1.7,0,2.6
		c0,0.4,0,0.9,0,1.4c0-0.6,0-1.2-0.1-1.8c0-1.8,0-3.6,0-5.4c0-1.1,0-1.9,0-2.6c0,0.6-0.1,0.1-0.2-0.8c-0.1-1.8-0.1-6,0-7.1
		c0.1-2.1,0.3,1.2,0.4,4.5l-0.1,2.1c0,0.4,0,0.7,0,0.9c0-1,0.1-1.8,0.1-2.7l0-0.2l0,0.2c0-0.6,0-1.2,0-2c0-0.7,0.1-0.2,0-2.1
		c0-0.5-0.1-1.3-0.1-1.8c-0.1-1.2-0.2-2.6-0.2-1.8c0-1.5,0-3.2-0.1-4.5c-0.1-1.6-0.2-2.4-0.2-4.8c0-0.6,0-1.1,0-1.5
		c0,0.4,0,0.9,0,1.3c0,0.3,0,0.2-0.1,0c-0.1-0.7-0.1-6.6-0.1-6.3c0.2,3.4,0.1-3.5,0.3-2c0-0.7,0-1.5,0-1.9c0-1-0.1-2.1-0.1-2.5
		c-0.1-0.9,0,1,0,1.6c0,1.9-0.1,4.5-0.2,1.5c0-0.4-0.1,0.4-0.1,1.3c0,1.2,0,3,0,4.4c0,0.3,0,0.6-0.1,0.6c0,0-0.1-0.2-0.1-0.5
		c-0.1-3.5,0-5.1,0-7.7c0-3.4,0.1,0.1,0.1-0.1c0.1-0.3,0.1-0.6,0.2-0.9c0-1-0.1-1.9-0.1-2.9c0-0.4,0-1.1,0-1.3c0-0.3,0.1-0.1,0-1.7
		c-0.1-1.6-0.2-3.1-0.2-5.7c-0.1-4.5,0-6.9,0.1-9.5c0,0,0.1,0.1,0.1,0c0-0.1,0.1-0.4,0.1-0.6c0-0.6-0.1-1.3-0.1-1.7
		c-0.1-1.1-0.2-2-0.3-3c0-0.1,0-0.8,0-1.1c0-0.1,0-0.3,0-0.2c0,0.5,0.1,1.2,0.1,1.4c0.1,0.3,0.2,0.6,0-2c0-0.1,0-1,0-1.1
		c0.1-0.2,0.2-0.3,0.3,1.8c0,0.4,0,1.4,0,1.5c0,0.3-0.1-0.1,0,2c0.1,1.9,0.3,3.6,0.2,6.9c0,0,0.1,1.3,0.1,1.1c0.1-0.6,0.1-0.9,0-3.5
		c0-0.8,0-2.4,0-2.7c0.1-2.3,0-4.1-0.1-6c0-0.6-0.1-1.7-0.1-2.5c0-3.1-0.1-4.1-0.2-3.6c0,0.1,0-0.5-0.1-0.7c0-0.3,0.1-0.7,0.1-0.9
		c0.1-0.5,0-2,0.2-2.4c0,0.3,0,0.5,0,1.1c0,0.5,0.1,1,0.1,1.1c0,0,0-1.3-0.2-2.3c0.1-2.8,0-3.7-0.1-5.5c0-0.1-0.1,0.8-0.1,1.5
		c0,0.9,0,2,0.1,3c0-0.1,0.1,0.2,0.1,0.9c-0.2-0.5-0.3-0.5-0.3,0.3c0,1.7-0.1,3.9-0.1,5.6c0,0.8-0.1,1.5-0.1,1.1
		c-0.1-2.2-0.3-3.4-0.4-4.9c0-0.7-0.2-2.7-0.2-3.8c-0.1-1.6-0.2-4.9-0.2-7.8c0-0.6,0-2.8,0.1,0c0.2,4,0.3,8,0.5,10.8
		c0.1,0.7,0.1,1.4,0.2,1c0.1-1.1,0.2-2.7,0.2-7.3c0-0.5,0.1-1,0.1-1.7c0-0.4,0-1.5-0.1,0.1c0.1-3,0-3.5,0-4c0,0.3-0.1,0.4-0.1,0.8
		c0,0.5,0,1.3,0,2c0,0.8,0,1.5,0,2c-0.1,0.6-0.1,0.1-0.1,0c0-0.2,0,3.1-0.1,0c0-0.1,0-0.1,0-0.2l0,0.1c0,0.2-0.1,0.8-0.1,0.8
		c-0.1,0-0.2-1.1-0.2-2.2c0-0.9-0.1-3.4,0-4c0-0.9,0.1,0.2,0.2,1.4c0-0.2,0-0.4,0-0.6c0,0.6,0,1.2,0.1,1.8c0,0,0-0.1,0.1-0.2
		c0-1.2,0-2.2,0.1-2.5c0.1-0.1,0.1-2.5,0.1-2.9c0.1-0.6,0.1-1,0-2.3c0-0.7-0.1-1.7-0.1-2.4c0-4.8-0.2-3.8-0.3-3.8
		c0.1-3.9,0.1-3.9,0.3-1.7c0.1,3.2,0.1,3.2,0.3,5.1c0.1,0.4,0.1,3,0,3.2c-0.1,0.4-0.1,1.5,0,3.6c0.1,1,0.1,2.1,0.2,3.1
		c0,0.5,0,1,0.1,1.5c0-0.5,0-0.9,0-1.4c0-1.4,0-2.8-0.1-4.1c-0.1-3-0.1-5.4,0.1-6c0-0.1,0-0.9,0-1.4c-0.1,0.9-0.2-3.3-0.3-1.4
		c-0.1,3.1-0.2,0.2-0.2-2.5c0-0.5-0.1-0.9-0.1-1.3c0-3.5-0.1-8.8,0.2-10c0.1-0.5,0.1-1.7,0-2.9c-0.1-1.2-0.2-3.4-0.2-1.8
		c-0.1,3.1-0.2,3.2-0.4,3.1c0,0-0.1,0.5-0.1,1c-0.1,1.7-0.1,3.1-0.1,6.2c0,1.4,0.1,4.5,0,4.4c-0.1-0.1-0.1-2.6-0.1-3.9
		c0-0.9-0.1-2.5-0.1-2.6c-0.1-0.1-0.1-1.2-0.1-2.5c0-0.8,0-2.8,0.1-1.8c0.1,0.9,0.3-3.6,0.2-5.4c0-0.3,0-0.6,0-0.9
		c-0.1-1.3-0.2-3.1-0.2-4.5c0-2.9-0.1-4.5-0.2-5.5c-0.1-1.1-0.2-3.1-0.2-4.9c0-0.5,0-1.2,0-1.8l0-0.1c0-0.6,0-1,0.1-1.2
		c0-0.2,0-0.5,0-0.8c0-0.8-0.1-1.2-0.2-1.9c0,0.7,0,1.4-0.1,0.1c0-0.3,0-1,0-1.7c0-0.6,0-1.2-0.1-1.8c0-1.4,0-2.8-0.1-4.3l0,0.3
		c0-0.7-0.1-2-0.1-2.2c0.1-1.4,0-2.5-0.1-3.7c-0.1-1.5-0.1-2.9,0-3.5c0.1-0.6,0.1-0.2,0.2-0.7c0-0.2,0-1.4,0-2.2
		c0-1.4-0.1-3.1-0.1-4c0-1.2,0.1-1.5,0.1-2.6c0-0.6,0-2,0-3.1c0-0.5,0-0.9,0-1.4l0.1,1l0.1,9.2l0.1,1.3c0-0.4,0-0.8,0-1.3
		c0-0.8,0-1.7,0-2.5c0-1,0-1.9,0-2.8c0,0.8,0.1,1.5,0.1,2.4c0,0.7,0.1,1.5,0.1,2.3l0.1-3.6c0-0.4-0.1-1.2-0.1-1.1
		c-0.1,0.2-0.2-0.2-0.2-3.1c-0.1-2-0.1-4.1-0.2-6c-0.1-1.7-0.1-0.9-0.1,0.5c0,3.2-0.1,2.1-0.2,1.3c-0.1-1.5,0-2.8,0-3.9
		c0-1,0.1-2,0.1-3c0-1.4,0-2.9,0-5.2c0-2.3,0-3.2,0.1-1.2c0,0.6,0.1,0.3,0.1,0.2c0,0,0-0.7,0-0.9c-0.1-1.7-0.1-3.5-0.2-5.1
		c0-0.5-0.1-0.7-0.1-0.5c0,0.2,0,1.1-0.1,1.7c0,1.9-0.1,1.9-0.1-0.9c0-0.3-0.1-1-0.1-0.8c-0.1,0.6,0,1.3,0,2.1
		c0.1,4.8,0.1,6.6,0,7.9c0,0.2-0.1-0.8-0.1-1.3c0-1.8,0-3.6,0-5.5c0-2.4-0.1-4.8-0.1-7.3c0-0.3,0-1-0.1-0.9c0,0.1-0.1,0.4-0.1,0.8
		c0,0.2,0,1.1,0,1.6c0,0.9,0,1.7,0,2.5c0-0.5-0.1-0.8-0.1-1.6c0-2-0.1-4.1-0.2-6.2c-0.1-3.2-0.1-7.9,0-8.5c0.2-1,0.1-3.3,0.2-7.6
		c0,0,0,0,0,0.1c0-0.9,0-1.5,0.1-1.6c0-1.1,0-1.4,0-1.5c-0.1-0.6-0.2-1.7-0.2-1.6c-0.1,0.2,0,2.6,0,3.9c0,0.5,0,0.9,0,1.3
		c-0.2,0.4-0.3-2.4-0.4-3c-0.1-0.4-0.2-2.6-0.1-4.5c0.1-1.7,0.1-3.4,0-6.4c-0.1-2.5-0.1-5.8-0.2-8.8c0-0.4,0-1.1,0-1.1
		c0.1,1.2,0.2-2.6,0.3,2.3c0,0.1,0,0.2,0.1,0.2c0-3.7,0.1-5,0.1-7.6c0-0.4,0-0.9,0-1.3c0-0.7-0.1-1.5-0.1-2c0-0.3-0.1-0.2-0.1,0.1
		c0,1.5,0,3.1-0.1,4.6c0,0.4-0.1,0.3-0.1-0.1c0-0.4,0-1.7-0.1-2.1c0-1.9,0.1-3.1,0.1-6.3c0-1.8,0.1-1.8,0.1-0.7
		c0.1,1.8,0.2,2,0.1-1.3l0-0.9c0-0.1,0-0.2,0-0.3c-0.1-1.9-0.2-2.7-0.3-2.8c0,0-0.1-0.7-0.1-1.2c0-0.6,0-1.6,0-2
		c0-0.6,0.1-0.8,0.1-1.3c0-0.3,0-0.8,0-1.2c0-0.3-0.1-0.7-0.1-0.9c0-0.3-0.1-0.6-0.1-0.9c0-2.4-0.1-4.9-0.1-7.3
		c0-0.5,0.1-0.8,0.1-1.2c0-0.4-0.1-0.5-0.1-1.2c-0.1-1.8-0.2-4-0.3-5.7c-0.1-1.7-0.1-2,0-2.2c0.1-0.1,0.2,0,0.2,2.6
		c0,2.3,0.1,3.1,0.2,2.1c0-0.9,0.1-1.9,0.2-3c0-0.2,0-1.1,0-1.6c-0.2,0.9-0.3-3.3-0.5-5.5c-0.1-1.1-0.1-2.7-0.2-4.1
		c0.1-0.2,0.1-0.1,0.2-0.6c0-0.4,0.1-1.5,0.1-2.4c0-1,0.1-2.1-0.1-2.7c-0.1-0.3-0.2-2.5-0.3-3.8c0.1-2.4-0.1-4.5-0.1-6.9
		c0-0.7,0-2.1,0-2.2l0-0.1L2,117.2c0-0.3,0-0.6,0-0.8c0-2,0-4.7,0-5.9c-0.1-2.3-0.1-4.6-0.2-7c0-3-0.1-6,0-8.3c0-0.7,0-3.1,0-4.6
		c0.1,0.5,0.1,1.1,0.2,3.3c0-2.5-0.1-3.4-0.1-4.1c-0.1-1.9-0.1-3.7-0.2-5.6l0.1,6.4c0,0-0.1-0.3-0.1,0.1c0,2.1-0.1,1.4-0.2-0.2
		c-0.1-3.2-0.2-6.2-0.3-9.9c0-0.5,0-1,0-1.4c0,0.5,0,1.1,0.1,1.6c0,0.4,0,1,0.1,1.4c0,0.6,0.1,1.6,0.1,1.7c0-0.6,0.1-1.4,0.1-2.2
		c0-1.8-0.1-3.8-0.1-5.6c-0.1-1.4-0.1-2.6-0.2-4.1c0-1.6,0-3.3,0-4.9c0-1.1,0-2.6-0.1-3.3C0.9,60,1,56.9,1,53.6c0-0.8,0-1.9,0-2.8
		c0,0.4-0.1,1.2-0.1,1.1c0-0.1-0.1-1-0.1-1.5c0.2-4.1-0.3-9.7-0.1-13.8c-0.2-3.4-0.2-6.8-0.2-10.4c0-1.7,0-4.1-0.1-5.6
		c0-1-0.1-1.4-0.1-1.6c0,0.2,0,0.3,0-1.6c0-0.9,0-1.3,0-2.5c-0.1-1.4-0.2-3.7-0.2-5C0.1,7.1,0,4.4,0,1.6c0-0.4,0-0.9,0-1.3
		c0,0.2,0,0.4,0,0.6c0.1,3.8,0.4,6.5,0.3,11.4c0,0.4,0,1.2,0,1.4c0.2,4.2,0,0.4,0.1,4.9c0,0.5,0,0.9,0.1,1.4c0-0.6,0-1.3,0-1.8
		c-0.1-3.9,0-3.1,0.1-3.1c0,0,0.1,0.6,0.1,1c-0.1-3.1,0.1-2.1,0.1-4.3c0-2.1,0-2.3,0.1-1.5c0,0.2,0,1.9,0,2.7c0,2.2,0,4.2,0,6.5
		c0,2.1,0.1,2.7,0.2,1.7c0-0.3,0-0.8,0.1,1.6c0,0.5,0,0.7,0,0.1c0.1,4.5,0.1,6.1,0.1,7.8c0,0.4,0,0.7,0.1,1c0-0.2,0-0.4,0-0.6
		c0-3.4,0-6.8-0.1-10.5c0-0.3-0.1-0.5-0.1-0.5c0,0.1-0.1,0.4-0.1,0.8c0-2.2,0-3.1,0-3.9c0,0.2,0.1,0.2,0.1,0.7
		c0,0.6,0.1,1.7,0.1,2.6c0,1.3,0,2.8,0.1,4.2c0,1.4,0.3,5.7,0.3,5.3c0.1-1.1,0.1-2.2,0.2-3.7c0-0.6,0-2.1,0-3.1
		c0-2.5-0.2-4.5-0.1-6.3c0.1-0.9,0.2,1.2,0.3,1.2c0.1,0,0.1,1.5,0.2,3.2c0,2.6,0,2.5-0.1,1.2C2.1,21,2.1,21.5,2.1,23
		c0,0.9,0.1,2.1,0.1,2.5c0,1.2,0,2-0.1,3.1c0,0.5,0,1.5,0,2.2c0-0.3,0.1-0.6,0.1-0.7c0-0.1,0,0.1,0.1,0.3c0.1,1.8,0.1-2.4,0.2,0.7
		c0-1.2,0-2.5,0-3.6c0-1.1,0-2,0.1-3c0,0.8,0.1,1.5,0.1,2.3c0,2.4,0.1,2.6,0.2,2.6c0.1,0,0.1-2,0-3.5c0-2.8,0.1-1.9,0.1-1.5
		c0.1,1,0,1.7,0,2.7c0,1.5,0,3,0,4.5c0,2.1,0.1,4.2,0.1,6.2c0,0.4,0.1,0.9,0.1,0.7c0-0.2,0-1.1,0.1-1.7c0-0.8,0.1-1.8,0.1-2.3
		c0-0.3,0.1-0.1,0.1,0.4c0,0.4,0,1.9,0,2.1c-0.1,2.5,0,4.2,0.1,6.7C4,47.8,4,48.9,4.1,55.6c0,0.8,0,1.9,0,2.5
		c0.1,1.1,0.1,2.1,0.2,2.9c0,0.2,0.1,0.2,0.1-0.1c0-0.6,0-2,0-2.1c-0.2-2.5-0.2-6.6-0.2-9.6c0-2.7,0-5.2-0.1-7.8c0-0.7,0-1.4,0-2.1
		c0,0.6,0.1,1.1,0.1,1.8c0.1,1.2,0.1,3.8,0.2,3.5c0,0,0.1,1.9,0.1,2.1c-0.1,1.5,0,2.4,0.1,3.7c0,0.9,0.1,2.3,0.1,3.5
		c0.1,2,0.1,4,0.2,6c0,0.5,0.1,1.2,0.1,1.1c0-0.6,0-2.1,0-2.2c-0.1-1.4-0.1-3.3-0.2-5.2c0-0.8,0-1.5,0-2.3c0,0.8,0.1,1.8,0.1,2.3
		C5,54.7,5,54.7,5,52.2c0-0.6,0.1-1,0.1-1.5c0,0.7,0,1.4,0.1,2.1c0,0.8,0,1.7,0,2.4c0,5.9,0,5.9,0.2,11c0,0.7,0,1.5,0.1,2.3
		c0,0.8,0,1.8,0,2.2c0,0.3-0.1,0.2-0.1-0.2C5.2,69,5.1,67.3,5,65.8c0-0.5-0.1-0.8-0.1-1.3c0,1,0,2.1,0,3.1c0,1.2,0.1,2.4,0.1,3.5
		c0.1,2.9,0.2,6.5,0.2,9.2c0,2.3,0,3.3,0.1,3.6c0.1,0.8,0.2,2.8,0.3,5.2c0.1,1.9,0.1,3.4,0.1,5.2c-0.1-1.3-0.1-2.4-0.2-3.8
		c-0.1-2.7-0.1-4.2-0.2-1.5c0,0,0-0.6-0.1-1.1c0-1-0.1-3-0.1-3c-0.1,0.1,0,1.9,0,2.9l0.1,6.4c0-2,0.1,0,0.2,0.1
		c0.1,0.1,0.1,1.8,0.1,3c0,2.3,0,4.6,0,6.9c0,0.5,0,1,0,1.5c0-0.1,0-0.3,0-0.4c-0.1-3.3,0.2-4.1,0-7.9c0.1-3.7-0.1-7.9-0.1-11.9
		c0-0.5,0-0.9,0-1.4c0,0.4,0,0.8,0.1,1.3c0,2.4,0.1,4.7,0.2,6.9c0.1,2.3,0.2,4.9,0,6.2c-0.1,0.6,0,2.6,0,4.3c0,1.2,0.1,3,0,3.2
		c-0.1,0.1-0.1,1.5,0,2.7c0,1,0.1,2.1,0.2,2.2c0.1,0.2,0-1.8,0-3c0-0.3,0-0.6,0-0.8c0-0.9,0-1.7,0-2.6c0,0.8,0.1,1.5,0.1,2.4
		c0,1.2,0.1,3.3,0,3.8c-0.1,2.2,0,5.3,0,8.3c0,1.9,0,2.3-0.1,2.2c-0.1-0.2-0.1,0.6,0,2.4c0.1,2.1,0.2,3.9,0,4.8c0,0,0,0.4,0,0.7
		c0-0.1,0-0.1,0-0.2c0.1,0.7,0.1,1.3,0.2,1.9c0.1,1,0.3,2.8,0.2,5c-0.1,2.8-0.2-1-0.3-2c0-0.3-0.1-0.9-0.1-1.1
		c-0.1-0.4-0.1-0.6-0.1-0.9c0,1,0,2,0,2.8c0.1,3,0.2,5.9,0.3,8.9c0,0.4,0,1.2,0,1.5c0,0.2-0.1-0.1-0.1-0.4c0-1.3-0.1-2.7-0.1-3.9
		c0-1.4-0.1-2.7-0.3-8.1c0-0.3,0-0.6,0-0.9c0-0.9-0.1-3.2,0,0.4c-0.2-0.4-0.2-2.9-0.3-5.1c0-0.4-0.1,1-0.2,1.6c0,1,0.1,2.1,0.1,2.9
		c0.1,0.5,0.1,0.8,0.1,1.2c0,0.2-0.1,0.4-0.1,0.5c0,0.1-0.1-0.1-0.1,0c0,0.1,0,0.4-0.1,0.6c0,0.3,0,0.8,0.1,1l0,0.4l0-1.8
		c0.1,1.4,0.2,3,0.3,4.6c0,0.2,0-0.2,0-1.9c0-0.5,0-1.3,0-1.2c0.1,0.4,0.1,1.1,0.2,1.5c0,0.1,0-0.5,0.1-0.8c0,1.6,0,2.1,0,2.5
		c0.1,4,0,5.1-0.1,6c0,0.1,0,0,0,0c-0.1,2.4-0.2,3.3-0.3,5.8c0,1,0,2.2,0,3.4c0,0,0,0,0,0c0,0,0,1.4,0,1.4c-0.1,1,0.1,4.9,0,5.2
		c-0.1,0.1-0.1,3.8-0.2,0.5c0,0.4,0,0.7,0,1.1c0,0.4,0,1.3,0,1.4c0.1,0.2,0.2,0.2,0.3,0.4c0,0.1,0.1,0.5,0.1,0.8
		c0,0.6,0.2,1.1,0.2,1.6c0,0.7-0.1,1.2-0.1,1.8c0.1,0.2,0.1,0.6,0.2,0.6c0.1,0.1,0.2,0.5,0.3-0.1c0.1-0.8,0.2,1.5,0.3,3.2
		c0-0.7,0-1.4,0-2.3c0,0.5,0-0.8,0-1c0,0,0,0,0,0c0-0.7,0-1.5,0-2c0-0.1,0-0.5,0.1-0.7l0,1.2c0.1,0,0.2-0.2,0.3,0.1
		c0,0.1,0.1,1.3,0.1,2c0,0.4,0,1.1-0.1,1.3c-0.1,0.6-0.2-1.2-0.3-0.3c0,0.3,0,0.5,0,0.9c0.1,2,0.1,4,0.2,6c0,0.1,0,0.3,0,0.4
		c0,0,0-0.1,0-0.1c0-1.5,0.1-3.4,0.1-5.1c0-0.3,0.1-0.3,0.1,0c0,0.6,0,1.5,0.1,2.1c0,0.9,0,1.7,0,2.7c0,0.4,0,1,0,1.5
		c0,0.1,0,0,0-0.2c0-0.5,0-1.2,0.1-1.7c0-0.3,0-0.4,0-0.6c0,0.5,0,0.9,0,1.4c0.1,2.6,0,4-0.1,5c0,0.3,0,0.7-0.1,1
		c0,0.2,0.1,0.2,0.1,0.7c0,0.7,0.1,1.8,0.1,2.7c0,0.2-0.1,0.8-0.1,0.6c-0.1-1.8-0.2-2.1-0.3-1.5c-0.1,0.4-0.1,3-0.1-0.6
		c0-1.3-0.1-2.5-0.2-3.7c0-0.1,0-0.4,0-0.5c0-0.9,0.1-1.8,0.1-2.7c0-0.1,0-0.1,0-0.1c-0.1-0.9-0.1-1.8-0.2-3l0,0.1
		c0-0.1-0.1,0.2-0.1-0.3c-0.2-4.2-0.4-4.8-0.6-4.3c-0.1,0.2-0.1,1,0,2.2c0,0.8,0.1,1.9,0.1,2.8c0,2.9,0,4.2,0.1,5l0.2,1.1
		c0,0.8-0.1,1.6-0.1,2.2l0,0.8c0,0.1,0,0,0,0.1c0,0.5,0.1,1.2,0.1,1.8c0.1,1.5,0.2,2.2,0.3,2.3c0,0,0.1-0.1,0.1-0.2
		c0-0.1,0-0.1,0-0.2c0-0.4,0-1.7-0.1-2.1c0-0.9,0-1.5,0.1-2.9c0.1,1.1,0.1,2.3,0.2,3.7c0,0.8,0,1.9,0.1,2.8c0,0,0-0.1,0-0.1
		c0,0.4,0,0.8,0,1.3l0.1,1.2c0-0.7,0-1.5,0-2.1c0-0.5,0.1-0.8,0.1-1.2c0,1,0,2.4,0.1,2.8c-0.1,1.6-0.1,4-0.2,4c-0.1,0-0.1,4.2,0,4.5
		c0.2,0.7,0.2,2.8,0.2,4.8c0,0.8,0,2.6,0.1,3.6c0,0.3,0.1-0.4,0.1-0.6c0-0.1,0.1-0.2,0.1-0.3c0,0.8,0,1.7,0,2.2c0,0.3,0,0.4,0,0.7
		c0.1,0.2,0.1,1.8,0.1,2.9c0,0.3,0,0.6,0,1.7c0,0.2,0,1.2,0,2.1c-0.1-0.6-0.1-1.1-0.2-1.9c-0.1-1.2-0.1-2.3,0-3.4l-0.2,0
		c0-1,0-1.8-0.1-2.6c0,0.3,0,0.6,0,0.9c0,0.4,0,0.8,0,1.1c0,0.2,0,0.4,0,0.5l0-0.8c0,0.3,0,0.8-0.1,0.8c-0.1,0.1-0.2-2.5-0.2-0.1
		l-0.1-1.1c0,1.1,0,2.2,0.1,4.1c0.1,2,0.2,3.9,0.4,6c0,0.5,0,1.5,0.1,2.2c0,0.1-0.1,0.6-0.1,0.2c-0.1-0.8-0.1-2.1-0.2-0.6
		c0,2.1,0,4.5,0,6.9c0,1.2,0.1,2.8,0.1,4.3c-0.1,0-0.1-0.3-0.1,0.1c0,0.5-0.1,1.5-0.1,2.3c0.1,0.6,0.1,1.4,0.2,1.7
		c0.1,0.6,0.2,0.7,0.3,1.2c0.1,0.4,0.1,2.5,0.1,3.5c-0.1,2.4-0.1,4.7-0.2,7.1c0,0.3,0,0.5,0,0.7c0-0.5,0-0.9,0-1.4
		c0-1.6-0.1-3.4-0.1-4.7c0-1-0.1-2.2-0.2-1.9c-0.1,1.1,0.1,1.6,0.1,2.7c0,1.1,0,2.6,0,3.2c-0.1,2.3,0,1.7,0.1,2.6
		c0.1,1,0.1,3.5,0.2,5.5c0,1.8,0.1,4.2,0.1,5.5c0,1.9-0.1-0.8-0.2-1.1C7,260,7,261.5,7,262.9c0.1,1.4,0.2,2.5,0,2.7c0,0.1,0,2,0,2.5
		c0.1,1,0.1,1.6,0.2,2.4c0,0.9,0.1,2.3,0.1,2.7c0.2-0.6,0.4-1.3,0.6-1.9c0,0,0,0.1,0.1,0.1c0-0.1,0-0.2,0-0.3l0.1-0.2l0-1.2
		c0-0.6,0-1.2,0-1.6c0-0.3-0.1-0.6-0.1-0.5c-0.1,3.3-0.5-1.4-0.5,4.5c0,0.1-0.1-1-0.2-1.5c0-1,0-2.5,0-3c0.1-1.6,0.2-2.2,0.5-2
		c0.2,0.1,0.2,0,0.1-3.5c-0.1-3.2-0.1-3.2,0.1-4.9c0-0.4,0-3.3,0-4.1c-0.1-1.6-0.1,0.2-0.1,0.6c0,0.6-0.1,1.2-0.1,1.9
		c-0.1-1.8-0.1-3.7-0.2-5.5c0-0.1,0-1.2,0.1-1.1c0.1,0.4,0.2,1.1,0.2,1.5c0,0.1,0.1-0.6,0.1-0.7c-0.1-3.7,0-5.4,0.1-7.5
		c0-1.2,0-1.4-0.1-1.9c-0.1-0.8-0.3-1.8-0.3-3.5c-0.1-2.8-0.2,0.5-0.3-3.1c0.1,0.4,0.2-0.9,0.2-3.2c0-1,0-2.4,0-3.1
		c0-0.7,0-3.1,0.1-1.2c0,0.9,0.1,2.5,0.1,3.4c0,1.4-0.1,2.5-0.1,3.8c0,0.3,0,1,0,1.5c0,0.1,0,0,0-0.2c0-1.2,0.1-1.2,0.2-0.2
		c0.2,2.8,0.3,7.2,0.3,11.2c0,1.5,0,1.5-0.1,0.5c0-0.1-0.1,0.5-0.1,0.6c0,1.3,0.1,3.5,0.1,3.6c0.2,0.4,0.2,1.5,0.1,3.7
		c0,1.7,0,3.8,0,5.7c0,0.8,0.1,1.4,0.2,2.5c0.1,1.3,0.1,3,0.2,4.5c0.1,2.9,0.1,4,0,3.7c-0.1-0.2-0.2,0.9-0.2,2.2l0-0.3
		c0,1,0.1,2.3,0.1,3.1c0.1,1.3,0.1,2.4,0.1,3.5c0.1,1.5,0.2,2.9,0.3,3.4l0-0.2c0-0.6,0.1-1.2,0.1-1.6c0.1-0.9,0-1.5,0-2.1
		c0-0.6-0.1-1.2-0.1-1.8c0-0.1,0-0.1,0-0.2c0-0.7,0-1.9-0.1-2.8c0-0.5,0-1.1,0-2.4c0.1,2,0.1,3.2,0.2,4.5c0.1,0.4,0.2,1.3,0.2,2.1
		c0,2.6,0,5.2,0,7.8c0,0.1,0,0.1,0,0c0-0.6-0.1-1.3-0.1-1.9c-0.1,0.4-0.2,0.8-0.4,1.2c0,0.9,0,2.2,0,2.3c-0.1,0.1-0.1,1.3,0,2.5
		c0.2,2.1,0.1,4-0.1,4.2c0.3,2,0.4,0.9,0.5,4.7c0,0.6,0.1,1.1,0.1,1.8c0,0.5,0,1.2,0.1,1.8c0,0-0.1,0.1-0.1,0
		c-0.1-0.4-0.2-1.3-0.2-1.2c0,0.1-0.1,1.7-0.1,2.6c0.2,2.2,0,4.9,0.1,6.1c0.2,2.3,0.1,5.4,0.2,7.6c0,0.5,0,1.5,0,1.7
		C9,320,9,322.5,8.8,322.3c-0.1-0.2-0.1,1.2,0,3.5c0,1.4,0.1,3.1,0.2,4.6c-0.2,0.1,0,2.6,0,3.9c0,0.5,0,1.2,0,1.3
		c0-0.2-0.1-0.6-0.1-0.9c0,1,0.1,2.3,0.1,2.8c0.2,2.2,0.2,5.4,0.2,8.3c-0.1,0-0.1-0.2-0.2,0.1c0,0.1,0,0.7-0.1,1.8l0-0.2l0,0.3
		c0,0.3,0,0.7-0.1,1.2c-0.1,1.1-0.1,0.7-0.1,0.3c0,0.4-0.1,0.5-0.1,1.1c0,0.5,0,1.4,0,2.1c0-0.7,0-1.4-0.1-2.1c0-0.8,0-1.8-0.1-2.3
		c0-0.5-0.1-0.5-0.1-0.4c0,0.1,0,1.1,0,1.3c0.2,3.4,0.1,6.3,0.1,9c0.2,1.7,0,7.2,0.3,8.1c0,0.1,0.1,1.7,0.1,2
		c-0.1,2.8,0.1,5.1,0.2,7.7c0,0.9,0.1,1.4,0,2.5c0,0.5,0,2.4,0,2.7c0,0.5,0.1,0.6,0.1,0.2c0-0.3,0-1.8,0-2.6
		c-0.1-2.6-0.2-4.9-0.2-7.7c0-0.6,0-1.2,0.1-1.2c0,0,0.1,0.7,0.1,1.3c0,1.1,0.1,3.4,0.1,3.4c0.1-0.3,0.1-6.6,0-9.3
		c0-1.3,0-2.7-0.1-1.1c-0.1,1.1-0.2,0.6-0.3,0.7c-0.1,0.1-0.2-0.2-0.2-3.5c0-0.3,0-1,0-1.1c-0.1-1.1-0.1-2.4-0.1-3.4
		c0.1-1.2,0.1,0.7,0.2,1.9c0,0.8,0,2.1,0.1,3.1c0,0.5,0,0.9,0.1,1.3c0-0.4,0-0.9,0-1.3c-0.1-2.5,0-4.8,0-5.3c0.1-0.8,0.1-1.6,0-3.8
		c0-1-0.1-2.2-0.1-3.5c0.1-0.1,0.2,0.9,0.2,2.7c0.1,1.7,0.1,3.5,0.2,5.1c0,1.4,0.1,1.6,0.1,0.2c0-1.9,0-3.9,0-5.9l0,0
		c0.2,0.5,0.2,5.4,0.4,5.9c0,0,0,1.3,0,1.5c0,0.5-0.1,1.2-0.1,0.9c-0.1-1.7-0.2-1-0.2,1.2c0,2.2,0,4-0.1,3.9c0,0.6,0,1.5,0,1.6
		c0.1,0.6,0.2,1.1,0.3,1.6c0-3.1,0.2,1.5,0.2-0.1c0.1-1.4,0.1-2.3,0.2-2.9c0-0.4,0.1,0.2,0.2,0.3c0,1.1,0,2.5,0,3.4
		c0,1.3-0.1,2.6-0.1,3.5c-0.1,1.6-0.2,1.7-0.3,0c-0.1-4-0.2-2.2-0.3-2.4c-0.1-0.2-0.1,1.4,0,3c0.1,1.9,0,2,0,3
		c0-0.4-0.1-0.8-0.1-1.2c0-0.1,0-0.4,0-0.6c-0.1-3.7-0.1-2.3-0.1-0.7c0,0.8,0,1.5-0.1,2.4c0,0.5,0,1.4,0.1,2.2c0.1-4,0.2,1,0.4,0.2
		c0.1-0.6,0.1,0.1,0.2,2.2c0,0.4,0.1,0.8,0.1,0.8c0.1-2.2,0.1-1.2,0.1,1.1l0.1,5.8c-0.1,0.8-0.3-2.2-0.3,2.8c0,1.1-0.1,1.1-0.1-0.9
		c0-0.9-0.1-2.6-0.1-1.1c0,2.6,0,4.5-0.1,5.2c0,0,0,1.1,0,1.6c0,0.3,0.1,0.5,0.1,0.4c0-1.6,0.1-1.4,0.1,0.7c0,0.7,0,1.8,0,1.9
		c0.1,2.2,0.1,4.4,0.1,6.1c0.1,4-0.1,3.2-0.1,4.9c0,1.4-0.1,2.7,0.1,3.6c0,0.2,0.1,0.3,0.1,0.5c0,1.3,0,2.6,0.1,3.9
		c0-0.4-0.1-1.2-0.1-1c-0.2,1.2-0.4,2.4-0.4,6.6c0,0.4,0,1.2,0,1.8c0,0,0.1,0.3,0.1,0c0.1-2.4,0.2-2.5,0.3,0.3c0,0.8,0.1,2,0.1,3
		c0,0.6,0,1,0.1,1.5l0-2.9c0,0.5,0,1.1,0.1,1.6c0,1,0.1,2.8,0.1,2.9c0,0.1,0,0.2,0.1,0.3c0.1,0,0.2-0.4,0.2-1.6
		c0.1-1.5,0-5.6,0.2-5.2c0.1,0.3,0.2,3.4,0.1,4.9c-0.1,0.6-0.1,0.9-0.1,1.5c0,0.8-0.1,2.2-0.1,2.9c-0.1,0.8-0.1,1.2-0.2,0.7
		c0,0.4,0,0.9,0,1.3c0,1.8-0.1,3.7,0,6.2c0.1,2.3,0.1,3.6,0.1,5.5c0,0.2,0.1,1.7,0.1,2.1c0,0.3,0.1,0.1,0.1-0.3c0-0.8,0.1-0.9,0-3
		c-0.1-1.9,0-2.6,0-3.1c0-0.3,0.1,0.7,0.1,1.3c0.1,1.6,0,2.3,0,2.9c-0.1,1.7,0,2.9,0.1,4.8c0.1,1.1,0,2.3-0.1,1.1
		c-0.1-1.4-0.1,3.3-0.2,0c0,1.1-0.1,2.2-0.1,3.3c0,1,0,1.9-0.1,0.3c-0.1-1.8-0.1-3.4-0.1-5.1c0-0.1,0.1,0.6,0.1,0.9c0-1,0-1.9,0-2.9
		c0-0.5,0-1.1,0-1.7c-0.1,0.4-0.1,0.5-0.2,1.4c0,1.1-0.1,2.8-0.1,4.4c0.1,2.3,0.1,5.8,0.3,7.8c0.1,1.3,0.1,0.9,0.2,0
		c0-0.2,0.1,0.8,0.1,1.5c0.1,2.7,0,3.8-0.2,4.2c-0.2,0.3-0.2,1.5-0.1,5c0,1.1,0,2.6,0.1,3.2c-0.1,2.3,0,5.1,0,7.8c0,2.1,0,2-0.1,1.5
		c-0.1-0.4-0.1-1.5-0.2-1.3c-0.2,1.1-0.2-3.1-0.3-5c-0.1-2.3,0-2.7,0.1-3.5c0-0.6,0.1-1.6,0.1-2.4c-0.1-0.3-0.1-0.5-0.2-1
		c0-0.2-0.1-1.1,0-3.8c0.1,0.2,0.1,0,0-0.2c0-3.5,0-5.1,0-5.7c0.1-2.2,0.1-2.3,0-3.6c-0.1-1.4-0.1-2.3,0-3.5c0-1.2,0.2-2.9-0.1-3.6
		c0,0,0-0.8,0-1.1c0-0.7,0-1.6,0.1-1.7c0.1-0.2,0.1-0.8,0.1-2.9c-0.1-1.3-0.1-3.8-0.2-1.7c0,0.6-0.1,0.8-0.1,1.3c0,0,0,1.1,0,1.4
		c0,0.4,0.1,0.6,0.1,0.9c0,0.2,0,0.4,0,0.6c0,0.5-0.1,1.6-0.1,1.4c-0.1-1.8-0.1,1.1-0.2,1.2c0.3,5.3,0,5.8,0,8.8c0,0.6,0,1.2,0,1.8
		c0,0.2,0.1,0.3,0.1,0.6c0,0.4,0.1,0.9,0.1,1.4c0,1.1,0,2.2,0,3.3c0.1,0.2,0.1,0.1,0.2,0.6c0,0.5,0.1,0.7,0.1,0.8
		c-0.2,2.7-0.2,4.6-0.2,8.9l-0.1,3.4c-0.1,1.9-0.2,0.7-0.3,2c-0.1,2.1-0.2,0.5-0.3-0.1c-0.2-0.8,0,1.6,0,2.4c0,1.3,0,2.4-0.1,3.6
		c0.1,1.9,0,3,0,3.4c0,0.4-0.1-0.3-0.2-1c-0.1-2.2,0-1.3,0-1.9c0.1-1.7,0-3.8-0.1-5c0-0.4-0.1-1.5-0.1-2.2c-0.1-1.5-0.1-3.2-0.2-5.2
		c0,0-0.1-0.3-0.1-0.1c-0.1,2.2-0.1,2.4-0.2,0.3C8,473.6,8,473.2,7.9,473.4z M8.3,267.1c0-0.1,0-0.6,0-0.9c0-0.2,0-0.5,0-0.6
		c-0.2,0.6-0.2-5.7-0.4-5.2c0,0.1,0,0.4-0.1,0.6C7.9,263.9,8.1,267.5,8.3,267.1z M2,35.6C2,39.9,2,39.9,2.2,39.8
		c0.1,0,0.2,0.2,0.1-2.4c-0.1-2-0.1-3.9-0.2-5.8c0,0.6-0.1,1-0.1,1.8C2,34.1,2,35.4,2,35.6z M1.2,42.5c0-0.7,0-1.2,0.1-1.3l0.1,1.3
		c0-0.4,0-1,0-1.5c0,0,0,0.1,0,0.2l0-0.8c0-3.2-0.3-6.8-0.2-1.8C1.1,39.9,1.2,41.5,1.2,42.5z M3,47.5c-0.1-3.3,0-6.1-0.1-9.6
		c-0.1-3.9-0.3-1.1-0.2,2.5l0.1,4.5c0-0.6,0-1.2,0-1.8C2.8,44.7,2.9,48,3,47.5z M3.5,52.6c0.1-0.7,0-1.9,0-3.1c0-0.3,0-1.1,0-1.6
		c0.1,0.2,0.1-0.6,0.1-2.3c-0.1-1.6-0.1-3-0.2-4.3c0-0.2-0.1,0.4-0.1,0.9c0,1,0,2.2,0,3.3c0,1.4,0,2.9,0.1,4.2
		C3.4,50.8,3.5,52.7,3.5,52.6z M4.6,69.4c0,1.3-0.2,0.9-0.1,3.9c0.1,4.5,0.4,5.2,0.5,4.9c0.1-0.3-0.1-1.7-0.1-5.5l-0.1,2.7
		c0-0.4,0-0.8-0.1-1.3c-0.1-2.2,0-3.4,0.1-3.6c0-2.1-0.1-3.7-0.1-4.4C4.5,65.1,4.6,68,4.6,69.4z M3.9,69.6c-0.1-1.2-0.1-2.1-0.2-3.2
		c0,1.2,0,2.4-0.1,3.7c0,0.3,0.1,1.2,0.1,1.9c0,0.7,0,1.5,0,2.4c0,0.5,0.1,1.6,0.1,1.7C3.9,75.7,3.9,71.3,3.9,69.6z M2.2,69.1
		c-0.1-1.8-0.2,1.3-0.3,1.2c-0.1-0.1-0.1-0.1-0.2-1.2c0-0.7,0-1.5,0-3c0-2.2-0.1-5.6-0.2-6.3c-0.2-1.2-0.1,4-0.1,4.2
		c0.1-1.9,0.2,1.9,0.3,4.1c0,0.4,0,0.7,0,1c0,0.8,0,1.5,0.1,2.9C2.1,76.3,2.1,71.3,2.2,69.1z M2.7,72.7l0.1-1.9
		c0-2.6-0.1,1.6-0.2,0.3c-0.3-4.8-0.3-5-0.1,1.4C2.7,79.7,2.8,81.2,2.7,72.7z M4.3,86.3c0,0.5,0,1.2,0,1.7c0-0.1,0.1-0.1,0.1-0.5
		c0.1-1.5,0-4.3,0-7.4c0-2.9-0.2-4.6-0.3-6.6c0-0.4-0.1-0.3-0.1-0.4c0,0.6,0,1.5,0,1.7c0.2,1.4,0.1,5.8,0.3,7.6
		C4.4,82.5,4.3,84.9,4.3,86.3z M3.7,91.2l0-3.3c-0.2-4.2-0.3-1.1-0.2,2.1c0.1,1.3,0.2,0.3,0.2-0.3C3.6,90.2,3.6,90.7,3.7,91.2z
		 M5.1,94.2c0.1-0.1,0.1,0.7,0.1-1.1c0-1.2,0-4.2,0-4.9l0-0.9c-0.3-3-0.1,4.6-0.4,4.2C4.8,95,5,94.3,5.1,94.2z M5.3,116.1
		c0,1.8-0.1,4.6,0.1,5.6c0.2,1.2,0.2-4.3,0.5-1.2c0.1,0.8,0.1,2.4,0.2,2.9c0.1,0.6,0.2-0.5,0.1-2.3c0,0,0,0.1-0.2-2.1
		C5.7,117.7,5.4,111.6,5.3,116.1z M5.7,110.1c0,0.8-0.1,1.5-0.1,2.3c0,0.6,0,1.3,0,1.9c0,0.2,0,0.3,0,0.5c0,0.5,0.1,0.2,0.2,0.4
		c0-0.3,0.1-0.8,0.1-1.3L5.7,110.1z M5.4,96.4c0,2.2,0,4.3,0,6.5c0,1.6,0.1,3.5,0.2,4.7c0,0.6,0.1,0,0.2-0.1c0-0.9,0-2-0.1-2.8
		c-0.1-0.9-0.1-1.5-0.1-2.4c0-0.8,0-2,0-2.8c0-0.6,0-0.8,0.1-1.2c-0.1-0.9-0.1-1.7-0.2-2.3C5.4,96.2,5.4,96.2,5.4,96.4z M2.7,104.8
		c0-0.7,0-1.4-0.1-2.6c0-0.8,0.1,0.4,0.1-0.9c0-2.1-0.1-1.1-0.2-0.3l0,1.8c0-0.4,0-0.7,0-0.9C2.5,105.6,2.8,109.1,2.7,104.8z
		 M4.9,114.5c0-0.6,0-1.4,0-1.9c0-1.2,0.1-2.6,0-4.4c0-0.2,0-0.4,0-0.6c0.1-1.4,0.1-3.7,0-6.4c0-0.4,0-0.8-0.1-1.2
		c0,0.3,0,0.6,0,0.9c0,1.8,0,3.7,0,5.6c0,0.5,0,1.1,0,1.7h0c0,0.5-0.1,1.1-0.1,1.6c0,0.4,0,1.8,0,2C4.8,112.9,4.8,113.7,4.9,114.5z
		 M4.2,118.3c0.1,2.7,0.1-0.2,0.2,1.7c0.1,1,0.1-0.7,0-2.4c0-2.6,0-2.6-0.2-2.5C4.2,114.7,4.1,116,4.2,118.3z M2.7,125.3
		c0-0.5,0.1-1,0-2.5c-0.1-2.3-0.2-0.6-0.2-1.6c-0.1-1.3,0-3.4-0.1-4c-0.1-0.6-0.1,1.7-0.1,3.6l0,1.2C2.3,122.5,2.7,125.9,2.7,125.3z
		 M3.8,133.2c0.1-1,0.2-3.1,0.3-0.2l0.1-3.2c0-0.5-0.1-1.2-0.1-1.5C4,127.9,4,128,3.9,127.7c-0.1-0.5-0.2,2.1-0.2,4.7
		C3.7,132.7,3.8,133.4,3.8,133.2z M5.3,148c0-1.2,0-2.4,0-3.6c0,0.3-0.1,0.7-0.1,1c-0.1-0.5-0.1-0.7-0.2-1.3c0-1.5,0-2.6,0.1-2.6
		c0,0,0-1,0-1.7c0-3.6,0.1-3.8,0.2-2.3c0.1,1.4,0,2.7,0.1,4.1c0,0,0,0,0,0c0.1-0.1,0.1-1.5,0.1-3.1l0-0.1c-0.1-1.2-0.2-2.7-0.2-5
		c0-1-0.1-1.6,0-2.4c0-0.6-0.1-1.1-0.1-1.8c0-0.5,0-1.7,0-2.2c0-0.8,0-1.6,0-2.5c0-1.1-0.1-3.4-0.1-3.5c0-0.1-0.1,2.3-0.1,3.1
		c0,1.3,0,2.5,0,3.8c0,0.9-0.1,1.7-0.1,1.7c0,0-0.1-0.8-0.1-1.7c0-1,0-2.1-0.1-2.7l0-1.1l-0.2-0.3c0,1,0,2-0.1,2.5
		c-0.1,1.5,0,1.8,0.1,2.6c0,0.8,0,1.7,0,2.5c-0.1,0.2-0.1,0.4-0.1,0.6l0,1.2c0.1,1.7,0.1,1.8,0.2,1.6c0-0.1,0-0.5,0.1-0.7
		c0-0.3,0-0.7-0.1-0.9c-0.1-0.6-0.1-1.2-0.2-1.7c0.1,0,0.3-0.1,0.4,0.1c0.1,0.1,0.2,0.5,0.3,0.8l-0.1,4.2c-0.1,0-0.1-0.1-0.1,0.1
		c0,0.1,0,0.7,0,1.1c0.1,1.2,0.1,2.8,0,2c-0.1-1.1-0.2-1.6-0.1,1.9c0,0.4-0.1,1-0.1,1.6c0,0.3,0,1,0,1.5
		C4.9,144.3,5.1,147.3,5.3,148z M5.6,151.1l-0.1,0.4c0,0.1,0,0.2,0,0.2c0,0.2,0,0.1,0,0c0,0.1,0,0.5,0,0.8c0,0.3,0.1,0.8,0.1,0.8
		c0.1,0.1,0.1,0.1,0.2,0.1L5.6,151.1z M3.9,158.4c0-1.7,0.1-3.8,0.1-4.8c0-0.9,0.2-0.6,0.2-0.8c-0.1-2.1-0.2-0.4-0.3-1.1
		c-0.1-0.6-0.1-1.3-0.2-1.6c-0.2,0-0.3,2.5-0.3,5c0,0.4,0.1,1.1,0.1,1.7c0,0.1,0,0.1,0,0C3.7,154,3.8,157.2,3.9,158.4z M5.3,160.3
		c0-0.4,0-0.8,0-1.2c-0.3-1.6-0.1-5.5-0.2-7.8c0-0.6-0.1-1.2-0.1-1.3c0-0.1-0.1,0.3-0.1,0.5c0,0,0,0.5,0,1c0,0.5,0.1,1.6,0.1,1.7
		c0.1,0.3,0.2,0,0.1,1.8c-0.1,0.9,0,5.6,0.1,6.2C5.2,162.2,5.3,162.3,5.3,160.3z M5.9,174.1c0-0.4,0-1.5,0-2.3
		c-0.1,0.6-0.1-3.2-0.2-4.1c0-0.2-0.3-0.6-0.3-0.9c0,0.5,0,1,0,1.3c0,1.7,0.2,3.3,0.3,4.8c0-0.1,0-0.1,0.1-0.2l0,1.6l0,0.2
		C5.8,174.9,5.8,174.6,5.9,174.1z M5.8,180.1c0-0.2-0.1-0.2-0.1,0.2c0,0.3,0,2.2,0,2.6l0,0.2C5.7,181.5,5.7,180.5,5.8,180.1z
		 M3.8,184.8c0,0.1,0.1-0.7,0.1-0.9l-0.1-4.2c-0.1-0.6-0.1-1-0.2-1.4c0,1.7,0.1,3.4,0.1,5.1C3.7,183.9,3.7,184.7,3.8,184.8z
		 M5.8,188.4c0-0.3,0-0.5,0-0.8c0,0.2,0,0.4,0,0.5l0.1-0.7c0-0.8,0-1.7,0-2.5c0-0.3-0.1,0-0.1-0.2l0,0.2c-0.1,1.8-0.1,3-0.2,4
		C5.7,189.6,5.7,188.8,5.8,188.4z M6.5,198.6c0,0.2,0,0.3,0,0.5c0,0.6-0.1,0.9-0.1,1.1c-0.1,0.3-0.1,0.3-0.2,0.8c0,0.3,0,2,0,2.2
		c0.1,1.5,0.2,3.9,0.1,5.6c0,2.9,0,3.4,0.2,4.4c0.1-0.4,0.1-1.5,0.1-2.9c-0.2-3.1,0-3.8,0-5.4c0-2.7,0.2-1.5,0.3-1.4
		c0,0.1,0.1,1.8,0.1,2.1c0,1-0.1,1.9-0.1,2.7l0,0c0,0,0.1-0.3,0.1,0.1c0,0.3,0,1.1,0.1,1.9c0-1.1,0-2.5,0-3.2c0-0.2,0-0.2,0-0.1
		c0-1.5-0.1-4.5-0.1-6.2c0-1.9-0.1-2.4-0.1-2.3c0,0.1-0.1,0-0.1-0.4c0,0,0,0,0,0C6.7,197.8,6.6,198.1,6.5,198.6z M5.8,201.4
		c0.1,2.5,0.1,2.5,0.2,1.2c0-0.4,0-0.9,0-1.4c0-0.3,0-0.6,0-0.8c0-1.2,0-1.7-0.1-1.8l0-0.2c0-0.1,0-0.1,0-0.2
		c-0.2,0.3-0.3-0.9-0.4,2.2c0,0.6,0,1.5,0,2.2c0-0.1,0.1-0.1,0.1-0.4c0-0.5,0-1.2,0.1-1.7C5.7,199.6,5.7,199.4,5.8,201.4z
		 M6.4,195.1C6.4,195.2,6.4,195.2,6.4,195.1l0,1.7c0,0,0,0.1,0,0.1l0-0.3L6.4,195.1z M3.6,205c0-0.1,0-0.3,0-0.6
		c0-3.3-0.2-3.8-0.3-5.8c0-0.3,0-0.2-0.1-0.4c0,0.5,0,1.3,0,1.8C3.3,202.5,3.5,205.5,3.6,205z M3.8,205l0-1.3
		c-0.1-3.2-0.1-6.7-0.3-8.9c0-0.4-0.1-0.8-0.1-1.2c0,0.7,0,1.5,0,3c0.1,2.4,0.2,5.1,0.3,7.8C3.8,204.7,3.8,204.8,3.8,205z
		 M4.3,211.7c0-0.1,0.1-1.6,0-1.9c-0.1-1.7-0.2-3.3-0.2-4.7C4,204.4,4,203.9,4,203.4c0,0.9,0,1.9,0,2.2C4,210.4,4.1,212.1,4.3,211.7
		z M6.1,213.7c0,1,0,1.9,0,3c0,0.5,0,1.4,0,1.7c0.1,0.7,0.2-0.5,0.2-1.3c-0.1-2.4,0-6.4-0.2-7.2c0,0,0-1,0-1.1c0-0.7,0.1-1.7,0.2-2
		c0-0.5,0-1.1,0-1.6c-0.1,0.2-0.3,1.1-0.3,3.1c0,0.5-0.1,0.5-0.1,0.7c0,0.3,0.1,0.7,0.1,1c0,0.1,0-0.1,0,0
		C5.9,210.8,6,214.2,6.1,213.7z M5,220.9c0-0.7,0.1-1.9-0.1-2.6c-0.1-0.5-0.1-2.3-0.1-3.7c0-2,0-3-0.2-2.7c0,1-0.1,2.4-0.1,4
		c0,1.8,0.1,4.1,0.2,5.5C4.9,222,5,221.5,5,220.9z M6.2,221.8c0,0-0.1,0.2-0.1,0.4c0,0.4,0,1.1,0,1.1c0.1-0.1,0.1,2.3,0.1,2.8
		c0.2,3.6,0.1,4.6,0,5.8c0,0.2,0,0.5-0.1,0.7c0,0.3,0,1,0.1,0.9c0.1-0.3,0.2,0.9,0.3,1.5c0,0.3,0.1-1.3,0.1-2.5c0-1.4,0-2.2-0.1-2.5
		c-0.1-0.3-0.1-2.7-0.1-2.9c0.1-0.3,0.1-1.9,0.1-3.9C6.4,220.7,6.4,222.2,6.2,221.8C6.3,221.7,6.3,221.8,6.2,221.8z M4.2,228.3
		c0-1.7,0.1-3.4,0.1-5.1c0-0.1-0.1-1-0.1-1.2C4.1,221.7,4,223,4,225C4.1,226.1,4.1,227.2,4.2,228.3z M4.2,235.6
		c0.1-0.9,0.2-1.6,0.4-2.3c0-0.1,0-0.4,0-0.6c-0.2-2.9,0-3.3,0-5.2c0-0.3-0.1-0.8-0.1-0.6c-0.1,0.9-0.1,2.6-0.2,3.1
		c0,0.3,0,3.2-0.2,0.5l-0.1,3C4.1,234.3,4.2,235,4.2,235.6z M6.3,243.6c0.1-2.4,0.1-3.5,0.2-5.5c0-0.1,0-0.9-0.1-1.2
		c-0.2-0.1-0.2,2.5-0.2,5.8c0,0.2,0,0.5,0,0.6C6.3,243.5,6.3,243.8,6.3,243.6z M5.3,258.8c0-0.2,0-0.4,0-0.6c0-0.4,0-1,0-1
		c-0.1,0.2-0.2-2-0.3-3c0-0.1,0,0.3,0,0.5c0,2,0.1,3.7,0.2,5.2C5.3,261.3,5.3,260,5.3,258.8z M8.1,293.4c-0.2,4.5-0.2,10-0.3,16.2
		c0,0.6,0.1,1.8,0.1,2.5c0,0.2,0.1-0.4,0.1-0.7c0-2.7,0-3.6,0.1-4.3c0.1-0.8-0.1-2.9,0-3.2c0.1-0.2,0.2-1.6,0.1-2.5
		c-0.1-6.4,0.1-3.8,0.2-2.7c0,0.2,0.1,0.1,0.1,0c0.1-0.1,0.1,0.6,0.1-1.7c0-2.7-0.1-1.3-0.1-1.7c0-0.3-0.1-1.2-0.1-1.9
		C8.2,292.2,8.1,292.4,8.1,293.4z M7.7,307.5c0-2.7-0.1-1.7-0.2-2.1c0,0.3-0.1,0.8-0.1,1.2l0.2,3.9C7.7,309.5,7.7,308.6,7.7,307.5z
		 M7.6,288.7c-0.1,0.7-0.3,1.3-0.4,1.9c0,0.4,0,1.3,0,2.6c0.1,0.2,0.2,0.4,0.2,0.5c-0.1-3.9,0.1-2.7,0.2-4
		C7.5,289.4,7.5,289,7.6,288.7z M6.7,284.1c-0.1-1-0.2,0.2-0.2,1.5c0,0.2,0,0.3,0,0.5l0,0.1l0,0c0,0.3,0.1,0.4,0.1,0.8
		c0.1,0.8,0.1,1.9,0.2,2.7c0,0.2,0-0.1,0.1-0.4C6.8,287.1,6.7,285.5,6.7,284.1z M7.8,274.6c0,3.5,0,4.4,0.2,7.4
		c0,0.8,0.1,1.7,0.1,2.3c0.1,0.6,0.1,3.2,0.2,1.9c0-0.3,0-0.7,0-1c0-1.5,0-3-0.1-4.6c0-0.9,0-1.9,0-2.9c0-0.6-0.1-0.9-0.1-0.7
		c-0.1,0.3-0.1-1.3-0.1-2.5C7.8,273,7.8,273.1,7.8,274.6z M6.4,275.2c0,0.3,0.1,0.5,0.1,0.1C6.5,275.3,6.5,275.3,6.4,275.2
		c0.1,0,0.1-0.1,0.1-0.2l0-0.1c0-0.3,0-0.6,0-1.1l-0.1-3.4c0-0.8,0-1.8,0-2.5c0-0.5-0.1-0.7-0.1-0.8c0,0,0,0.6,0,0.9
		C6.5,270.2,6.1,273.1,6.4,275.2z M5,291.4c0-0.6,0-1.3,0-2.3c0-0.1,0-0.2,0-0.2c0-0.9-0.1-1.6-0.1-2.6c0.1-0.2,0.1-0.5,0.2-0.9
		c0-0.5,0-1,0-1.6c-0.1-4.3,0.1-2.7,0.1-5c0-0.2,0,0,0.1,0c0,1.6,0,3.2,0,4.7c0.1,0.9,0.1,1.9,0.1,2.5c0,0.7-0.1,1.4-0.1,2
		c0,0.1,0,0.1,0,0.2c0,0.1,0,0,0.1,0c0-1.2,0-2.4,0.1-3.7c0-2.6,0.3-3.1,0-8.3c0-0.1,0.1-2.3,0.1-3.5c0-0.3,0-1.1,0-1.5
		c0-0.2,0-0.3-0.1-0.1c0,2.5-0.1,2.9-0.3,2.9c-0.1,0-0.1,1.2-0.2,2.5c0,0.8,0,2.7,0.1,4.1l-0.1,0c-0.1-1.7-0.1-4.4-0.2-1.9
		c0,0.7-0.1,1.2-0.1,1.9c0,1.5,0.1,2.5,0.1,3.3c0-0.5,0-1.1,0-1.5c0-0.9,0.1-1.4,0.1-2.2c0,0.6,0,0.9,0.1,1.2c0,0.5,0,1.5,0,1.6
		c-0.1,0.5-0.1,1.5-0.1,2.7c0,0.2,0,0.4,0,0.6c0,1.7,0,3.2,0,4.6C5,291.1,5,291.3,5,291.4z M5.9,313.5c0-2.1,0.2-2.1,0-5.7
		c0-0.8,0.1-2.7,0.2-1.3c0.1,0.9,0.1,2,0.2,2.9c0.1,1.5,0.2,1.3,0.2-0.9c0-1.9-0.1-4.1-0.1-6.2c-0.2,0.4-0.1-3.6-0.2-5.2
		c0-0.5,0-1.4-0.1-2.1c-0.1,0.2-0.1,0.5-0.2,0.7c0-0.4,0-0.8,0-1.2c0,0.1,0,0.2,0,0.3c0,1,0.1,2,0.1,2c0.2-0.1,0,4.3,0.2,4.5
		c0,0.8-0.1,1.6-0.1,2.2c0-0.1-0.1-1.3-0.1-2.1c-0.1-1.9-0.1-3.8-0.1-4.3c0-2.2,0-2.9,0-3.3c0-0.1,0-0.1,0-0.2c0-0.4,0-0.8,0-1.1
		c0-0.9,0-1.7,0.1-2.6c0-0.1,0-0.2-0.1-0.5c0-0.4,0-0.9-0.1-1.4l0,0.1c0,0.1,0,0.9,0.1,1.3l-0.2,5.4c0,2.1-0.1,4.1,0.1,6.6
		c0,0.6,0,0.9,0,1.3l0.1,5.8c0.2-0.1,0.1,1.4,0.1,2.4l0,0.1c0,0.1,0,0.3,0,0.4c0,0.6,0,1.4,0,1.5c0,0.5,0.1,1,0.1,1.6
		C5.8,316.2,5.9,316,5.9,313.5z M7.7,333c0-0.8,0.1-0.9,0.2-1.3c-0.1-0.6-0.2-0.7-0.2-1.8c-0.1-2.1-0.2,1-0.3-2.4c0-0.5,0-1-0.1-1.5
		c0,0.5,0,1,0,1.4c0,0.7,0,1.4,0,2.7c0,0.1,0,0.7,0.1,0.7c0.1-0.3,0.2,0.6,0.3,2.2C7.6,334,7.7,333.8,7.7,333z M8.6,345.6
		c0.1-0.6,0.1-2.8,0.1-4.4c0,0.2,0-0.2,0-0.4c-0.1-1-0.2-2-0.3-3.1c-0.1-0.9-0.1-1.9-0.1-3.5c0-1,0-2.4,0-3.7c0-1.6-0.1-3.1-0.1-4.7
		c-0.1,0.3,0,4.1-0.1,3.2c0,2.4-0.1,5.4,0,6.9c0.1,3,0.1,5.7,0.2,8.6c0,0.2,0,0.7,0,0.7C8.4,345.4,8.5,346.3,8.6,345.6z M7.5,365.8
		c0-0.3,0-0.5,0-0.9c0-0.9,0-1.9,0-2.8c-0.1-3-0.1-6.1-0.2-9.1c0-0.4-0.1-0.5-0.1-0.9c0,0.9,0,1.7,0,2.7c0,0.9,0.1,1.9,0.1,2.9
		l0.2,6.6C7.4,364.8,7.4,365.3,7.5,365.8z M8.3,379.1c0-0.7-0.1-1.8-0.1-2.8c0,1.3,0,2.7,0,3.9c0,1.2,0,2.3,0,3.6c0,0.6,0,2,0.1,2.1
		c0.1,0.4,0.2-0.4,0.3,2.9c0,1.5,0.2,3,0.3,3.5c0.2,1.1,0.2,3.1,0.2,5.9c0,1.1,0,2.7,0,3.9c0,0.5,0.1,0.8,0.1,0.8
		c0.1,0,0.1,1.3,0.1,2.8c0.1,3.6,0.1,1.7,0.1,0.7c0-0.4,0.1-0.1,0.1-0.1c0.1,0,0.1-0.7,0-1.7c-0.1-1.4,0-5.6-0.2-5.2
		c0-0.4,0-0.9,0-1.2c0.1-4.3,0.1-8.5,0.2-12.7c0-0.6,0.1-0.7,0.1-1c0-0.2,0-0.5,0-0.8c0-0.3-0.1-0.9-0.1-0.8
		c-0.2,0.6-0.3,1.3-0.5,2.1c0,0.1,0,1.5,0,2.2c0,1.2,0.1,2.3,0.1,3.5L9,391.4c-0.1,0.2-0.2-0.8-0.2-3c0-1.4-0.1-2.9-0.2-3.8
		c-0.1-0.7-0.1-0.6-0.2-0.9c0-1.5,0.1-2.7,0.2-2.7c0.1,0,0-3.7,0.1-5.3c0-0.1-0.1-1.2-0.1-1.2c-0.1,0.1-0.1-0.1-0.2,0.6
		c0,0.9,0,2.7-0.1,3.9C8.4,379.4,8.4,379.5,8.3,379.1z M7.8,387.8c0-2.1,0-2.8,0-3.6c0-1-0.1-2.1-0.1-3.1l0-4.5c0,1-0.1,2-0.1,3.1
		C7.7,381.8,7.7,384.1,7.8,387.8z M7.6,415.9c0-0.4,0-0.9,0-1.1c0.1-1.2,0.1-3.2,0-5.9c0-0.4,0-1,0-1.5c0-0.5,0-0.9,0-0.9
		c-0.1-0.1-0.1,0.4-0.1,0.9c0,1.7,0,2.8-0.1,2.2c0-0.2-0.1-1.7-0.1-2.7c0-1.4,0-2.8-0.1-4.2c0-0.5,0-1.3,0-1.3c0,0,0.1,0.6,0.1,1.2
		c0,0.6,0,1.3,0.1,2c0-0.7,0-1.5,0-2.2c-0.1-3.2,0-2.5,0.1-1.5c0-0.1,0-1.1,0.1-1.7c0-0.4-0.1-1.4-0.1-1.2c-0.1,1-0.2-3.9-0.3-0.7
		c0,1.4-0.1-0.9-0.1-1.6c0-0.8-0.1-3.1,0-2.1c0,0.2,0.1,0.1,0.1,0.1c0-0.6,0-1.6,0-1.6c-0.2-0.8-0.2-2.1-0.1-4.3c0-0.2,0-1.5,0-1.6
		c-0.2-1.3-0.3,0.4-0.2,3.9c0,0.8,0,1.9,0,2.5c0.3,5.5,0.1,7.9,0,10.3c0,0.4,0,0.9-0.1,1.5c0.1-1.4,0.2-1.4,0.3,1.5
		c0.1,2.4,0,3.1,0.2,4.6c0.1,1.6,0.3,0.1,0.3,4.4C7.6,415.2,7.6,415.5,7.6,415.9z M8.2,416.3c0-0.1,0-1,0.1-2.1
		c-0.1-1.6-0.1-3-0.2-4.5l-0.1,4.1C8,414.6,8.1,415.5,8.2,416.3z M9.2,421.6c0,0.4,0,1.6,0,2.1c0.1,1.8,0.1-0.2,0.1-0.4
		c0.1-0.9,0.1-5.2,0.2-6.4c0.1-0.9,0.2-1.6,0.1-4.4c0-3.4-0.1-2.1-0.1-1.5c-0.2,1.1-0.3-1.9-0.4-4.9c0-0.7-0.1-1.1-0.1-1.6
		c0,0.9,0,1.9,0,2.7c0,1.5,0.1,3.1,0.1,4.3c0,0.9,0.1,1.1,0.2,2C9.2,416.6,9.3,419.5,9.2,421.6z M8.1,430.4c0,0.4,0.1,0.4,0.1,0.3
		c0-0.2,0-0.7,0-1.5c0-0.4,0-0.9-0.1-1.3c-0.1-2-0.2-3.3-0.3-6.6c0-2.2-0.1-1.5-0.2-1.5c-0.1,0-0.1,1.6,0,2.6
		C7.8,425.1,8,427.8,8.1,430.4z M7.9,433.4c0-1.6,0-3.3-0.1-5c0-0.2,0-0.2,0-0.4c0,0.3-0.1,0.5-0.1,1c0,0.7,0,2.2,0,2.4
		c-0.2,0.4,0,1.7,0,2.6C7.8,435.7,7.9,434.6,7.9,433.4z M8.4,442.8c0-1.1,0-2.2,0-3.5c0-0.1-0.1-1.2-0.1-1.1
		c-0.1,0.3-0.1-1.5-0.2-2.4c0-0.3,0-0.6-0.1-0.9c0,0.2,0,0.4,0,0.6c0,0.5,0,1.1,0,1.6c0.1,2.9,0.3,1.4,0.3,5.2
		C8.3,442.6,8.4,442.9,8.4,442.8z M9.3,446.5c0-0.1,0-1.1,0-1.7c0-2.4,0-3.7,0.1-3.3c0.3,0.9,0.5-0.6,0.7-3.4c0-0.7,0.1-1.8,0.1-3
		c-0.1-1.1-0.1-2.1-0.1-2.6c-0.2-2.3-0.4-3.4-0.6-4.3c-0.1-0.4-0.1-0.1,0,2.1c0.1,1.6,0.1,4.6,0,6.4c0,1.5-0.1,3-0.2,3
		c-0.1,0-0.2,1.7-0.2,3.2c0,0.4,0,1.6,0,1.7C9.2,445.3,9.3,445.9,9.3,446.5z M9.3,470.3c0-0.3,0,2.5-0.1,0.4c0,0-0.1,0.4,0,0.7
		c0,1.1,0,2.2,0,3.3c0,2,0,2.2-0.1,2.2c0,0,0,0.1,0,0.2c0.1,3.2,0.2,3.4,0.2,2.8c0-1.8,0.1-3.7,0.1-5.8C9.4,473,9.3,471.4,9.3,470.3
		z M9,476.8C9,477,9,476.9,9,476.8c-0.4-11.2-0.5-10.7-0.5-9.9c0,0.4,0,1.3,0,1.7C8.7,471.2,8.9,473.3,9,476.8z"/>
</g>
</svg>
